<?xml version="1.0" encoding="UTF-8"?>
<svg id="Layer_1" data-name="Layer 1" xmlns="http://www.w3.org/2000/svg" viewBox="0 0 1080 1080">
  <defs>
    <style>
      .cls-1 {
        stroke: #000;
        stroke-miterlimit: 10;
      }
    </style>
  </defs>
  <path class="cls-1" d="m841.56,358.86c5.51.54,5.86-3.08,5.65-7.05-.79-14.92,1.54-29.91-1.38-44.83-.79-4.05.4-8.68,1.45-12.85,4.18-16.72-.62-33.33-.3-49.98-1.4.07-2.8.13-4.2.19,1.87,15.14-3.8,28.61-10.24,41.59-5.84,11.78-6.71,22.5-1.63,35.22,4.79,11.99,11.86,23.85,10.66,37.71Z"/>
  <path class="cls-1" d="m842.78,244.34c1.4-.06,2.8-.13,4.2-.19-8.88-18.09-.09-36.74-1.76-55.06-1.51.04-3.01.07-4.52.11-.36.45-.56.96-.6,1.54-.54.95-1.09,1.89-1.64,2.83-2.81,8.13-6.21,16.12-8.29,24.43-2.97,11.85.13,21.49,12.61,26.34Z"/>
  <g>
    <path class="cls-1" d="m1443.06,1051.77c20.45-.06,40.63-8.31,61.27-2.09,7.53,2.27,15.23,2.22,22.94,2.3,156.91-.04,313.81-.08,470.72-.1,108.38-.02,216.75-.06,325.13.04,14.4.01,28.57-1.45,42.64-4.26,4.63-.92,11.29-1.32,10.9-6.97-.51-7.22-7.63-6.41-13.16-6.41-65.35-.02-130.69-.03-196.04-.05-7.38,0-14.77-.05-22.15-.07-2.21,0-4.43,0-6.64,0-22.96-1.39-45.75,2.44-68.68,2.18-6.64,0-13.28-.02-19.93-.03-120.56-3.99-241.16-1.31-361.73-2.02-35.23-.21-70.46,0-105.69,0-27.94-1.23-55.89,4.07-83.84-.08-2.79,9.69-8.79,10.45-17.12,6.65-5.24-2.39-1.33-8.47-5.34-11.04-2.56,4.1-5.07,8.31-11.12,6.49-189.03-3.18-378.06-3.55-567.09.01-11.14-.69-22.52,2.25-33.43-2.12-2.81,3.51-3.48,7.79-4.28,12.01,10,3.82,20.34,5.77,31.06,5.69,183.86-.04,367.71-.08,551.57-.12Z"/>
    <path class="cls-1" d="m868.56,395.09c-4.67-10.8-10.51-21.22-10.01-33.53-.1-23.01-.19-46.01-.28-69.02-.02-4.37-.47-8.81,2.17-12.73-.48-10.23,1.03-20.58-1.68-30.69-.78-5.39-1.35-10.84-2.07-16.22-1.69-12.55-.81-25.17,4.26-37.12-.14-12.38-.41-24.75-.36-37.13.02-4.9,1.06-78-3-81.44-2.15-.38-4.29-.76-6.44-1.14-1.7,14.82.61,98.71-5.94,113.02,1.67,18.32-7.13,36.97,1.75,55.06-.32,16.66,4.48,33.26.3,49.98-1.04,4.17-2.24,8.8-1.45,12.85,2.92,14.93.59,29.91,1.38,44.83.21,3.97-.14,7.59-5.65,7.05-.31,2.28-.63,4.55-.94,6.83,1.39,5.81,2.46,11.64,1.2,17.62-.07,14.73,2.4,29.56-1.63,44.14.02,13.25.03,26.49.05,39.74,0,81.63,0,163.26,0,244.9.06,107.38.13,214.76.19,322.14,2.98,3.74,5.96,7.49,8.94,11.23,3.69.25,7.37.49,11.06.74.8-4.23,1.47-8.5,4.28-12.01.57-32.63,1.53-65.28,1.8-97.89.98-117.13.73-234.27.51-351.4-.09-48.78-1.26-97.56-1.94-146.34-.09-8.77-.38-17.55-.18-26.32l3.65-17.16"/>
    <path class="cls-1" d="m849.38,1045.46c-2.98-3.74-5.96-7.49-8.94-11.23-24.69,0-49.38-.27-74.07.08-25.35.37-50.71,2.38-76.01,1.68-15.43-.43-30.43-1.32-44.93,4.86.84,2.18,1.68,4.37,2.52,6.55,4.38.78,8.77,1.55,13.15,2.33,11.08.04,22.16.08,33.23.12,25.76,3.61,51.69,1.33,77.53,2.1,22.21-1.06,44.54,1.88,66.68-2.17,4.03-.74,7.93-1.09,10.83-4.33Z"/>
    <path class="cls-1" d="m694.34,1049.86c-11.08-.04-22.16-.08-33.23-.12-.16,10.08,5.59,13.14,14.1,10.15,6.73-2.36,17.37,1.86,19.13-10.04Z"/>
    <path class="cls-1" d="m647.95,1047.41c-.84-2.18-1.68-4.37-2.52-6.55-2.29.36-4.44,1.15-3.73,3.98.84,3.35,3.88,2.37,6.25,2.57Z"/>
    <path class="cls-1" d="m880.47,438.6s-.17-.12-.17-.12c-2.2-11-4.4-22.01-6.6-33.01.58-4.57-3.59-6.83-5.13-10.39-4.67-10.8-10.51-21.22-10.01-33.53,3.06-.28,7.24-.18,7.42,3.05.85,14.83,13.36,24.03,17.31,37.34,6.8,22.91,16.09,44.8,29.05,65.02.99,1.54,1.46,3.82,2.84,4.65,18.18,10.97,30.69,28.8,48.76,39.87,4.67,2.86,4.7-.39,4.99-3.6.38-4.17-3.11-5.43-5.47-7.59-15.73-14.39-26.44-31.74-32.54-52.24-4.23-14.22-15.87-26.04-16.28-41.33-.4-14.95-6.28-25.17-18.22-33.81-5.2-3.76-4.42-11.1.23-16.62,14.73,11.38,27.37,23.93,28.58,44.19.67,11.19,5.42,21.53,10.98,30.94,10.84,18.37,15.52,39.72,28.9,56.87,6.42,8.23,13.68,15.71,21.94,21.43,20.62,14.26,27.31,35.4,30.36,57.99,2.3,16.99,2.89,33.51,23.09,40.12,5.95,1.95,4.6,7.41,1.98,11.87-3.17,5.39-5.91,10.83-4.42,17.37-.21,5.86-.42,11.72-.63,17.58-3.33,5.52-4.96,12.06-10.13,16.55-2.83-1.66-5.47-3.71-5.14-7.51.68-7.88-2.73-15.03-3.78-22.57-5.75-41.04-29.14-73.42-53.55-104.64-16.34-20.9-36.48-38.81-54.34-58.57-10.46-11.57-22.4-22.2-28.38-37.23.26-1.33-.35-1.98-1.65-2.08Zm106.53,87.63c-3.17-2.26-6.79-5.49-10.94-2.5-4.6,3.32-1.57,7.33.25,10.75,2.92,5.48,5.38,11.61,9.64,15.87,4.09,4.09,8.05,8.18,11.97,14.78,4.52-18.48.87-30.5-10.92-38.9Z"/>
  </g>
  <path class="cls-1" d="m858.56,361.55c3.06-.28,7.24-.18,7.42,3.05.85,14.83,13.36,24.03,17.31,37.34,6.8,22.91,16.09,44.8,29.05,65.02.99,1.54,1.46,3.82,2.84,4.65,18.18,10.97,30.69,28.8,48.76,39.87,4.67,2.86,4.7-.39,4.99-3.6.38-4.17-3.11-5.43-5.47-7.59-15.73-14.39-26.44-31.74-32.54-52.24-4.23-14.22-15.87-26.04-16.28-41.33-.4-14.95-6.28-25.17-18.22-33.81-5.2-3.76-4.42-11.1.23-16.62-2.78-4.57-2.98-9.62-3.16-14.81-.47-13.54-.76-27.13-.68-40.61.15-24.78-9.06-47.84-10.96-72.12-1.86.69-3.72,1.39-5.59,2.08,0,0-.28.25-.28.25-3.24,13.06.91,25.06,5.23,37.08.85,2.36,1.5,5.03,1.29,7.48-2.02,23.93-4.21,47.85-6.45,71.76-.25,2.63.83,6.71-3.67,6.59-3.59-.09-4.33-3.73-4.9-6.47-.58-2.83-.33-5.84-.36-8.77-.16-19.79-.3-39.59-.45-59.38-2.08.15-4.17.29-6.25.44-2.64,3.92-2.19,8.36-2.17,12.73.09,23.01.19,46.01.28,69.02Z"/>
  <path class="cls-1" d="m876.28,230.83c1.86-.69,3.72-1.39,5.59-2.08,2.08-2.48,3.08-5.39,3.4-8.56.78-8.91,4.48-15.94,12.91-19.94,2.46-3.91,3.95-7.76.43-11.98-3.65-4.37-8.91-4.67-13.08-3.06-9.01,3.49-10.66,0-12.68-8.24-6.84-27.81-11.07-55.52-4.22-83.91-1.59-3.55-2.55-7.76-7.8-7.56-2.73,9.31-3.01,18.89-3.2,28.48.78,10.63.71,21.23-1.31,31.74,4.06,3.44,4.31,8.01,4.29,12.91-.06,12.37.22,24.75.35,37.13,11.42,8.95,10.75,23.14,15.32,35.06Z"/>
  <path class="cls-1" d="m876.28,230.83c-4.58-11.92-3.9-26.11-15.33-35.06-5.07,11.96-5.94,24.57-4.26,37.12.72,5.39,1.29,10.83,2.06,16.22,2.72-.07,5.44-.14,8.17-.21,2.16-6.38-5.14-17.53,9.07-17.82l.28-.25Z"/>
  <path class="cls-1" d="m866.92,248.9c-2.72.07-5.45.14-8.17.21,2.71,10.12,1.21,20.46,1.68,30.69,2.08-.14,4.17-.29,6.26-.43.08-10.15.15-20.31.22-30.47Z"/>
  <path class="cls-1" d="m882.12,440.69c.26-1.33-.35-1.98-1.65-2.08.55.7,1.1,1.39,1.65,2.08Z"/>
  <path class="cls-1" d="m997.92,565.14c4.52-18.48.87-30.5-10.92-38.9-3.17-2.26-6.79-5.49-10.94-2.5-4.6,3.32-1.57,7.33.25,10.75,2.92,5.48,5.38,11.61,9.64,15.87,4.09,4.09,8.05,8.18,11.97,14.78Z"/>
  <path class="cls-1" d="m866.92,248.9c-.07,10.16-.15,20.31-.22,30.47.14,19.79.28,39.59.44,59.38.02,2.93-.23,5.94.36,8.77.57,2.75,1.31,6.38,4.9,6.47,4.5.12,3.43-3.96,3.67-6.59,2.24-23.91,4.43-47.83,6.45-71.76.21-2.45-.45-5.12-1.29-7.48-4.32-12.02-8.47-24.02-5.23-37.08-14.21.29-6.92,11.44-9.07,17.82Z"/>
</svg>