<?xml version="1.0" encoding="UTF-8"?>
<svg id="Layer_1" data-name="Layer 1" xmlns="http://www.w3.org/2000/svg" viewBox="0 0 1080 1080">
  <defs>
    <style>
      .cls-1 {
        stroke: #000;
        stroke-miterlimit: 10;
      }
    </style>
  </defs>
  <path d="m574.02,414.11c2.48,5.85,4.09,11.78-.81,17.15-7.86,8.63-15.77,17.21-23.94,25.54-5,5.1-9.72,4.77-12.15-2.53-5.01-15.05-14.09-28-21.43-41.84-2.12-10.74,10.52-17.98,6.96-29.06,2.88-3.28,6.76-1.84,10.26-2.14,4.52-.39,9.99,1.2,11.62-5.26,1.73-6.83-2.51-10.13-8.03-12.13-5.56-2.01-8.26-5.53-7.6-11.45,7.28-4.33,12.79-1.53,16.87,4.72,3.59,5.5,7.32,11.14,9.58,17.23,2.7,7.26,7.48,11.25,14.7,10.83,7.46-.43,8.6-7.56,9.67-13.08,1.86-9.66-.82-19.71,2.36-29.46,1.37-4.19-2.01-5.7-5.9-5.68-7.37.04-14.74.11-22.11.01-2.78-.04-6.55.66-6.47-3.8.07-3.63,3.07-4.33,6.16-5,6.36-1.38,13.14-1.07,18.95-4.7,6.8-4.26,9.85-9.4,5.41-17.35-2.84-5.09-4.86-10.64-7.25-15.98,6.02-13.98,9.98-27.41-2.31-40.87-4.58-5.01-.68-10.21,5.41-12.71,6.53-2.68,12.67-5.87,16.06-12.55,3.37-4.29,6.75-8.58,10.13-12.86,6.96-1.87,13.81-5.39,22.95-1.98-9.72,5.56-13.36,13.24-16.45,21.72-5.89,16.16-8.63,33.08-12.49,49.69-2.36,10.15-2.09,20.88,5.86,30,5.48,6.29,2.99,16.24-4.32,21.99-2.19-2.98-4.19-1.74-5.5.62-1.52,2.73.69,3.44,2.82,3.92-.6,7.51-.07,15.34-2.07,22.45-3.17,11.25.73,25.54-12.94,32.68-12.69-.97-7.83,7.17-6.93,13.25l2.93,8.61Zm-35.92-19.79c-3.82,4.26-2.9,12.92,2.86,16.45,5.49,3.36,11.82,5.52,18,7.54,3.37,1.1,6.71-.36,7.5-4.34.7-3.5-1.52-5.96-4.74-5.95-5.35.02-7.27-4.13-10.3-7.03-2.2-11.43-5.05-12.86-13.33-6.67Z"/>
  <path class="cls-1" d="m489.11,281.91c-3.21-6.92-2.01-16.25-11.02-20-19.21,34.29-29.24,69.7-13.29,108.28,4.98-3.31,7.83-.62,10.86,3.29,5.36,6.91,10.83,13.8,16.87,20.12,10.43,10.9,21.9,8.01,25.71-6.24.68-2.56,1.93-3.76,4.41-3.98,2.88-3.28,6.76-1.84,10.26-2.14,4.52-.39,9.99,1.2,11.62-5.26,1.73-6.83-2.51-10.13-8.03-12.13-5.56-2.01-8.26-5.53-7.59-11.45-3.38-11.62-.53-18.14,9.26-23.61,5.58-3.12,11.49-4.4,17.57-4.97,9.6-.91,13.09-5.26,9.58-14.57-.62-1.65-.49-3.57-.71-5.37-3.22.49-6.03-.69-8.78-2.12-1.23,11.01-8.73,11.97-17.53,10.84-8.41-1.14-13.84,1.89-15.24,10.69-.61,3.82-2.24,6.81-6.59,7.34-3.11,9.26-.08,20.09-7.29,28.31-.45,4.65-2.13,8.79-4.55,12.61-1.11,1.76-3.01,2.87-5.08,2.99l-1.19.07c-4.3-.32-6.45-2.77-6.93-6.89v-6.21c2.13-11.29-2.62-22.18-1.96-33.38-.14-2.86-.28-5.72-.42-8.58"/>
  <path d="m564.62,303.87c.22,1.8.09,3.72.71,5.37,3.51,9.31.02,13.66-9.58,14.57-6.09.58-11.99,1.85-17.57,4.97-9.78,5.47-12.64,11.99-9.26,23.61,7.28-4.33,12.79-1.53,16.87,4.72,3.59,5.5,7.32,11.14,9.58,17.23,2.7,7.26,7.48,11.25,14.7,10.83,7.46-.43,8.6-7.56,9.67-13.08,1.86-9.66-.82-19.71,2.36-29.46,1.37-4.19-2.01-5.7-5.9-5.68-7.37.04-14.74.11-22.11.01-2.78-.04-6.55.66-6.47-3.8.07-3.63,3.07-4.33,6.16-5,6.36-1.38,13.14-1.07,18.95-4.7,6.8-4.26,9.85-9.4,5.41-17.35-2.84-5.09-4.86-10.64-7.25-15.98-.76.86-1.52,1.71-2.28,2.57.77,4.46-3.93,6.99-3.98,11.16Z"/>
  <path d="m478.09,261.91c9,3.75,7.8,13.08,11.02,20,6.57-4.64,14.57-.12,15.86,9.1.55,3.9-1.11,8.38,2.27,11.52,8.32,7.72,9.61,17.6,9.25,28.09,4.35-.53,5.98-3.52,6.59-7.34,1.4-8.8,6.84-11.83,15.24-10.69-.77-3.93-2.34-7.9-2.15-11.78.66-13.86-5.03-25.63-11.71-37.01-6.36-10.83-10.94-11.78-23.76-7.67-5.51,1.77-12.14,4.96-15.93-3.29-3.5,2.1-6.07,4.87-6.66,9.08Z"/>
  <path d="m484.75,252.83c3.79,8.25,10.42,5.06,15.93,3.29,12.82-4.11,17.4-3.16,23.76,7.67,6.69,11.38,12.37,23.15,11.71,37.01-.18,3.89,1.39,7.86,2.15,11.78,8.8,1.13,16.3.17,17.53-10.84-.17-.67-.35-1.33-.53-2-4.21-.68-4.08-3.77-3.87-6.9-1.3-3.7-4.52-6.67-4.17-10.99-2.49-1.57-2.06-4.27-2.58-6.6-5.32-2.84-7.7-7.6-8.68-13.26-2.77-4.17-5.52-8.34-8.3-12.5-11.52-17.17-33.65-13.89-42.96,3.34Z"/>
  <path d="m522.66,383.37c-2.48.22-3.73,1.42-4.41,3.98-3.8,14.25-15.28,17.14-25.71,6.24-6.04-6.32-11.51-13.2-16.87-20.12-3.03-3.91-5.89-6.59-10.86-3.29,3.72,9.94,7.6,19.8,13.95,28.46,7.25,2.66,11.89,8.04,15.32,14.66,3.55.06,7.11.11,10.66.17.84-2.72,1.91-4.71,4.64-1.46,2.11.14,4.22.27,6.32.41-2.12-10.74,10.52-17.98,6.96-29.06Z"/>
  <path d="m555.31,299.74c.18.67.35,1.33.53,2,2.75,1.43,5.56,2.61,8.78,2.12.05-4.17,4.75-6.7,3.98-11.16-6.63.98-12.21-.18-15.31-6.98-1.12-2.46-3.23-3.8-6.02-3.88-.35,4.32,2.87,7.3,4.17,11,2.66,1.54,4.74,3.4,3.87,6.9Z"/>
  <path class="cls-1" d="m493.94,413.06c-3.38-6.42-7.91-11.65-14.91-14.31-.11-.04-.22.07-.18.18,2.66,7.19,6.86,12.77,14.94,14.33.11.02.2-.1.15-.2Z"/>
  <path d="m536.01,261.99c.98,5.66,3.36,10.42,8.68,13.26.2-6.43-2.65-10.88-8.68-13.26Z"/>
  <path d="m595.72,332.57c-2.19-2.98-4.19-1.74-5.5.62-1.52,2.73.69,3.44,2.82,3.92.89-1.51,1.79-3.03,2.68-4.54Z"/>
  <path d="m509.37,412.02c-2.73-3.25-3.81-1.26-4.64,1.46,1.91.67,3.54.42,4.64-1.46Z"/>
  <path d="m538.1,394.31c-3.82,4.26-2.9,12.92,2.86,16.45,5.49,3.36,11.82,5.52,18,7.54,3.37,1.1,6.71-.36,7.5-4.34.7-3.5-1.52-5.96-4.74-5.95-5.35.02-7.27-4.13-10.3-7.03-7.7,4.24-11.51.77-13.33-6.67Z"/>
  <path d="m538.1,394.31c1.81,7.43,5.62,10.91,13.33,6.67-2.2-11.43-5.05-12.86-13.33-6.67Z"/>
  <path d="m516.48,330.61c.36-10.48-.93-20.36-9.25-28.09-3.38-3.14-1.72-7.62-2.27-11.52-1.29-9.21-9.28-13.74-15.86-9.1-.06,5.79-.11,11.58-.16,17.37.04,6.76.08,13.51.11,20.26.14,2.86.28,5.72.42,8.58,7.49,6.48,13.55,14.13,12.42,24.44-.5,4.57-6.99,10.15-2.22,13.55,5.59,3.99,3.78-7.78,9.51-7.18,7.21-8.22,4.18-19.05,7.29-28.31Z"/>
  <path d="m555.31,299.74c.87-3.5-1.21-5.37-3.87-6.9-.21,3.14-.34,6.23,3.87,6.9Z"/>
  <line class="cls-1" x1="489.11" y1="281.91" x2="489.06" y2="319.54"/>
</svg>