<?xml version="1.0" encoding="UTF-8"?>
<svg xmlns="http://www.w3.org/2000/svg" viewBox="0 0 1080 1080">
  <g id="Layer_1" data-name="Layer 1">
    <path d="m376.6,480.74-.01,8.13,40.85-96.92c4.62-5.58,8.06-11.66,8.81-19.19.76-7.66-1.9-11.56-8.48-15.24-8.18-4.58-15.2-2.34-22.42,1.73-1.81,1.02-3.22,2.24-2.78,4.56.47,2.47,2.52,2.21,4.23,2.13,2.48-.11,4.95-.52,7.43-.71,2.98-.23,5.09.59,4.21,4.28-.97,4.06.81,5.98,4.6,6.35,3.16.3,4.03,2.16,4.14,5.18.17,5.01-1.23,9.48-3.67,13.68-2.56,4.41-6.85,4.92-11.18,4.5-2.88-.28-5.7-1.34-8.5-2.23-4.36-1.39-5.59-.85-5.69,3.62-.18,7.94-.48,15.93.11,23.83,1.07,14.41.78,28.74-.89,43.05-.68,5.81.05,9.06,5.68,9.14l6.43,2.04c.89.28,1.48,1.14,1.44,2.07h0c-.12,2.34-2.06,4.17-4.4,4.16h-5.49c-1.04,0-2.07-.12-3.09-.34l-5.24-1.15c-3.69-.81-6.55-3.74-7.26-7.46l-1.09-5.66c-.38-17.37-.15-34.77-3.43-51.94-2.08-10.91-2.29-22.03-3.4-33.05-.81-8.04-1.84-16.06-2.73-24.09-.27-2.4-1.35-4.21-3.41-5.55-.75-.49-1.5-1-2.2-1.56-7.83-6.39-9.29-9.39-6.39-17.32.97-2.65,1.5-5.46,1.53-8.28.18-15.15-.45-30.31.78-45.46,1.02-12.45-2.05-24.72-1.83-37.21.23-12.84,3.32-25.23,4.22-37.93.55-7.77,1.52-15.51,1.37-23.32-.35-19.37,1.06-38.61,3.31-57.84,1.34-11.38-.46-22.74-1.83-34.04-.63-5.2-1.27-10.38-1.35-15.64-.1-6.31,2.01-11.7,5.53-16.69,1.55-2.2,2.96-1.97,3.73.43.81,2.55,1.49,5.23,1.67,7.89.52,7.74,4.17,13.46,10.03,18.16,5.74,4.61,5.87,7.35.86,12.92-1.69,1.88-1.95,3.74-1.7,6.13,1.31,12.65,3.29,25.21,4.25,37.93,1.08,14.33.18,28.45-1.57,42.58-.95,7.63-.98,15.27-.53,22.89.66,11.21,1.66,22.39,2.51,33.59.36,4.71,2.11,8.39,6.03,11.38,6.68,5.1,7.62,9.16,5,17.3-1.01,3.13-1.87,6.38-3.36,9.27-3.42,6.59-3.17,13.21-1.04,20.03,2.46,7.85,5,15.69,6.39,23.83.52,3.02,1.79,3.76,4.54,2.76,6.53-2.39,12.89-2.05,19.17,1.18,9.32,4.8,11.91,14.59,5.86,23.18-1.46,2.07-2.63,3.79-.79,6.38,6.1,8.57,4.67,17.55.73,26.39-.89,1.99-4.21,6.04-6.77,9.09-1.66,1.98-4.02,3.24-6.59,3.53-1.98.23-4.11.44-4.97.44l3.98-3.87s1.15.63,3.66-.52l1.86-1.31Zm-46.99,95.58-14.04-241.11c.44,8.16.58,14.16,1.13,20.12.42,4.53,1.96,8.74,4.97,12.27,6.2,7.27,16.79,5.73,20.57-3.1,2.05-4.78,2.54-9.77,1.54-14.95-1.82-9.52-5.19-18.73-5.22-28.62-.02-4.48-.6-8.96-.8-13.44-.45-9.69-1.66-19.28-.68-29.11,1.27-12.78,4.05-25.53,2.78-38.45-1.37-13.99-1.94-28.08-4.57-41.93-.89-4.7-.68-9.2,3.25-12.82,2.56-2.37,1.83-5.01-.77-6.8-7.64-5.26-11.45-12.57-11.8-21.89-.04-1.07-.23-2.4-1.33-2.58-1.73-.29-1.47,1.47-1.8,2.5-2.56,7.97-1.35,16.06-.27,24.03,1.39,10.25,3,20.5,2.16,30.82-1.71,20.89-3.75,41.73-2.97,62.75.35,9.44-1.02,18.79-2.34,28.15-1.64,11.69-2.76,23.46-3.86,33.06Zm21.01,205.44c-.06,9.22-.16,15.8.52,22.37.35,3.38,1.81,5.9,4.96,6.64,4.26,1,8.65,1.45,12.99,2.08.87.12,1.89.01,2.21-1.02.4-1.27-.51-2.08-1.48-2.37-2.09-.64-4.26-1.04-6.39-1.53-5.64-1.31-6.65-2.34-6.23-8.27.88-12.25,1.33-24.49,1.11-36.77-.24-13.59-2.08-27.22.74-40.75,2.15-10.29,3.2-20.68,2.74-31.21-.12-2.85-.21-5.7-1.1-8.43-1.75-5.35-7.14-9.23-11.61-8.41-5.89,1.08-8.14,4.17-8.05,11.26.03,2.39.23,4.78.47,7.16.99,9.82,1.97,19.63,3.07,29.44.99,8.76.99,17.61,2.58,26.34,2.17,11.92,4.28,23.88,3.46,33.48Zm22.05-82.62q-7.64.25-7.94,7.59c-.06,1.34-.18,2.68-.41,4-2.12,12.07-1.74,12.63,10.19,14.62,1.15.19,2.33.31,3.49.3,4.8-.03,7.3-3.65,8.8-11.49.97-5.06-2.51-5.19-5.53-6.16-2.07-.66-4.95-1.22-4.27-4.1,1.17-4.93-.98-5.49-4.33-4.76Zm13.26-26.49c3.85-.83,7.24.72,8.76,5.91.63,2.16,1.95,2.01,3,.13,2-3.56,2.77-7.1.53-11-3.95-6.86-12.22-9.72-21.66-7.11-1.97.54-4.65.37-4.66,3.67-.02,2.93.98,5.21,3.62,6.64,2.95,1.6,6.09,2.02,10.41,1.77Zm-9.58,2.52c-1.06-.29-2.15-.35-2.62.86-.65,1.69-.96,3.48-.08,5.19.59,1.13,1.66,1.03,2.7.74,4.08-1.14,8.04-1.18,11.91.93,1.17.64,2.69,2.08,3.86.34.93-1.38-.11-2.86-.98-4.07-1.09-1.52-2.53-2.51-4.42-2.54-3.52-.05-6.99-.4-10.37-1.46Z"/>
  </g>
  <g id="Layer_2" data-name="Layer 2">
    <path d="m400.25,480.29c-.2-.25-.42-.49-.66-.72-1.45-1.37-3.19-2.16-5.03-2.55-1.86-.39-3.8-.61-5.69-.55-1.78.06-3.64.35-5.18,1.42-.7.48-1.3,1.11-1.81,1.84-.16.23-.32.47-.46.73,0,1.12,0,2.25,0,3.64l.02,96.4s-.01,49.19-.02,73.79v16.97c.04,9.13.03,18.27.03,27.4h-.03l-.02,106.45.07,82.69.06,22.13c-.25,5.63.06,183.01-.69,188.63-.27,2.04,1.02,3.01,4.79,2.81,2.26-.12,4.54-.04,6.82-.05,8.45-.02,7.81.36,7.81-4.45,0-151.71,0-427.83,0-616.57Z"/>
    <path d="m691.15,603.92c-.44-.39-.92-.74-1.44-1.01-1.82-.94-3.93-1.28-5.89-1.43-2.09-.15-4.22-.03-6.26.54-1.73.48-3.55,1.33-4.8,2.91,0,.66,0,1.32,0,1.97l.02,77.86s-.01,39.73-.02,59.6v13.7c.04,7.38.03,14.75.03,22.13h-.03l-.02,85.98.06,66.78.06,17.87c-.24,4.55.06,147.81-.67,152.35-.27,1.64,1,2.43,4.68,2.27,2.2-.1,4.44-.04,6.66-.04,8.25-.02,7.63.29,7.63-3.59,0-122.51,0-345.46,0-497.9Z"/>
  </g>
</svg>