<?xml version="1.0" encoding="UTF-8"?>
<svg id="Layer_1" data-name="Layer 1" xmlns="http://www.w3.org/2000/svg" viewBox="0 0 1080 1080">
  <defs>
    <style>
      .cls-1 {
        stroke: #000;
        stroke-miterlimit: 10;
      }
    </style>
  </defs>
  <path d="m-716.94,1051.77c20.45-.06,40.63-8.31,61.27-2.09,7.53,2.27,15.23,2.22,22.94,2.3,156.91-.04,313.81-.08,470.72-.1,108.38-.02,216.75-.06,325.13.04,14.4.01,28.57-1.45,42.64-4.26,4.63-.92,11.29-1.32,10.9-6.97-.51-7.22-7.63-6.41-13.16-6.41-65.35-.02-130.69-.03-196.04-.05-7.38,0-14.77-.05-22.15-.07-2.21,0-4.43,0-6.64,0-22.96-1.39-45.75,2.44-68.68,2.18-6.64,0-13.28-.02-19.93-.03-120.56-3.99-241.16-1.31-361.73-2.02-35.23-.21-70.46,0-105.69,0-27.94-1.23-55.89,4.07-83.84-.08-2.79,9.69-8.79,10.45-17.12,6.65-5.24-2.39-1.33-8.47-5.34-11.04-2.56,4.1-5.07,8.31-11.12,6.49-189.03-3.18-378.06-3.55-567.09.01-11.14-.69-22.52,2.25-33.43-2.12-2.81,3.51-3.48,7.79-4.28,12.01,10,3.82,20.34,5.77,31.06,5.69,183.86-.04,367.71-.08,551.57-.12Z"/>
  <g>
    <path d="m668.35,253.6c-7.91,2.03-15.62-.75-23.42-1.18-1.77-.1-4.78-2.25-4.9-3.67-.85-9.61-7.44-9.53-14.28-8.83-8.09.83-6.9,8.08-8.69,13.21-.23.67-.18,1.43-.26,2.16-5.51.27-11.05.29-16.52.91-2.84.32-6.1,2.49-7.14-1.9-1.03-4.35,1.27-7.66,5.74-7.46,9.13.41,12.89-6.37,16.98-12.2,2.25-3.19,2.77-8.19-.49-11.26-2.76-2.6-5.9.27-9.02,1.34-6.66,2.28-11.11,6.99-15.72,11.69-3.19,3.26-6.79,4.61-10.89,2.15-2.96-1.77-4.91-4.43-4.59-8.21.4-4.76,4.46-4.96,7.65-6.69,3.79-2.05,12.45.28,10.8-6.3-1.99-7.96-9.94-3.41-13.98-1.46-8.48,4.09-22.81,1.5-22.44,17.18-2.96.1-5.91.21-8.87.31-2.37.14-5.19-1.03-6.49,2.22-6.66.18-13.33.36-20,.53-.78.48-1.56.96-2.34,1.44-8-.73-14.28,2.45-19.57,8.22-3.99,4.35-8.41,5.22-11.58-.62-3.34-6.16-9.22-7.82-15.05-9.64-8.51-2.65-16.61-6.03-23.51-11.77-2.79-2.32-6.68-5.1-4.68-8.95,1.64-3.16,6.17-1.93,9.14-1.1,29.11,8.08,58.13,3.19,87.13-.5,3.97-.5,9.05-2.33,8.82-6.87-.49-9.39,5.43-9.62,11.26-8.23,18.94,4.52,36.99.75,55.17-4.08,7.81-2.07,15.94-1.68,20.85,5.96,3.76,5.85,6.55,4.77,11.22,1.15,7.97-6.17,17.15-11.07,27.35-6.56,10.31,4.56,19.3,11.71,29.72,16.36,6.61,2.95,6.14,9.96.26,11.5-13.66,3.58-16.81,17.44-26.9,24.11-3.59,2.34-7.17,4.68-10.76,7.03Zm-7.25-19.52c-1.37-5.36-3.42-11.21-10.09-11.36-4.89-.11-8.23,3.11-7.35,8.72,1.16,7.37,8.06,7.52,12.76,10.21,4.56-.97,5.55-4.17,4.68-7.56Z"/>
    <path class="cls-1" d="m616.79,255.29c-5.51.27-11.04.29-16.51.91-2.85.32-6.11,2.5-7.14-1.92-.96-4.08,1.92-7.53,6.11-7.43,8.87.21,12.57-6.46,16.61-12.21,2.25-3.19,2.77-8.19-.49-11.26-2.76-2.6-5.9.27-9.02,1.34-6.66,2.28-11.11,6.99-15.72,11.69-3.19,3.26-6.79,4.61-10.89,2.15-2.96-1.77-4.91-4.43-4.59-8.21.4-4.76,4.46-4.96,7.65-6.69,3.79-2.05,12.45.28,10.8-6.3-1.99-7.96-9.94-3.41-13.98-1.46-8.48,4.09-22.81,1.5-22.44,17.18,3.17,2.82,14.83-2.71,8.92,9.02,2.59,5.23,4.1,10.72-.96,15.1-10.48,9.08-20.48,19.15-32.28,26.11-8.39,4.95-10.98,10.12-11.19,19-.19,8.1,3.12,16.8-2.68,24.34,4.17,4.68,9.62,6.15,15.65,6.21,3.24.24,7.06-1.55,9.77.56,2.54,1.98,5.73,2.93,8.94,3.1,16.11.88,32.21,1.64,48.22-1.68-.02-.69.04-1.37.17-2.05.31-6.08-3.33-7.01-8.42-6.93-12.04.21-24.09.32-36.12-.05-5.07-.16-11.83,2.79-14.64-3.87-3.09-7.31,7.57-5.38,8.27-10.59-1.5-.95-5.21-1.42-1.14-3.82,11.65-6.87,21.21-15.97,29.46-26.58,1.06-1.36,2.82-2.84,4.41-3.04,14.78-1.81,29.57-4.98,44.45-.53,1.79.54,3.79.69,4,2.93.28,2.99-1.98,3.43-4.28,3.67-6.45.68-13.32.33-17.35,6.97,8.45,1.29,16.24-5.11,24.84-2.12.75-.71,1.5-1.42,2.25-2.13,3.95-8.77-.97-12.02-8.55-13.55-9.01-1.82-18.09-2.93-27.32-2.38-2.49.15-5.57.41-6.16-3.04-.52-3,1.67-4.67,4.12-5.82,5.98-2.8,11.9-3.96,17.42,1.03,2.23,2.02,4.83,4.61,7.32,1.1,2.81-3.96-2.14-4.48-3.83-6.35-.95-1.05-2.41-1.63-3.64-2.42Z"/>
    <path d="m518.99,326.67c5.8-7.54,2.49-16.24,2.68-24.34.21-8.89,2.8-14.05,11.19-19,11.8-6.96,21.8-17.04,32.28-26.11,5.06-4.38,3.55-9.88.96-15.1-3.69.74-7.37,1.48-11.06,2.22-.03,0-.07,0-.1,0-1.23,0-2.31.74-2.84,1.86-3.62,7.66-12.4,10.16-17.67,16.29-5.47,6.35-12.48,11.36-18.58,17.19-14.76,14.09-13.36,34.02,3.15,47Z"/>
    <path d="m639.32,319.65c-3.18,3.57-9.16,3.37-11.29,8.35,25.63-3.56,46.48-26.5,54.24-51.04,3.94-12.45-3.13-20.3-3.17-30.38-3.59,2.34-7.17,4.68-10.76,7.02-1,5.28,1.9,8.23,6.3,10.14,1.99.86,5.24,1.71,3.41,4.16-4.77,6.38-3.11,15.51-9.53,21-1.88,17.65-17.55,22.31-29.21,30.76Z"/>
    <path d="m521.81,236.16c-.78.48-1.56.96-2.34,1.44.78-.48,1.56-.96,2.34-1.44Z"/>
    <path d="m656.42,241.64c4.56-.97,5.55-4.17,4.68-7.56-1.37-5.36-3.42-11.21-10.09-11.36-4.89-.11-8.23,3.11-7.35,8.72,1.16,7.37,8.06,7.52,12.76,10.21Z"/>
    <path d="m550.82,311.39c7.32-.17,14.65-.34,21.97-.52,1.02-2.08,2.67-2.41,4.71-1.72,3.57-1.21,7.95.54,10.91-2.94-.04-2.99,1.4-4.45,4.44-4.24.71-.06,1.43-.13,2.14-.21.03-2.96,1.47-4.44,4.5-4.24,3.89-1.74,5.75-6.84,10.88-6.52,4.04-6.64,10.9-6.29,17.35-6.97,2.29-.24,4.56-.69,4.28-3.67-.21-2.24-2.21-2.39-4-2.93-14.88-4.45-29.67-1.28-44.45.53-1.59.19-3.35,1.67-4.41,3.04-8.25,10.61-17.8,19.72-29.46,26.58-4.06,2.39-.35,2.87,1.14,3.82Z"/>
    <path class="cls-1" d="m623.06,232.18l49.26,18.83,8.55,17.99-9.48,24.27-25.94,25.67-16.68,7.74-.73,1.32-26.47,6.87-61.57-6.26v-19.16s25.52-20.91,26.1-22.16,56.97-55.11,56.97-55.11Z"/>
  </g>
</svg>