<?xml version="1.0" encoding="UTF-8"?>
<svg id="Layer_1" data-name="Layer 1" xmlns="http://www.w3.org/2000/svg" viewBox="0 0 1080 1080">
  <defs>
    <style>
      .cls-1 {
        stroke: #000;
        stroke-miterlimit: 10;
      }
    </style>
  </defs>
  <g>
    <path d="m746.73,775.9c-3.52,0-7.05,0-10.57-.01.17,4.73.34,9.46.52,14.19,10.63.38,6.83-9.37,10.05-14.18Z"/>
    <g>
      <path d="m730.47,758.13c1.89,5.92,3.78,11.84,5.68,17.76,3.52,0,7.05,0,10.57.01,2.97-7.19,4.84-14.63,4.61-22.44-.16-5.66,1.19-11.04,3.99-15.68,5.45-9.03,2.05-13.1-7.14-14.93-7.22-1.44-11.63-5.65-12.26-13.24-9.82-6.65-6.03-17.49-8.22-26.5-1.81-6.53-3.62-13.05-5.43-19.58-4.86-.48-6.55,1.96-6.38,6.53.17,4.39.21,8.82-.13,13.19-.31,3.91-2.47,5.38-5.89,2.66-10.73-8.55-20.5-17.78-24.07-31.81-1.18-4.64.64-7.97,3.41-10.89,3-3.17,5.83-.83,8.8.9,5.62,3.28,9.13,1.97,9.17-5.1-2.49-3.16-4.74-6.55-7.53-9.42-7.87-8.09-8.16-16.8-2.4-25.93,17.38-27.54,34.09-55.55,52.59-82.33,12.94-18.73,2.93-39.7-10.8-48.31-4.55-2.85-9.13-5.67-13.7-8.5-3.9.63-9.31.31-8.81,5.88.49,5.44,4.96,8.31,10.32,9.96,17.75,5.47,24.06,24.77,12.1,38.94-4.52,5.35-7.6,11.6-12.26,16.62-10.84,11.7-20.31,24.67-32.55,35.08-2.76,8.97-6.41,17.34-15.57,23.7-.27-10.81,4.78-18.5,8.24-26.68,1.57-15.61,4.11-31.11,12.24-44.75,5.38-9.02,5.93-18.45,5.82-28.28-.02-2.1.21-4.82-2.91-4.79-1.95.01-3.04,1.81-3.47,3.72-1,4.52-.84,9.81-7.25,10.69.29,4.01.33,7.81-1.53,11.74-11.48,24.27-21.39,49.21-29.17,74.86-5.16,17.02-9.78,34.51,3.41,50.95,10.54,13.14,19.93,27.19,30.09,40.64,17.17,22.73,29.97,47.5,36.42,75.34Z"/>
      <path class="cls-1" d="m700.43,449.44c-11.3-7.76-22.57-15.58-33.93-23.27-3.71-2.51-7.92-3.67-12.46-3.41-17.49,4.79-34.46,3.07-50.99-4.09-.83-.21-1.67-.42-2.5-.64-1.43.19-2.86.37-4.29.56-4.88,2.51-9.5,6.75-15.42,2.28-2.15.1-4.29.19-6.44.29-1.39,4.2-3.56,5.25-6.87,1.68-10.38.11-20.5,3.66-30.98,2.26-2.64.01-4.19-1.16-4.3-3.91-7.25,1.63-14.3,1.29-21.75.08-14.3-2.3-28.57.91-42.81,2.57,1.46,5.27,5.17,7.16,10.4,8.18,18.66,3.65,37.38,6.45,56.44,6.57,12.16-2.37,23.02,5.71,35.05,4.36,3.76.69,7.53,1.38,11.29,2.06,12.24-4.02,24.85-4.91,37.62-4.46,10.82,3.73,11.69,6.16,4.85,13.46-.07,3.6-.13,7.2-.2,10.8,4.08,6.77,10.18,10.11,17.97,11.01,17.81,2.04,35.6,4.29,53.4,6.41,3.34.4,6.64.67,8.63-3.08,1.86-3.5,2.66-6.96-.02-10.28-1.84-2.28-4.26-4.11-6.03-6.44-2.36-3.11-6.96-5.59-6.46-9.62.76-6.15,7.5.82,9.82-3.39Z"/>
      <path d="m700.43,449.44c-2.32,4.21-9.06-2.76-9.82,3.39-.49,4.02,4.1,6.5,6.46,9.62,1.77,2.33,4.19,4.15,6.03,6.44,2.68,3.32,1.88,6.78.02,10.28-1.99,3.74-5.29,3.48-8.63,3.08-17.8-2.13-35.59-4.37-53.4-6.41-7.8-.89-13.89-4.24-17.97-11.01-2.64,2.48-5.1,5.32-9.32,4.66,2.25,4.92,8.43,6.88,9.6,12.63,6.87.58,12.74,4.55,19.8,5.07,17.56,1.28,35.37,2.56,48.06,17.43,6.41-.88,6.25-6.16,7.25-10.69.42-1.9,1.51-3.7,3.47-3.72,3.12-.02,2.88,2.7,2.91,4.79.1,9.83-.45,19.26-5.82,28.28-8.13,13.64-10.67,29.15-12.24,44.76,2.6.61,5.61.19,7.33,2.97,12.24-10.41,21.71-23.38,32.55-35.08,4.65-5.02,7.74-11.27,12.26-16.62,11.96-14.17,5.66-33.47-12.1-38.94-5.36-1.65-9.83-4.52-10.32-9.96-.51-5.57,4.91-5.25,8.81-5.88-6.36-8.2-16.2-10.7-24.91-15.07Z"/>
      <path d="m707.17,639.01c-.04,7.08-3.54,8.38-9.17,5.1-2.97-1.73-5.8-4.07-8.8-.9-2.77,2.93-4.59,6.26-3.41,10.89,3.58,14.04,13.35,23.26,24.07,31.81,3.42,2.72,5.58,1.25,5.89-2.66.34-4.38.3-8.8.13-13.19-.17-4.57,1.51-7.01,6.38-6.53-4.27-8.64-5.61-19.07-15.09-24.53Z"/>
      <path d="m574.39,421.17c2.15-.1,4.29-.19,6.44-.29.86-.83,1.72-1.66,2.58-2.49-1.39-5.53-7.12-5.64-10.58-6.25-8.49-1.49-14.63-5.84-20.11-11.77-2.86-3.1-5.72-5.74-10.41-4.11-4.53,1.58-5.65,5.16-6.04,9.44-.46,5.03-1.28,10.03-1.94,15.04,1.84.91,2.15,2.58,2.21,4.37,10.49,1.41,20.61-2.15,30.98-2.26,1.82-2.47,4.34-2.07,6.87-1.68Z"/>
      <path d="m454.34,421.81c-15.78-5.86-31.48-13.02-48.28-3.08-2.65,2.85-5.3,5.71-7.94,8.56,3.56.21,7.11.43,10.66.65,15.36-3.29,28.72,6.42,43.54,6.67q10-5.76,2.02-12.79Z"/>
      <path d="m454.34,421.81q7.99,7.03-2.02,12.79c17.33,2.83,34.57,6.68,52.01,8.11,10.17.83,20.18,1.03,29.75,4.85.14-2.99.29-5.98.43-8.96-19.06-.12-37.78-2.92-56.44-6.57-5.23-1.02-8.94-2.91-10.4-8.18-4.45-.67-8.89-1.35-13.34-2.03Z"/>
      <path d="m727.7,683.12c2.19,9-1.6,19.84,8.22,26.5-1.44-5.24-2.54-10.46-2.35-16,.16-4.42-.77-8.76-5.88-10.5Z"/>
      <path d="m536.54,425.1c-.06-1.8-.38-3.47-2.21-4.37-.74-.04-1.43.11-2.08.46.1,2.76,1.66,3.93,4.3,3.92Z"/>
      <path d="m694.14,571c-1.71-2.78-4.73-2.36-7.33-2.97-3.46,8.17-8.51,15.86-8.24,26.67,9.16-6.36,12.81-14.73,15.57-23.7Z"/>
      <path d="m534.09,447.56c.14-2.99.29-5.98.43-8.97,12.16-2.37,23.02,5.71,35.05,4.36,13.84,2.38,5.98,1.09,11.29,2.06,12.24-4.02,24.85-4.91,37.62-4.46,1.52,4.52,5.9,8.01,4.84,13.45-.06,3.6-.13,7.2-.2,10.8-2.64,2.48-5.1,5.32-9.32,4.66-3.6-2.31-7.2-4.63-10.79-6.94l-17.74.24-51.18-15.22Z"/>
    </g>
  </g>
  <g>
    <path d="m363.06,1051.77c20.45-.06,40.63-8.31,61.27-2.09,7.53,2.27,15.23,2.22,22.94,2.3,156.91-.04,313.81-.08,470.72-.1,108.38-.02,216.75-.06,325.13.04,14.4.01,28.57-1.45,42.64-4.26,4.63-.92,11.29-1.32,10.9-6.97-.51-7.22-7.63-6.41-13.16-6.41-65.35-.02-130.69-.03-196.04-.05-7.38,0-14.77-.05-22.15-.07-2.21,0-4.43,0-6.64,0-22.96-1.39-45.75,2.44-68.68,2.18-6.64,0-13.28-.02-19.93-.03-120.56-3.99-241.16-1.31-361.73-2.02-35.23-.21-70.46,0-105.69,0-27.94-1.23-55.89,4.07-83.84-.08-2.79,9.69-8.79,10.45-17.12,6.65-5.24-2.39-1.33-8.47-5.34-11.04-2.56,4.1-5.07,8.31-11.12,6.49-189.03-3.18-378.06-3.55-567.09.01-11.14-.69-22.52,2.25-33.43-2.12-2.81,3.51-3.48,7.79-4.28,12.01,10,3.82,20.34,5.77,31.06,5.69,183.86-.04,367.71-.08,551.57-.12Z"/>
    <path d="m398.52,425.11c-2.68,2.64-2.27,6.07-2.34,9.34-.67,30.47-1.81,60.94-1.85,91.4-.19,143.41-.05,286.82-.1,430.23,0,21.64,3.78,43.21,1.31,64.89.27,2.94.54,5.89.81,8.83,4,2.56.1,8.64,5.34,11.04,8.33,3.81,14.33,3.05,17.12-6.65,0-40.04-.89-80.1.17-120.12,3.2-120.44,1.32-240.9.92-361.33-.13-37.39-.39-74.85-1.3-112.27-.37-15.28-.12-15.29-15.65-15.31-1.48,0-2.95-.04-4.43-.06Z"/>
    <path d="m396.34,1029.81c-.27-2.94-.53-5.89-.81-8.83-9.19,1.27-9.1,8.73-10.31,15.32,6.05,1.82,8.55-2.39,11.12-6.49Z"/>
  </g>
</svg>