<?xml version="1.0" encoding="UTF-8"?>
<svg id="Layer_1" data-name="Layer 1" xmlns="http://www.w3.org/2000/svg" viewBox="0 0 1080 1080">
  <defs>
    <style>
      .cls-1 {
        stroke: #000;
        stroke-miterlimit: 10;
      }
    </style>
  </defs>
  <path d="m345.68,370.19c3.65,30.92,9.09,61.61,11.29,92.72,1.32,18.65,8.98,33.32,27.03,42.36,21.16,10.59,41.66,22.55,62.01,34.64,9.26,5.5,18.76,11.27,24.58,21.02,2.48,2.38,4.95,4.76,7.43,7.13,9.44,9.31,18.47,18.94,25.06,30.56,1.4,2.46,2.41,6.49,5.77,5.81,3.94-.8,5.03-5.02,5.31-8.65.19-2.43-.16-5.24-1.24-7.39-5.57-11.05-8.57-22.53-7.45-34.98.43-4.79-.39-9.21-6.69-8.98-17.34.63-29.06-8.08-37.72-22.08-.69-.75-1.39-1.5-2.08-2.24,0,0,0,0,0,0-4.39,1.1-8.46-3.97-12.69-1.12-10.28,6.92-16.91.92-23.4-6.05-2.47-2.65-4.01-6.27-7.63-7.69-3.37-1.32-8.02-1.91-6.46-6.9,1.28-4.09,5.64-2.2,8.7-2.44,4.79-.38,9.35-.02,13.41,3.39,3.49,2.93,7.88,3.74,12.46,2.68-6.41-9.48-15.81-14.91-25.98-19.5-23.79-10.74-25.09-17.88-21.48-43.66,3.97-28.37,8.12-56.71,12.34-85.05,1.84-12.37-3.34-21.23-13.26-27.96-.83-.59-1.67-1.18-2.5-1.77-3.32-2.27-7.21-2.3-10.98-2.79-3.23,3.59-4.01,1.21-4.52-1.84-5.02-1.3-10.04-2.58-15.29-1.49-.24,2.18-.25,4.55-2.85,5.41-2.61.87-6.6.33-5.64,4.86.87,4.1,4.45,4.33,7.87,4.39,1.84.03,3.69-.08,5.52.07,17.5,1.35,28.13,12.78,28.17,29.97.04,16.14-5.8,31.22-8.28,46.8-3.47,21.85-7.29,43.97-5.21,66.41.3,3.25,1.61,7.92-3.99,8.67-4.65.62-7.09-2.81-7.72-6.37-2.46-13.98-7.22-27.48-8.04-41.8-1.42-24.93,2.77-49.67,2.2-74.57-.13-5.54-1.11-11.04-8.04-10.47-6.75.55-10.49,4.96-9.38,12.18.36,2.35,2.72,4.75-.62,6.71Z"/>
  <path class="cls-1" d="m303.9,312.6c-6.65-.56-13.31-1.12-19.96-1.68-5.72,3.49-11.88,1.39-17.88,1.39-17.24-1.13-28.87,10.17-41.21,19.21-4.59,3.36-8.89,5.84-14.37,6.52,1.01.97,1.85,2.48,3.05,2.84,12.95,3.93,13.53,5.79,5.53,17.24-4.1,5.87-10.74,10.33-11.91,17.8-1.56,9.93-6.96,13.51-16.49,12.09,4.79,6.02,1.63,12.21-2.28,15.72-14.48,12.98-21.43,31.33-34.34,45.47-9.42,10.32-19.54,19.89-29.06,30.06-3.74,3.99-7.14,8.3-10.69,12.46-.3,1.38-.61,2.76-.92,4.15-.68,1.91-1.36,3.82-2.04,5.72l2.41,9.22c4.87,4.08,6.34.67,6.86-3.45,1.22-9.8,8-14.7,15.43-20.05,24.79-17.86,46.76-38.71,63.99-64.14-4.19-.58-5.3-2.61-2.21-5.7,2.73-2.73,4.18-5.93,5.09-9.52,5.49-21.64,20.22-36.97,36.53-50.61,7.23-6.05,15.22-11.47,21.88-18.11,3.68-3.66,7.18-4.45,11.62-4.5-4-9.55.82-11.77,9.22-10.99,9.45.88,18.27,5.12,28.08,4.58,5.77-.32,13.41.47,12.91,8.22-.48,7.49-7.85,7.72-13.85,6.96-4.3-.55-8.49-2.12-12.67-3.43-5.6-1.76-11.1-3.94-17.16-2.91.56,4.88-.99,7.73-6.03,9.99-4.63,2.08-8.42,7.3-6.22,12.67,2.48,6.04,7.97,3.39,12.43,1.72,10.13-3.79,21.12-1.72,31.35-4.71,11.23-3.28,23.53-.53,34.33-6.3,9.94-5.31,11.47-9.55,4.04-17.51-5.33-5.7-4.6-10.46-1.24-16.11-8.74-.1-17.49-.21-26.23-.3-2.62.19-5.54,1.08-7.45-.45-2.56-2.04-5.56-3.44-8.83-3.54l-1.71-.05Z"/>
  <path d="m190.65,388.02c9.53,1.42,14.94-2.16,16.49-12.09,1.17-7.47,7.82-11.93,11.91-17.8,7.99-11.45,7.41-13.3-5.53-17.24-1.2-.36-2.04-1.87-3.05-2.84-13.57-3.14-27.65.3-41.24-3.31-4.38-1.16-8.07.43-7.03,6.37,1.56,8.83,3.54,17.64,4.35,26.55,1.35,15.04,11.21,19.3,24.11,20.36Z"/>
  <path d="m348.12,316.94c-3.36,5.65-4.09,10.4,1.24,16.11,7.44,7.96,5.9,12.2-4.04,17.51-10.8,5.77-23.1,3.02-34.33,6.3-10.23,2.99-21.23.92-31.35,4.71-4.46,1.67-9.95,4.32-12.43-1.72-2.21-5.37,1.58-10.59,6.22-12.67,5.04-2.26,6.59-5.11,6.03-10-2.17-.81-4.35-1.62-6.53-2.43-4.44.04-7.95.83-11.62,4.5-6.66,6.64-14.65,12.06-21.88,18.11-16.31,13.64-31.04,28.97-36.53,50.61-.91,3.59-2.37,6.79-5.09,9.52-3.09,3.09-1.98,5.13,2.21,5.7,11.77-11.75,19.54-26.37,28.55-40.05,6.37-9.68,14.38-13.1,25.3-9.74,20.31,6.27,39.48,4.25,59.23-4.09,9.69-4.09,21.99-7.36,32.58.9,3.34-1.97.98-4.36.62-6.71-1.11-7.22,2.63-11.63,9.38-12.18,6.93-.57,7.91,4.93,8.04,10.47.58,24.89-3.62,49.63-2.2,74.57.82,14.32,5.58,27.83,8.04,41.8.63,3.56,3.07,6.99,7.72,6.37,5.61-.74,4.29-5.42,3.99-8.67-2.08-22.44,1.74-44.56,5.21-66.41,2.48-15.58,8.32-30.65,8.28-46.8-.04-17.19-10.67-28.62-28.17-29.97-1.83-.14-3.68-.03-5.52-.07-3.42-.06-7-.3-7.87-4.39-.96-4.52,3.03-3.99,5.64-4.86,2.6-.86,2.61-3.23,2.85-5.41-4.53-.33-9.06-.66-13.58-1Z"/>
  <path d="m443.37,501.99c-4.58,1.06-8.97.25-12.46-2.68-4.06-3.42-8.62-3.77-13.41-3.39-3.06.24-7.43-1.65-8.7,2.44-1.56,4.99,3.1,5.58,6.46,6.9,3.62,1.42,5.16,5.04,7.63,7.69,6.49,6.97,13.12,12.97,23.4,6.05,4.24-2.85,8.31,2.21,12.69,1.12-5.19-6.05-7.25-14.78-15.61-18.13Z"/>
  <path d="m376.99,319.42c.5,3.05,1.28,5.43,4.52,1.84-.91-2.07-2.56-2.33-4.52-1.84Z"/>
  <path d="m458.98,520.12c.69.75,1.39,1.5,2.08,2.24-.69-.75-1.39-1.5-2.08-2.24Z"/>
  <path d="m392.49,324.06c.83.59,1.67,1.18,2.5,1.77-.83-.59-1.67-1.18-2.5-1.77Z"/>
  <path d="m272.93,334.75c2.18.81,4.35,1.62,6.53,2.43,6.06-1.03,11.56,1.15,17.16,2.91,4.18,1.31,8.37,2.88,12.67,3.43,6,.76,13.37.53,13.85-6.96.5-7.74-7.14-8.53-12.91-8.22-9.81.54-18.63-3.71-28.08-4.58-8.4-.78-13.22,1.44-9.22,10.99Z"/>
</svg>