<?xml version="1.0" encoding="UTF-8"?>
<svg id="Layer_1" data-name="Layer 1" xmlns="http://www.w3.org/2000/svg" viewBox="0 0 1080 1080">
  <defs>
    <style>
      .cls-1 {
        stroke: #000;
        stroke-miterlimit: 10;
      }
    </style>
  </defs>
  <path d="m159.1,699.94c1.3-2.21,2.52-5.04,5.69-4.04,3.43,1.08,3.11,4.39,3.54,7.33,1.11,7.61-5.24,11.1-8.99,15.61-11.53,13.87-18.99,29.38-21.12,47.2-2.12,17.71-.73,35.44.68,53.45,6.38-8.21,7.17-18.41,11.54-27.22,9.86-19.88,18.02-40.58,27.56-60.62,2.25-4.73,7.15-8.26,11-12.19,13.03-13.28,13.73-25.79,2.26-40.31-4.13-5.22-5.58-10.42,1.05-14.96,2.86,3.68,5.93,7.22,8.55,11.06,11.41,16.65,17.29,34.53,3.94,52.24-13.27,17.62-24.65,36.07-33.71,56.08-8.22,18.14-17.81,35.39-18.76,56.41-.89,19.8-3.39,40.07-17.28,56.4-5.48,6.44-10.98,12.89-16.05,19.64-7.08,9.41-15.93,17.94-10.75,32.07,2.68,7.3-2.13,11.88-9.8,14.13-10.42,3.06-21.2,5.35-29.72,13.33-3.51,3.29-9.23,3.89-14.38,4.14-2.63.12-5.73.25-6.7-2.56-1.22-3.54,2.52-3.93,4.56-4.78,5.02-2.1,8.31-5.81,11.24-10.17,18.1-26.95,35.2-54.04,44.68-85.84,6.23-20.9,9.47-42.02,13.89-63.11,4.11-19.63,3.21-39.8,8.42-59.18,4.83-17.96,9.77-35.82,22.33-50.36,2.85,0,4.9-1.34,6.31-3.75Zm-22.69,149.99c-11.88,9.18-13.99,21.64-15.13,34.56-.99.42-2.34.56-2.92,1.29-2.31,2.91-4.22,6.1-2.54,9.97.28.64,2,1.3,2.65,1.02,3.69-1.59,5.55-4.55,5.63-8.59.02-1.09.13-2.18.19-3.28,11.42-8.48,15.46-19.7,12.11-34.99Z"/>
  <path d="m152.8,703.69c2.85,0,4.9-1.34,6.31-3.75,1.3-2.21,2.52-5.04,5.69-4.04,3.43,1.08,3.11,4.39,3.54,7.33,1.11,7.61-5.24,11.1-8.99,15.61-11.53,13.87-18.99,29.38-21.12,47.2-2.12,17.71-.73,35.44.68,53.45,6.38-8.21,7.17-18.41,11.54-27.22,9.86-19.88,18.02-40.58,27.56-60.62,2.25-4.73,7.15-8.26,11-12.19,13.03-13.28,13.73-25.79,2.26-40.31-4.13-5.22-5.58-10.42,1.05-14.96-3.82-9.08-1.57-18.66,1.08-26.82,10.93-33.63,11.73-65.92-7.79-96.88-13.43-.7-7.04,7.76-4.08,11.21,11.71,13.66,10.39,28.6,6.35,44.19,0,1.25,0,2.5,0,3.75.46,4.03.08,7.9-.82,11.94-2.87,12.8-7.37,25.77-7.08,38.58.32,13.81-4.83,22.82-14.55,31.06-7.64,6.49-12.7,5.72-14.48-3.97-1.11-6-3.54-7.4-8.76-6.54.4,11.98,8.77,21.42,10.6,32.95Z"/>
  <path class="cls-1" d="m187.9,595.91c4.05-15.59,5.37-30.52-6.35-44.19-2.96-3.45-9.36-11.91,4.08-11.21.75-1.58,1.49-3.16,2.24-4.74-7.76-1.29-9.03-6.78-7.78-13.06.87-4.36,1.47-8.59.88-12.98-5.59-4.66-8.66-10.47-8.17-17.89-.47-3.83,2.99-5.7,4.34-8.63-3.65-11.1-7.3-22.21-10.95-33.31-2.65,3.58-4.51,8.42-10.57,6.49-.42,11.95-2.53,23.65-5.26,35.25,5.83-1.24,9.96-.49,9.1,7.04-.4,3.55-.22,7.16-.3,10.75,2.67,4.3,6.21,8.18,6.64,13.56,4.66,12.03.91,25.09,4.55,37.25,9.73,5.02,5.89,14.24,6.68,21.95.28,2.71.53,6.42-3.94,6.1-3.57-.26-5.01-3.27-4.56-6.27,1.19-7.94-2.93-14.69-4.35-22.02-2.34-3.29-3.22-7.85-7.97-9.03-6.66,15.06-16.19,28.77-21,44.68,1.98.74,3.95,1.49,5.93,2.23.92-1.05,2.15-1.96,2.69-3.18,2.85-6.41,7.27-11.86,14.52-11.32,7.16.53,4.93,7.65,5.93,12.33.3,1.4.97,2.78,1.73,4.01,3.64,5.92,7.59,10.25,11.98.68,2.11-4.61,5.54-5.33,9.9-4.5Z"/>
  <path class="cls-1" d="m142.19,670.74c5.22-.85,7.65.54,8.76,6.54,1.78,9.68,6.84,10.45,14.48,3.97,9.72-8.25,14.87-17.25,14.55-31.06-.29-12.81,4.2-25.79,7.08-38.58.91-4.05,1.28-7.91.83-11.94-7.79,8.39-13.08,18.19-15.04,29.41-1.95,11.11-3.13,22.36-4.48,33.57-.52,4.29.43,10.04-6.06,9.52-6.21-.5-5.64-6.42-4.89-10.47,2.98-16.23-9.23-29.92-7.35-46.02.41-3.52-3.67-6.09-7.41-7.31-.86,5.28,2.52,9.6,3.3,14.5,1.03,6.45.06,11.64-8.05,12.06-1.57,12.29,3.79,23.76,4.29,35.8Z"/>
  <path d="m162.2,430.01c.99-13.77,2.5-27.5,1.58-41.35-.46-6.97-2-13.56-5.32-19.68-1.74-3.22-3.87-7.08-8.09-6.16-3.89.84-5.38,5.13-6.02,8.57-2.62,14.26-2.14,28.64,3.24,42.1,2.46,6.17,3.76,12.47,5.68,18.68,3.31.64,6.08-.92,8.93-2.15Z"/>
  <path d="m159.15,509.44c.08-3.59-.11-7.2.3-10.75.86-7.54-3.27-8.29-9.1-7.04-12.81,12.26-12.78,39.24-.08,51.68,2.29,2.24,3.97,5.09,5.93,7.65,4.75,1.18,5.64,5.74,7.97,9.03,2.05.08,4.11.16,6.17.24-3.64-12.16.11-25.21-4.55-37.25-1.72.31-3.72.19-5.11,1.04-2.46,1.51-3.42,6.58-7.56,3.78-3.92-2.64-2.84-7.22-2.17-10.98.75-4.21,3.72-6.86,8.21-7.4Z"/>
  <path d="m180.96,509.73c.6,4.39,0,8.62-.88,12.98-1.25,6.27.03,11.77,7.78,13.06,7.29-11.91,10.64-25.85,19.92-36.84,5.73-6.79,2.86-11.24-5.74-12.33-8.31-1.06-16.61-2.25-24.91-3.38-1.35,2.93-4.81,4.8-4.34,8.63,9.6,2.84,9.02,10.3,8.17,17.89Z"/>
  <path d="m137.91,634.93c8.11-.42,9.09-5.61,8.05-12.06-.79-4.9-4.16-9.22-3.31-14.5-.51-3.5-1.01-6.99-1.52-10.49-1.98-.74-3.95-1.49-5.93-2.23-1.51,13.26,1.18,26.23,2.71,39.28Z"/>
  <path d="m162.2,430.01c-2.85,1.23-5.62,2.8-8.93,2.15.78,8.07,1.56,16.15,2.34,24.22,6.06,1.93,7.92-2.91,10.57-6.49-1.33-6.63-2.65-13.26-3.98-19.89Z"/>
  <path class="cls-1" d="m124.3,884.92c11.42-8.48,15.46-19.7,12.11-34.99-11.88,9.18-13.99,21.64-15.12,34.56,1.01.14,2.01.28,3.01.43Z"/>
  <path d="m124.3,884.92c-1-.14-2.01-.28-3.01-.43-1,.41-2.34.56-2.93,1.29-2.31,2.91-4.22,6.1-2.54,9.97.28.64,2,1.3,2.65,1.02,3.69-1.59,5.55-4.55,5.63-8.59.02-1.09.13-2.18.19-3.28Z"/>
  <path d="m141.13,597.88c.5,3.5,1.01,6.99,1.52,10.49,3.74,1.22,7.82,3.79,7.41,7.3-1.87,16.1,10.33,29.78,7.35,46.02-.74,4.05-1.32,9.97,4.89,10.47,6.49.52,5.54-5.23,6.06-9.52,1.35-11.21,2.54-22.46,4.48-33.57,1.96-11.22,7.24-21.02,15.04-29.41,0-1.25,0-2.51,0-3.75-4.37-.83-7.8-.12-9.91,4.5-4.38,9.58-8.34,5.24-11.98-.68-.76-1.23-1.43-2.61-1.73-4.01-1.01-4.68,1.23-11.79-5.93-12.33-7.25-.54-11.67,4.91-14.52,11.32-.54,1.22-1.78,2.13-2.69,3.18Z"/>
  <path d="m170.34,560.24c-2.06-.08-4.11-.16-6.17-.24,1.43,7.33,5.55,14.08,4.36,22.02-.45,3,.99,6.02,4.56,6.27,4.46.32,4.21-3.39,3.94-6.1-.79-7.71,3.05-16.92-6.68-21.95Z"/>
  <path d="m159.15,509.44c-4.48.55-7.46,3.19-8.21,7.4-.67,3.75-1.74,8.33,2.17,10.98,4.14,2.8,5.1-2.27,7.56-3.78,1.39-.85,3.39-.73,5.11-1.04-.43-5.39-3.97-9.26-6.64-13.56Z"/>
  <path d="m180.96,509.73c.85-7.58,1.43-15.04-8.17-17.89-.49,7.42,2.58,13.22,8.17,17.89Z"/>
</svg>