<?xml version="1.0" encoding="UTF-8"?>
<svg id="Layer_1" data-name="Layer 1" xmlns="http://www.w3.org/2000/svg" viewBox="0 0 1080 1080">
  <defs>
    <style>
      .cls-1 {
        stroke: #000;
        stroke-miterlimit: 10;
      }
    </style>
  </defs>
  <path class="cls-1" d="m834.42,771.29l11.5-7.31c7.78.06,13.29-3.94,16.38-13.44,3.68-11.35,8.58-22.21,12.6-33.41,3.13-8.7,8.48-14.87,17.24-18.68,17.67-7.7,33.47-18.38,46.96-32.27,1.92-1.97,4.53-3.5,4.79-6.68,5.57-4.12,11.64-7.26,17.99-10.05,12.25-5.38,22.26-13.26,25.6-26.99,3.43-14.12,14.19-20.79,26.26-25.28,5.53-2.06,10.59,2.91,14.01,7.21,3.79,4.77-1.78,6.74-4.36,8.39-6.22,3.98-11,8.1-9.73,16.49.67,4.42-3.25,6.66-6.25,8.72-11.74,8.08-20.69,19.3-31.68,28.09-9.79,7.83-10.58,19.49-15.15,29.49-5.02,11-10.36,20.3-24.32,21.45-6.15.51-9.16,5.96-9.13,12.41.03,6.51-.62,12.89-3.95,18.69-3.19-1.38-6.15.2-9.16.77-9.83,1.86-13.5-1.41-12.83-11.21.42-6.03,2.27-12.07.82-18.92-5.5,2.8-4.82,7.27-4.5,10.98,1.67,19.23-5.18,35.68-16.24,50.7-3.56,4.84-6.6,11.01-14.3,10.44"/>
  <path d="m771.94,982.95c-1.18,6.73-4.78,12.15-9.31,17.05-3.49,7.58-12.29,9.16-17.18,15.17-1.98-7.13-3.2-14.42-5.92-21.42-2.54-6.54,1.16-11.62,7.58-12.41,6.32-.78,7.16-4,8.23-9.14,3.22-15.41,2.13-31.33,6.22-46.63,1.65-6.19,3.86-12.04,7.25-17.31,14.08-21.88,24.39-44.98,26.4-71.39.59-7.7,3.54-15.19,6.98-22.27,2.4,1.88,5.46,1.01,8.1,1.97.52.8.84,1.65.99,2.59-4.64,11.48-5.34,23.68-6.64,35.77-.38,3.5-1.24,6.84-3.28,9.7-7.78,10.87-9.53,23.72-11.63,36.34-1.21,7.29-2.87,14.16-7.9,19.74-13.42,14.88-14.08,32.59-11.5,51.04,2.69,3.42-1.14,7.78,1.61,11.21Z"/>
  <path d="m771.94,982.95c-2.5,1.12-4.21.83-3.61-2.42.43-2.32,1.27-4.57,1.92-6.86,7.72-21.11,10.14-44.7,23.2-63.15,12.49-17.64,23.7-36.37,38.24-52.57,2.53-2.82,4.34-6.36,5.23-9.98,3.86-15.72,10.68-30.21,17.99-44.51,1.65-3.21,3.15-6.56,6.76-8.15,2.69.12,3.36,2.41,4.48,4.2-8.05,14.53-14.2,29.78-18.86,45.75-3.82,13.11-13.14,23.45-19.59,35.25-6.35,11.63-14.55,21.98-22.81,32.18-6.66,8.23-12.06,17.06-14.77,27.03-4.16,15.29-12.54,28.65-18.19,43.22Z"/>
  <path d="m866.16,799.51c-2.39-.14-3.35-1.57-3.45-3.79-.82-3.36,1.14-4.75,3.94-5.55,17.82-11.61,25.6-29.04,28.13-49.27.74-5.88.02-11.94.19-17.9.13-4.57,2.2-8.62,7.16-7.95,5.19.7,4.51,5.17,3.16,8.97-1.91,5.41-.94,11.14-2.01,16.72-1.09,5.71,2.68,8.1,8.96,6.24,3.42-1.01,8.08-5.95,10.93,1.15-15.94,16.81-32.05,33.42-51.45,46.4-2.05,1.37-3.72,3.3-5.56,4.97Z"/>
  <path d="m943.88,659.5c1.91.74,5.08.67,1.77,3.99-15.61,15.63-32.92,29-53.41,37.43-6.82,2.81-11.21,7.15-13.76,13.21-4.83,11.49-9.31,23.19-12.96,35.09-2.28,7.44-6.75,12.7-12.53,17.13-2.95,2.26-6.52,3.79-7.07-2.36,8.54-7.23,13.01-16.54,14.72-27.5,2.44-15.66,12.65-27.04,22.19-38.68,2.93-3.58,7.75-4.02,11.84-5.48,12.09-4.3,23.42-9.77,29.62-21.76,4.26-8.25,12.01-9.26,19.59-11.06Z"/>
  <path d="m809.74,816.52c-3.03,1.4-7.28,7.58-7.54-1.92,4.18-15.15,7.84-30.59,22.48-39.84,5.09.77,3.17,4.15,2.29,6.76-4.18,12.42-10.89,23.63-17.23,35Z"/>
  <path d="m753.52,1033.04l-.02.02c-1.57,1-3.58-.1-3.69-1.96-.3-5.46-3.68-10.35-4.34-15.74-.02-.12-.02-.25-.02-.37.04-4.16.26-7.93,6.27-7.58,5.28.3,5.19-7.94,10.9-7.41-.73,10.78-8.71,19.79-7.99,30.92.06.85-.39,1.67-1.11,2.13Z"/>
  <path d="m809.74,816.52c.58-6.29,2.59-12.02,6.56-16.99,5.11-6.41,5.71-14.86,9.79-21.76.32-.54-.91-1.98-1.42-3.01,2.91-2.09,6.31-2.81,9.74-3.47,1.75,7.42,6.48.75,9.54,2.01.59,2.85-1.37,4.2-3.28,5.57-5.71,2.27-9.69,5.77-12.5,11.74-3.97,8.43-10.1,15.77-14.45,24.11-.72,1.38-1.99,2.42-3.84,1.9l-.13-.11Z"/>
  <path class="cls-1" d="m856.86,803.43c-8.32,16.79-14.2,34.55-20.64,52.08-1.7,4.62-5.79,7.36-8.74,10.99-11.81,14.53-20.05,31.55-32.7,45.63-5.11,5.69-7.22,14.55-9.35,22.34-3.73,13.63-8.26,26.85-15.17,39.2-8.04-5.9-4.21-14.53-3.38-21.27,1.56-12.69,2.47-26.32,14.66-35.09,3.6-2.59,4.61-7.69,5.12-11.88,1.92-15.82,4.32-31.29,14.14-44.64,3.14-4.27,1.16-9.8,1.89-14.72,1.5-10.06,2.64-20.15,7.19-29.44,5.35-10.64,13.47-19.68,17.65-31.04l6.89-14.3h31.74l2.45,17.55-11.75,14.59,5.84-7.7"/>
</svg>