<?xml version="1.0" encoding="UTF-8"?>
<svg id="Layer_1" data-name="Layer 1" xmlns="http://www.w3.org/2000/svg" viewBox="0 0 1080 1080">
  <path d="m322.53,721.26c-5.64-2.75-11.24-5.58-16.92-8.23-19.79-9.21-33.46-23.89-40.68-44.63-2.28-6.56-5.98-12.39-11.27-17.13-1.59-1.43-3.83-3.48-3.79-5.18.33-11.89-8.44-19.9-12.21-30-.44-1.18-.83-2.37-1.21-3.57-1.02-3.28-2.74-7.16.12-9.67,2.38-2.08,5.86,0,8.91.67,13.56,2.94,21.66,10.36,22.13,24.93.67,20.76,16.62,30.42,30.63,41.36,2.71,2.12,4.96,1.74,6.05-2.33,1.15-4.3,3.1-8.38,8.5-8.84,3.84,2.73,4.6,6.78,4.77,11.08-.65,10.63,6.54,5.77,11.29,5.69,3.23.94,4.8,2.94,3.39,6.24-1.12,2.61-3.55,3.3-6.21,3.11-5.47-.4-10.9-1.17-16.85-2.06,2.81,3.77,8.23,4.71,8.02,10.05-1.25,2.51-4.83,1.09-6.73,4.78,8.67,3.1,15.41,11.11,26.12,7.43,5.02.39,10.32-.36,14.45,3.59-.05,11.04,8.49,17.05,14.53,24.48,1.48,1.82,4.59,2.11,5.15,5.02-1.26,5.57-1.38,10.94.21,16.64,2.04,7.27,2.25,14.85.08,22.28-3.99,3.91-4.54-.59-5.64-2.57-1.68-3.01-1.84-6.56-2.22-9.93-.5-4.46-3.3-6.32-7.25-7.16-3.43-6.52-1.42-13.55-1.81-20.34-.35-6.04-2.31-10.99-7.32-14.52-1.59-1.12-3.43-1.82-5.29-.89-2.14,1.07-1.66,3.1-1.35,4.97.1.62.28,1.23.34,1.85.48,4.45-.22,8.88-5.49,9.1-5.46.22-6.5-4.75-6.06-8.77.6-5.38.26-8.79-6.39-7.45Z"/>
  <path d="m390.66,787.29c4.44,5.27,9.15,10.35,13.26,15.86,9.54,12.8,9.43,23.28.1,36.19-1.46,2.02-3.61,3.9-4.19,6.16-5.33,20.86-18.07,38.63-24.42,59.1-3.79,12.23-6.37,24.09-2.39,36.75,1,3.19.46,6.86.62,10.31-1.32,7.46-3.42,7.85-11.69,2.18-2.21-2.09-1.36-6.2-5.8-7.96.3,9.14,3.68,17.49,2.81,26.17-.15,6.08,1.74,11.75,3.31,17.49,1.08,3.92,2.32,7.92.89,11.99-1.39,3.97-3.48,8.03-8.18,7.93-5.48-.11-1.98-5.66-3.91-8.13-3.07-17-6.45-33.95-7.63-51.22,2.44-2.24,2.31-4.86,1.28-7.71-.95-2.63-2.11-5.34.52-7.77,6.38.84,9.76-3.06,10.44-8.35,2.76-21.35,11.77-40.03,23.07-57.95,2.82-4.47,3.2-10.12,4.44-15.3,2.47-10.31,9.02-18.51,14.35-27.34,6.71-11.12,6-14.71-4.24-22.96-2.42-1.95-5.51-3.11-7.07-6.07-.41-1.4-.09-2.72.4-4.02.93-2.08,1.79-4.22,4.01-5.33Z"/>
  <path d="m322.53,721.26c1.98-3.82,5.15-4.59,8.66-2.68,3.66,1.99,1.46,4.84.33,7.31-.81,1.77-1.49,3.47-.44,5.35,1.1,1.95.59,5.79,4.38,4.74,2.65-.73,3.53-3.36,3.24-6.05-.13-1.22-.91-2.35-1.1-3.57-.38-2.47-3.12-5.22.94-7.26,3.4-1.71,6.48-2.05,9.53.67,5.09,4.52,8.91,9.47,8.46,16.92-.42,6.87-.1,13.79-.11,20.68.87,13.07,2.71,26,4.95,38.92.87,5.01-.12,10.29-7.25,10.54-8.42-8.72-12.16-20.16-17.63-30.56-4.78-9.08-9.97-18.06-12.43-28.19-2.23-8.73,1.11-17.85-1.79-26.54l.25-.25Z"/>
  <path d="m379.15,1029.58c-1.43,6.7-5.89,7.57-10.16,3.65-5.2-4.77-9.97-3.62-15.5-1.68-2.77.97-5.98,2.99-8.74.06-2.98-3.16-1.08-6.37.44-9.48,9.1-4.92,4.57-13.69,5.89-20.81,3.1,1.08-.26,7.84,4.61,6.28,4.21-1.35,6.67-5.82,5.87-10.54-.82-4.84-2.37-9.61-4.05-14.25-1.44-3.98-.92-7.96-1-11.96,4.01-2,2.8-5.85,3.17-9.1.38-3.34-.51-6.97,2.42-9.67,3.91,1.59,8.01,8.65,11.53-.42,2.81,4.93,2.01,10.41,1.7,15.56-1.25,20.97.91,41.68,3.8,62.36Z"/>
  <path d="m350.8,709.97c-4.6-3.09-10.37-1.38-15.17-3.67-7.39-2.85-14.83-5.64-18.98-13.16-1.55-6.28-10.78-5.34-12.18-13.5,7.64,1.06,14.6,1.89,21.51,3.06,2.1.35,3.86.42,4.88-1.5,1.4-2.66-.67-3.96-2.52-5.23-4.23-1.18-8.21-2.83-11.55-5.78-1.33-3.85-2.66-7.69-3.99-11.54,21.19-6.58,34.01,4.5,30.48,26.42-.65,4.02-1.33,7.58,4.59,7.97,9.49.61,16.11,6.23,21.78,13.27-3.73,3.37-9.76,1.94-13.03,6.27-2.73.9-4.74.19-5.82-2.6Z"/>
  <path d="m356.4,712.1c.75-10.31,8.79-3.98,13.26-5.8,11.42,10.62,13.46,24.92,15.38,39.26,1.86,13.91-.02,28.32,5.63,41.72-.69,2-1.39,3.99-2.08,5.99-9.85,2.66-19.08-4.73-18.91-15.14-.17-10.1,1.27-20.38-3.4-29.99-2.35-4.84,2.8-7.72,3.2-11.85-2.7-8.96-10.76-15.03-13.07-24.2Z"/>
  <path d="m345.24,934.96c-.45,2.9.78,5.16,2.26,7.6,2.64,4.35.68,6.82-4.04,7.53-7.78-21.1-9.9-42.42-4.71-64.66,5.16-22.13,6.67-45.18,17.66-65.74,1.79-2.95,1.96-6.52,3.62-9.5,1.67-2.99,3.51-6.64,7.56-5.57,4.17,1.1,4.12,4.88,3.27,8.49-17.14,29.71-20.09,63.07-24.95,95.97-1.28,8.67,3.35,17.36-.66,25.87Z"/>
  <path d="m369.56,812.07c-.19-2.34.72-5.63-2.48-6.12-2.69-.41-4.08,2.28-4.82,4.68-1.11,3.6-3.21,6.5-5.87,9.08.3-4.49,1.31-9.1-2.27-12.9,4.52-2.77,5.65-6.21,4.7-11.8-1.56-9.18-4.88-18.12-4.35-27.66.19-3.47.08-6.9,1.95-10,3.69-4.11,5.9-4.07,7.96,1.75,2.22,6.26.21,13.64,5.28,19.04,3.93,8.01,8.57,15.14,18.91,15.14-.68.65-1.36,1.3-2.03,1.95-7.03,2.64-13.57,5.65-13.62,14.82,0,1.43-1.43,2.67-3.36,2.02Z"/>
  <path d="m322.28,721.51c4.49,8.58.8,17.72,1.79,26.53-3.81-8.63-.71-17.72-1.79-26.53Z"/>
  <path d="m356.4,712.1c5.12,7.66,14.18,13.19,13.07,24.2-4.44.94-7.26-1.77-9.32-4.86-3.44-5.17-6.52-10.5-11.1-14.86-2.76-2.63-3.12-5.54,1.76-6.6,1.86.71,3.73,1.42,5.59,2.13Z"/>
  <path d="m316.65,693.14c6.17,4.62,13.82,7.1,18.98,13.16-.32.53-.52,1.28-.99,1.55-3.52,2.08-26.61-6.51-27.12-10.41-1.31-10.1,6.02-2.92,9.13-4.3Z"/>
  <path d="m316.78,670.19c4.91-.19,9.03,1.2,11.55,5.78-4.58,7.61-9.87,1.93-13.84-.15-3.18-1.67-1.33-4.8,2.29-5.63Z"/>
  <path d="m369.56,812.07c1.44-.95,1.83-2.37,2.01-4q1.44-12.92,14.97-12.84c22.77,15,23.52,19.46,6.42,41.73-2.78,3.62-4.91,7.63-5.51,11.81-3.19,22.26-20.36,38.42-25.64,59.74-2.01,8.12-1.49,16.87-6.13,24.37-2.84,4.59-5.67,7.84-10.45,2.08-5.93-29.3,3.18-57.07,8.35-85.3,2.54-13.86,7.9-26.23,15.97-37.6Z"/>
  <path d="m362.11,952.07c0,5.21-.09,10.43,0,15.64.07,4.64-1.85,5.42-5.59,3.13.6-7.01-.91-13.74-2.8-20.39-.98-3.45-2.28-7.83,2.08-8.71,4.6-.94,6.01,3.4,6.24,7.5.05.94.05,1.89.08,2.83Z"/>
</svg>