<?xml version="1.0" encoding="UTF-8"?>
<svg id="Layer_1" data-name="Layer 1" xmlns="http://www.w3.org/2000/svg" viewBox="0 0 1080 1080">
  <g>
    <path d="m987.51,573.81c-43.77-7.77-87.55-15.46-131.28-23.42-5.5-1-10.9-3.07-16.04-5.34-4.5-1.99-8.82-2.92-13.56-1.58-1.47-.92-2.98-.64-4.49-.14-20.74,6.88-41.9,5.33-63.16,3.56-13.46-1.12-25.45,2.31-33.73,14.17-2.13,3.05-4.23,6.27-8.01,7.62-.95.21-1.79-.03-2.53-.65-1.57-4.38,3.12-8.87-.18-13.25.36-3.49,3.01-7.73-2.99-9.15,2.07-2.56,5.74-3.59,6.04-7.86.66-9.69,7.15-15.54,14.6-20.57,19.94-1.3,40.13-.69,59.45-6.82,6.54-2.07,14.33-3.35,16.05-12.16.68-.63,1.45-1.17,2.01-1.89,17.65-22.52,37.94-15.71,58.55-5.27,2.25,5.01-1.95,5.77-4.88,7.01-2.92,1.23-6.16.88-9.28.9-4.44-.1-8.73-1.24-12.92-2.53-11.13-3.44-19.57.25-26.47,9.11-5.37,6.89-3.58,13.02,5.05,14.26,7.45,1.07,14.97,1.83,22.45,2.83,7.64,1.03,14.02,3.83,15.49,12.61.9,5.34,4.9,7.06,9.57,7.44,6.29.52,12.49,1.49,18.61,3.02,4.61,1.39,9.24,1.41,13.89.28,2.14-.52,4.56-1.53,6.45-.74,15.71,6.54,33.51,2.96,49.04,10.44,12.46,5.99,26.52,7.04,39.34,11.95,1.91,6.92-5.66,3.02-7.06,6.15Z"/>
    <path d="m715.21,568.31c1.79-1.71,4.06-3.12,5.29-5.16,10.26-17.06,25.19-20.57,44.16-18.24,16.63,2.04,33.76,2.27,50.4-2.02,3.95-1.02,7.86-2.32,11.59.59-14.51,7.9-29.02,15.78-43.52,23.69-6.06,3.31-11.9,7.07-18.66,8.91-7.48,1.49-15.06.79-22.55.54-7.28-.24-11.86,1.23-10.72,9.76.35,2.59-.15,5.05-2.76,6.49-10.98,4.23-21.99,8.25-34.09,5.34-3.01-1.24-6.17-.41-9.26-.65-2.39-.19-5.31.81-6.68-2.04-1.39-2.9.28-5.31,1.8-7.77,8.04-13.05,19.77-19.36,34.99-19.43Z"/>
    <path d="m995.14,570.15c-23.97-3.27-45.36-15.53-70-18.27-13.04-1.45-26.75-.83-39.69-4.43,11.16-2.44,21.38-11.12,33.94-4.43,3.97,2.12,5.85-.28,4.77-4.65-1.35-5.48-4.02-9.54-9.62-11.89-16.25-6.83-32.75-13.07-48.94-20.03-4.95-2.13-11.21-2.95-12.37-9.93,5.33-.9,12.16,2.3,15-5.46,20.22,9.36,40.44,18.71,60.66,28.07,1.33,8.33,6.41,14.61,12.24,19.99,3.61,3.33,8.72,3.05,13.25.57,5.61-3.06,5.34-8.32,4.99-13.59,3.22-.7,7.59-.59,7.83,2.68.71,9.57,9.63,10.17,14.61,14.98,10.35,8.12,21.77,18.17,34.72,15.52,20.61-4.22,20.01,13.15,27.71,22.24-17.72,2.02-34.58.36-49.11-11.38Z"/>
    <path d="m715.21,568.31c-1.84,1.14-3.68,3.27-5.52,3.26-12.43-.05-20.13,7.09-26.61,16.47-1.39,2.01-4.23,3.44-3.31,6.31,1.05,3.27,4.21,1.88,6.54,2.14,2.75.3,5.74-.65,8.04,1.72-17.95-1.75-33.07,5.57-47.47,14.97-12.71,8.3-26.53,13.98-40.93,18.55-5.64,1.79-7.41-.35-7.86-5.54-.77-8.94,8.45-24.27,17.98-24.88,23.7-1.5,39.67-15.44,55.42-30.5,1.12-1.07,2.42-1.96,3.63-2.94,8.8-1.15,17.88-1.37,24.62-8.59,1.25-1.34,3.19-1.84,5.15-1.29q1.65,8.59,10.3,8.39c0,.64.01,1.28.02,1.92Z"/>
    <path d="m807.67,498.23c3.44.59,4.32,2.01,1.9,4.98-3.28,4.02-7.49,6.44-12.32,8.14-20.4,7.17-41.56,7.74-62.83,7.42-.76-.01-1.5-1.02-2.25-1.56,9.58-6.93,21.26-6.85,32.1-9.57,6.2-2.2,12.86.76,19.03-1.7,9,.2,16.78-3.46,24.37-7.71Z"/>
    <path d="m995.14,570.15c15.52,7.44,32.31,9.41,49.11,11.38,3.57,4.32,7.86,8.16,9.69,13.68.58,1.76.79,3.79-.54,5.39-1.34,1.62-3.02.8-4.13-.19-17.68-15.63-40.93-18.28-61.74-26.59-.31-7.15,5.33-1.93,7.62-3.67Z"/>
    <path d="m959.13,526.75c.8,2.42,6.38,2.13,3.93,6.19-2.56,4.23-4.74,9.37-10.22,10.48-5.35,1.08-10.84.63-15.12-3.37-5.05-4.72-6.15-12.22-11.92-16.72-1.94-1.51.52-3.83,3.11-4.19,0,0,0,0,0,0,5.8,1.64,11.38,3.95,17.2,5.53,3.07.06,6.14.13,9.21.19.99,1.2,2.93.49,3.83,1.89Z"/>
    <path d="m705.73,558.83c-7.77,3.29-13.19,11.36-23.01,10.7-2.75-.19-5.52,1.22-7.6-1.66,8.72-13,24.05-15.18,36.41-22.23,2.34.8,5.5-2.15,6.9.27,2.11,3.66-1.76,6.13-3.31,9.02-1.92,4.21-5.21,5.13-9.39,3.9Z"/>
    <path d="m959.13,526.75c-1.52-.14-2.99-.38-3.83-1.89,3.14,0,6.37-.47,9.42.07,6.96,1.23,13.83,2.68,13.66,12.32-.04,2.15,2.22,4.34,3.43,6.52-3.83-1.3-7.6-2.82-11.51-3.82-3.6-.93-5.57-2.14-4.3-6.45,1.78-6.03-2.22-6.89-6.88-6.74Z"/>
    <path d="m728.43,592.87c.51-1.15,1.25-2.25,1.48-3.45q2.69-13.91,16.62-13.74c5.97.08,11.95.26,17.92.4-7.1,3.59-14.66,1.29-21.98,1.47-6.53.16-11.25,1.01-10.11,9.2.41,2.92-.04,5.75-3.94,6.12Z"/>
    <path d="m946.1,524.67c-6.61.89-11.88-2.41-17.2-5.53,6.34-.03,12.13,1.64,17.2,5.53Z"/>
    <path d="m853.23,496.53c14.91,10.95,32.99,14.91,49.46,22.41,5.13,2.34,10.47,4.22,15.68,6.4,8.14,3.4,7.68,11.65,9.68,18.25.85,2.8-2.49,4.17-5.25,3.4-3.31-.92-6.57-2.19-9.68-3.65-3.38-1.58-6.6-2.35-9.67.34-5.32,4.66-11.74,3.73-17.99,3.76-6.52-.67-13.08-1.07-19.55-2.08-6.07-.94-11.71-2.47-10.95-10.94.43-4.77-3.24-7.09-7.63-8.1-7.93-1.83-15.94-3.11-24.07-3.25-5.91-.1-11.14-.88-14.15-7.02-3.46-7.06,2.25-10.06,5.56-14.38,7.37-9.64,16.7-10.96,27.59-7.46,3.55,1.14,7.32,1.56,10.99,2.32Z"/>
    <path d="m705.73,558.83c3.13-1.3,6.26-2.6,9.4-3.9,8.47,3.77,1.7,7.62.06,11.45-.55.27-1.09.56-1.66.79-3.24,1.31-6.46,4.84-10,1.24-3.89-3.96.99-6.48,2.2-9.59Z"/>
  </g>
  <g>
    <path d="m198.8,371.65c1.8,3.95,4.36,6.07,9.21,6.24,5.5.19,10.82,2.23,15.7,5.03-4.4,4.54-9.41-.62-14.13.75,1.33,3.38,7.03,2.3,6.71,7-3.49,3.07-9.42,1.45-12.02,6.26-5.36,1.7-9.18-5-14.98-2.77,2.67,3.51,9.22-.21,10.03,5.81-1.87,3.14-8.21,1.21-7.92,6.06.24,3.99,5.72,2.53,7.79,5.18-1.82,6.33-6.73,4.28-10.49,3.25-3.56-.97-6.99-2.44-10.73-2.75-2.19-2.26-2.33-5.2-2.07-7.96.6-6.45-2.06-11.31-6.09-16.13-7.62-9.12-11.16-8.78-16.01,2.21-.9,2.05-1.35,4.17-1.62,6.37-3.38,10.61-5.77,21.37-5.73,32.57-1.07,4.47-1.42,8.89-.72,13.53.45,2.98,1.17,7.01-4.04,7.23-10.03-6.02-12.72-15.28-10.06-29.23,3.85-20.24,12.47-38.74,19.83-57.71,4.83-12.46,3.95-14.64-8.08-19.97-14.05-6.23-27.75-13.07-44.09-6.87-5.63,2.14-10.4-2.76-13.78-7.57-.15-5.42,3.16-4.46,6.23-3.16,3.51,1.49,7.14,3.33,10.83,2.09,9.53-3.2,19-2.99,28.66-.97,2.38.5,5.3.81,6.44-2.23.93-2.47-.95-4.04-2.67-5.45-2.75-2.25-7.74-3.3-6.41-8.08,1.33-4.76,6.77-3.75,10.32-5.21,3.74-1.53,8.03-.47,12.09-.48,9.08,3.56,12,10.71,14.77,19.8,4.2,13.77,11.84,26.44,23.14,36.08,3.86,3.3,7.26,6.79,9.88,11.09Z"/>
    <path d="m151.61,305.6c-6.63-.51-13.11-.02-19.17,3-3.81,1.9-3.56,4.01.02,5.86,1.07.55,2.69.2,3.59.89,3.18,2.44,7.05,5.15,5.46,9.71-1.55,4.43-5.11,4.93-9.96,3.88-8.98-1.95-18.05-3.71-27.33.55-3.9,1.79-9.34,1.87-13.09-2.25-2.41-2.65-4.19-2.11-5.62.92-.76-9.23-5.78-14.2-14.35-17.97-5.63-2.48-14.51-8.2-10.81-15.12,3.15-5.88,11.05.63,16.54,2.42,20.23,6.58,40.77,8.11,61.93,6.56,14.68-1.08,29.54-.78,44.25.1,6.02.36,12.2,3.42,13.88,10.79-6.44-1.03-11.88-.3-16.09,5.84-3.36,4.9-7.65,2.66-11.08-.72-5.55-5.47-11.19-10.79-18.17-14.45Z"/>
    <path d="m216.02,390.51c-2.48-1.16-4.89-2.51-7.47-3.41-2.25-.79-4.35-1.59-3.44-4.39.96-2.95,3.14-3.21,5.99-2.26,4.07,1.37,8.1,3.28,12.61,2.47,9.99,3.23,19.98,6.46,29.96,9.7,2.25,1.55,4.88.5,7.29,1.07,4.52,1.08,8.53,1.46,9.73-4.92.5-2.65,3.33-4.41,6.08-5.42,9.57-4.49,19.65-5.44,30.02-4.23,5.95,2.24,5.66,5.68,1.81,9.72-4.39,4.61-10.22,3.97-15.81,4.36-4.36.3-9.58.32-9.75,6.34-.15,5.39,4.3,7.35,8.81,8.13,8.66,1.52,17.27,2.41,25.74-1.65,3.35-1.61,8.93-5.15,8.25,3.67-2,2.36-3.99,4.73-5.99,7.09-6.06,6.2-13.42,7.52-21.64,5.88-5.91-1.17-11.84-1.91-17.15,2-3.29,2.99-1.42,8.18-4.73,11.16-1.14.8-2.29,1.6-3.43,2.4-1.27-3.02-4.36-3.42-6.83-4.75-1.89-3.59-1.24-7.22-.29-10.9,2.68-10.43.69-14.1-9.77-18.16-11.03-2.13-22.57-2.25-32.5-8.56-2.61-1.66-5.89-2.32-7.51-5.36Z"/>
    <path d="m141.7,449.51c2.65-1.63,3.02-4.31,1.87-6.61-2.58-5.12-.54-9.8.61-14.63.72-.52,1.46-.57,2.22-.09,1.76,2.06,2.02,5.27,4.97,6.41,8.03,2.1,11.79-1.61,10.8-9.18-.91-6.97.98-11.82,6.16-16.53,6.9-6.26,4.37-17.59-4.16-21.66-3.17-1.51-5.31-.44-7.29,2.08-1.83,2.33-2.9,5.84-6.99,5.17.79-2.34,1.32-4.8,2.4-6.99,6.22-12.57,9.6-12.05,19.04-2.02,7.6,8.07,6.68,16.74,6.82,25.91,2.26,2.09,2.67,5.04,3.65,7.73,2.04,6.54,3.65,13.1,7.65,19.02,4.48,6.65.69,11.78-5.02,15.78-7.17,4.43-16.36-1.56-23.24,4.48-7.15-1.53-13.82-4.1-19.49-8.88Z"/>
    <path d="m151.61,305.6c8.15,1.58,13.92,6.88,19.33,12.6,3.69,3.9,6.43,5.55,9.89-.54,3.95-6.97,9.59-8.7,16.13-2.72,4.17,12.73.19,25.49.06,38.23-.06,6.27-.6,12.49,1.79,18.48-10.66-8.87-21.41-16.94-27.5-30.76-3.16-7.16-9.21-13.02-9.17-21.81.04-7.07-7.92-8.26-10.53-13.47Z"/>
    <path d="m161.19,458.39c-.46-4.75,2.3-5.59,6.26-5.47,5.45.17,10.92.05,16.38.05,4.88-3.45,10.11-2.03,15.42-1.36,12.81,1.63,25.57,1.99,37.82-3.21,10.92-2.83,19.38-10.82,29.96-14.37,1.96-.51,2.28-4.52,5.21-2.71,2.98,1.85-.17,4.65.68,6.9-9.58,14.08-22.69,23.02-39.43,26.09-24.58,4.5-48.58.8-72.29-5.92Z"/>
    <path d="m325.87,409.69c-1.08-4.45-3.32-4.53-6.76-2.12-11.08,7.75-22.8,3.47-34.14,1.02-5.09-1.1-5.58-6.96-5.25-11.02.35-4.21,4.12-6.83,8.7-7.02,4.38-.18,8.83.34,13.15-.26,6.95-.95,8.96-5.64,5.24-11.19,14.76,2.45,23.24,16.06,19.06,30.58Z"/>
    <path d="m278.41,422.74c5.11-3.85,11.02-5.12,16.93-3.34,8.72,2.63,16.7,1.51,24.53-2.62-5.13,3.88-3.33,10.32-5.61,15.25-9.69-2.73-19.63-1.51-29.47-1.76-5.12-.13-8.97-1.03-6.39-7.54Z"/>
    <path d="m278.41,422.74c-.38,4.66,2.19,5.77,6.31,5.67,7.45-.19,14.9-.14,22.35-.05,2.92.03,6.57-.97,7.2,3.68-3.85,1.33-7.56,1.36-11.74.69-8.87-1.44-17.91-1.7-26.18,3.1,1.19-4.28-2.04-9.26,2.06-13.09Z"/>
    <path d="m276.78,383.35c-1.26,1.35-2.42,2.8-3.79,4.03-3.08,2.74,2.31,9.59-3.66,9.8-5.23.19-10.79-1.78-15.65-4.56,6.17.41,11.44-1.24,15.84-5.92,1.78-1.89,4-4.09,7.26-3.35Z"/>
    <path d="m180.05,418.94c-2.76-2-1.57-4.97-1.88-7.57,2.21-2.14,4.02-4.76,7.5-1.17,3.85,3.96,8.49,4.77,13.17.94-.86-3.65-.93-7.31.04-10.95-2.27-3.27-5.69-1.73-8.66-2.06-2.61-.3-6.45.81-5.85-3.75.46-3.51,3.65-3.67,6.62-3.8,5.48-.25,8.51,5.2,13.64,5.67,7.26-.47,12.38,4.23,18.11,7.45,1.41,1.17,2.94,2.17,4.57,3.03,8.09,3.37,12.11,9.75,13.13,18.17.4,3.33-.55,6.36-3.86,7.91-3.61,1.69-6-.25-7.87-3.14-1.93-2.98-4.02-5.69-7.96-5.96-3.8-.43-7.6-.45-11.39,0-4.25.31-5.48,3.38-6.62,6.83-1.51,4.61-3.78,9.19-9.47,8.86-6.31-.37-8.8-5.57-10.13-10.79-.85-3.31-1.08-6.75-3.1-9.66Z"/>
    <path d="m221.71,405.64c-5.69-3.13-11.38-6.26-17.08-9.39-1.17-2.64-2.61-5.43,2.24-5.62,3.04-.12,6.1-.08,9.15-.12,13.31,5.76,26.86,10.69,41.55,11.46,5.03,4.43,10.42,23.15,7.56,29.21-4.05,8.57-12.51,11.77-20.79,14.82-2.41.89-4.36-.07-5.68-2.07-1.63-2.47-1.02-5.33.9-6.9,11.03-9.05-1.1-17.57-.55-26.36.14-2.24-3.33-2.23-5.5-2.45-4.03-.41-8.04-.9-11.79-2.58Z"/>
    <path d="m149.9,394.47c1.25-1.37,2.74-2.58,3.7-4.13,5.78-9.4,9.39-9.63,16.67-.92,7.77,9.3,7.69,14.96-1.49,22.39-4.32,3.5-5.14,6.63-4.19,12.02,2.14,12.19-3.34,16.31-14.94,12.17,9.24-8.53,4.2-20.45,7.45-30.54-7.12,6.2-4.67,16.75-11.15,23.06-.59-.08-1.18-.16-1.76-.25-.61-11.7,2.79-22.71,5.72-33.81Z"/>
    <path d="m198.88,400.19c2.65,3.66,2.59,7.31-.04,10.96-5.59.44-12.5,1.83-10.87-7.24,1.05-5.82,6.81-3.66,10.91-3.71Z"/>
    <path d="m221.71,405.64c3.75.02,7.53.29,11.26.01,6.63-.5,10.28,1.78,9.52,8.99-.13,1.23-.41,2.97.25,3.67,7.49,7.99,5.88,14.74-2.38,20.91-1.37,1.02-1.52,2.76-.41,4.18,1.04,1.33,2.43,1.48,4.17,1.16,6.46-1.18,11.06-5.54,16.15-9.08,6.65-4.63,3.29-10.23,1.72-15.91-1.61-5.83.88-12.68-4.42-17.61,11.35,4.93,13.74,10.11,10.48,21.08-1.03,3.46-.71,7.32-1.01,10.99-8.31,7.16-17.13,13.37-28.32,15.17-1.85,1.34-3.94,1.86-6.19,1.76-6.14-.27-7.7-3.33-4.14-8.54,2.49-3.64,5.91-6.43,9.54-8.91,3.75-2.56,4.22-5.75,2.3-9.75-3.32-6.91-4.09-16.04-14.79-16.18-1.55-.06-2.98-.36-3.74-1.95Z"/>
    <path d="m225.44,407.59c8.04-.81,14.65-.01,13.6,10.84-.14,1.45,1.66,3.25,2.85,4.63,4.05,4.68,2.78,8.52-1.67,11.93-1.73,1.33-3.85,2.27-5.26,3.85-2.41,2.7-7.64,4.82-6.38,8.42,1.39,3.99,6.65,1.19,10.13,1.94-3.33,5.36-9.28,5.22-14.14,5.35-9.82.28-19.76,2.2-29.59-1.15-3.37-1.15-7.42-.35-11.15-.43,5.8-5.83,7.62-11.23.75-18.2-3.81-3.86-3.78-10.3-4.53-15.83,4.61,1.86,3.09,6.3,4.22,9.68,1.4,4.18,3.25,8.64,8.49,9.01,5.87.41,7.13-4.39,7.94-8.72.86-4.58,2.9-7.5,7.7-8.06.8,5.24-2.67,9.52-3.24,14.45-.49,4.17.29,7.43,5.47,5.49,6.84-2.55,12.2-12.66,11.03-19.91,4.36.16,6.62,3.34,8.67,6.45,1.46,2.21,1.57,6.1,5.68,3.92,3.03-1.6,2.67-4.5,2.18-7.45-1.3-7.79-6.33-12.52-12.75-16.22Z"/>
    <path d="m145.94,428.53c.03-7.53,4.56-14.03,4.77-21.69.08-2.76,3.51-6.85,7.35-5.9,4.12,1.02,2.18,4.72,1.86,7.88-.6,5.84-3.25,11.27-2.09,17.58.94,5.14-2.71,8.71-8.19,9.6-4.87-.7-3.43-4.51-3.7-7.48Z"/>
    <path d="m221.67,420.88c5.96,5.68,5.72,10.29-1.86,14.51-2.58,1.44-4.11,4.66-6.35,6.83-2.06,2-4.41,3.59-7.55,1.85-3.12-1.72-4.75-3.97-3.5-7.66,1.8-5.27,2.11-11.1,6-15.56,4.42.01,8.84.02,13.26.03Z"/>
  </g>
</svg>