<?xml version="1.0" encoding="UTF-8"?>
<svg id="Layer_1" data-name="Layer 1" xmlns="http://www.w3.org/2000/svg" viewBox="0 0 1080 1080">
  <path d="m569.55,603.66c-.17,20.26-6.52,39.9-6.16,60.22-1.87,9.63.99,19.87-3.82,29.12-9,.28-16.52-5.34-19.99-14.94,3.82-18.97,3.42-38,.62-57.04-.96-6.52-2.34-12.98-.59-19.58,1.38-5.23-.27-7.57-6.12-7.06-5.49.48-11.36,1.77-16.11-2.71-1.89-3.28-3.07-6.89-4.12-10.48-4.02-13.73.27-20.27,14.23-22,1.56-.19,3.12-.38,4.66-.67,10.03-1.86,10.58-2.9,6.26-11.8-.69-1.42-1.29-2.86-1.71-4.39-3.27-10.61-2.14-21.45-1.81-32.25.16-1.05.48-2.06.92-3.02,3.02-4.51,6.96-7.71,12.61-5.65,6.15,2.25,7.83,7.69,8,13.71.1,3.82-.95,7.52-1.87,11.12-2.15,8.43-.95,16.59,3.2,23.67,6.8,11.62,7.68,23.63,5.43,36.4-1.07,6.04-1.8,12.2,6.05,14.68.91.78,1.02,1.67.34,2.66Z"/>
  <path d="m506.62,762.89l-3.47-2.52c-7.95-7.09-7.43-16.99-8.29-26.22-.81-8.75-.25-17.6-.21-26.4.08-17.01,3.84-20.02,20.51-16.55,4.81,4.08,1.36,9.4,2.09,14.09-5.7,6.79-5.31,14.1-2.29,21.92,2.81,7.28,3.04,15.44,7.37,22.22,1.19,1.85,2.61,3.93,5.16,3.29,2.28-.57,1.95-2.92,2.11-4.73.4-4.43,1.95-8.34,6.88-8.69,4.39-.31,6.24,3.32,7.98,6.85,4.19,8.49,7.53,9.01,15.26,4.24,12.39-7.65,20.98-19.59,32.66-28.07,4.34-3.15,5.68-9.4,3.73-14.67-1.91-5.17-7.14-3.87-11.51-3.77-5.59.13-11.28,1.27-16.7-1.18-1.81-2.63-1.61-6.01-3.96-8.68-1.88-2.13.98-2.5,2.76-2.61,14.77-.51,29.55,1.11,44.27-.83,2.52-1.1,5.03-2.2,7.55-3.3,9,11.64,6.46,24.86,5.11,37.89-.16,1.53-1.15,3.13-2.44,3.93-9.28,5.72-14.01,14.74-18.73,24.09-3.53,7-10.39,11.7-17.72,13.11-14.3,2.74-28.47,7.47-43.53,4.76-7.45-1.34-13.52-4.26-18.93-9.48-8.82-8.52-9.24-8.32-15.68,1.34Z"/>
  <path d="m506.62,762.89c.93-3.77-1.56-9.09,3.17-11.03,5.19-2.14,8.94,2.01,11.93,5.52,10.99,12.9,25.05,14.42,40.04,10.38,9-2.43,18.76-.01,27.3-5.64,6.5-4.29,11.98-8.67,14.55-16.4,2.19-6.59,5.61-12.56,12.65-15.48,4.62-1.92,5.95-5.65,6.14-10.58.44-11.05-.69-21.82-3.85-32.39,5.69-.84,11.38-1.52,17.12-.44.89,1.02,1.4,2.19,1.49,3.55.05.89.04,1.78,0,2.68.1,3.72.89,7.39.97,11.12.17,8.91.3,17.8-.02,26.7-.7,25-11.27,42.99-36.02,51.17-6.34,2.1-13.12.83-19.32,3.16-4.25,7.5.89,16.11-2.81,23.65-2.12,2.66-4.64,2-6.34-.03-6.03-7.23-14.67-11.41-21.02-18.22.59-6.03-2.16-7.94-8.14-8.2-15.44-.69-28.26-7.1-37.83-19.49Z"/>
  <path d="m568.95,601.48c-7.83,4.64-8.83-1.51-8.89-6.43-.09-7.42,1.01-14.87,1.72-22.3.59-6.15-.64-11.9-4.06-16.99-7.48-11.14-8.13-23.04-4.47-35.53.18-.6.48-1.17.58-1.78.89-5.52.46-10.8-4.28-14.5-5.23-4.08-8.48,1.11-12.38,3.11-3.2-3.3-2.03-7.22-.69-10.53,3.82-9.46,3.85-19.48,5.01-29.32.58-4.93,1.07-10.5-6.68-10.42-4.03-2.83-6.51-6.5-6.19-11.64,4.75-4.36,1.24-11.17,4.7-15.92,3.71-.13,3.96,3.18,5.36,5.34,1.57,3.35,3.01,6.78,4.58,10.14,2.58,5.51,6.81,7.72,12.83,6.48,5.74-1.18,11.07-2.74,10.7-10.28.1-2.17.26-4.31,1.33-6.25,1.2-2.16,3.04-2.95,5.4-2.25,2.23.66,2.69,2.63,2.25,4.41-.91,3.69-.29,7.28,0,10.91-4.12,4.99-4.14,10.96-3.95,16.95.46,14.5-.09,28.49-8,41.75-4.17,6.98-6.2,15.68-4.83,25.04,3.66-6.18,5.81-12.15,6.11-18.8.18-3.92,1.31-7.75,5.83-8.58,4.54-.83,5.92,2.83,6.89,6.17,1.24,4.27,4.1,5.99,8.23,6.26-2.75,15.84-3.6,32.32-15.1,45.25-1.68,11.15,1.44,22.4-.72,33.55-.4,2.06.7,4.43-1.3,6.16Z"/>
  <path d="m537.08,435.27c-1.22-1.95-2.43-3.89-3.65-5.84-4.01-3.89-4.49-8.92-3.8-13.92,1.08-7.8.9-15.6.95-23.4-.72-26,3.15-51.88,2.19-77.9-.15-4.19-.62-7.75-3.38-11.29-6.85-8.78-11-18.81-12.16-30.02-.74-7.18-2.17-14.23-4.2-21.18-1.18-4.04-1.33-8.28,2.48-11.18,3.87-2.94,7.05-.09,10.23,1.85,4.88,7.69,8.49,15.96,11.28,24.61-1.64,10.83,5.63,18.39,10.62,26.34,5.54,8.83,8.68,17.74,9.44,28.14.78,10.64,4.07,20.94,7.12,31.22,1.64,5.55,4.1,11.51-1.14,16.75-11.18-12.62-18.36-27.01-19.24-44.37-3.32,7.22-1.67,14.69-2.65,21.88-3.47,25.52-4.82,51.12-1.74,76.82.48,3.98,1.02,8.2-2.36,11.49Z"/>
  <path d="m525.74,242.39c-12.11-1.79-13.34.08-9.08,12.26,1.62,4.65,2.68,9.62,3.11,14.53,1.18,13.57,4.06,26.22,15.59,35.16,1.36,1.06.96,2.66.9,4.28-1.05,27.71-1.97,55.43-2.93,83.15-6.21-2.15-4.15-7.59-4.47-11.85-.53-7.1,1.22-14.6-4.4-20.6-2.29-10.28-1.24-20.65-.81-31,.34-8.09,1.65-16.35-3.86-23.48-7.57-12.68-8.32-27.17-10.92-41.16-.68-3.67-1.76-7.31-2.07-11.01-.77-9.45-5.92-15.1-14.66-17.93,2.67-2.6,6.9-3.19,7.09-8.68.41-11.99,1.16-12.27,13.42-14.03.55.12,1.09.28,1.62.48-.93,11.79,9.03,19.39,11.47,29.89Z"/>
  <path d="m586.07,516.52c-4.5,5.55-7.1,4.36-9.69-1.95-1.24-3.03.55-9.31-4.78-8.71-6.23.7-3.71,6.86-4.15,10.86-.9,8.22-6.12,14.38-9.25,21.61-4.67-11.96-2.17-23.95,3.41-33.33,7.68-12.91,7.92-25.99,7.72-39.76-.05-3.45-.05-6.9,0-10.35.04-3.56,1.3-6.13,5.39-6.22,1.7.54.83,2.81,2.35,3.48,5.91,21.05,8.63,42.55,9.01,64.38Z"/>
  <path d="m563.61,369.05c.48-6.67-.89-12.96-2.85-19.36-3.38-11.02-6.63-22.15-6.59-33.9.04-12.17-9.29-20-14.36-29.77-2.16-4.17-3.76-8.55-5.81-12.74-1.29-2.64-1.15-5.71,3.02-6.28,6.9,12.14,13.54,24.43,20.89,36.3,1.92,3.09.97,6.79,3.42,9.4,2.59,9.19.6,19.03,4.03,28.09,1.41,5.51,2.81,11.03,4.22,16.54.05,17.91,6.73,35.04,6.25,52.99-.08,3,2.42,7.79-2.94,8.39-4.26.48-5.38-3.55-6.13-7.04-.33-1.54-.94-3-1.25-4.54-.53-12.69-5.21-25.19-1.91-38.08Z"/>
  <path d="m567.41,406.86c3.93,2.34-.34,11.26,5.66,9.78,4.5-1.12,2.16-8.46,1.69-12.77-1.32-12.11-3.7-24.1-5.36-36.17-.47-3.38.09-6.91.17-10.37,2.45,15.05,4.73,30.14,7.39,45.16,2.93,16.58-1.43,33.11.1,49.66-1.55-.64-2.04-2-2.34-3.48.52-3.13-2.42-5.86-.95-9.18.86-1.93,2.13-4.8-.93-5.49-4-.9-3.21,2.73-3.46,5.05-.14,1.25-.09,2.52-.13,3.77-1.34.03-2.8-.46-2.99-1.68-1.8-11.49-4.24-23.03,1.15-34.28Z"/>
  <path d="m610.99,690.57c-3.15,3.01-7.09,1.78-10.71,1.83-12.17.19-24.34.16-36.51.21-1.38.92-2.69.77-3.94-.28-.99-1.17-1.99-2.34-2.98-3.5,8.43-6.68,2.31-17.17,6.54-24.96.06,6.23.47,12.48.09,18.68-.39,6.31,2.3,8.04,8.22,7.92,13.09-.26,26.19.03,39.29.09Z"/>
  <path d="m568.95,601.48c.11-9.97.14-19.94.35-29.91.07-3.32-1.11-6.92,1.67-9.8,2.09,14.05,2.97,28.06-1.42,41.89-.2-.72-.4-1.45-.6-2.17Z"/>
  <path d="m565.36,340.79c-4.77-8.87-3.28-18.64-4.03-28.09,3.86,9,2.74,18.72,4.03,28.09Z"/>
  <path d="m552.38,1000.5c-12.41-10.14-17.85-21.87-9.51-37.47,3.44-6.43,3.72-13.68,3.87-21.01.47-22.21-1.76-44.45,1.53-66.65.84-5.67-.89-11.75-1.69-17.61-1.7-12.39,1.98-23.84,5.84-35.29,5.55,1.94,4.06,6.77,4.47,10.83.69,47.22-.52,94.45.24,141.67.14,8.72.47,17.69-4.75,25.52Z"/>
  <path d="m554.19,832.2c-.89-3.19.43-6.77-1.76-9.72.05-10.63.11-21.26.16-31.89,8.7,2.65,14.9,8.85,21.07,15.03,1.5,1.5,2.17,3.92,4.88,3.86,2.2,8.84,1.19,17.75.55,26.65-.02,10.03-.04,20.05-.05,30.08,1.35,6.16.47,12.39.5,18.59-1.8,3.88-.84,11.06-7.14,10.01-5.11-.85-3.37-7.15-3.76-11.29-.17-1.85-.07-3.73-.07-5.58-.51-18.4,1.37-36.91-2.37-55.23-2.15,7.32-1.62,14.77-1.86,22.17-.14,4.31.89,8.92-2.58,12.59-5.39,1.81-6.5-.98-6.66-5.67-.23-6.53,1.2-13.14-.89-19.58Z"/>
  <path d="m554.19,832.2c3.77,5.74,1.38,12.13,1.78,18.21.27,4.04.92,6.82,5.72,6.36,4.18,4.53,2.64,10.17,2.6,15.34-.06,8.45,1.2,17-1.04,25.36-3.03,3.31-4.69,6.88-4.54,11.73.37,11.95.13,23.91.11,35.87,0,3.54.04,6.95,3.39,9.21,2.29,3.29,2.02,7.36,3.4,10.94.81,5.65.9,11.29-.13,16.92-2.6,14.24-.07,28.59-.95,42.85-.29,4.75.58,10.46-6.45,11.59-2.06-.34-4.44.21-5.78-2.11,3.15-8.16,2.16-16.36.24-24.57-.05-3.13-.1-6.27-.15-9.4,3.76-53.25.83-106.56,1.69-159.84.05-2.82.08-5.64.12-8.45Z"/>
  <path d="m523.62,435.22c-.02-1.91-.03-3.82-.05-5.72-1.34-8.7-.99-17.43-.39-26.17,1.87-11.56-.22-23.21.71-34.79.25-3.05-.91-6.38,2.06-8.77,5.85,1.26,5.15,5.99,5.56,10.25.7,7.25-1.85,14.77,1.82,21.77,1.13,12.55-2.62,25.11.1,37.66-1.78,4.97,5.87,12.4-3.99,15.27-5.25-.27-3.49-5.34-5.41-7.89-.02-.56-.16-1.1-.42-1.59Z"/>
  <path d="m558.08,1036.58c4-1.86,3.42-5.54,3.46-8.9.17-12.14.21-24.29.42-36.43.06-3.35-.84-6.9,1.47-9.94,3.64,3.7,1.35,8.38,2.31,13.18-.73-33.23-1.4-65.84-.81-98.46.07-3.77-2.52-9.86,5.04-10.45,4.74,50.37,1.69,100.82,1.91,151.23-.31.53-.62,1.06-.94,1.59-4.3-2.56-8.65-.04-12.98-.12.02-.57.06-1.14.11-1.71Z"/>
  <path d="m512.66,212.02c-1.8,1.17-3.54,3.21-5.42,3.34-6.54.46-7.08,5.03-5.77,9.23,2.95,9.46-1.44,11.15-9.32,10.14-2.63-2.4-.75-4.84-.06-7.27,2.15-4.04,2.17-8.55,1.41-12.68-1.49-8.11.14-15.76,2.02-23.47,2.21-4.24.87-12.29,6.35-12.32,6.24-.04,4.01,7.77,5.34,12.14,2.09,6.88,3.66,13.92,5.45,20.89Z"/>
  <path d="m525.95,359.76c-.05,11.51-.05,23.02-.2,34.53-.04,3,.93,6.3-1.76,8.81-2.1-5.71-.45-11.64-.99-17.44-.66-15.93-.4-31.86,0-47.79-.49-7.93,1.05-15.93-.89-23.81-.77-3.07-1.54-6.15-2.31-9.22,4.95,3.69,6.22,8.7,6.11,14.7-.26,13.4,0,26.81.04,40.22Z"/>
  <path d="m495.52,191.31c-.57,9.1-2.11,18.17.08,27.32.82,3.4-.11,6.77-3.51,8.84.27-12.13-2.79-24.58,3.43-36.15Z"/>
  <path d="m522.11,314.06c3.67,7.38,1.45,15.21,1.75,22.85-.62.82-1.23.86-1.83-.03-.01-3.15-.02-6.29-.03-9.44.04-4.46.08-8.93.11-13.39Z"/>
  <path d="m578.62,1023.13c-2.57,2.8-1.62,6.28-1.67,9.49-.06,3.62-1.1,5.87-5.2,5.38-3.53-3.63-2.5-8.25-2.5-12.53-.09-46.76-.08-93.52-.1-140.28-2.1-2.2-1.88-4.61-.66-7.12.74-.92,1.63-1.1,2.67-.54v15.97c.7.12,1.39.24,2.09.35,1.75-2.91,3.51-5.81,5.26-8.72,1.56,1.52,1.16,3.49,1.17,5.33.02,42.1.02,84.2.01,126.3,0,1.58.02,3.15-.87,4.54-.05.61-.12,1.22-.19,1.82Z"/>
  <path d="m578.81,1021.31c-.1-45.39-.2-90.78-.3-136.17.17-6.31.35-12.63.52-18.94,2.37,2.68,1.54,5.96,1.54,9,.06,45.75.07,91.5.01,137.24,0,3.01.95,6.35-1.77,8.87Z"/>
  <path d="m580.79,783.3c0,10.01,0,20.02,0,30.03-1.05,7.56,1.44,15.38-1.72,22.78-.18-8.88-.36-17.76-.54-26.65-.06-7.91.03-15.83-.28-23.74-.1-2.37.9-2.45,2.54-2.44Z"/>
  <path d="m512.84,588.26c-2.3-3.69-4.84-7.25-6.87-11.09-6.23-11.82-.38-23.89,12.74-27.03,2.94-.7,5.66-2.34,8.48-3.55,2.83-1.94,1.34-6.17,4.28-8.06,4.33-1.6,5.74,1.79,7.59,4.44.86,1.66,1.57,3.44,2.61,4.98,6.08,8.95,5.6,10-5.68,12.22-2.74.54-5.45,1.45-8.21,1.65-12.9.96-16.68,6.73-12.15,19.15,1.18,3.22,3.09,6.18,2.48,9.83-1.76-.84-3.51-1.69-5.27-2.54Z"/>
  <path d="m516.35,692.25c.5-.37,1.25-.63,1.45-1.12,4.21-10.53,12.46-13.57,22.97-12.48,4.9,6.58,10.38,12.36,19.06,13.69,1.31.09,2.62.18,3.93.28,4.65,1.67,9.47,3.27,3.66,9.13-5.39,2.95-11.03,1.01-16.3.13-8.87-1.49-17.12-1.45-25.15,3.2-2.82,1.64-6.29,2.93-9.61.46-3.41-4.43-.92-8.85,0-13.28Z"/>
  <path d="m535.33,457.75c0-.6,0-1.2-.03-1.8.44-1.42.69-3.77,2.67-2.85,3.43,1.6,7.05,4.32,6.49,8.33-1.32,9.48-.38,19.25-3.48,28.47-1.89,5.61-3.99,11.12-3.8,17.17-.04.62-.06,1.24-.05,1.86-1.92,3.45-.21,7.28-1.06,10.79-1.41,5.83-4.1,6.54-7.69,1.4-.53-7.85-.07-15.65,1.28-23.4,2.08-9.79,4.21-19.56,6.21-29.37.72-3.53,2.47-7.21-.54-10.59Z"/>
  <path d="m529.68,522.07c4.77,2.39,5.26-.78,5.65-4.26.33-3.01-1.05-6.39,1.8-8.89.28,11.37-.92,22.83,1.92,34.06-2.62-1.06-4.27-4.06-7.57-3.78-4.38-5.31-3.11-11.21-1.81-17.12Z"/>
  <path d="m516.36,705.53c4.09-1.42,8.7-2.07,12.14-4.44,4.27-2.94,8.61-3.55,13.25-3.01,8.58,1,17.12,2.42,25.67,3.66,6.87-.29,13.72.48,20.63-.7,7.87-1.34,12.63,3.8,11.28,11.5-1.22,6.96-4.34,11.78-10.87,16.18-9.1,6.14-16.1,15.23-25.16,21.98-11.35,8.45-15.62,8.07-21.19-4.77-1.28-2.96-3.02-6.18-6.81-4.78-3.22,1.18-4.45,4.42-3.49,7.86.79,2.82,2.03,5.64-1.75,7.07-3.86,1.46-7.06-.26-8.83-3.49-6.54-11.95-9.01-25.21-11.21-38.42-.64-3.82,2.84-6.74,6.33-8.64Z"/>
  <path d="m567.41,406.86c1,11.97-2.07,24.14,1.84,35.96.67,9.89-7.53,9.26-13.4,10.93-6.15,1.75-11.25-.54-14.13-6.28-1.95-3.87-3.12-8.12-4.64-12.2-1.96-18.68-2.19-37.44-1.75-56.18.43-18.38,4.74-36.51,3.8-55.01-.14-2.67.84-5.18,3.88-5.58,3.88-.52,3.28,2.85,3.91,5.08.26.9.94,1.82.83,2.67-2.1,17.02,9.93,28.78,15.86,42.81,2.22,12.51,3.58,25.1,3.81,37.81Z"/>
  <path d="m571.16,877.54c-.53.06-1.06.12-1.59.18-6.41-9.9-1.2-20.91-2.95-29.11-.58,34.03-1.49,70.2-1.16,106.38.03,3.31,1.08,7.03-2.15,9.7-2.54-2.87-1.12-6.41-1.62-9.62-2.28-2.46-2.73-5.5-2.74-8.68-.05-13.07-.05-26.14,0-39.21.01-3.17.4-6.22,2.67-8.7.02-13.9.04-27.8.06-41.7.03-11,.01-22.01.1-33.01.02-3.02-.76-7.15,3.46-7.61,4.39-.48,4.29,4.12,4.84,6.83.87,4.24.96,8.69,1,13.06.12,13.83.06,27.66.07,41.49Z"/>
  <path d="m529.68,522.07c-.35,5.81-.01,11.54,1.81,17.12-.54,2.98-.92,6.06-4.3,7.41,1.02-8.42.94-16.75-.44-25.21-1.3-8.01.51-15.96,2.91-23.68,0,8.12,0,16.24.01,24.36Z"/>
  <path d="m563.31,964.68c.12-39.52.16-79.03.47-118.55.03-3.59-2.29-10,2.94-10.12,4.1-.1,2.29,6.26,2.41,9.73.37,10.65.32,21.32.43,31.98-.14,2.49-.28,4.99-.42,7.48-2.82,2.89-1.66,6.53-1.67,9.85-.1,33.83-.07,67.66-.08,101.5,0,3.37,0,6.75-1.43,10.21-3.42-8.23-1.55-17-2.53-25.44-.05-5.54-.09-11.09-.13-16.63Z"/>
  <path d="m561.63,898.48c.02,18.86.05,37.73.07,56.59-4.79.49-5.68-2.25-5.64-6.31.12-14.64.11-29.28,0-43.92-.03-4,.73-6.85,5.58-6.36Z"/>
  <path d="m522.03,336.89c.61,0,1.22.02,1.83.03-.03,16.37-.06,32.74-.09,49.11-.55.86-1.13.92-1.74.05-1.16-12.68-1.84-25.37-.71-38.09.33-3.69.47-7.4.7-11.1Z"/>
  <path d="m522.04,386.08c.58-.01,1.16-.03,1.74-.05.07,5.69.14,11.38.21,17.08-.14,8.8-.28,17.6-.42,26.39-5.49-14.3.14-28.98-1.53-43.42Z"/>
  <path d="m563.75,438.21c.49,4.12-1.27,7.06-5.2,7.77-5.15.94-10.01-.29-13.43-4.62-1.11-1.41-2.01-3.42-2.05-5.18-.21-9.43-.29-18.86-.02-28.29.08-2.73,1.1-6.04,3.86-7.12,2.84-1.11,4.05,2.27,5.86,3.78,4.47,3.72,7.34,7.88,7.44,14.36.11,6.45,2.27,12.86,3.53,19.29Z"/>
</svg>