<?xml version="1.0" encoding="UTF-8"?>
<svg id="Layer_1" data-name="Layer 1" xmlns="http://www.w3.org/2000/svg" viewBox="0 0 1080 1080">
  <defs>
    <style>
      .cls-1 {
        stroke: #000;
        stroke-miterlimit: 10;
      }
    </style>
  </defs>
  <path d="m600.38,733.61c-8.06-5.8-17.2-10.45-17.87-22.51-.27-4.85-9.59-5.85-6.96-12.94,2.08-4.71,4.46-9.18,9.47-11.49,4.54-6.93,8.84-5.49,12.44.7,3.57,6.12,8.29,11.24,14.33,14.52,8.19,4.45,9.21,13.77,14.99,19.81,11.21,11.73,22.69,23.14,35.28,33.4-.28.14-.56.4-.84.39-11.25-.24-17.43,4.32-15.62,16.45-3.94.69-4.74-3.19-7.09-4.82-11.06-13.04-25.06-22.75-38.12-33.51Z"/>
  <path class="cls-1" d="m600.38,733.61c14.78,6.58,25.93,17.67,36.92,28.96,2.6,2.67,2.94,6.87.67,9.82-.04.05-.07.09-.11.14-4.58,5.8-12.81,7.24-19.34,3.79-4.49-2.37-8.05-6.03-9.81-12.34-1.69-6.03-8.34-8.13-12.46-12.3,3.97-5.43,10.23-10.33,4.13-18.06Z"/>
  <path d="m596.25,751.67c-16.38-10.7-36.25-14.92-51.48-27.85-2.21-1.88-5.8-2.14-8.74-3.15-4.09-1.76-11.76-.28-6.7-9.49,1.94-3.54-4.13-4.99-6.71-7.24-19.16-8.31-27.43-25.48-35.47-43.03-7.16-15.63-17.94-28.6-30.91-39.78-4.23-16.94-2.79-21.13,12.27-28.04,11.27-5.17,19.35-11.52,20.17-25.28.41-6.82,5.19-10.19,11.68-3.99.53.67,1.06,1.34,1.59,2-6.57,4.5-6.97,10.21-4.08,17.19,5.32,12.88,7.78,26.42,8.56,40.35.52,9.33,4.23,12.46,13.6,12.67,1.45-3.07-1.6-4.36-2.66-6.35-2.62-4.9-3.29-9.61,1.07-13.78,4.03-3.86,8.91-3.62,13.02-.68,12.96,9.27,26.64,4.07,40.17,2.58,1.51-.22,2.87-.04,3.79,1.35,20.15,21.44,38.39,44.36,53.76,69.51,2.76,4.52,6.17,8.64,9.28,12.94,3.9,4.43,8.97,7.46,8.97,15.09,0,4.89,6.91,6.19,11.53,7.84,8.57,3.23,18.16,17.77,16.64,26.32-1.65,9.29-8.01,5.93-13.52,4.26-5.87-1.74-10.7-5.21-14.76-9.61-10.55-11.41-22.63-21.17-30.76-35.13-5.31-9.11-16.34-14.32-22.74-23.39-2.73-3.88-6.34,1.69-9.41-.43-1.91-2.83-1.8-6.02-1.11-9.06,1.17-5.18.22-9.04-4.83-11.79-5.89-3.19-5.97-9.89-8.35-15.21-2.33-5.19-2.39-12.58-9.83-13.53-7.26-.93-12.97,3.33-16.38,9.1-4.94,8.36-11.69,13.19-20.85,16.06-9.86,3.09-3.92,8.98-1.43,13.98,1.35,2.35,3.06,4.52,3.7,7.23-.02.94-.41,1.71-1.14,2.3-7.75.64-10.17-6.21-14.52-10.35-1.69-1.61-3.25-5.12-5.89-2.87-2.71,2.31-.59,5.37,1.43,7.35,5.03,4.93,11.68,7.25,17.71,10.59,7.41,4.11,15.12,7.56,22.98,11.12-1.66-4.86-5.41-7.19-10.01-9.02-2.94-1.17-8.13-.45-7.22-6.29,6.88-1.94,11.38-4.45,6.33-12.9-2.83-4.74-2.02-10.75,2.4-14.78,4.03-3.68,9.1-2.29,13.33-.14,6.78,3.44,12.36,9.74,21.34,7.01,2.05-.62,3.58,2.14,4.57,4.17,5.22,10.71.67,24.04-10.04,29.52-1.33.68-3.12.83-3.52,2.96,5.57,2.75,7.62-4.83,12.36-4.24,4.54,6.28,9.54,12.07,11.43,20.12,1.78,7.57,10.53,9.47,14.98,15.12,5.22,10.25,4.56,12.43-5.57,18.7Z"/>
  <path d="m327.82,386.3c1.98,4.86,3.95,9.72,5.93,14.58,5.31,13.07,15.19,20.91,28.15,25.97,12.13,4.73,22.62,12.47,31.19,22.21,9.61,10.92,21.71,18.74,32.67,27.97-7.31,3.17-12.62-.17-17.31-5.38-5.67-6.3-11.18-12.79-19.7-17.78,1.78,4.54,3.58,8.12,3.2,12.09-.41,4.39-2.87,6.83-7.32,7.18-25.84-4.66-38.54-23.1-47.26-45.46-2.03-5.2-3.67-10.17-10.31-10.5-2.52-.13-5.41-.31-6.61,2.4-1.23,2.78.97,4.66,2.84,6.36,4.47,4.05,11.74,5.32,12.73,12.82-6.19,5.74-5.58,11.88-1.22,18.38,2.04,3.05,4.81,5.99,3.06,10.23-3.31,2.06-6.76.49-10.15.4-6.37-15.66-17.53-26.72-31.89-35.49-9.84-6.01-10.19-19.46-2.03-27.17,3.34-2.59,7.35-4.21,8.61-9.15,3.61-14.14,11.37-16.96,25.4-9.67Z"/>
  <path d="m384.58,471.35c5.57-.7,6.46-4.15,5.02-8.78-1.16-3.75-2.54-7.43-4.19-12.23,10.72,2.83,16.78,10.22,22.37,17.18,4.97,6.18,10.65,8.86,17.98,9.5,7.5,5.7,15.16,11.2,22.4,17.21,2.47,2.04,5.82,3.66,6.63,7.34-2.4,2.35-5.26,2.25-7.84.81-11.73-6.55-25.12-10.21-34.95-20.06-1.33-1.33-2.89-2.42-4.65-3.17-1.81-.77-3.87-1.32-5.19.4-1.79,2.31-.08,4.02,1.68,5.53,3.67,3.15,9.75,3.16,11.5,8.81-5.86,5.69-4.81,11.71-.39,17.47,3.92,5.11,6.27,10.46,6.29,17.06.02,6.24,3.67,11.04,8,15.26,4.01,3.73,6.54,8.15,7.24,13.71.35,2.75,1.54,6.17,5.02,5.59,3.44-.57,2.98-4.23,3.19-6.97.4-5.03-1.51-9.14-5.23-12.43-6.4-5.67-10.94-12.7-14.98-20.13-.97-2.17-1.85-4.36-.35-6.65.75-.61,1.61-.92,2.58-.94,6.46,9.98,16.63,14.6,27.05,19.04,3.39,1.44,6.25,4.03,8.63,6.98.92,1.29,2.14,2.26,3.34,3.28,2.63,2.21,5.79,4.38,4.77,8.44-1.02,4.05-4.7,4.67-8.16,5.18-5.01.75-9,2.71-10.46,8.03-1.32,4.78-1.78,10.37-8.41,10.86-4.39.33-14.4-7.42-15.1-12.61-1-7.36-5.36-12.34-9.41-17.97-3.94-5.46-8.74-7.63-15.02-7.74-7.01-2.93-11.8-8.19-15.38-14.72-.82-4.6-3.92-7.73-7.16-10.67-5.77-5.24-8.04-11.66-7.02-19.31,1.21-1.65,3.03-1.48,4.01-.33,4.77,5.61,8.16,3.89,12.5-.98,4.84-5.43,2.71-9.4-.7-14.02-1.92-2.61-6.11-3.68-5.61-7.98Z"/>
  <path d="m571.87,618.81c-1.22,2.52-3.24,3.63-6.03,3.73-7.52.28-15.01-2.29-22.63,1.51-3.05,1.52-6.73-2.31-9.71-4.72-4.55-3.68-9.78-7.34-14.64-1.05-4.19,5.42-.94,10,3.63,13.59,1.74,1.37,4.09,2.36,2.99,5.07-.96,2.35-3.32,2.49-5.6,2.66-8.35.62-15.91-5.14-15.92-13.75-.03-16.6-4.56-32.08-10.12-47.39-2.9-8-.34-12.08,8.08-12.62,12.99,13.26,26.54,25.81,43.44,34.09,1.4,1.23,4.43.81,4.62,2.75.9,9.17,7.42,10.18,14.57,11.02,3.04.36,6.11,1.66,7.3,5.14Z"/>
  <path d="m403.52,537.52c11.71,0,25.54,11.84,26.28,23.84.55,8.87,7.39,11.39,13.05,14.08,4.24,2.02,5.79-2.93,6.1-6.96.57-7.33,4.56-11.39,11.91-12.05,3.01-.27,7.03.78,7.95-3.17.87-3.73-2.93-4.96-5.43-6.74-1.22-.87-2.08-2.25-3.1-3.39,2.83-2.06,7.16-.73,9.38-4.18,6.47.03,8.99,5.87,13.15,9.18,4.48,3.58,4.9.52,5.75-2.64,3.92,6.11,7.84,12.22,11.76,18.33-4.43-1.77-10.03-3.07-9.49,3.76,1.45,18.41-11.91,23.61-24.7,29.14-6.44,2.79-11.21,4.9-8.23,13.49,1.07,3.07-1.03,7.25-1.69,10.92-1.25-.68-2.5-1.36-3.75-2.04-1.03-1.55-3.78-2.32-3.73-3.86.33-11.85-9.69-13-17.03-16.94l.15-.29c4.73-9.87-2.16-13.61-9.14-17.25-7.58-3.95-14.87-8.07-14.11-18.39,4.32-2.2,6.1,1.76,8.61,3.69,3.65,2.81,6,7.28,12.41,9.01-8.21-12.59-13.08-25.9-25.03-34.29-1.06-.74-1.61-1.88-1.1-3.27Z"/>
  <path d="m409.18,562.1c1.75,7.79,6.25,13.2,13.69,16.31,3.7,1.55,7.11,3.57,10.16,6.38,5.6,5.15,6.48,9.44-1.15,13.22-6.61-2.42-12.1-6.44-16.68-11.75-10.19-11.84-20.39-23.66-30.59-35.49-5.63-8.86-11.25-17.73-16.88-26.59-3.07-4.81-8.24-7.83-11.05-12.86-2.19-4.17,5.67-10.89-3.39-13.31-4.65-1.68-8.79-4.14-12.05-7.92-5.71-6.71-11.38-13.44-13.52-22.31,3.1-3.88,6.36-1.64,9.59-.23,9.26,9.34,17.41,19.96,29.74,25.8,5.03,3.69,7.02,8.77,6.77,14.85-.2,5.03,2.68,8.67,5.32,12.58,9.5,14.15,21.78,26.28,30.04,41.32Z"/>
  <path d="m414.87,494.02c-3.79-1.99-7.58-4.01-11.39-5.96-4.4-2.26-7.46-5.63-4.52-10.42,2.85-4.64,7.53-2.7,10.7-.23,5.88,4.58,11.06,10.31,18.05,13.08,9.07,3.59,16.98,10.05,27.08,11.09,1.27,3.14,2.54,6.27,3.8,9.41-3.2,1.71-5.88-.36-8.61-1.35-3.51-1.28-6.48-1.37-8.8,2.01-1.15.51-2.52.96-3.52.31-6.17-3.99-9.13-.51-11.42,4.72-.65.02-1.3.03-1.95.05-.42-.14-.83-.29-1.25-.43-5.87-4.09-3.38-11.33-6.25-16.55-1.06-1.77-3.07-3.23-1.94-5.73Z"/>
  <path d="m441.33,511.08c-1.8-3.59-1.74-6.62,3.3-5.39,4.8,1.17,9.32,3.49,13.96,5.3,13.37,8.57,22.74,20.61,29.98,34.5-.79,2.26,2.35,5.27-.5,6.73-2.79,1.43-5.23-.73-7.35-2.77-3.58-3.44-7.3-6.74-10.97-10.09-3.11-.45-4.88-2.72-6.54-5-4.68-6.42-10.34-11.75-16.91-16.23-2.41-1.65-5.87-2.92-4.97-7.06Z"/>
  <path d="m571.87,618.81c-4.78-2.53-9.92-3.89-15.29-3.63-5.48.27-8.57-1.46-7.48-7.38.67-3.68-1.32-5.82-3.73-7.89,6.52.64,13.15.77,19.54,2.07,6.65,1.35,8.52,7.55,10.76,13.02-.09,1.38-.19,2.77-.28,4.15-1.17-.11-2.35-.23-3.52-.34Z"/>
  <path class="cls-1" d="m358.13,511.03c2.32,5.02,8.66,7.12,9.6,13.15-8.44-5.36-13.86-14.12-22.6-19.42-4.39-2.66-1.87-9.87-3.9-14.67,4.24,2.01,8.47,4.01,12.71,6.02,2.78.99,4.14,2.83,2.63,5.63-1.96,3.62-.39,6.44,1.56,9.29Z"/>
  <path class="cls-1" d="m327.82,386.29c-4.5-1.27-8.99-2.29-13.76-2-5.1.32-8.8,2.56-8.69,7.75.18,8.31-4.25,11.78-11.57,13.07,2.6-4.05,6.13-7.28,6-13.06-.12-5.43,4.32-8.77,9.52-9.96,6.73-1.54,13.37-1.75,18.49,4.2Z"/>
  <path class="cls-1" d="m431.72,598.31c3.65.76,7.36,1.33,10.94,2.33,4.96,1.38,10.28,2.62,6.75,10.02-1.68,3.52,2.69,5.37,3.07,8.44-2.47-1.29-4.81-3.02-7.44-3.79-6.39-1.86-13.18-2.89-10.29-12.51.33-1.1-1.96-2.98-3.04-4.5Z"/>
  <path d="m522.61,703.95c3.04-.29,5.39,1.51,7.78,2.85,3.17,1.77,10.04,3.62.59,6.83-3.74,1.27-1.79,3.27.11,4.61,1.49,1.04,3.28,1.65,4.94,2.44-6.54.92-10.43-1.3-9.66-8.52.38-3.6-2.22-5.61-3.75-8.21Z"/>
  <path d="m585.03,686.67c-2.11,4.69-5.54,8.3-9.47,11.49-4.12,2.21-5.07,9.13-11.78,7.64-2.46-.55-5.48-.22-6.16-3.15-.77-3.29,2.2-3.79,4.57-4.73,13.01-5.18,16.83-12.9,13.09-26.23-1.05-3.75-2.79-6.64-7.22-3.71-4.89,3.23-8.12.73-11.29-2.8-2.09-2.32-4.34-4.39-7.65-5.15-3.87-.88-7.92-3.56-11.16.66-2.88,3.75-2.87,8.25-1.02,12.5,5.39,12.37,4.81,13.36-8.59,13.66-2.05.94-3.05-.22-3.79-1.89.02-.64.04-1.27.06-1.91,1.84-2.11,5.8-1.11,6.76-4.33,1.16-3.88-.57-7.27-2.48-10.49-.86-1.44-2.35-2.23-3.95-1.42-3.2,1.61-1.93,4.87-2.46,7.46-.26,1.25-.71,2.35-1.72,3.17-9.02-9.59-8.08-15.04,3.71-18.58,6.88-2.07,12.59-4.57,15.61-11.93,1.44-3.52,4.94-6.49,8.08-8.98,9.2-7.3,17.41-5.06,21.92,5.78,1.68,4.03,2.94,8.23,4.39,12.36.62,1.77.85,4.74,1.94,5.11,14.25,4.79,8.43,16.11,8.6,25.47Z"/>
  <path d="m524.57,684.96c1.26.63,2.53,1.26,3.79,1.89,6.22,4.44,15.46,3.46,19.88,11.25,1.2,2.11,3.97,3.83,1.75,6.46-1.84,2.19-4.1.47-5.97-.51-12.46-6.5-24.92-13.01-37.28-19.69-1.87-1.01-3.54-2.7-4.83-4.43-2.67-3.57-3.58-8.32-.15-11.02,3.71-2.91,6.82.74,9.16,3.91,3.69,5,6.92,10.54,13.64,12.13Z"/>
  <path class="cls-1" d="m520.77,677.45c0-.31,0-.62.01-.93.23-5.11-3.33-11.83,5.12-13.61,3.73-.78,9.35,8.43,8.9,14.82-.48,6.83-5.21,6.55-10.18,5.33-2.49-1.04-3.8-2.89-3.85-5.61Z"/>
  <path d="m384.58,471.35c.96.78,1.91,1.57,2.88,2.34,12.35,9.83,11.83,20.04-1.31,28.22-2.23,1.39-3.59.54-4.62-1.19-1.64-2.74-3.35-5.33-6.34-6.75-2.69-.63-3.99-3.08-6.02-4.59-9.68-15.03-22.23-28-31.41-43.39-1.24-2.08-3.4-3.87-2.37-6.76-2.08-4.1-5.58-6.56-9.53-8.7-4.67-2.53-9.89-5.06-8.95-11.73.57-4.01,4.08-3.93,7.31-4.28,7.2-.78,12.83,1.48,14.38,8.83,1.94,9.21,6.76,16.78,11.97,24.19,3.76,5.35,7.98,10.39,12.16,15.44.92,1.11,2.72,2.57,3.77,2.33,7.33-1.61,12.14,3.86,18.09,6.02Z"/>
  <path class="cls-1" d="m335.38,439.24c11.98,16.38,23.97,32.75,35.95,49.13,1.96,5.69.39,7.89-5.62,5.67-12.76-5.3-22.38-13.97-28.4-26.5-.06-7.02-7.08-10.56-8.32-17.49-1.19-6.61.36-9.48,6.39-10.81Z"/>
  <path class="cls-1" d="m409.18,562.1c-11.82-11.47-20.69-25.28-30.5-38.35-3.31-4.41-7.85-8.22-7.26-14.57,6.63-4.16,8.28,2.93,11.9,5.39,3.43,2.32,5.01,6.19,6.99,9.68,3.61,5.22,8.07,9.59,13.23,13.27,10.75,6.03,16.38,16.24,21.93,26.57,1.3,2.43,3.18,4.56,4.87,6.76,1.44,1.87,4.37,3.43,2.14,6.25-2.52,3.19-5.42.91-7.36-.69-5.51-4.53-10.64-9.51-15.92-14.31Z"/>
  <path class="cls-1" d="m441.33,511.08c10.55,8.35,21.49,16.31,28.42,28.29.09,9.41-5.85,3.66-9.46,3.76-5.8-5.67-12.09-10.53-20.53-11.3-3.9-.36-6.02-2.63-7.82-5.72-1.85-3.17-2.65-6.98-5.69-9.43.16-12.09.35-12.19,10.67-7.01,1.36.68,2.93.95,4.41,1.41Z"/>
  <path d="m426.21,522.38c4.78,8.16,10.2,15.76,17.33,22.14,5.88,5.26,3.75,12.21,2.57,18.56-.4,2.16-2.71,4.92-5.63,3.75-3.22-1.29-6.53-3.93-6.35-7.55.29-5.98-2.64-10.09-6.02-14.25-3.11-3.98-6.1-8.12-7.65-12.92-1.62-5.01-1.24-9.5,5.75-9.75Z"/>
  <path d="m392.34,509.76c.72-2.18,1.26-5,2.54-7.44,2.05-3.92,5.05-4.89,7.59-.52,3.43,5.92,6.94,11.72,11.28,17.06,2.18,2.69.92,5.55-2.21,6.77-4.96,1.94-19.78-10.06-19.2-15.88Z"/>
  <path d="m426.21,522.38c-6.26,3.07-6.21,7.36-3.12,12.94,1.75,3.17,4.95,5.68,5.03,9.72-6.32-4.12-9.39-10.25-9.3-17.49.06-5.44-1.61-9.53-5.03-13.61-2.31-2.76-3.96-6.08-4.99-9.93-1.65-6.19.25-8.96,6.08-10,1.26,1.26,2.52,2.52,3.77,3.77,1.81,6.33-1.62,14.23,5.67,18.93,0,0,0,0,0,0,.64,1.89,1.27,3.77,1.91,5.65Z"/>
  <path d="m390.3,524.25c-6.71-4.5-8.55-15.1-18.88-15.07,1.22-6.22-1.84-10.84-5.71-15.14,4.15.37,6.08-1.47,5.62-5.67,1.28,1.87,2.56,3.74,3.85,5.6,1.01,8.87,4,16.67,11.62,22.12,2.71,1.93,3.87,4.78,3.49,8.16Z"/>
  <path class="cls-1" d="m452.69,584.41c.11-12.34,8.81-22.3,20.86-23.96,5.35-.74,7.76,1.77,7.48,6.89-.62,11.43-6.4,20.36-15.32,26.7-7.34,5.22-13.11.59-13.02-9.63Z"/>
  <path class="cls-1" d="m358.13,511.03c-3.6-2.94-10.37-5.04-2.78-10.95.35-.27-.9-2.6-1.4-3.97,5.97.82,8.57,3.38,5.29,9.5-.84,1.56-.76,3.6-1.11,5.42Z"/>
</svg>