<?xml version="1.0" encoding="UTF-8"?>
<svg id="Layer_1" data-name="Layer 1" xmlns="http://www.w3.org/2000/svg" viewBox="0 0 1080 1080">
  <path d="m354.96,261.55c-3.52-.34-6.81-1.26-9.48-3.75-7.3-7.43-16.2-12.4-25.47-16.9-6.77-3.29-13.47-6.84-14.39-15.6,9.45-3.14,9.83-11.35,2.97-20.67-11.79-16.02-23.21-32.26-36.98-46.71-1.89-1.98-3.67-4.42-2.35-7.6,5.11-2.28,7.26,1.61,9.36,4.83,3.31,5.09,6.55,4.71,10.16.53,6.64,5,10.29,12.52,15.63,18.64,11.36,13.02,22.46,26.27,36.31,36.83.25.19.67.38.7.61,1.73,13.95,16.4,12.04,23.68,19.27,7.78,7.74,15.71,15.35,25.49,20.79,6.37,3.55,12.6,5.54,19.73,2.99,3.23-1.15,7.55-1.34,8,2.21,1.56,12.2,12.11,19.71,15.16,30.96.93,3.43,5.2,7.32,1.66,10.25-4.04,3.35-8.53.02-11.58-3.08-5.81-5.9-12.96-9.86-19.58-14.57,1.18-4.37-2.22-5.98-4.89-7.93-2.46-1.79-5.69-2.56-7.29-5.5-.95-2.6-1.2-6.29-4.19-6.9-12.94-2.66-22.4-11.99-34.03-17.07-2.65-1.16-5.67-2.75-9.05-.61,6.27,5.05,15.62,5.93,18.47,14.79-1.72,3.22-5.29,2.92-8.03,4.2Z"/>
  <path d="m305.87,225.55c8.52,14.05,25.22,16.5,37.03,25.92,2.49,1.99,6.57,2.15,2.57,6.33-19.8-5.42-38.86-12.21-53-28.24-.87-.91-2.34-1.44-2.71-2.56-3.56-10.99-12.9-16.31-21.6-22.28-7.64-5.38-15.83-10.18-21.92-17.36-3.65-4.31-7.58-4.64-12.34-3.31-10.74,1.49-14.97,10.45-17.09,18.54-2.56,9.76-4.91,20.08-3.8,30.55-.15,2.76-2.03,4.58-3.8,6.24-4.54,4.25-11.15,8.14-6.79,12.58,4.54,4.64,5.03,11.62,7.79,17.13-2,6.64.63,2.57-2.96,1.91-2.94-1.53-4.48-4.22-5.84-7.07-.36-.87-.56-1.95-1.25-2.51-23.29-19.32-13.45-42.11-6.79-64.55.27-.9.53-2.03,1.22-2.52,9.86-7.02,16.32-15.43,18.76-28.2,1.39-7.27,10.22-5.62,15.99-1.81,6.39,4.23,12.87,7.89,20.74,8.21,12.33,6,19.42,18.24,30.55,25.72,2.3,1.54,3.91,4.51,6.57,5.14,11.83,2.8,14.74,12.84,18.67,22.14Z"/>
  <path d="m201.8,329.9c-.1-3.39-5.44-24.44-4.36-27.77,3.05-2.53.23-2.87,1.06-7,2.09-10.32,3.79,1.62,10.94,4.08,1.52.52,3.03-.35,4.51.36,0,12.3-2.07,24.16-3.48,36.18-1.78,15.1-2.96,30.34-4.57,45.49-.55,5.16-.73,11.53-5.35,12.57-4.42,1,1.65-13.46-.24-17.39"/>
  <path d="m288.78,155.68c.11,3-.4,5.79-3.92,6.35-3.05.49-5.54-1.1-6.9-3.68-1.92-3.65-3.84-7.1-8.2-8.24-.61.21-1.39.5-1.8.18-12.5-10.12-25.57-7.02-38.73-1.72-11.77,9.63-26.7,16.22-29.71,33.86-1.48,8.68-6.32,10.16-13.19,5.08-2.28-1.69-4.81-2.91-7.12-4.51-3.15-6.82,2.41-8.75,6.54-11.13,9.77-5.63,18.27-12.83,26.99-20.01-2.55-3.05-5.3-.07-7.37-1.57-.57-.78-.65-1.58-.15-2.43,11.91-8.93,25.14-14.95,39.51-18.94,12.73-3.53,22.84-.05,31.24,9.47,4.75,5.38,9.61,10.74,12.82,17.29Z"/>
  <path d="m139.36,288.04c-7.65-13.99-3.75-27.04,10.11-33.46,4.46-2.07,7.95-4.85,9.02-9.91,1.62-4.61.33-9.38.78-14.04,3.48-4,4.05.4,4.57,1.98,1.68,5.07,4.5,4.05,7.79,1.99,9.15,5.51,13.42,14.76,18.12,23.68,4.22,4.83,9.11,9.11,12.11,14.94,5.23,10.26,4.42,12.53-5.18,14.68-3.63-.65-5.96-3.09-8.04-5.86-1.5-2.4-3.26-4.67-5.33-6.56-5.54-5.07-7.43-17.64-19.23-10.37-7.01,4.31-15.63,7.13-17.77,16.99-.65,3-.99,8.29-6.95,5.96Z"/>
  <path d="m164.08,323.94c-.77-7.44-1.54-14.88-2.31-22.32-4.74-6.22-4.6-12.69-1.07-19.37,2.92-5.53,6.46-10.12,13.61-9.72,7.05.4,11.67,4.04,14.15,10.55.67,1.76.01-2.72-.22,5.06-5.5,8.02-3.13,4.17-7.92,11.75-4.51,3.19-1.92,17.87-5.55,22.47-2.67,3.37-6.57,4.81-10.68,1.59Z"/>
  <path d="m171.5,235.09c-.27,3.11-1.55,5.6-5.03,5.35-3.45-.25-4.35-2.96-4.4-6.01-.03-1.87-.1-3.72-1.61-5.13-2.31-6.22-1.24-12.55-.57-18.87,2.82-15.99,8.91-30.33,20.93-41.7,7.02-7.78,13.83-15.85,24.54-18.83,3.71-.39,7.83-6.44,10.57-1.88,2.68,4.45-3.19,7.96-6.49,9.84-8.87,5.07-14.98,14.03-25.21,17.14-2.92.89-5.13,3.54-5.14,7.15-3.62,12.38-10.48,23.86-8.98,37.65.55,5.04,4.46,9.92,1.39,15.28Z"/>
  <path d="m188.24,288.14c-2.87-3.59-2.45-9.2-7.41-11.55-4.19-1.98-9.05-3.46-12.51-.54-5.36,4.52-8.34,10.94-8.01,18.29.11,2.44.95,4.86,1.46,7.28-3.57-3.8-8.15-5.33-13.13-6.52-3.88-.93-7.68-2.77-9.29-7.06,2.07-.21,3.71-1.11,3.85-3.34.92-14.27,13.7-17.27,22.7-23.75,3.98-2.86,8.07-1.06,10.82,2.27,4.72,5.71,8.94,11.84,13.36,17.79-.28,2.46,1.06,5.35-1.85,7.14Z"/>
  <path d="m197.74,308.61c-2.01-11,.01-10.94-1.58-21.98q6.08-2.08,2.75-13.27c1.82-.82,4.15-.11,4.94-3.95,2.11-.51,4.32,4.14,6.35-.3,2.44,10.52,4.74,21.07,3.31,32.51-1.48,2.98-3.01,5.02-5.41,1.67-3.43-4.78-5.35-2.05-6.39,3.46-.67,3.52.48,13.3-.1,16.87-.31,1.91-1.67-12.7-3.87-15Z"/>
  <path d="m213.01,233.14c-.88-1.26-2.61-2.6-2.51-3.77,1.53-16.61,1.83-33.75,15.93-45.97,2.36-2.04,5.38-4.02,7.48.64-9.58,7.06-10.85,18.14-13.84,28.41-2.04,6.99-2.33,14.6-7.06,20.68Z"/>
  <path d="m354.96,261.55c1.42-3.45,4.33-3.91,7.54-3.76,11.26-.87,21.5,1.6,30.15,9.24,4.49,2.03,8.94,4,12.71,7.41,3.62,3.27,3.02,4.98-1.39,6.13-15.3-9.01-32.74-12.52-49.02-19.02Z"/>
  <path d="m268.17,204.72c13.66,2.85,20.79,12.08,24.31,24.84-3.8-1.29-7.62-2.5-11.38-3.89-2.74-1.02-5.63-2.92-5.22-5.86.98-7.09-4.73-10.3-7.71-15.09Z"/>
  <path d="m157.84,371.13c1.54-2.1,5.02-8.88,4.9-9.87,5.1-14.19,5.02-13.91,11.39-23.42,3.04-7.88,8.67-42.33,5.19-51.1-4.75-.51-1.68,26.76-3.86,31.24-2.35,4.85-6.24,6.55-11.38,5.96,1.1,14.09-3.78,26.32-11.73,37.6,0,0-8.32,14.5-5.42,15.14l10.9-5.55Z"/>
  <path d="m205.36,149.91c-9.44,4.63-16.05,12.95-24.54,18.83,5.37-10.19,14.24-16.29,24.4-20.89.05.68.09,1.37.14,2.06Z"/>
  <path d="m159.89,210.44c.19,6.29.38,12.58.57,18.87-1.03,5.07,1.26,10.57-1.97,15.35.7-11.4-2.29-22.95,1.4-34.22Z"/>
  <path d="m228.32,146.29c4.7-.57,8.85-2.94,13.36-4.2,11.4-3.18,20.29-.17,28.07,8.01,3.15,7.68,8.74,13.51,14.59,19.12,7.93,7.62,15.66,15.34,18.85,26.37.7,2.43,2.33,4.3,4.7,5.6,8.25,4.5,8.33,13.16,8.56,20.54.25,7.97-6.58,3.55-10.58,3.8-3.71-2.97-7.3-5.99-7.57-11.29-.1-1.98-.86-4.01-2.73-4.64-19.02-6.44-29.65-23.5-44.63-35.05-7.66-1.58-14.51-5.1-21.19-8.99-13.37-7.78-13.51-9.9-1.44-19.28Z"/>
  <path d="m392.65,267.03c-10.05-3.08-20.1-6.16-30.15-9.24-4.92-5.4-10.56-9.71-17.82-11.46-2.71-.65-5.04-1.99-4.31-5.05.8-3.37,4.06-2.56,6.36-2.31,6.68.74,13.2,2.89,18.09,7.36,5.84,5.34,12.36,8.16,19.9,9.92,5.1,1.19,10.88,3.11,7.94,10.78Z"/>
  <path d="m228.32,146.29c-9.06,11.01-8.27,13.61,5.44,19.73,5.84,2.6,11.46,5.68,17.18,8.55-7.65.85-14.07-2.12-20.15-6.33-4.06-2.82-7.99-6.87-13.54-3.91-5.16,2.75-4.36,7.97-4.09,12.6.32,5.37-1.72,8.85-6.51,11.36-3.74,1.97-8.85,2.52-10.35,7.43-2.8,9.15-8.02,17.72-6.89,27.84.17,1.54,1.17,3.28.72,4.56-4.48,12.82-.57,22.46,10.6,29.67,1.87,1.21,2.96,3.24,2.93,5.65-3.3,1.24-5.13-1.28-7.03-3.04-2.67-2.48-5.23-2.79-8.15-.7-4.93-8.7-10.79-16.77-16.98-24.61-7.31-19.05-4.94-36.72,7.59-52.93,3.09.04,5.75.04,8.32,2.94,4.95,5.57,9.43,4.37,10.14-3.08,1.85-19.47,18.88-25.26,30.78-35.72Z"/>
  <path d="m188.48,259.69c.07-5.22,1.9-7.42,6.72-3.64,2.94,2.3,5.65,4.91,8.46,7.39,1.23,1.91,2.47,3.82,3.7,5.73-.31,2.19,2.54,4.79-.45,6.55-3.17,1.87-4.49-2.37-7.12-2.6-3.77-4.47-7.54-8.95-11.31-13.42Z"/>
</svg>