<?xml version="1.0" encoding="utf-8"?>
<!-- Generator: Adobe Illustrator 27.5.0, SVG Export Plug-In . SVG Version: 6.00 Build 0)  -->
<svg version="1.1" xmlns="http://www.w3.org/2000/svg" xmlns:xlink="http://www.w3.org/1999/xlink" x="0px" y="0px"
	 viewBox="0 0 200 333.1" style="enable-background:new 0 0 200 333.1;" xml:space="preserve">
<style type="text/css">
	.st0{fill:#BF5600;}
	.st1{fill:#231F20;}
	.st2{fill:#E98A00;}
	.st3{fill:url(#SVGID_1_);}
	.st4{fill:url(#SVGID_00000102522379868430767130000010983182128326976702_);}
	.st5{fill:#E91E2D;}
	.st6{fill:#BCBEC0;}
	.st7{fill:#D1D3D4;}
	.st8{fill:url(#SVGID_00000117662721268019770880000014049454191355031689_);}
	.st9{fill:url(#SVGID_00000103239077977519673590000007733949415722526372_);}
	.st10{fill:#BF0A30;}
	.st11{fill:#FFFFFF;}
	.st12{fill:#002868;}
	.st13{fill:#002A8F;}
	.st14{fill:#CB1515;}
	.st15{fill:#D52B1E;}
	.st16{fill:#FBB040;}
	.st17{fill:#FFD90A;}
	.st18{fill:url(#SVGID_00000048478219462846701550000013785336698561679283_);}
	.st19{fill:url(#SVGID_00000090272191478643872810000009192406529783509401_);}
	.st20{fill:url(#SVGID_00000092435860591373986740000006168871249347319471_);}
	.st21{fill:url(#SVGID_00000178918427436354732010000007783214103714077092_);}
	.st22{fill:url(#SVGID_00000003802303756133351400000018023200494988546456_);}
	.st23{fill:url(#SVGID_00000110436361575517417120000012703536976902017942_);}
	.st24{fill:url(#SVGID_00000070080196276164665650000013505075068377365436_);}
	.st25{fill:url(#SVGID_00000163753135381492534590000004555583521444392885_);}
	.st26{fill:url(#SVGID_00000005984636765084788940000010595706868267592589_);}
	.st27{fill:url(#SVGID_00000055701450737187365340000002838514716682159031_);}
	.st28{fill:url(#SVGID_00000121997601474989532700000004439406400623852936_);}
	.st29{fill:url(#SVGID_00000165933759548811851090000015612401291147859126_);}
	.st30{fill:url(#SVGID_00000119818297316362235150000004061999939492310149_);}
	.st31{fill:url(#SVGID_00000148627559090924671840000016809349007436371121_);}
	.st32{fill:url(#SVGID_00000016795694651153279070000012447168358915818139_);}
	.st33{fill:url(#SVGID_00000123425911005934767510000001917886096569723317_);}
	.st34{fill:none;}
	.st35{fill:#BF5600;stroke:#231F20;stroke-width:0.1739;stroke-miterlimit:10;}
	.st36{font-family:'MyriadPro-Regular';}
	.st37{font-size:18.4847px;}
	.st38{fill:url(#SVGID_00000169560505343526592240000006644178349346461060_);}
	.st39{fill:url(#SVGID_00000103224559137381199310000017915508719055580307_);}
	.st40{fill:#BCBEC0;stroke:#231F20;stroke-width:0.1739;stroke-miterlimit:10;}
	.st41{fill:url(#SVGID_00000159437692804274605300000011357234224670017423_);}
	.st42{fill:url(#SVGID_00000132797659641426457340000008858394313256844944_);}
	.st43{fill:#FBB040;stroke:#231F20;stroke-width:0.1739;stroke-miterlimit:10;}
	.st44{fill:url(#SVGID_00000059278917177924256560000003562121123660355212_);}
	.st45{fill:url(#SVGID_00000084514767633171469360000015627285254630705827_);}
	.st46{letter-spacing:-1;}
	.st47{fill:url(#SVGID_00000086690651318742110690000004115549246773416119_);}
	.st48{fill:url(#SVGID_00000049207864514176704600000002324256147025993882_);}
	.st49{fill:url(#SVGID_00000134241252290975367410000007618608844241691046_);}
	.st50{fill:url(#SVGID_00000070099396433472360520000005187364969527563682_);}
	.st51{fill:url(#SVGID_00000010292150831008433440000008822588035620753336_);}
	.st52{fill:url(#SVGID_00000016796975824572173670000007465186941793792898_);}
	.st53{font-size:19.9956px;}
	.st54{fill:url(#SVGID_00000170241863628967837060000005252917544273075879_);}
	.st55{fill:url(#SVGID_00000091017465598732561360000016307710703008350116_);}
	.st56{fill:url(#SVGID_00000049913217417588051360000010181295040448646806_);}
	.st57{fill:url(#SVGID_00000158709967040363052370000015468343740377696700_);}
</style>
<g id="Bronce">
</g>
<g id="Plata">
	<g transform="translate(-50,-80)">
		<g>
			<g>
				<path class="st10" d="M104.4,132.5v-48h91.2v48H104.4z"/>
				<g>
					<path class="st11" d="M104.4,129.4v-3.2h91.2v3.2H104.4z"/>
					<path class="st11" d="M104.4,123v-3.2h91.2v3.2H104.4z"/>
					<path class="st11" d="M104.4,116.6v-3.2h91.2v3.2H104.4z"/>
					<path class="st11" d="M104.4,110.2V107h91.2v3.2H104.4z"/>
					<path class="st11" d="M104.4,103.8v-3.2h91.2v3.2H104.4z"/>
					<path class="st11" d="M104.4,97.4v-3.2h91.2v3.2H104.4z"/>
					<path class="st11" d="M104.4,91v-3.2h91.2V91H104.4z"/>
				</g>
			</g>
			<path class="st12" d="M104.4,110.2V84.6h36.5v25.6H104.4z"/>
			<g>
				<g>
					<path class="st11" d="M125.3,91.8l0.3,1h1.1l-0.9,0.6l0.3,1l-0.9-0.6l-0.9,0.6l0.3-1l-0.9-0.6h1.1L125.3,91.8z"/>
					<path class="st11" d="M125.3,99.7l0.3,1h1.1l-0.9,0.6l0.3,1l-0.9-0.6l-0.9,0.6l0.3-1l-0.9-0.6h1.1L125.3,99.7z"/>
				</g>
				<g>
					<path class="st11" d="M136.2,92l0.3,1h1.1l-0.9,0.6l0.3,1l-0.9-0.6l-0.9,0.6l0.3-1l-0.9-0.6h1.1L136.2,92z"/>
					<path class="st11" d="M136.2,100l0.3,1h1.1l-0.9,0.6l0.3,1l-0.9-0.6l-0.9,0.6l0.3-1l-0.9-0.6h1.1L136.2,100z"/>
					<path class="st11" d="M136.2,92l0.3,1h1.1l-0.9,0.6l0.3,1l-0.9-0.6l-0.9,0.6l0.3-1l-0.9-0.6h1.1L136.2,92z"/>
					<path class="st11" d="M136.2,100l0.3,1h1.1l-0.9,0.6l0.3,1l-0.9-0.6l-0.9,0.6l0.3-1l-0.9-0.6h1.1L136.2,100z"/>
				</g>
				<g>
					<path class="st11" d="M114.5,91.8l0.3,1h1.1l-0.9,0.6l0.3,1l-0.9-0.6l-0.9,0.6l0.3-1l-0.9-0.6h1.1L114.5,91.8z"/>
					<path class="st11" d="M114.5,99.7l0.3,1h1.1l-0.9,0.6l0.3,1l-0.9-0.6l-0.9,0.6l0.3-1l-0.9-0.6h1.1L114.5,99.7z"/>
				</g>
				<g>
					<path class="st11" d="M130.8,87.8l0.3,1h1.1l-0.9,0.6l0.3,1l-0.9-0.6l-0.9,0.6l0.3-1l-0.9-0.6h1.1L130.8,87.8z"/>
					<path class="st11" d="M130.8,95.8l0.3,1h1.1l-0.9,0.6l0.3,1l-0.9-0.6l-0.9,0.6l0.3-1l-0.9-0.6h1.1L130.8,95.8z"/>
					<path class="st11" d="M130.8,103.7l0.3,1h1.1l-0.9,0.6l0.3,1l-0.9-0.6l-0.9,0.6l0.3-1l-0.9-0.6h1.1L130.8,103.7z"/>
				</g>
				<g>
					<path class="st11" d="M119.9,87.8l0.3,1h1.1l-0.9,0.6l0.3,1l-0.9-0.6l-0.9,0.6l0.3-1l-0.9-0.6h1.1L119.9,87.8z"/>
					<path class="st11" d="M119.9,95.8l0.3,1h1.1l-0.9,0.6l0.3,1l-0.9-0.6l-0.9,0.6l0.3-1l-0.9-0.6h1.1L119.9,95.8z"/>
					<path class="st11" d="M119.9,103.7l0.3,1h1.1l-0.9,0.6l0.3,1l-0.9-0.6l-0.9,0.6l0.3-1l-0.9-0.6h1.1L119.9,103.7z"/>
				</g>
				<g>
					<path class="st11" d="M109.1,87.8l0.3,1h1.1l-0.9,0.6l0.3,1l-0.9-0.6l-0.9,0.6l0.3-1l-0.9-0.6h1.1L109.1,87.8z"/>
					<path class="st11" d="M109.1,95.8l0.3,1h1.1l-0.9,0.6l0.3,1l-0.9-0.6l-0.9,0.6l0.3-1l-0.9-0.6h1.1L109.1,95.8z"/>
					<path class="st11" d="M109.1,103.7l0.3,1h1.1l-0.9,0.6l0.3,1l-0.9-0.6l-0.9,0.6l0.3-1l-0.9-0.6h1.1L109.1,103.7z"/>
				</g>
			</g>
		</g>
	</g>
	<g>
		<path class="st13" d="M54.4,230.3h91.2v45.6H54.4V230.3z"/>
		<path class="st11" d="M63.5,239.5h82v9.1H81.8v9.1h63.8v9.1h-82V239.5z"/>
		<path class="st14" d="M93.9,253.1l-39.5,22.8v-45.6L93.9,253.1z"/>
		<path class="st11" d="M67.6,245.5l-4.5,13.7l11.7-8.5H60.3l11.7,8.5L67.6,245.5z"/>
	</g>
	<g>
		<path class="st15" d="M54.4,122.5h22.8l0.9,0.9h43.7l0.9-0.9h22.8V168h-22.8l-0.9-0.9H78.1l-0.9,0.9H54.4V122.5z"/>
		<path class="st11" d="M77.2,122.5h45.6V168H77.2V122.5z M100.8,164.5l-0.4-8.2c0-0.5,0.4-0.9,0.9-0.9c0.1,0,0.1,0,0.2,0l8.2,1.4
			l-1.1-3c-0.1-0.2,0-0.5,0.2-0.7l8.9-7.2l-2-0.9c-0.3-0.1-0.4-0.5-0.3-0.8l1.8-5.4l-5.1,1.1c-0.3,0.1-0.6-0.1-0.7-0.4l-1-2.3
			l-4,4.3c-0.2,0.2-0.6,0.3-0.9,0c-0.2-0.1-0.2-0.4-0.2-0.6l1.9-10l-3.1,1.8c-0.3,0.2-0.7,0.1-0.8-0.2c0,0,0,0,0,0l-3.2-6.2
			l-3.2,6.2c-0.2,0.3-0.5,0.4-0.8,0.3c0,0,0,0,0,0l-3.1-1.8l1.9,10c0.1,0.3-0.2,0.7-0.5,0.7c-0.2,0-0.4,0-0.6-0.2l-4-4.3l-1,2.3
			c-0.1,0.3-0.4,0.4-0.7,0.4l-5.1-1.1l1.8,5.4c0.1,0.3,0,0.6-0.3,0.8l-2,0.9l8.9,7.2c0.2,0.2,0.3,0.4,0.2,0.7l-1.1,3l8.2-1.4
			c0.5-0.1,1,0.2,1,0.7c0,0.1,0,0.1,0,0.2l-0.4,8.2H100.8z"/>
	</g>
	<g>
		<g>
			<circle class="st0" cx="133.4" cy="93.5" r="13.8"/>
			<path class="st1" d="M133.4,79.8c7.6,0,13.7,6.1,13.7,13.7s-6.1,13.7-13.7,13.7c-7.6,0-13.7-6.1-13.7-13.7S125.9,79.8,133.4,79.8
				 M133.4,79.7c-7.7,0-13.9,6.2-13.9,13.9s6.2,13.9,13.9,13.9c7.7,0,13.9-6.2,13.9-13.9S141.1,79.7,133.4,79.7L133.4,79.7z"/>
		</g>
		<g>
			<path class="st2" d="M133.4,105.6c-6.6,0-12-5.4-12-12c0-6.6,5.4-12,12-12c6.6,0,12,5.4,12,12C145.5,100.2,140,105.6,133.4,105.6
				z"/>
			<path class="st1" d="M133.4,81.6c6.6,0,12,5.4,12,12c0,6.6-5.4,12-12,12c-6.6,0-12-5.4-12-12C121.5,86.9,126.8,81.6,133.4,81.6
				 M133.4,81.4c-6.7,0-12.1,5.4-12.1,12.1c0,6.7,5.4,12.1,12.1,12.1c6.7,0,12.1-5.4,12.1-12.1C145.5,86.8,140.1,81.4,133.4,81.4
				L133.4,81.4z"/>
		</g>
		<g>
			<path class="st1" d="M135.8,77.9v1.9c-0.8-0.1-1.6-0.2-2.4-0.2c-0.8,0-1.6,0.1-2.4,0.2v-1.9H135.8 M136,77.8h-5.2
				c0,0,0,2.1,0,2.3c0.8-0.2,1.7-0.2,2.6-0.2s1.7,0.1,2.6,0.2C136,79.9,136,77.9,136,77.8C136,77.8,136,77.8,136,77.8L136,77.8z"/>
		</g>
		<g>
			<linearGradient id="SVGID_1_" gradientUnits="userSpaceOnUse" x1="126.3742" y1="57.8343" x2="140.5571" y2="57.8343">
				<stop  offset="0" style="stop-color:#C31E2D"/>
				<stop  offset="0.3173" style="stop-color:#DF1E2D"/>
				<stop  offset="0.5035" style="stop-color:#E91E2D"/>
				<stop  offset="0.663" style="stop-color:#DF1E2D"/>
				<stop  offset="0.9358" style="stop-color:#C31E2D"/>
				<stop  offset="1" style="stop-color:#BC1E2D"/>
			</linearGradient>
			<path class="st3" d="M121.3,60.1l2.4-4.5l19.5,0l1.1,2.1l1.2,2.3h-18C124.4,60.1,121.9,60.1,121.3,60.1z"/>
			<path class="st1" d="M123.8,55.7l19.3,0l1.1,2.1l1.2,2.1l-22.7,0l-1.2,0L123.8,55.7 M123.7,55.6l-2.5,4.6c0,0,0.6,0,1.5,0
				c5.3,0,23,0,23,0s0,0,0,0c0,0-0.7-1.2-1.3-2.4c-0.6-1.1-1.2-2.2-1.2-2.2L123.7,55.6L123.7,55.6z"/>
		</g>
		<g>
			
				<linearGradient id="SVGID_00000002347984222170437360000015603838199332171136_" gradientUnits="userSpaceOnUse" x1="124.4049" y1="61.667" x2="130.9549" y2="73.5254">
				<stop  offset="0" style="stop-color:#E91E2D"/>
				<stop  offset="0.4112" style="stop-color:#E71E2D"/>
				<stop  offset="0.6431" style="stop-color:#DE1E2D"/>
				<stop  offset="0.8298" style="stop-color:#D11E2D"/>
				<stop  offset="0.9924" style="stop-color:#BD1E2D"/>
				<stop  offset="1" style="stop-color:#BC1E2D"/>
			</linearGradient>
			<path style="fill:url(#SVGID_00000002347984222170437360000015603838199332171136_);" d="M130.8,77.9c0,0-9.6-17.7-9.6-17.7
				l0.2-0.3l2.2-4.1l12.2,22.1H130.8z"/>
			<path class="st1" d="M123.7,55.9l12,21.8h-4.8c-0.7-1.3-8.9-16.4-9.6-17.6c0.1-0.1,0.2-0.4,0.5-0.8l0.8-1.4L123.7,55.9
				 M123.7,55.6c0,0-0.6,1.1-1.2,2.2c-0.6,1.2-1.3,2.4-1.3,2.4c0,0,9.7,17.8,9.7,17.8h5.2L123.7,55.6L123.7,55.6z"/>
		</g>
		<g>
			<polygon class="st5" points="131,77.9 143.2,55.7 145.6,60.2 135.9,77.9 			"/>
			<path class="st1" d="M143.2,55.9l1.1,1.9l1.2,2.3l-9.6,17.6h-4.8L143.2,55.9 M143.2,55.6l-12.4,22.4h5.2l9.7-17.8c0,0,0,0,0,0
				c-0.1-0.2-0.7-1.3-1.3-2.3C143.8,56.7,143.2,55.6,143.2,55.6L143.2,55.6z"/>
		</g>
		<rect x="123" y="82" class="st34" width="20.8" height="22.3"/>
		<text transform="matrix(1 0 0 1 123.9437 99.6892)" class="st35 st36 st37">35</text>
		<g>
			<path class="st6" d="M100,107.2c-7.6,0-13.8-6.2-13.8-13.8s6.2-13.8,13.8-13.8c7.6,0,13.8,6.2,13.8,13.8S107.6,107.2,100,107.2z"
				/>
			<path class="st1" d="M100,79.7c7.6,0,13.7,6.1,13.7,13.7s-6.1,13.7-13.7,13.7S86.3,101,86.3,93.4S92.4,79.7,100,79.7 M100,79.6
				c-7.7,0-13.9,6.2-13.9,13.9s6.2,13.9,13.9,13.9c7.7,0,13.9-6.2,13.9-13.9S107.7,79.6,100,79.6L100,79.6z"/>
		</g>
		<g>
			<path class="st7" d="M100,105.5c-6.6,0-12-5.4-12-12c0-6.6,5.4-12,12-12c6.6,0,12,5.4,12,12C112,100.1,106.6,105.5,100,105.5z"/>
			<path class="st1" d="M100,81.5c6.6,0,12,5.4,12,12c0,6.6-5.4,12-12,12s-12-5.4-12-12C88,86.9,93.4,81.5,100,81.5 M100,81.3
				c-6.7,0-12.1,5.4-12.1,12.1c0,6.7,5.4,12.1,12.1,12.1c6.7,0,12.1-5.4,12.1-12.1C112.1,86.7,106.7,81.3,100,81.3L100,81.3z"/>
		</g>
		<g>
			<path class="st1" d="M102.4,77.9v1.9c-0.8-0.1-1.6-0.2-2.4-0.2c-0.8,0-1.6,0.1-2.4,0.2v-1.9H102.4 M102.6,77.7h-5.2
				c0,0,0,2.1,0,2.3c0.8-0.2,1.7-0.2,2.6-0.2s1.7,0.1,2.6,0.2C102.6,79.8,102.6,77.9,102.6,77.7C102.6,77.7,102.6,77.7,102.6,77.7
				L102.6,77.7z"/>
		</g>
		<g>
			
				<linearGradient id="SVGID_00000092435014036795525540000003084225186915972535_" gradientUnits="userSpaceOnUse" x1="92.9538" y1="57.75" x2="107.1367" y2="57.75">
				<stop  offset="0" style="stop-color:#C31E2D"/>
				<stop  offset="0.3173" style="stop-color:#DF1E2D"/>
				<stop  offset="0.5035" style="stop-color:#E91E2D"/>
				<stop  offset="0.663" style="stop-color:#DF1E2D"/>
				<stop  offset="0.9358" style="stop-color:#C31E2D"/>
				<stop  offset="1" style="stop-color:#BC1E2D"/>
			</linearGradient>
			<path style="fill:url(#SVGID_00000092435014036795525540000003084225186915972535_);" d="M90.3,55.5l19.5,0l1.1,2.1
				c0,0,1.2,2.1,1.2,2.3l-24.3,0L90.3,55.5z"/>
			<path class="st1" d="M90.3,55.6l19.3,0l1.1,2.1l1.2,2.1l-22.6,0l-1.4,0L90.3,55.6 M90.2,55.5l-2.5,4.6c0,0,0.6,0,1.7,0
				c5.5,0,22.8,0,22.8,0s0,0,0,0c0,0-0.7-1.2-1.3-2.4c-0.6-1.1-1.2-2.2-1.2-2.2L90.2,55.5L90.2,55.5z"/>
		</g>
		<g>
			
				<linearGradient id="SVGID_00000178901278426120983990000014959686402413897642_" gradientUnits="userSpaceOnUse" x1="90.984" y1="61.5826" x2="97.534" y2="73.4409">
				<stop  offset="0" style="stop-color:#E91E2D"/>
				<stop  offset="0.4112" style="stop-color:#E71E2D"/>
				<stop  offset="0.6431" style="stop-color:#DE1E2D"/>
				<stop  offset="0.8298" style="stop-color:#D11E2D"/>
				<stop  offset="0.9924" style="stop-color:#BD1E2D"/>
				<stop  offset="1" style="stop-color:#BC1E2D"/>
			</linearGradient>
			<path style="fill:url(#SVGID_00000178901278426120983990000014959686402413897642_);" d="M97.4,77.8c0,0-9.2-16.9-9.6-17.7
				c0,0,0.2-0.3,0.5-0.9l1.9-3.5l12.2,22.1H97.4z"/>
			<path class="st1" d="M90.2,55.8l12,21.8h-4.8l-9.6-17.6l1.2-2.3L90.2,55.8 M90.2,55.5c0,0-0.6,1.1-1.2,2.2
				c-0.6,1.2-1.3,2.4-1.3,2.4c0,0,9.7,17.8,9.7,17.8h5.2L90.2,55.5L90.2,55.5z"/>
		</g>
		<g>
			<polygon class="st5" points="97.6,77.8 109.8,55.7 112.2,60.1 102.5,77.8 			"/>
			<path class="st1" d="M109.8,55.8l1.1,1.9l1.2,2.3l-9.6,17.6h-4.8L109.8,55.8 M109.8,55.5L97.4,77.9h5.2l9.7-17.8c0,0,0,0,0,0
				c-0.1-0.2-0.7-1.3-1.3-2.3C110.4,56.6,109.8,55.5,109.8,55.5L109.8,55.5z"/>
		</g>
		<rect x="89.6" y="81.3" class="st34" width="20.8" height="22.3"/>
		<text transform="matrix(1 0 0 1 90.5233 99.0354)" class="st40 st36 st37">47</text>
		<g>
			<circle class="st16" cx="66.6" cy="93.5" r="13.8"/>
			<path class="st1" d="M66.6,79.8c7.6,0,13.7,6.1,13.7,13.7s-6.1,13.7-13.7,13.7s-13.7-6.1-13.7-13.7S59,79.8,66.6,79.8 M66.6,79.7
				c-7.7,0-13.9,6.2-13.9,13.9s6.2,13.9,13.9,13.9c7.7,0,13.9-6.2,13.9-13.9S74.2,79.7,66.6,79.7L66.6,79.7z"/>
		</g>
		<g>
			<path class="st17" d="M66.6,105.6c-6.6,0-12-5.4-12-12c0-6.6,5.4-12,12-12s12,5.4,12,12C78.6,100.2,73.2,105.6,66.6,105.6z"/>
			<path class="st1" d="M66.6,81.6c6.6,0,12,5.4,12,12s-5.4,12-12,12s-12-5.4-12-12S60,81.6,66.6,81.6 M66.6,81.4
				c-6.7,0-12.1,5.4-12.1,12.1s5.4,12.1,12.1,12.1c6.7,0,12.1-5.4,12.1-12.1S73.3,81.4,66.6,81.4L66.6,81.4z"/>
		</g>
		<g>
			<path class="st1" d="M69,77.9v1.9c-0.8-0.1-1.6-0.2-2.4-0.2c-0.8,0-1.6,0.1-2.4,0.2v-1.9H69 M69.2,77.8H64c0,0,0,2.1,0,2.3
				c0.8-0.2,1.7-0.2,2.6-0.2s1.7,0.1,2.6,0.2C69.2,79.9,69.2,77.9,69.2,77.8C69.2,77.8,69.2,77.8,69.2,77.8L69.2,77.8z"/>
		</g>
		<g>
			
				<linearGradient id="SVGID_00000110433767502668326540000013636539342119162496_" gradientUnits="userSpaceOnUse" x1="59.533" y1="57.834" x2="73.7162" y2="57.834">
				<stop  offset="0" style="stop-color:#C31E2D"/>
				<stop  offset="0.3173" style="stop-color:#DF1E2D"/>
				<stop  offset="0.5035" style="stop-color:#E91E2D"/>
				<stop  offset="0.663" style="stop-color:#DF1E2D"/>
				<stop  offset="0.9358" style="stop-color:#C31E2D"/>
				<stop  offset="1" style="stop-color:#BC1E2D"/>
			</linearGradient>
			<polygon style="fill:url(#SVGID_00000110433767502668326540000013636539342119162496_);" points="54.5,60.1 56.9,55.6 76.4,55.6 
				77.5,57.8 78.7,60.1 			"/>
			<path class="st1" d="M56.9,55.7l19.3,0l1.1,2.1l1.2,2.1L56,60l-1.4,0L56.9,55.7 M56.8,55.6l-2.5,4.6c0,0,0.6,0,1.7,0
				c5.5,0,22.8,0,22.8,0s0,0,0,0c0,0-0.7-1.2-1.3-2.4c-0.6-1.1-1.2-2.2-1.2-2.2L56.8,55.6L56.8,55.6z"/>
		</g>
		<g>
			
				<linearGradient id="SVGID_00000054986245353852512730000009456414081322800768_" gradientUnits="userSpaceOnUse" x1="57.5635" y1="61.6667" x2="64.1137" y2="73.5253">
				<stop  offset="0" style="stop-color:#E91E2D"/>
				<stop  offset="0.4112" style="stop-color:#E71E2D"/>
				<stop  offset="0.6431" style="stop-color:#DE1E2D"/>
				<stop  offset="0.8298" style="stop-color:#D11E2D"/>
				<stop  offset="0.9924" style="stop-color:#BD1E2D"/>
				<stop  offset="1" style="stop-color:#BC1E2D"/>
			</linearGradient>
			<path style="fill:url(#SVGID_00000054986245353852512730000009456414081322800768_);" d="M64,77.9c0,0-9.6-17.7-9.6-17.7l0.3-0.5
				l2.1-3.9L69,77.9H64z"/>
			<path class="st1" d="M56.8,55.9l12,21.8h-4.8c-0.7-1.3-8.9-16.4-9.6-17.6l1.2-2.3L56.8,55.9 M56.8,55.6c0,0-0.6,1.1-1.2,2.2
				c-0.6,1.2-1.3,2.4-1.3,2.4c0,0,9.7,17.8,9.7,17.8h5.2L56.8,55.6L56.8,55.6z"/>
		</g>
		<g>
			<polygon class="st5" points="64.1,77.9 76.4,55.7 78.8,60.2 69.1,77.9 			"/>
			<path class="st1" d="M76.4,55.9l1.1,1.9l1.2,2.3L69,77.8h-4.8L76.4,55.9 M76.4,55.6L64,77.9h5.2l9.7-17.8c0,0,0,0,0,0
				c-0.1-0.2-0.7-1.3-1.3-2.3C77,56.7,76.4,55.6,76.4,55.6L76.4,55.6z"/>
		</g>
		<rect x="56.2" y="82.4" class="st34" width="20.8" height="22.3"/>
		<text transform="matrix(1 0 0 1 57.0843 100.091)" class="st43 st36 st37">63</text>
	</g>
	<g>
		<g>
			<path class="st0" d="M133.4,221.4c-7.6,0-13.8-6.2-13.8-13.8c0-7.6,6.2-13.8,13.8-13.8c7.6,0,13.8,6.2,13.8,13.8
				C147.2,215.2,141,221.4,133.4,221.4z"/>
			<path class="st1" d="M133.4,193.9c7.6,0,13.7,6.1,13.7,13.7s-6.1,13.7-13.7,13.7c-7.6,0-13.7-6.1-13.7-13.7
				S125.9,193.9,133.4,193.9 M133.4,193.7c-7.7,0-13.9,6.2-13.9,13.9c0,7.7,6.2,13.9,13.9,13.9c7.7,0,13.9-6.2,13.9-13.9
				C147.3,199.9,141.1,193.7,133.4,193.7L133.4,193.7z"/>
		</g>
		<g>
			<path class="st2" d="M133.4,219.7c-6.6,0-12-5.4-12-12c0-6.6,5.4-12,12-12c6.6,0,12,5.4,12,12C145.5,214.2,140,219.7,133.4,219.7
				z"/>
			<path class="st1" d="M133.4,195.7c6.6,0,12,5.4,12,12s-5.4,12-12,12c-6.6,0-12-5.4-12-12S126.8,195.7,133.4,195.7 M133.4,195.5
				c-6.7,0-12.1,5.4-12.1,12.1c0,6.7,5.4,12.1,12.1,12.1c6.7,0,12.1-5.4,12.1-12.1C145.5,200.9,140.1,195.5,133.4,195.5L133.4,195.5
				z"/>
		</g>
		<g>
			<path class="st1" d="M135.8,192v1.9c-0.8-0.1-1.6-0.2-2.4-0.2c-0.8,0-1.6,0.1-2.4,0.2V192H135.8 M136,191.8h-5.2c0,0,0,2.1,0,2.3
				c0.8-0.2,1.7-0.2,2.6-0.2s1.7,0.1,2.6,0.2C136,194,136,192,136,191.8C136,191.9,136,191.8,136,191.8L136,191.8z"/>
		</g>
		<g>
			
				<linearGradient id="SVGID_00000155104661155877739130000008120900569623389339_" gradientUnits="userSpaceOnUse" x1="126.3743" y1="171.9126" x2="140.5575" y2="171.9126">
				<stop  offset="0" style="stop-color:#C31E2D"/>
				<stop  offset="0.3173" style="stop-color:#DF1E2D"/>
				<stop  offset="0.5035" style="stop-color:#E91E2D"/>
				<stop  offset="0.663" style="stop-color:#DF1E2D"/>
				<stop  offset="0.9358" style="stop-color:#C31E2D"/>
				<stop  offset="1" style="stop-color:#BC1E2D"/>
			</linearGradient>
			<polygon style="fill:url(#SVGID_00000155104661155877739130000008120900569623389339_);" points="121.3,174.1 123.7,169.7 
				143.2,169.7 144.3,171.9 145.6,174.1 			"/>
			<path class="st1" d="M123.8,169.8l19.3,0l1.1,2.1l1.2,2.1l-22.3,0l-1.6,0L123.8,169.8 M123.7,169.6l-2.5,4.6c0,0,0.7,0,1.9,0
				c5.8,0,22.6,0,22.6,0s0,0,0,0c0,0-0.7-1.2-1.3-2.4c-0.6-1.1-1.2-2.2-1.2-2.2L123.7,169.6L123.7,169.6z"/>
		</g>
		<g>
			
				<linearGradient id="SVGID_00000036950963036444123920000012127266257602709401_" gradientUnits="userSpaceOnUse" x1="124.4048" y1="175.7453" x2="130.955" y2="187.6039">
				<stop  offset="0" style="stop-color:#E91E2D"/>
				<stop  offset="0.4112" style="stop-color:#E71E2D"/>
				<stop  offset="0.6431" style="stop-color:#DE1E2D"/>
				<stop  offset="0.8298" style="stop-color:#D11E2D"/>
				<stop  offset="0.9924" style="stop-color:#BD1E2D"/>
				<stop  offset="1" style="stop-color:#BC1E2D"/>
			</linearGradient>
			<path style="fill:url(#SVGID_00000036950963036444123920000012127266257602709401_);" d="M130.8,191.9c0,0-9.6-17.7-9.6-17.7
				l0.3-0.5l2.1-3.9l12.2,22.1H130.8z"/>
			<path class="st1" d="M123.7,170l12,21.8h-4.8c-0.7-1.3-8.9-16.4-9.6-17.6c0.1-0.1,0.2-0.4,0.4-0.8l0.8-1.5L123.7,170
				 M123.7,169.6c0,0-0.6,1.1-1.2,2.2c-0.6,1.2-1.3,2.4-1.3,2.4c0,0,9.7,17.8,9.7,17.8h5.2L123.7,169.6L123.7,169.6z"/>
		</g>
		<g>
			<polygon class="st5" points="131,191.9 143.2,169.8 145.6,174.2 135.9,191.9 			"/>
			<path class="st1" d="M143.2,170l1.1,1.9l1.2,2.3l-9.6,17.6h-4.8L143.2,170 M143.2,169.6L130.8,192h5.2l9.7-17.8c0,0,0,0,0,0
				c-0.1-0.2-0.7-1.3-1.3-2.3C143.8,170.7,143.2,169.6,143.2,169.6L143.2,169.6z"/>
		</g>
		<rect x="122.6" y="196.4" class="st34" width="20.8" height="22.3"/>
		<text transform="matrix(1 0 0 1 124.2811 214.1694)" class="st35 st36 st37 st46">17</text>
		<g>
			<path class="st6" d="M100,221.4c-7.6,0-13.8-6.2-13.8-13.8c0-7.6,6.2-13.8,13.8-13.8c7.6,0,13.8,6.2,13.8,13.8
				C113.8,215.2,107.6,221.4,100,221.4z"/>
			<path class="st1" d="M100,193.9c7.6,0,13.7,6.1,13.7,13.7s-6.1,13.7-13.7,13.7s-13.7-6.1-13.7-13.7S92.4,193.9,100,193.9
				 M100,193.7c-7.7,0-13.9,6.2-13.9,13.9c0,7.7,6.2,13.9,13.9,13.9c7.7,0,13.9-6.2,13.9-13.9C113.9,199.9,107.7,193.7,100,193.7
				L100,193.7z"/>
		</g>
		<g>
			<path class="st7" d="M100,219.7c-6.6,0-12-5.4-12-12c0-6.6,5.4-12,12-12c6.6,0,12,5.4,12,12C112,214.2,106.6,219.7,100,219.7z"/>
			<path class="st1" d="M100,195.7c6.6,0,12,5.4,12,12s-5.4,12-12,12s-12-5.4-12-12S93.4,195.7,100,195.7 M100,195.5
				c-6.7,0-12.1,5.4-12.1,12.1c0,6.7,5.4,12.1,12.1,12.1c6.7,0,12.1-5.4,12.1-12.1C112.1,200.9,106.7,195.5,100,195.5L100,195.5z"/>
		</g>
		<g>
			<path class="st1" d="M102.4,192v1.9c-0.8-0.1-1.6-0.2-2.4-0.2c-0.8,0-1.6,0.1-2.4,0.2V192H102.4 M102.6,191.8h-5.2
				c0,0,0,2.1,0,2.3c0.8-0.2,1.7-0.2,2.6-0.2s1.7,0.1,2.6,0.2C102.6,194,102.6,192,102.6,191.8C102.6,191.9,102.6,191.8,102.6,191.8
				L102.6,191.8z"/>
		</g>
		<g>
			
				<linearGradient id="SVGID_00000083057217613798017040000005919431480492183454_" gradientUnits="userSpaceOnUse" x1="92.9538" y1="171.9126" x2="107.1367" y2="171.9126">
				<stop  offset="0" style="stop-color:#C31E2D"/>
				<stop  offset="0.3173" style="stop-color:#DF1E2D"/>
				<stop  offset="0.5035" style="stop-color:#E91E2D"/>
				<stop  offset="0.663" style="stop-color:#DF1E2D"/>
				<stop  offset="0.9358" style="stop-color:#C31E2D"/>
				<stop  offset="1" style="stop-color:#BC1E2D"/>
			</linearGradient>
			<path style="fill:url(#SVGID_00000083057217613798017040000005919431480492183454_);" d="M87.9,174.1l2.4-4.5l19.5,0l1.1,2.1
				c0,0,1.1,2.1,1.2,2.3H87.9z"/>
			<path class="st1" d="M90.3,169.8l19.3,0l1.1,2.1l1.2,2.1l-22.3,0l-1.6,0L90.3,169.8 M90.2,169.6l-2.5,4.6c0,0,0.7,0,1.9,0
				c5.8,0,22.6,0,22.6,0s0,0,0,0c0,0-0.7-1.2-1.3-2.4c-0.6-1.1-1.2-2.2-1.2-2.2L90.2,169.6L90.2,169.6z"/>
		</g>
		<g>
			
				<linearGradient id="SVGID_00000103237484880254364000000000310073571323010740_" gradientUnits="userSpaceOnUse" x1="90.9838" y1="175.7454" x2="97.5339" y2="187.604">
				<stop  offset="0" style="stop-color:#E91E2D"/>
				<stop  offset="0.4112" style="stop-color:#E71E2D"/>
				<stop  offset="0.6431" style="stop-color:#DE1E2D"/>
				<stop  offset="0.8298" style="stop-color:#D11E2D"/>
				<stop  offset="0.9924" style="stop-color:#BD1E2D"/>
				<stop  offset="1" style="stop-color:#BC1E2D"/>
			</linearGradient>
			<path style="fill:url(#SVGID_00000103237484880254364000000000310073571323010740_);" d="M97.4,191.9c-0.3-0.7-9.4-17.4-9.6-17.7
				c0,0,0.7-1.2,1.3-2.3l1.1-2.1l12.2,22.1H97.4z"/>
			<path class="st1" d="M90.2,170l12,21.8h-4.8l-9.6-17.6l1.2-2.3L90.2,170 M90.2,169.6c0,0-0.6,1.1-1.2,2.2
				c-0.6,1.2-1.3,2.4-1.3,2.4c0,0,9.7,17.8,9.7,17.8h5.2L90.2,169.6L90.2,169.6z"/>
		</g>
		<g>
			<polygon class="st5" points="97.6,191.9 109.8,169.8 112.2,174.2 102.5,191.9 			"/>
			<path class="st1" d="M109.8,170l1.1,1.9l1.2,2.3l-9.6,17.6h-4.8L109.8,170 M109.8,169.6L97.4,192h5.2l9.7-17.8c0,0,0,0,0,0
				c-0.1-0.2-0.7-1.3-1.3-2.3C110.4,170.7,109.8,169.6,109.8,169.6L109.8,169.6z"/>
		</g>
		<rect x="89.2" y="196.4" class="st34" width="20.8" height="22.3"/>
		<text transform="matrix(1 0 0 1 90.8607 214.1694)" class="st40 st36 st37 st46">17</text>
		<g>
			<path class="st16" d="M66.6,221.4c-7.6,0-13.8-6.2-13.8-13.8c0-7.6,6.2-13.8,13.8-13.8s13.8,6.2,13.8,13.8
				C80.4,215.2,74.2,221.4,66.6,221.4z"/>
			<path class="st1" d="M66.6,193.9c7.6,0,13.7,6.1,13.7,13.7s-6.1,13.7-13.7,13.7s-13.7-6.1-13.7-13.7S59,193.9,66.6,193.9
				 M66.6,193.7c-7.7,0-13.9,6.2-13.9,13.9c0,7.7,6.2,13.9,13.9,13.9c7.7,0,13.9-6.2,13.9-13.9C80.4,199.9,74.2,193.7,66.6,193.7
				L66.6,193.7z"/>
		</g>
		<g>
			<path class="st17" d="M66.6,219.7c-6.6,0-12-5.4-12-12c0-6.6,5.4-12,12-12s12,5.4,12,12C78.6,214.2,73.2,219.7,66.6,219.7z"/>
			<path class="st1" d="M66.6,195.7c6.6,0,12,5.4,12,12s-5.4,12-12,12s-12-5.4-12-12S60,195.7,66.6,195.7 M66.6,195.5
				c-6.7,0-12.1,5.4-12.1,12.1c0,6.7,5.4,12.1,12.1,12.1c6.7,0,12.1-5.4,12.1-12.1C78.7,200.9,73.3,195.5,66.6,195.5L66.6,195.5z"/>
		</g>
		<g>
			<path class="st1" d="M69,192v1.9c-0.8-0.1-1.6-0.2-2.4-0.2c-0.8,0-1.6,0.1-2.4,0.2V192H69 M69.2,191.8H64c0,0,0,2.1,0,2.3
				c0.8-0.2,1.7-0.2,2.6-0.2s1.7,0.1,2.6,0.2C69.2,194,69.2,192,69.2,191.8C69.2,191.9,69.2,191.8,69.2,191.8L69.2,191.8z"/>
		</g>
		<g>
			
				<linearGradient id="SVGID_00000011749969679175154450000003099300337393648795_" gradientUnits="userSpaceOnUse" x1="59.533" y1="171.9126" x2="73.7162" y2="171.9126">
				<stop  offset="0" style="stop-color:#C31E2D"/>
				<stop  offset="0.3173" style="stop-color:#DF1E2D"/>
				<stop  offset="0.5035" style="stop-color:#E91E2D"/>
				<stop  offset="0.663" style="stop-color:#DF1E2D"/>
				<stop  offset="0.9358" style="stop-color:#C31E2D"/>
				<stop  offset="1" style="stop-color:#BC1E2D"/>
			</linearGradient>
			<polygon style="fill:url(#SVGID_00000011749969679175154450000003099300337393648795_);" points="54.5,174.1 56.9,169.7 
				76.4,169.7 77.5,171.9 78.7,174.1 			"/>
			<path class="st1" d="M56.9,169.8l19.3,0l1.1,2.1l1.2,2.1l-22.3,0l-1.6,0L56.9,169.8 M56.8,169.6l-2.5,4.6c0,0,0.7,0,1.9,0
				c5.8,0,22.6,0,22.6,0s0,0,0,0c0,0-0.7-1.2-1.3-2.4c-0.6-1.1-1.2-2.2-1.2-2.2L56.8,169.6L56.8,169.6z"/>
		</g>
		<g>
			
				<linearGradient id="SVGID_00000127039784500112074430000007303024208014855059_" gradientUnits="userSpaceOnUse" x1="57.5635" y1="175.7453" x2="64.1137" y2="187.6039">
				<stop  offset="0" style="stop-color:#E91E2D"/>
				<stop  offset="0.4112" style="stop-color:#E71E2D"/>
				<stop  offset="0.6431" style="stop-color:#DE1E2D"/>
				<stop  offset="0.8298" style="stop-color:#D11E2D"/>
				<stop  offset="0.9924" style="stop-color:#BD1E2D"/>
				<stop  offset="1" style="stop-color:#BC1E2D"/>
			</linearGradient>
			<path style="fill:url(#SVGID_00000127039784500112074430000007303024208014855059_);" d="M64,191.9c0,0-9.6-17.7-9.6-17.7
				l0.3-0.5l2.1-3.9L69,191.9H64z"/>
			<path class="st1" d="M56.8,170l12,21.8h-4.8c-0.7-1.3-8.9-16.4-9.6-17.6l1.2-2.3L56.8,170 M56.8,169.6c0,0-0.6,1.1-1.2,2.2
				c-0.6,1.2-1.3,2.4-1.3,2.4c0,0,9.7,17.8,9.7,17.8h5.2L56.8,169.6L56.8,169.6z"/>
		</g>
		<g>
			<polygon class="st5" points="64.1,191.9 76.4,169.8 78.8,174.2 69.1,191.9 			"/>
			<path class="st1" d="M76.4,170l1.1,1.9l1.2,2.3L69,191.8h-4.8L76.4,170 M76.4,169.6L64,192h5.2l9.7-17.8c0,0,0,0,0,0
				c-0.1-0.2-0.7-1.3-1.3-2.3C77,170.7,76.4,169.6,76.4,169.6L76.4,169.6z"/>
		</g>
		<rect x="55.4" y="196.4" class="st34" width="20.8" height="22.3"/>
		<text transform="matrix(1 0 0 1 57.0775 214.1694)" class="st43 st36 st37 st46">16</text>
	</g>
	<g>
		<g>
			<circle class="st0" cx="133.4" cy="315.4" r="13.8"/>
			<path class="st1" d="M133.4,301.7c7.6,0,13.7,6.1,13.7,13.7s-6.1,13.7-13.7,13.7c-7.6,0-13.7-6.1-13.7-13.7
				S125.9,301.7,133.4,301.7 M133.4,301.5c-7.7,0-13.9,6.2-13.9,13.9s6.2,13.9,13.9,13.9c7.7,0,13.9-6.2,13.9-13.9
				S141.1,301.5,133.4,301.5L133.4,301.5z"/>
		</g>
		<g>
			<circle class="st2" cx="133.4" cy="315.4" r="12"/>
			<path class="st1" d="M133.4,303.4c6.6,0,12,5.4,12,12s-5.4,12-12,12c-6.6,0-12-5.4-12-12S126.8,303.4,133.4,303.4 M133.4,303.3
				c-6.7,0-12.1,5.4-12.1,12.1s5.4,12.1,12.1,12.1c6.7,0,12.1-5.4,12.1-12.1S140.1,303.3,133.4,303.3L133.4,303.3z"/>
		</g>
		<g>
			<path class="st1" d="M135.8,299.8v1.9c-0.8-0.1-1.6-0.2-2.4-0.2c-0.8,0-1.6,0.1-2.4,0.2v-1.9H135.8 M136,299.6h-5.2
				c0,0,0,2.1,0,2.3c0.8-0.2,1.7-0.2,2.6-0.2s1.7,0.1,2.6,0.2C136,301.8,136,299.8,136,299.6C136,299.6,136,299.6,136,299.6
				L136,299.6z"/>
		</g>
		<g>
			
				<linearGradient id="SVGID_00000023263290787163484580000016753834946698869437_" gradientUnits="userSpaceOnUse" x1="126.3742" y1="279.7066" x2="140.5571" y2="279.7066">
				<stop  offset="0" style="stop-color:#C31E2D"/>
				<stop  offset="0.3173" style="stop-color:#DF1E2D"/>
				<stop  offset="0.5035" style="stop-color:#E91E2D"/>
				<stop  offset="0.663" style="stop-color:#DF1E2D"/>
				<stop  offset="0.9358" style="stop-color:#C31E2D"/>
				<stop  offset="1" style="stop-color:#BC1E2D"/>
			</linearGradient>
			<polygon style="fill:url(#SVGID_00000023263290787163484580000016753834946698869437_);" points="123.7,277.5 143.2,277.5 
				144.3,279.7 145.6,281.9 121.3,281.9 			"/>
			<path class="st1" d="M123.8,277.6l19.3,0l1.1,2.1l1.2,2.1l-22,0h-2L123.8,277.6 M123.7,277.4l-2.5,4.6c0,0,0.9,0,2.3,0
				c6.1,0,22.2,0,22.2,0s0,0,0,0c0,0-0.7-1.2-1.3-2.4c-0.6-1.1-1.2-2.2-1.2-2.2L123.7,277.4L123.7,277.4z"/>
		</g>
		<g>
			
				<linearGradient id="SVGID_00000160873275156385384690000016065770307008652984_" gradientUnits="userSpaceOnUse" x1="124.4049" y1="283.5391" x2="130.9549" y2="295.3975">
				<stop  offset="0" style="stop-color:#E91E2D"/>
				<stop  offset="0.4112" style="stop-color:#E71E2D"/>
				<stop  offset="0.6431" style="stop-color:#DE1E2D"/>
				<stop  offset="0.8298" style="stop-color:#D11E2D"/>
				<stop  offset="0.9924" style="stop-color:#BD1E2D"/>
				<stop  offset="1" style="stop-color:#BC1E2D"/>
			</linearGradient>
			<path style="fill:url(#SVGID_00000160873275156385384690000016065770307008652984_);" d="M130.8,299.7c0,0-9.4-17.3-9.6-17.7
				c0,0,0,0,0,0c0,0,0.2-0.3,0.5-0.8l1.9-3.6l12.2,22.1H130.8z"/>
			<path class="st1" d="M123.7,277.8l12,21.8h-4.8c-0.7-1.3-8.9-16.4-9.6-17.6c0.1-0.1,0.2-0.5,0.5-0.9l0.8-1.4L123.7,277.8
				 M123.7,277.4c0,0-0.6,1.1-1.2,2.2c-0.6,1.2-1.3,2.4-1.3,2.4c0,0,9.7,17.8,9.7,17.8h5.2L123.7,277.4L123.7,277.4z"/>
		</g>
		<g>
			<polygon class="st5" points="131,299.7 143.2,277.6 145.6,282 135.9,299.7 			"/>
			<path class="st1" d="M143.2,277.8l1.1,1.9l1.2,2.3l-9.6,17.6h-4.8L143.2,277.8 M143.2,277.4l-12.4,22.4h5.2l9.7-17.8c0,0,0,0,0,0
				c-0.1-0.2-0.7-1.3-1.3-2.3C143.8,278.5,143.2,277.4,143.2,277.4L143.2,277.4z"/>
		</g>
		<rect x="122.2" y="303.8" class="st34" width="20.8" height="22.3"/>
		<text transform="matrix(1 0 0 1 123.2025 322.0971)" class="st35 st36 st53 st46">18</text>
		<g>
			<path class="st6" d="M100,329.1c-7.6,0-13.8-6.2-13.8-13.8s6.2-13.8,13.8-13.8c7.6,0,13.8,6.2,13.8,13.8S107.6,329.1,100,329.1z"
				/>
			<path class="st1" d="M100,301.6c7.6,0,13.7,6.1,13.7,13.7S107.5,329,100,329s-13.7-6.1-13.7-13.7S92.4,301.6,100,301.6
				 M100,301.4c-7.7,0-13.9,6.2-13.9,13.9s6.2,13.9,13.9,13.9c7.7,0,13.9-6.2,13.9-13.9S107.7,301.4,100,301.4L100,301.4z"/>
		</g>
		<g>
			<path class="st7" d="M100,327.4c-6.6,0-12-5.4-12-12s5.4-12,12-12c6.6,0,12,5.4,12,12S106.6,327.4,100,327.4z"/>
			<path class="st1" d="M100,303.4c6.6,0,12,5.4,12,12s-5.4,12-12,12s-12-5.4-12-12S93.4,303.4,100,303.4 M100,303.2
				c-6.7,0-12.1,5.4-12.1,12.1s5.4,12.1,12.1,12.1c6.7,0,12.1-5.4,12.1-12.1S106.7,303.2,100,303.2L100,303.2z"/>
		</g>
		<g>
			<path class="st1" d="M102.4,299.7v1.9c-0.8-0.1-1.6-0.2-2.4-0.2c-0.8,0-1.6,0.1-2.4,0.2v-1.9H102.4 M102.6,299.6h-5.2
				c0,0,0,2.1,0,2.3c0.8-0.2,1.7-0.2,2.6-0.2s1.7,0.1,2.6,0.2C102.6,301.7,102.6,299.7,102.6,299.6
				C102.6,299.6,102.6,299.6,102.6,299.6L102.6,299.6z"/>
		</g>
		<g>
			
				<linearGradient id="SVGID_00000067938494407255471000000011150010898098129542_" gradientUnits="userSpaceOnUse" x1="92.9538" y1="279.6221" x2="107.1367" y2="279.6221">
				<stop  offset="0" style="stop-color:#C31E2D"/>
				<stop  offset="0.3173" style="stop-color:#DF1E2D"/>
				<stop  offset="0.5035" style="stop-color:#E91E2D"/>
				<stop  offset="0.663" style="stop-color:#DF1E2D"/>
				<stop  offset="0.9358" style="stop-color:#C31E2D"/>
				<stop  offset="1" style="stop-color:#BC1E2D"/>
			</linearGradient>
			<path style="fill:url(#SVGID_00000067938494407255471000000011150010898098129542_);" d="M90.3,277.4l19.5,0l1.1,2.1
				c0,0,1.1,2.1,1.2,2.3l-24.3,0L90.3,277.4z"/>
			<path class="st1" d="M90.3,277.5l19.3,0l1.1,2.1l1.2,2.1l-22,0h-2L90.3,277.5 M90.2,277.3l-2.5,4.6c0,0,0.9,0,2.3,0
				c6.1,0,22.2,0,22.2,0s0,0,0,0c0,0-0.7-1.2-1.3-2.4c-0.6-1.1-1.2-2.2-1.2-2.2L90.2,277.3L90.2,277.3z"/>
		</g>
		<g>
			
				<linearGradient id="SVGID_00000078047363030022131400000013176242463592580513_" gradientUnits="userSpaceOnUse" x1="90.9838" y1="283.4547" x2="97.5338" y2="295.3131">
				<stop  offset="0" style="stop-color:#E91E2D"/>
				<stop  offset="0.4112" style="stop-color:#E71E2D"/>
				<stop  offset="0.6431" style="stop-color:#DE1E2D"/>
				<stop  offset="0.8298" style="stop-color:#D11E2D"/>
				<stop  offset="0.9924" style="stop-color:#BD1E2D"/>
				<stop  offset="1" style="stop-color:#BC1E2D"/>
			</linearGradient>
			<path style="fill:url(#SVGID_00000078047363030022131400000013176242463592580513_);" d="M97.4,299.6c-0.3-0.7-9.2-17.1-9.6-17.7
				c0,0,0.1-0.2,0.3-0.5l2.1-3.9l12.2,22.1H97.4z"/>
			<path class="st1" d="M90.2,277.7l12,21.8h-4.8c-0.7-1.3-8.9-16.4-9.6-17.6l1.2-2.3L90.2,277.7 M90.2,277.3c0,0-0.6,1.1-1.2,2.2
				c-0.6,1.2-1.3,2.4-1.3,2.4c0,0,9.7,17.8,9.7,17.8h5.2L90.2,277.3L90.2,277.3z"/>
		</g>
		<g>
			<polygon class="st5" points="97.6,299.6 109.8,277.5 112.2,281.9 102.5,299.6 			"/>
			<path class="st1" d="M109.8,277.7l1.1,1.9l1.2,2.3l-9.6,17.6h-4.8L109.8,277.7 M109.8,277.3l-12.4,22.4h5.2l9.7-17.8c0,0,0,0,0,0
				c-0.1-0.2-0.7-1.3-1.3-2.3C110.4,278.4,109.8,277.3,109.8,277.3L109.8,277.3z"/>
		</g>
		<rect x="89" y="303.8" class="st34" width="20.8" height="22.3"/>
		<text transform="matrix(1 0 0 1 90.0003 322.0971)" class="st40 st36 st53 st46">16</text>
		<g>
			<path class="st16" d="M66.6,329.2c-7.6,0-13.8-6.2-13.8-13.8c0-7.6,6.2-13.8,13.8-13.8s13.8,6.2,13.8,13.8
				C80.4,323,74.2,329.2,66.6,329.2z"/>
			<path class="st1" d="M66.6,301.7c7.6,0,13.7,6.1,13.7,13.7s-6.1,13.7-13.7,13.7s-13.7-6.1-13.7-13.7S59,301.7,66.6,301.7
				 M66.6,301.5c-7.7,0-13.9,6.2-13.9,13.9c0,7.7,6.2,13.9,13.9,13.9c7.7,0,13.9-6.2,13.9-13.9C80.4,307.7,74.2,301.5,66.6,301.5
				L66.6,301.5z"/>
		</g>
		<g>
			<path class="st17" d="M66.6,327.4c-6.6,0-12-5.4-12-12c0-6.6,5.4-12,12-12s12,5.4,12,12C78.6,322,73.2,327.4,66.6,327.4z"/>
			<path class="st1" d="M66.6,303.4c6.6,0,12,5.4,12,12s-5.4,12-12,12s-12-5.4-12-12S60,303.4,66.6,303.4 M66.6,303.3
				c-6.7,0-12.1,5.4-12.1,12.1c0,6.7,5.4,12.1,12.1,12.1c6.7,0,12.1-5.4,12.1-12.1C78.7,308.7,73.3,303.3,66.6,303.3L66.6,303.3z"/>
		</g>
		<g>
			<path class="st1" d="M69,299.8v1.9c-0.8-0.1-1.6-0.2-2.4-0.2s-1.6,0.1-2.4,0.2v-1.9H69 M69.2,299.6H64c0,0,0,2.1,0,2.3
				c0.8-0.2,1.7-0.2,2.6-0.2s1.7,0.1,2.6,0.2C69.2,301.8,69.2,299.8,69.2,299.6C69.2,299.6,69.2,299.6,69.2,299.6L69.2,299.6z"/>
		</g>
		<g>
			
				<linearGradient id="SVGID_00000043436370363377770990000015748485773042255271_" gradientUnits="userSpaceOnUse" x1="59.533" y1="279.7061" x2="73.7162" y2="279.7061">
				<stop  offset="0" style="stop-color:#C31E2D"/>
				<stop  offset="0.3173" style="stop-color:#DF1E2D"/>
				<stop  offset="0.5035" style="stop-color:#E91E2D"/>
				<stop  offset="0.663" style="stop-color:#DF1E2D"/>
				<stop  offset="0.9358" style="stop-color:#C31E2D"/>
				<stop  offset="1" style="stop-color:#BC1E2D"/>
			</linearGradient>
			<polygon style="fill:url(#SVGID_00000043436370363377770990000015748485773042255271_);" points="54.5,281.9 56.9,277.5 
				76.4,277.5 77.5,279.7 78.7,281.9 			"/>
			<path class="st1" d="M56.9,277.6l19.3,0l1.1,2.1l1.2,2.1l-23,0h-1L56.9,277.6 M56.8,277.4l-2.5,4.6c0,0,0.5,0,1.3,0
				c5,0,23.2,0,23.2,0s0,0,0,0c0,0-0.7-1.2-1.3-2.4c-0.6-1.1-1.2-2.2-1.2-2.2L56.8,277.4L56.8,277.4z"/>
		</g>
		<g>
			
				<linearGradient id="SVGID_00000088848853988377510790000004333952056059089794_" gradientUnits="userSpaceOnUse" x1="57.5635" y1="283.5388" x2="64.1137" y2="295.3973">
				<stop  offset="0" style="stop-color:#E91E2D"/>
				<stop  offset="0.4112" style="stop-color:#E71E2D"/>
				<stop  offset="0.6431" style="stop-color:#DE1E2D"/>
				<stop  offset="0.8298" style="stop-color:#D11E2D"/>
				<stop  offset="0.9924" style="stop-color:#BD1E2D"/>
				<stop  offset="1" style="stop-color:#BC1E2D"/>
			</linearGradient>
			<path style="fill:url(#SVGID_00000088848853988377510790000004333952056059089794_);" d="M64,299.7c0,0-9.6-17.7-9.6-17.7
				l0.4-0.6l2-3.8L69,299.7H64z"/>
			<path class="st1" d="M56.8,277.8l12,21.8h-4.8c-0.7-1.3-8.9-16.4-9.6-17.6l0.1-0.2l1.2-2.1L56.8,277.8 M56.8,277.4
				c0,0-0.6,1.1-1.2,2.2c-0.6,1.2-1.3,2.4-1.3,2.4c0,0,9.7,17.8,9.7,17.8h5.2L56.8,277.4L56.8,277.4z"/>
		</g>
		<g>
			<polygon class="st5" points="64.1,299.7 76.4,277.6 78.8,282 69.1,299.7 			"/>
			<path class="st1" d="M76.4,277.8l1.1,1.9l1.2,2.3L69,299.6h-4.8L76.4,277.8 M76.4,277.4L64,299.8h5.2l9.7-17.8c0,0,0,0,0,0
				c-0.1-0.2-0.7-1.3-1.3-2.3C77,278.5,76.4,277.4,76.4,277.4L76.4,277.4z"/>
		</g>
		<rect x="56.2" y="304.2" class="st34" width="20.8" height="22.3"/>
		<text transform="matrix(1 0 0 1 61.4373 322.499)" class="st43 st36 st53">8</text>
	</g>
</g>
<g id="Oro">
</g>
</svg>
