<?xml version="1.0" encoding="utf-8"?>
<!-- Generator: Adobe Illustrator 27.5.0, SVG Export Plug-In . SVG Version: 6.00 Build 0)  -->
<svg version="1.1" xmlns="http://www.w3.org/2000/svg" xmlns:xlink="http://www.w3.org/1999/xlink" x="0px" y="0px"
	 viewBox="0 0 200 200" style="enable-background:new 0 0 200 200;" xml:space="preserve">
<style type="text/css">
	.st0{fill:#BF5600;}
	.st1{fill:#231F20;}
	.st2{fill:#E98A00;}
	.st3{fill:url(#SVGID_1_);}
	.st4{fill:url(#SVGID_00000018238669747737715580000012691297320892279951_);}
	.st5{fill:#E91E2D;}
	.st6{fill:none;}
	.st7{fill:#BF5600;stroke:#231F20;stroke-width:0.1739;stroke-miterlimit:10;}
	.st8{font-family:'MyriadPro-Regular';}
	.st9{font-size:18.4847px;}
	.st10{fill:#BCBEC0;}
	.st11{fill:#D1D3D4;}
	.st12{fill:url(#SVGID_00000051346496744272705520000017544757797697536938_);}
	.st13{fill:url(#SVGID_00000047752895500599848900000017583339092311536291_);}
	.st14{fill:#BCBEC0;stroke:#231F20;stroke-width:0.1739;stroke-miterlimit:10;}
	.st15{fill:#BF0A30;}
	.st16{fill:#FFFFFF;}
	.st17{fill:#002868;}
	.st18{fill:#002A8F;}
	.st19{fill:#CB1515;}
	.st20{fill:#D52B1E;}
	.st21{fill:#FBB040;}
	.st22{fill:#FFD90A;}
	.st23{fill:url(#SVGID_00000015312380805321878500000013512457933097580211_);}
	.st24{fill:url(#SVGID_00000049203997725236213700000012953522524279664810_);}
	.st25{fill:#FBB040;stroke:#231F20;stroke-width:0.1739;stroke-miterlimit:10;}
	.st26{fill:url(#SVGID_00000034061528170560676370000006351283850861688472_);}
	.st27{fill:url(#SVGID_00000065754939960559558820000012854748701955030932_);}
	.st28{letter-spacing:-1;}
	.st29{fill:url(#SVGID_00000035508771377023260490000007845483605431145628_);}
	.st30{fill:url(#SVGID_00000163066184550833709970000002273595717239755957_);}
	.st31{fill:url(#SVGID_00000104695522216164536040000018433185586504090243_);}
	.st32{fill:url(#SVGID_00000134230016237990417450000000368977025598642053_);}
	.st33{fill:url(#SVGID_00000005962714709455284620000011577203527349167017_);}
	.st34{fill:url(#SVGID_00000029759583668118455140000004191307292052832162_);}
	.st35{font-size:19.9956px;}
	.st36{fill:url(#SVGID_00000178926950774629646940000006711635467258877353_);}
	.st37{fill:url(#SVGID_00000086662954125325255200000012382631113435547573_);}
	.st38{fill:url(#SVGID_00000067226640996023429600000005833011290417520024_);}
	.st39{fill:url(#SVGID_00000099650622851410355430000000942486612531148941_);}
	.st40{fill:url(#SVGID_00000135691924313587906460000012857094448399410323_);}
	.st41{fill:url(#SVGID_00000115477614760864848990000011135427316500417213_);}
	.st42{fill:url(#SVGID_00000089572619961365926710000002254876248864262310_);}
	.st43{fill:url(#SVGID_00000062885683034693114390000010690549392098740352_);}
	.st44{fill:url(#SVGID_00000085232165553726083710000010256594869574268299_);}
	.st45{fill:url(#SVGID_00000080915626468036041170000006328264547088406207_);}
	.st46{fill:url(#SVGID_00000037657176073444871360000002577254325048639423_);}
	.st47{fill:url(#SVGID_00000106143640465693166180000012316395873623006389_);}
	.st48{fill:url(#SVGID_00000049204674874574828080000010278875647591921297_);}
	.st49{fill:url(#SVGID_00000072277906191827599390000012627521176946974082_);}
	.st50{fill:url(#SVGID_00000127748222959405202780000004993188710051816344_);}
	.st51{fill:url(#SVGID_00000023242388348384903630000009689400901830922156_);}
	.st52{fill:url(#SVGID_00000117671999146314095360000005171257562616571804_);}
	.st53{fill:url(#SVGID_00000086690339197638579560000016453029947677875345_);}
	.st54{fill:url(#SVGID_00000175307102072701161840000008789495761612740750_);}
	.st55{fill:url(#SVGID_00000096747509604306636240000010478532483873940889_);}
	.st56{fill:url(#SVGID_00000103973759452640498570000009421404226822575504_);}
	.st57{fill:url(#SVGID_00000057832991565326139240000007115322257328743569_);}
</style>
<g id="Bronce">
</g>
<g id="Plata">
	<g>
		<path class="st0" d="M181.6,69.5c-7.6,0-13.8-6.2-13.8-13.8c0-7.6,6.2-13.8,13.8-13.8s13.8,6.2,13.8,13.8
			C195.4,63.3,189.2,69.5,181.6,69.5z"/>
		<path class="st1" d="M181.6,42c7.6,0,13.7,6.1,13.7,13.7s-6.1,13.7-13.7,13.7s-13.7-6.1-13.7-13.7S174,42,181.6,42 M181.6,41.8
			c-7.7,0-13.9,6.2-13.9,13.9s6.2,13.9,13.9,13.9c7.7,0,13.9-6.2,13.9-13.9S189.2,41.8,181.6,41.8L181.6,41.8z"/>
	</g>
	<g>
		<path class="st2" d="M181.6,67.8c-6.6,0-12-5.4-12-12c0-6.6,5.4-12,12-12c6.6,0,12,5.4,12,12C193.6,62.4,188.2,67.8,181.6,67.8z"
			/>
		<path class="st1" d="M181.6,43.8c6.6,0,12,5.4,12,12s-5.4,12-12,12s-12-5.4-12-12S175,43.8,181.6,43.8 M181.6,43.6
			c-6.7,0-12.1,5.4-12.1,12.1s5.4,12.1,12.1,12.1c6.7,0,12.1-5.4,12.1-12.1S188.3,43.6,181.6,43.6L181.6,43.6z"/>
	</g>
	<g>
		<path class="st1" d="M184,40.1l0,1.9c-0.8-0.1-1.6-0.2-2.4-0.2c-0.8,0-1.6,0.1-2.4,0.2v-1.9H184 M184.2,40H179c0,0,0,2.1,0,2.3
			c0.8-0.2,1.7-0.2,2.6-0.2s1.7,0.1,2.6,0.2C184.2,42.1,184.2,40.1,184.2,40C184.2,40,184.2,40,184.2,40L184.2,40z"/>
	</g>
	<g>
		<linearGradient id="SVGID_1_" gradientUnits="userSpaceOnUse" x1="174.5389" y1="20.0198" x2="188.722" y2="20.0198">
			<stop  offset="0" style="stop-color:#C31E2D"/>
			<stop  offset="0.3173" style="stop-color:#DF1E2D"/>
			<stop  offset="0.5035" style="stop-color:#E91E2D"/>
			<stop  offset="0.663" style="stop-color:#DF1E2D"/>
			<stop  offset="0.9358" style="stop-color:#C31E2D"/>
			<stop  offset="1" style="stop-color:#BC1E2D"/>
		</linearGradient>
		<path class="st3" d="M169.5,22.3l2.4-4.5l19.5,0l1.1,2.1c0,0,1,1.8,1.2,2.3H169.5z"/>
		<path class="st1" d="M171.9,17.9l19.3,0l1.1,2.1l1.2,2.1l-22.5,0l-1.5,0L171.9,17.9 M171.8,17.7l-2.5,4.6c0,0,0.7,0,1.8,0
			c5.6,0,22.7,0,22.7,0s0,0,0,0c0,0,0,0,0,0c0,0-0.7-1.2-1.3-2.4c-0.6-1.1-1.2-2.2-1.2-2.2L171.8,17.7L171.8,17.7z"/>
	</g>
	<g>
		
			<linearGradient id="SVGID_00000155858062443590336700000010198801190515971484_" gradientUnits="userSpaceOnUse" x1="172.5694" y1="23.8525" x2="179.1194" y2="35.7108">
			<stop  offset="0" style="stop-color:#E91E2D"/>
			<stop  offset="0.4112" style="stop-color:#E71E2D"/>
			<stop  offset="0.6431" style="stop-color:#DE1E2D"/>
			<stop  offset="0.8298" style="stop-color:#D11E2D"/>
			<stop  offset="0.9924" style="stop-color:#BD1E2D"/>
			<stop  offset="1" style="stop-color:#BC1E2D"/>
		</linearGradient>
		<path style="fill:url(#SVGID_00000155858062443590336700000010198801190515971484_);" d="M179,40c0,0-9.3-17.2-9.6-17.7
			c0,0,0.2-0.3,0.5-0.8l2-3.6L184,40H179z"/>
		<path class="st1" d="M171.8,18.1l12,21.8h-4.8c-0.7-1.3-8.9-16.4-9.6-17.6l1.2-2.3L171.8,18.1 M171.8,17.7c0,0-0.6,1.1-1.2,2.2
			c-0.6,1.2-1.3,2.4-1.3,2.4c0,0,9.7,17.8,9.7,17.8h5.2L171.8,17.7L171.8,17.7z"/>
	</g>
	<g>
		<polygon class="st5" points="179.1,40 191.4,17.9 193.8,22.3 184.1,40 		"/>
		<path class="st1" d="M191.4,18.1l1.1,1.9l1.2,2.3L184.1,40h-4.8L191.4,18.1 M191.4,17.7L179,40.1h5.2l9.7-17.8c0,0,0,0,0,0
			c-0.1-0.2-0.7-1.3-1.3-2.3C192,18.8,191.4,17.7,191.4,17.7L191.4,17.7z"/>
	</g>
	<rect x="171.2" y="44.2" class="st6" width="20.8" height="22.3"/>
	<text transform="matrix(1 0 0 1 172.1082 61.8741)" class="st7 st8 st9">35</text>
	<g>
		<path class="st10" d="M148.2,69.4c-7.6,0-13.8-6.2-13.8-13.8c0-7.6,6.2-13.8,13.8-13.8c7.6,0,13.8,6.2,13.8,13.8
			C161.9,63.2,155.8,69.4,148.2,69.4z"/>
		<path class="st1" d="M148.2,41.9c7.6,0,13.7,6.1,13.7,13.7s-6.1,13.7-13.7,13.7s-13.7-6.1-13.7-13.7S140.6,41.9,148.2,41.9
			 M148.2,41.8c-7.7,0-13.9,6.2-13.9,13.9s6.2,13.9,13.9,13.9c7.7,0,13.9-6.2,13.9-13.9S155.8,41.8,148.2,41.8L148.2,41.8z"/>
	</g>
	<g>
		<path class="st11" d="M148.2,67.7c-6.6,0-12-5.4-12-12c0-6.6,5.4-12,12-12c6.6,0,12,5.4,12,12C160.2,62.3,154.8,67.7,148.2,67.7z"
			/>
		<path class="st1" d="M148.2,43.7c6.6,0,12,5.4,12,12s-5.4,12-12,12s-12-5.4-12-12S141.6,43.7,148.2,43.7 M148.2,43.5
			c-6.7,0-12.1,5.4-12.1,12.1s5.4,12.1,12.1,12.1c6.7,0,12.1-5.4,12.1-12.1S154.9,43.5,148.2,43.5L148.2,43.5z"/>
	</g>
	<g>
		<path class="st1" d="M150.6,40V42c-0.8-0.1-1.6-0.2-2.4-0.2c-0.8,0-1.6,0.1-2.4,0.2V40H150.6 M150.7,39.9h-5.2c0,0,0,2.1,0,2.3
			c0.8-0.2,1.7-0.2,2.6-0.2s1.7,0.1,2.6,0.2C150.7,42,150.7,40,150.7,39.9C150.7,39.9,150.7,39.9,150.7,39.9L150.7,39.9z"/>
	</g>
	<g>
		
			<linearGradient id="SVGID_00000111896788839044076490000008308146338093976197_" gradientUnits="userSpaceOnUse" x1="141.1183" y1="19.9353" x2="155.3009" y2="19.9353">
			<stop  offset="0" style="stop-color:#C31E2D"/>
			<stop  offset="0.3173" style="stop-color:#DF1E2D"/>
			<stop  offset="0.5035" style="stop-color:#E91E2D"/>
			<stop  offset="0.663" style="stop-color:#DF1E2D"/>
			<stop  offset="0.9358" style="stop-color:#C31E2D"/>
			<stop  offset="1" style="stop-color:#BC1E2D"/>
		</linearGradient>
		<path style="fill:url(#SVGID_00000111896788839044076490000008308146338093976197_);" d="M136,22.2l2.4-4.5l19.5,0l1.1,2.1
			c0.5,1,1,1.9,1.2,2.3h-18C139.1,22.2,136.7,22.2,136,22.2z"/>
		<path class="st1" d="M138.5,17.8l19.3,0l1.1,2.1l0.8,1.6l0.3,0.6l-22.6,0l-1.4,0L138.5,17.8 M138.4,17.7l-2.5,4.6c0,0,0.6,0,1.7,0
			c5.5,0,22.8,0,22.8,0s0,0,0,0c0,0-0.7-1.2-1.3-2.4c-0.6-1.1-1.2-2.2-1.2-2.2L138.4,17.7L138.4,17.7z"/>
	</g>
	<g>
		
			<linearGradient id="SVGID_00000114061842268465263090000011550318910321251976_" gradientUnits="userSpaceOnUse" x1="139.1486" y1="23.7681" x2="145.6986" y2="35.6264">
			<stop  offset="0" style="stop-color:#E91E2D"/>
			<stop  offset="0.4112" style="stop-color:#E71E2D"/>
			<stop  offset="0.6431" style="stop-color:#DE1E2D"/>
			<stop  offset="0.8298" style="stop-color:#D11E2D"/>
			<stop  offset="0.9924" style="stop-color:#BD1E2D"/>
			<stop  offset="1" style="stop-color:#BC1E2D"/>
		</linearGradient>
		<path style="fill:url(#SVGID_00000114061842268465263090000011550318910321251976_);" d="M145.6,40c0,0-9.3-17.2-9.6-17.7
			c0,0,0.2-0.3,0.5-0.8l2-3.6L150.6,40H145.6z"/>
		<path class="st1" d="M138.4,18l12,21.8h-4.8c-0.7-1.3-8.9-16.4-9.6-17.6l1.2-2.3L138.4,18 M138.4,17.7c0,0-0.6,1.1-1.2,2.2
			c-0.6,1.2-1.3,2.4-1.3,2.4c0,0,9.7,17.8,9.7,17.8h5.2L138.4,17.7L138.4,17.7z"/>
	</g>
	<g>
		<polygon class="st5" points="145.7,40 157.9,17.8 160.3,22.3 150.7,40 		"/>
		<path class="st1" d="M157.9,18L159,20l1.2,2.3l-9.6,17.6h-4.8L157.9,18 M157.9,17.7L145.6,40h5.2l9.7-17.8c0,0,0,0,0,0
			c-0.1-0.2-0.7-1.3-1.3-2.3C158.5,18.8,157.9,17.7,157.9,17.7L157.9,17.7z"/>
	</g>
	<rect x="137.8" y="43.5" class="st6" width="20.8" height="22.3"/>
	<text transform="matrix(1 0 0 1 138.6883 61.2207)" class="st14 st8 st9">47</text>
	<g transform="translate(-50,-80)">
		<g>
			<g>
				<path class="st15" d="M54,147.7v-48h91.2v48H54z"/>
				<g>
					<path class="st16" d="M54,144.5v-3.2h91.2v3.2H54z"/>
					<path class="st16" d="M54,138.1v-3.2h91.2v3.2H54z"/>
					<path class="st16" d="M54,131.7v-3.2h91.2v3.2H54z"/>
					<path class="st16" d="M54,125.3v-3.2h91.2v3.2H54z"/>
					<path class="st16" d="M54,118.9v-3.2h91.2v3.2H54z"/>
					<path class="st16" d="M54,112.5v-3.2h91.2v3.2H54z"/>
					<path class="st16" d="M54,106.1v-3.2h91.2v3.2H54z"/>
				</g>
			</g>
			<path class="st17" d="M54,125.3V99.7h36.5v25.6H54z"/>
			<g>
				<g>
					<path class="st16" d="M75,106.9l0.3,1h1.1l-0.9,0.6l0.3,1L75,109l-0.9,0.6l0.3-1l-0.9-0.6h1.1L75,106.9z"/>
					<path class="st16" d="M75,114.8l0.3,1h1.1l-0.9,0.6l0.3,1l-0.9-0.6l-0.9,0.6l0.3-1l-0.9-0.6h1.1L75,114.8z"/>
				</g>
				<g>
					<path class="st16" d="M85.8,107.2l0.3,1h1.1l-0.9,0.6l0.3,1l-0.9-0.6l-0.9,0.6l0.3-1l-0.9-0.6h1.1L85.8,107.2z"/>
					<path class="st16" d="M85.8,115.1l0.3,1h1.1l-0.9,0.6l0.3,1l-0.9-0.6l-0.9,0.6l0.3-1l-0.9-0.6h1.1L85.8,115.1z"/>
					<path class="st16" d="M85.8,107.2l0.3,1h1.1l-0.9,0.6l0.3,1l-0.9-0.6l-0.9,0.6l0.3-1l-0.9-0.6h1.1L85.8,107.2z"/>
					<path class="st16" d="M85.8,115.1l0.3,1h1.1l-0.9,0.6l0.3,1l-0.9-0.6l-0.9,0.6l0.3-1l-0.9-0.6h1.1L85.8,115.1z"/>
				</g>
				<g>
					<path class="st16" d="M64.1,106.9l0.3,1h1.1l-0.9,0.6l0.3,1l-0.9-0.6l-0.9,0.6l0.3-1l-0.9-0.6h1.1L64.1,106.9z"/>
					<path class="st16" d="M64.1,114.8l0.3,1h1.1l-0.9,0.6l0.3,1l-0.9-0.6l-0.9,0.6l0.3-1l-0.9-0.6h1.1L64.1,114.8z"/>
				</g>
				<g>
					<path class="st16" d="M80.4,103l0.3,1h1.1l-0.9,0.6l0.3,1l-0.9-0.6l-0.9,0.6l0.3-1l-0.9-0.6H80L80.4,103z"/>
					<path class="st16" d="M80.4,110.9l0.3,1h1.1l-0.9,0.6l0.3,1l-0.9-0.6l-0.9,0.6l0.3-1l-0.9-0.6H80L80.4,110.9z"/>
					<path class="st16" d="M80.4,118.8l0.3,1h1.1l-0.9,0.6l0.3,1l-0.9-0.6l-0.9,0.6l0.3-1l-0.9-0.6H80L80.4,118.8z"/>
				</g>
				<g>
					<path class="st16" d="M69.5,103l0.3,1H71l-0.9,0.6l0.3,1l-0.9-0.6l-0.9,0.6l0.3-1l-0.9-0.6h1.1L69.5,103z"/>
					<path class="st16" d="M69.5,110.9l0.3,1H71l-0.9,0.6l0.3,1l-0.9-0.6l-0.9,0.6l0.3-1l-0.9-0.6h1.1L69.5,110.9z"/>
					<path class="st16" d="M69.5,118.8l0.3,1H71l-0.9,0.6l0.3,1l-0.9-0.6l-0.9,0.6l0.3-1l-0.9-0.6h1.1L69.5,118.8z"/>
				</g>
				<g>
					<path class="st16" d="M58.7,103l0.3,1h1.1l-0.9,0.6l0.3,1l-0.9-0.6l-0.9,0.6l0.3-1l-0.9-0.6h1.1L58.7,103z"/>
					<path class="st16" d="M58.7,110.9l0.3,1h1.1l-0.9,0.6l0.3,1l-0.9-0.6l-0.9,0.6l0.3-1l-0.9-0.6h1.1L58.7,110.9z"/>
					<path class="st16" d="M58.7,118.8l0.3,1h1.1l-0.9,0.6l0.3,1l-0.9-0.6l-0.9,0.6l0.3-1l-0.9-0.6h1.1L58.7,118.8z"/>
				</g>
			</g>
		</g>
	</g>
	<g>
		<path class="st18" d="M4,134.9h91.2v45.6H4V134.9z"/>
		<path class="st16" d="M13.1,144h82v9.1H31.4v9.1h63.8v9.1h-82V144z"/>
		<path class="st19" d="M43.5,157.7L4,180.5v-45.6L43.5,157.7z"/>
		<path class="st16" d="M17.2,150.1l-4.5,13.7l11.7-8.5H10l11.7,8.5L17.2,150.1z"/>
	</g>
	<g>
		<path class="st20" d="M4,78.5h22.8l0.9,0.9h43.7l0.9-0.9h22.8v45.6H72.4l-0.9-0.9H27.8l-0.9,0.9H4V78.5z"/>
		<path class="st16" d="M26.8,78.5h45.6v45.6H26.8V78.5z M50.5,120.6l-0.4-8.2c0-0.5,0.4-0.9,0.9-0.9c0.1,0,0.1,0,0.2,0l8.2,1.4
			l-1.1-3c-0.1-0.2,0-0.5,0.2-0.7l8.9-7.2l-2-0.9c-0.3-0.1-0.4-0.5-0.3-0.8l1.8-5.4l-5.1,1.1c-0.3,0.1-0.6-0.1-0.7-0.4l-1-2.3
			l-4,4.3c-0.2,0.2-0.6,0.3-0.9,0c-0.2-0.1-0.2-0.4-0.2-0.6l1.9-10l-3.1,1.8c-0.3,0.2-0.7,0.1-0.8-0.2c0,0,0,0,0,0l-3.2-6.2
			l-3.2,6.2c-0.2,0.3-0.5,0.4-0.8,0.3c0,0,0,0,0,0l-3.1-1.8l1.9,10c0.1,0.3-0.2,0.7-0.5,0.7c-0.2,0-0.4,0-0.6-0.2l-4-4.3l-1,2.3
			c-0.1,0.3-0.4,0.4-0.7,0.4l-5.1-1.1l1.8,5.4c0.1,0.3,0,0.6-0.3,0.8l-2,0.9l8.9,7.2c0.2,0.2,0.3,0.4,0.2,0.7l-1.1,3l8.2-1.4
			c0.5-0.1,1,0.2,1,0.7c0,0.1,0,0.1,0,0.2l-0.4,8.2H50.5z"/>
	</g>
	<g>
		<circle class="st21" cx="114.7" cy="55.7" r="13.8"/>
		<path class="st1" d="M114.7,42c7.6,0,13.7,6.1,13.7,13.7s-6.1,13.7-13.7,13.7S101,63.3,101,55.7S107.2,42,114.7,42 M114.7,41.8
			c-7.7,0-13.9,6.2-13.9,13.9s6.2,13.9,13.9,13.9c7.7,0,13.9-6.2,13.9-13.9S122.4,41.8,114.7,41.8L114.7,41.8z"/>
	</g>
	<g>
		<path class="st22" d="M114.7,67.8c-6.6,0-12-5.4-12-12s5.4-12,12-12c6.6,0,12,5.4,12,12S121.4,67.8,114.7,67.8z"/>
		<path class="st1" d="M114.7,43.8c6.6,0,12,5.4,12,12s-5.4,12-12,12s-12-5.4-12-12S108.1,43.8,114.7,43.8 M114.7,43.6
			c-6.7,0-12.1,5.4-12.1,12.1s5.4,12.1,12.1,12.1c6.7,0,12.1-5.4,12.1-12.1S121.4,43.6,114.7,43.6L114.7,43.6z"/>
	</g>
	<g>
		<path class="st1" d="M117.1,40.1V42c-0.8-0.1-1.6-0.2-2.4-0.2c-0.8,0-1.6,0.1-2.4,0.2v-1.9H117.1 M117.3,40h-5.2c0,0,0,2.1,0,2.3
			c0.8-0.2,1.7-0.2,2.6-0.2s1.7,0.1,2.6,0.2C117.3,42.1,117.3,40.1,117.3,40C117.3,40,117.3,40,117.3,40L117.3,40z"/>
	</g>
	<g>
		
			<linearGradient id="SVGID_00000152255855027170162310000017834053311408528296_" gradientUnits="userSpaceOnUse" x1="107.6975" y1="20.0195" x2="121.8803" y2="20.0195">
			<stop  offset="0" style="stop-color:#C31E2D"/>
			<stop  offset="0.3173" style="stop-color:#DF1E2D"/>
			<stop  offset="0.5035" style="stop-color:#E91E2D"/>
			<stop  offset="0.663" style="stop-color:#DF1E2D"/>
			<stop  offset="0.9358" style="stop-color:#C31E2D"/>
			<stop  offset="1" style="stop-color:#BC1E2D"/>
		</linearGradient>
		<polygon style="fill:url(#SVGID_00000152255855027170162310000017834053311408528296_);" points="105.1,17.8 124.5,17.8 125.6,20 
			126.9,22.3 102.6,22.3 		"/>
		<path class="st1" d="M105.1,17.9l19.3,0l1.1,2.1l0.8,1.5c0.2,0.3,0.3,0.5,0.4,0.7l-22.5,0l-1.5,0L105.1,17.9 M105,17.7l-2.5,4.6
			c0,0,0.7,0,1.8,0c5.6,0,22.7,0,22.7,0s0,0,0,0c0,0-0.7-1.2-1.3-2.4c-0.6-1.1-1.2-2.2-1.2-2.2L105,17.7L105,17.7z"/>
	</g>
	<g>
		
			<linearGradient id="SVGID_00000121963549965484281360000006513141714152974521_" gradientUnits="userSpaceOnUse" x1="105.7279" y1="23.8521" x2="112.2779" y2="35.7104">
			<stop  offset="0" style="stop-color:#E91E2D"/>
			<stop  offset="0.4112" style="stop-color:#E71E2D"/>
			<stop  offset="0.6431" style="stop-color:#DE1E2D"/>
			<stop  offset="0.8298" style="stop-color:#D11E2D"/>
			<stop  offset="0.9924" style="stop-color:#BD1E2D"/>
			<stop  offset="1" style="stop-color:#BC1E2D"/>
		</linearGradient>
		<path style="fill:url(#SVGID_00000121963549965484281360000006513141714152974521_);" d="M112.1,40c-0.3-0.7-9.2-17.1-9.6-17.7
			c0,0,0.1-0.2,0.3-0.5l2.1-3.9L117.2,40H112.1z"/>
		<path class="st1" d="M105,18.1L117,40h-4.8c-0.7-1.3-8.9-16.4-9.6-17.6l1.2-2.3L105,18.1 M105,17.7c0,0-0.6,1.1-1.2,2.2
			c-0.6,1.2-1.3,2.4-1.3,2.4c0,0,9.7,17.8,9.7,17.8h5.2L105,17.7L105,17.7z"/>
	</g>
	<g>
		<polygon class="st5" points="112.3,40 124.5,17.9 126.9,22.3 117.3,40 		"/>
		<path class="st1" d="M124.5,18.1l1.1,1.9l1.2,2.3L117.2,40h-4.8L124.5,18.1 M124.5,17.7l-12.4,22.4h5.2l9.7-17.8c0,0,0,0,0,0
			c-0.1-0.2-0.7-1.3-1.3-2.3C125.1,18.8,124.5,17.7,124.5,17.7L124.5,17.7z"/>
	</g>
	<rect x="104.3" y="44.6" class="st6" width="20.8" height="22.3"/>
	<text transform="matrix(1 0 0 1 105.2478 62.2774)" class="st25 st8 st9">63</text>
	<g>
		<path class="st0" d="M181.6,126.5c-7.6,0-13.8-6.2-13.8-13.8c0-7.6,6.2-13.8,13.8-13.8s13.8,6.2,13.8,13.8
			C195.4,120.3,189.2,126.5,181.6,126.5z"/>
		<path class="st1" d="M181.6,99c7.6,0,13.7,6.1,13.7,13.7s-6.1,13.7-13.7,13.7s-13.7-6.1-13.7-13.7S174,99,181.6,99 M181.6,98.8
			c-7.7,0-13.9,6.2-13.9,13.9s6.2,13.9,13.9,13.9c7.7,0,13.9-6.2,13.9-13.9S189.2,98.8,181.6,98.8L181.6,98.8z"/>
	</g>
	<g>
		<path class="st2" d="M181.6,124.7c-6.6,0-12-5.4-12-12c0-6.6,5.4-12,12-12c6.6,0,12,5.4,12,12
			C193.6,119.3,188.2,124.7,181.6,124.7z"/>
		<path class="st1" d="M181.6,100.7c6.6,0,12,5.4,12,12s-5.4,12-12,12s-12-5.4-12-12S175,100.7,181.6,100.7 M181.6,100.6
			c-6.7,0-12.1,5.4-12.1,12.1s5.4,12.1,12.1,12.1c6.7,0,12.1-5.4,12.1-12.1S188.3,100.6,181.6,100.6L181.6,100.6z"/>
	</g>
	<g>
		<path class="st1" d="M184,97.1l0,1.9c-0.8-0.1-1.6-0.2-2.4-0.2c-0.8,0-1.6,0.1-2.4,0.2v-1.9H184 M184.2,96.9H179c0,0,0,2.1,0,2.3
			c0.8-0.2,1.7-0.2,2.6-0.2s1.7,0.1,2.6,0.2C184.2,99.1,184.2,97.1,184.2,96.9C184.2,96.9,184.2,96.9,184.2,96.9L184.2,96.9z"/>
	</g>
	<g>
		
			<linearGradient id="SVGID_00000176753909013658044330000016802294820786461599_" gradientUnits="userSpaceOnUse" x1="174.5389" y1="77.0083" x2="188.722" y2="77.0083">
			<stop  offset="0" style="stop-color:#C31E2D"/>
			<stop  offset="0.3173" style="stop-color:#DF1E2D"/>
			<stop  offset="0.5035" style="stop-color:#E91E2D"/>
			<stop  offset="0.663" style="stop-color:#DF1E2D"/>
			<stop  offset="0.9358" style="stop-color:#C31E2D"/>
			<stop  offset="1" style="stop-color:#BC1E2D"/>
		</linearGradient>
		<polygon style="fill:url(#SVGID_00000176753909013658044330000016802294820786461599_);" points="169.5,79.2 171.9,74.8 
			191.4,74.8 192.5,77 193.7,79.2 		"/>
		<path class="st1" d="M171.9,74.9l19.3,0l1.1,2.1l1.2,2.1l-22.5,0l-1.5,0L171.9,74.9 M171.8,74.7l-2.5,4.6c0,0,0.7,0,1.8,0
			c5.6,0,22.7,0,22.7,0s0,0,0,0c0,0,0,0,0,0c0,0-0.7-1.2-1.3-2.4c-0.6-1.1-1.2-2.2-1.2-2.2L171.8,74.7L171.8,74.7z"/>
	</g>
	<g>
		
			<linearGradient id="SVGID_00000113333375009137489830000011407758296459763384_" gradientUnits="userSpaceOnUse" x1="172.5694" y1="80.8409" x2="179.1194" y2="92.6994">
			<stop  offset="0" style="stop-color:#E91E2D"/>
			<stop  offset="0.4112" style="stop-color:#E71E2D"/>
			<stop  offset="0.6431" style="stop-color:#DE1E2D"/>
			<stop  offset="0.8298" style="stop-color:#D11E2D"/>
			<stop  offset="0.9924" style="stop-color:#BD1E2D"/>
			<stop  offset="1" style="stop-color:#BC1E2D"/>
		</linearGradient>
		<path style="fill:url(#SVGID_00000113333375009137489830000011407758296459763384_);" d="M179,97c0,0-9.3-17.2-9.6-17.7
			c0,0,0.2-0.3,0.5-0.8l2-3.6L184,97H179z"/>
		<path class="st1" d="M171.8,75.1l12,21.8h-4.8c-0.7-1.3-8.9-16.4-9.6-17.6l0.8-1.5l0.4-0.8L171.8,75.1 M171.8,74.7
			c0,0-0.6,1.1-1.2,2.2c-0.6,1.2-1.3,2.4-1.3,2.4c0,0,9.7,17.8,9.7,17.8h5.2L171.8,74.7L171.8,74.7z"/>
	</g>
	<g>
		<polygon class="st5" points="179.1,97 191.4,74.9 193.8,79.3 184.1,97 		"/>
		<path class="st1" d="M191.4,75.1l1.1,1.9l1.2,2.3l-9.6,17.6h-4.8L191.4,75.1 M191.4,74.7L179,97.1h5.2l9.7-17.8c0,0,0,0,0,0
			c-0.1-0.2-0.7-1.3-1.3-2.3C192,75.8,191.4,74.7,191.4,74.7L191.4,74.7z"/>
	</g>
	<rect x="170.8" y="101.5" class="st6" width="20.8" height="22.3"/>
	<text transform="matrix(1 0 0 1 172.4461 119.2647)" class="st7 st8 st9 st28">17</text>
	<g>
		<path class="st10" d="M148.2,126.5c-7.6,0-13.8-6.2-13.8-13.8c0-7.6,6.2-13.8,13.8-13.8c7.6,0,13.8,6.2,13.8,13.8
			C161.9,120.3,155.8,126.5,148.2,126.5z"/>
		<path class="st1" d="M148.2,99c7.6,0,13.7,6.1,13.7,13.7s-6.1,13.7-13.7,13.7s-13.7-6.1-13.7-13.7S140.6,99,148.2,99 M148.2,98.8
			c-7.7,0-13.9,6.2-13.9,13.9s6.2,13.9,13.9,13.9c7.7,0,13.9-6.2,13.9-13.9S155.8,98.8,148.2,98.8L148.2,98.8z"/>
	</g>
	<g>
		<path class="st11" d="M148.2,124.7c-6.6,0-12-5.4-12-12c0-6.6,5.4-12,12-12c6.6,0,12,5.4,12,12
			C160.2,119.3,154.8,124.7,148.2,124.7z"/>
		<path class="st1" d="M148.2,100.7c6.6,0,12,5.4,12,12s-5.4,12-12,12s-12-5.4-12-12S141.6,100.7,148.2,100.7 M148.2,100.6
			c-6.7,0-12.1,5.4-12.1,12.1s5.4,12.1,12.1,12.1c6.7,0,12.1-5.4,12.1-12.1S154.9,100.6,148.2,100.6L148.2,100.6z"/>
	</g>
	<g>
		<path class="st1" d="M150.6,97.1V99c-0.8-0.1-1.6-0.2-2.4-0.2c-0.8,0-1.6,0.1-2.4,0.2v-1.9H150.6 M150.7,96.9h-5.2
			c0,0,0,2.1,0,2.3c0.8-0.2,1.7-0.2,2.6-0.2s1.7,0.1,2.6,0.2C150.7,99.1,150.7,97.1,150.7,96.9C150.7,96.9,150.7,96.9,150.7,96.9
			L150.7,96.9z"/>
	</g>
	<g>
		
			<linearGradient id="SVGID_00000174581900757940457300000011843903039449831810_" gradientUnits="userSpaceOnUse" x1="141.1184" y1="77.0083" x2="155.3012" y2="77.0083">
			<stop  offset="0" style="stop-color:#C31E2D"/>
			<stop  offset="0.3173" style="stop-color:#DF1E2D"/>
			<stop  offset="0.5035" style="stop-color:#E91E2D"/>
			<stop  offset="0.663" style="stop-color:#DF1E2D"/>
			<stop  offset="0.9358" style="stop-color:#C31E2D"/>
			<stop  offset="1" style="stop-color:#BC1E2D"/>
		</linearGradient>
		<path style="fill:url(#SVGID_00000174581900757940457300000011843903039449831810_);" d="M136,79.2l2.4-4.5l19.5,0l1.1,2.1
			c0.5,1,1,1.9,1.2,2.3H136z"/>
		<path class="st1" d="M138.5,74.9l19.3,0L159,77l0.8,1.6l0.3,0.6l-22.5,0l-1.5,0L138.5,74.9 M138.4,74.7l-2.5,4.6c0,0,0.7,0,1.8,0
			c5.6,0,22.7,0,22.7,0s0,0,0,0c0,0,0,0,0,0c0,0-0.7-1.2-1.3-2.4c-0.6-1.1-1.2-2.2-1.2-2.2L138.4,74.7L138.4,74.7z"/>
	</g>
	<g>
		
			<linearGradient id="SVGID_00000071539192069947655650000006640597049411913358_" gradientUnits="userSpaceOnUse" x1="139.1485" y1="80.8409" x2="145.6986" y2="92.6995">
			<stop  offset="0" style="stop-color:#E91E2D"/>
			<stop  offset="0.4112" style="stop-color:#E71E2D"/>
			<stop  offset="0.6431" style="stop-color:#DE1E2D"/>
			<stop  offset="0.8298" style="stop-color:#D11E2D"/>
			<stop  offset="0.9924" style="stop-color:#BD1E2D"/>
			<stop  offset="1" style="stop-color:#BC1E2D"/>
		</linearGradient>
		<path style="fill:url(#SVGID_00000071539192069947655650000006640597049411913358_);" d="M145.6,97c0,0-9.3-17.2-9.6-17.7
			c0,0,0.2-0.3,0.5-0.8l2-3.6L150.6,97H145.6z"/>
		<path class="st1" d="M138.4,75.1l12,21.8h-4.8c-0.7-1.3-8.9-16.4-9.6-17.6l0.8-1.5l0.4-0.8L138.4,75.1 M138.4,74.7
			c0,0-0.6,1.1-1.2,2.2c-0.6,1.2-1.3,2.4-1.3,2.4c0,0,9.7,17.8,9.7,17.8h5.2L138.4,74.7L138.4,74.7z"/>
	</g>
	<g>
		<polygon class="st5" points="145.7,97 157.9,74.9 160.3,79.3 150.7,97 		"/>
		<path class="st1" d="M157.9,75.1L159,77l1.2,2.3l-9.6,17.6h-4.8L157.9,75.1 M157.9,74.7l-12.4,22.4h5.2l9.7-17.8c0,0,0,0,0,0
			c-0.1-0.2-0.7-1.3-1.3-2.3C158.5,75.8,157.9,74.7,157.9,74.7L157.9,74.7z"/>
	</g>
	<rect x="137.4" y="101.5" class="st6" width="20.8" height="22.3"/>
	<text transform="matrix(1 0 0 1 139.0252 119.2657)" class="st14 st8 st9 st28">17</text>
	<g>
		<path class="st21" d="M114.7,126.5c-7.6,0-13.8-6.2-13.8-13.8c0-7.6,6.2-13.8,13.8-13.8s13.8,6.2,13.8,13.8
			C128.5,120.3,122.3,126.5,114.7,126.5z"/>
		<path class="st1" d="M114.7,99c7.6,0,13.7,6.1,13.7,13.7s-6.1,13.7-13.7,13.7s-13.7-6.1-13.7-13.7S107.2,99,114.7,99 M114.7,98.8
			c-7.7,0-13.9,6.2-13.9,13.9s6.2,13.9,13.9,13.9c7.7,0,13.9-6.2,13.9-13.9S122.4,98.8,114.7,98.8L114.7,98.8z"/>
	</g>
	<g>
		<path class="st22" d="M114.7,124.7c-6.6,0-12-5.4-12-12c0-6.6,5.4-12,12-12c6.6,0,12,5.4,12,12
			C126.8,119.3,121.4,124.7,114.7,124.7z"/>
		<path class="st1" d="M114.7,100.7c6.6,0,12,5.4,12,12s-5.4,12-12,12s-12-5.4-12-12S108.1,100.7,114.7,100.7 M114.7,100.6
			c-6.7,0-12.1,5.4-12.1,12.1s5.4,12.1,12.1,12.1c6.7,0,12.1-5.4,12.1-12.1S121.4,100.6,114.7,100.6L114.7,100.6z"/>
	</g>
	<g>
		<path class="st1" d="M117.1,97.1V99c-0.8-0.1-1.6-0.2-2.4-0.2c-0.8,0-1.6,0.1-2.4,0.2v-1.9H117.1 M117.3,96.9h-5.2
			c0,0,0,2.1,0,2.3c0.8-0.2,1.7-0.2,2.6-0.2s1.7,0.1,2.6,0.2C117.3,99.1,117.3,97.1,117.3,96.9C117.3,96.9,117.3,96.9,117.3,96.9
			L117.3,96.9z"/>
	</g>
	<g>
		
			<linearGradient id="SVGID_00000164510385814873575920000002171523307293502880_" gradientUnits="userSpaceOnUse" x1="107.6976" y1="77.0083" x2="121.8807" y2="77.0083">
			<stop  offset="0" style="stop-color:#C31E2D"/>
			<stop  offset="0.3173" style="stop-color:#DF1E2D"/>
			<stop  offset="0.5035" style="stop-color:#E91E2D"/>
			<stop  offset="0.663" style="stop-color:#DF1E2D"/>
			<stop  offset="0.9358" style="stop-color:#C31E2D"/>
			<stop  offset="1" style="stop-color:#BC1E2D"/>
		</linearGradient>
		<polygon style="fill:url(#SVGID_00000164510385814873575920000002171523307293502880_);" points="102.6,79.2 105.1,74.8 
			124.5,74.8 125.6,77 126.9,79.2 		"/>
		<path class="st1" d="M105.1,74.9l19.3,0l1.1,2.1l0.8,1.6l0.3,0.6l-22.5,0l-1.5,0L105.1,74.9 M105,74.7l-2.5,4.6c0,0,0.7,0,1.8,0
			c5.6,0,22.7,0,22.7,0s0,0,0,0c0,0,0,0,0,0c0,0-0.7-1.2-1.3-2.4c-0.6-1.1-1.2-2.2-1.2-2.2L105,74.7L105,74.7z"/>
	</g>
	<g>
		
			<linearGradient id="SVGID_00000159435198263490572960000006096545073073819572_" gradientUnits="userSpaceOnUse" x1="105.7281" y1="80.8409" x2="112.2781" y2="92.6994">
			<stop  offset="0" style="stop-color:#E91E2D"/>
			<stop  offset="0.4112" style="stop-color:#E71E2D"/>
			<stop  offset="0.6431" style="stop-color:#DE1E2D"/>
			<stop  offset="0.8298" style="stop-color:#D11E2D"/>
			<stop  offset="0.9924" style="stop-color:#BD1E2D"/>
			<stop  offset="1" style="stop-color:#BC1E2D"/>
		</linearGradient>
		<path style="fill:url(#SVGID_00000159435198263490572960000006096545073073819572_);" d="M112.1,97c0,0-9.3-17.2-9.6-17.7
			c0,0,0.2-0.3,0.5-0.8l2-3.6L117.2,97H112.1z"/>
		<path class="st1" d="M105,75.1l12,21.8h-4.8c-0.7-1.3-8.9-16.4-9.6-17.6l1.2-2.3L105,75.1 M105,74.7c0,0-0.6,1.1-1.2,2.2
			c-0.6,1.2-1.3,2.4-1.3,2.4c0,0,9.7,17.8,9.7,17.8h5.2L105,74.7L105,74.7z"/>
	</g>
	<g>
		<polygon class="st5" points="112.3,97 124.5,74.9 126.9,79.3 117.3,97 		"/>
		<path class="st1" d="M124.5,75.1l1.1,1.9l1.2,2.3l-9.6,17.6h-4.8L124.5,75.1 M124.5,74.7l-12.4,22.4h5.2l9.7-17.8c0,0,0,0,0,0
			c-0.1-0.2-0.7-1.3-1.3-2.3C125.1,75.8,124.5,74.7,124.5,74.7L124.5,74.7z"/>
	</g>
	<rect x="103.6" y="101.5" class="st6" width="20.8" height="22.3"/>
	<text transform="matrix(1 0 0 1 105.242 119.2647)" class="st25 st8 st9 st28">16</text>
	<g>
		<path class="st0" d="M181.6,183.6c-7.6,0-13.8-6.2-13.8-13.8c0-7.6,6.2-13.8,13.8-13.8s13.8,6.2,13.8,13.8
			C195.4,177.4,189.2,183.6,181.6,183.6z"/>
		<path class="st1" d="M181.6,156.1c7.6,0,13.7,6.1,13.7,13.7s-6.1,13.7-13.7,13.7s-13.7-6.1-13.7-13.7S174,156.1,181.6,156.1
			 M181.6,155.9c-7.7,0-13.9,6.2-13.9,13.9c0,7.7,6.2,13.9,13.9,13.9c7.7,0,13.9-6.2,13.9-13.9C195.5,162.1,189.2,155.9,181.6,155.9
			L181.6,155.9z"/>
	</g>
	<g>
		<path class="st2" d="M181.6,181.8c-6.6,0-12-5.4-12-12c0-6.6,5.4-12,12-12c6.6,0,12,5.4,12,12
			C193.6,176.4,188.2,181.8,181.6,181.8z"/>
		<path class="st1" d="M181.6,157.8c6.6,0,12,5.4,12,12s-5.4,12-12,12s-12-5.4-12-12S175,157.8,181.6,157.8 M181.6,157.6
			c-6.7,0-12.1,5.4-12.1,12.1c0,6.7,5.4,12.1,12.1,12.1c6.7,0,12.1-5.4,12.1-12.1C193.7,163.1,188.3,157.6,181.6,157.6L181.6,157.6z
			"/>
	</g>
	<g>
		<path class="st1" d="M184,154.2l0,1.9c-0.8-0.1-1.6-0.2-2.4-0.2c-0.8,0-1.6,0.1-2.4,0.2v-1.9H184 M184.2,154H179c0,0,0,2.1,0,2.3
			c0.8-0.2,1.7-0.2,2.6-0.2s1.7,0.1,2.6,0.2C184.2,156.1,184.2,154.2,184.2,154C184.2,154,184.2,154,184.2,154L184.2,154z"/>
	</g>
	<g>
		
			<linearGradient id="SVGID_00000116917682819071086270000009277716213941146284_" gradientUnits="userSpaceOnUse" x1="174.5389" y1="134.0815" x2="188.722" y2="134.0815">
			<stop  offset="0" style="stop-color:#C31E2D"/>
			<stop  offset="0.3173" style="stop-color:#DF1E2D"/>
			<stop  offset="0.5035" style="stop-color:#E91E2D"/>
			<stop  offset="0.663" style="stop-color:#DF1E2D"/>
			<stop  offset="0.9358" style="stop-color:#C31E2D"/>
			<stop  offset="1" style="stop-color:#BC1E2D"/>
		</linearGradient>
		<polygon style="fill:url(#SVGID_00000116917682819071086270000009277716213941146284_);" points="169.5,136.3 171.9,131.8 
			191.4,131.9 192.5,134 193.7,136.3 		"/>
		<path class="st1" d="M171.9,132l19.3,0l1.1,2.1l1.2,2.1l-22.3,0l-1.6,0L171.9,132 M171.8,131.8l-2.5,4.6c0,0,0.7,0,1.9,0
			c5.8,0,22.6,0,22.6,0s0,0,0,0c0,0-0.7-1.2-1.3-2.4c-0.6-1.1-1.2-2.2-1.2-2.2L171.8,131.8L171.8,131.8z"/>
	</g>
	<g>
		
			<linearGradient id="SVGID_00000080177311982231882890000011253796449007208877_" gradientUnits="userSpaceOnUse" x1="172.5692" y1="137.9142" x2="179.1192" y2="149.7727">
			<stop  offset="0" style="stop-color:#E91E2D"/>
			<stop  offset="0.4112" style="stop-color:#E71E2D"/>
			<stop  offset="0.6431" style="stop-color:#DE1E2D"/>
			<stop  offset="0.8298" style="stop-color:#D11E2D"/>
			<stop  offset="0.9924" style="stop-color:#BD1E2D"/>
			<stop  offset="1" style="stop-color:#BC1E2D"/>
		</linearGradient>
		<path style="fill:url(#SVGID_00000080177311982231882890000011253796449007208877_);" d="M179,154.1c-0.3-0.7-9.3-17.2-9.6-17.7
			c0,0,0.2-0.3,0.5-0.8l2-3.6l12.2,22.1H179z"/>
		<path class="st1" d="M171.8,132.2l12,21.8h-4.8c-0.7-1.3-8.9-16.4-9.6-17.6l0.4-0.7l0.8-1.5L171.8,132.2 M171.8,131.8
			c0,0-0.6,1.1-1.2,2.2c-0.6,1.2-1.3,2.4-1.3,2.4c0,0,9.7,17.8,9.7,17.8h5.2L171.8,131.8L171.8,131.8z"/>
	</g>
	<g>
		<polygon class="st5" points="179.1,154.1 191.4,132 193.8,136.4 184.1,154.1 		"/>
		<path class="st1" d="M191.4,132.2l1.1,1.9l1.2,2.3l-9.6,17.6h-4.8L191.4,132.2 M191.4,131.8L179,154.2h5.2l9.7-17.8c0,0,0,0,0,0
			c-0.1-0.2-0.7-1.3-1.3-2.3C192,132.9,191.4,131.8,191.4,131.8L191.4,131.8z"/>
	</g>
	<rect x="170.4" y="158.2" class="st6" width="20.8" height="22.3"/>
	<text transform="matrix(1 0 0 1 171.3675 176.4737)" class="st7 st8 st35 st28">18</text>
	<g>
		<path class="st10" d="M148.2,183.5c-7.6,0-13.8-6.2-13.8-13.8c0-7.6,6.2-13.8,13.8-13.8c7.6,0,13.8,6.2,13.8,13.8
			C161.9,177.3,155.8,183.5,148.2,183.5z"/>
		<path class="st1" d="M148.2,156c7.6,0,13.7,6.1,13.7,13.7s-6.1,13.7-13.7,13.7s-13.7-6.1-13.7-13.7S140.6,156,148.2,156
			 M148.2,155.8c-7.7,0-13.9,6.2-13.9,13.9c0,7.7,6.2,13.9,13.9,13.9c7.7,0,13.9-6.2,13.9-13.9C162,162,155.8,155.8,148.2,155.8
			L148.2,155.8z"/>
	</g>
	<g>
		<path class="st11" d="M148.2,181.7c-6.6,0-12-5.4-12-12c0-6.6,5.4-12,12-12c6.6,0,12,5.4,12,12
			C160.2,176.3,154.8,181.7,148.2,181.7z"/>
		<path class="st1" d="M148.2,157.7c6.6,0,12,5.4,12,12s-5.4,12-12,12s-12-5.4-12-12S141.6,157.7,148.2,157.7 M148.2,157.6
			c-6.7,0-12.1,5.4-12.1,12.1c0,6.7,5.4,12.1,12.1,12.1c6.7,0,12.1-5.4,12.1-12.1C160.3,163,154.9,157.6,148.2,157.6L148.2,157.6z"
			/>
	</g>
	<g>
		<path class="st1" d="M150.6,154.1v1.9c-0.8-0.1-1.6-0.2-2.4-0.2c-0.8,0-1.6,0.1-2.4,0.2v-1.9H150.6 M150.7,153.9h-5.2
			c0,0,0,2.1,0,2.3c0.8-0.2,1.7-0.2,2.6-0.2s1.7,0.1,2.6,0.2C150.7,156.1,150.7,154.1,150.7,153.9
			C150.7,153.9,150.7,153.9,150.7,153.9L150.7,153.9z"/>
	</g>
	<g>
		
			<linearGradient id="SVGID_00000036214464679586306550000018351136006191851154_" gradientUnits="userSpaceOnUse" x1="141.1184" y1="133.9971" x2="155.3012" y2="133.9971">
			<stop  offset="0" style="stop-color:#C31E2D"/>
			<stop  offset="0.3173" style="stop-color:#DF1E2D"/>
			<stop  offset="0.5035" style="stop-color:#E91E2D"/>
			<stop  offset="0.663" style="stop-color:#DF1E2D"/>
			<stop  offset="0.9358" style="stop-color:#C31E2D"/>
			<stop  offset="1" style="stop-color:#BC1E2D"/>
		</linearGradient>
		<path style="fill:url(#SVGID_00000036214464679586306550000018351136006191851154_);" d="M136,136.2l2.4-4.5l19.5,0l1.1,2.1
			c0.5,1,1,1.9,1.2,2.3H136z"/>
		<path class="st1" d="M138.5,131.9l19.3,0l1.1,2.1l0.8,1.6l0.3,0.6l-22.8,0h-1.1L138.5,131.9 M138.4,131.7l-2.5,4.6
			c0,0,0.5,0,1.4,0c5.2,0,23.1,0,23.1,0s0,0,0,0c0,0-0.7-1.2-1.3-2.4c-0.6-1.1-1.2-2.2-1.2-2.2L138.4,131.7L138.4,131.7z"/>
	</g>
	<g>
		
			<linearGradient id="SVGID_00000132047787231366690250000003915812767957774980_" gradientUnits="userSpaceOnUse" x1="139.1485" y1="137.8297" x2="145.6986" y2="149.6883">
			<stop  offset="0" style="stop-color:#E91E2D"/>
			<stop  offset="0.4112" style="stop-color:#E71E2D"/>
			<stop  offset="0.6431" style="stop-color:#DE1E2D"/>
			<stop  offset="0.8298" style="stop-color:#D11E2D"/>
			<stop  offset="0.9924" style="stop-color:#BD1E2D"/>
			<stop  offset="1" style="stop-color:#BC1E2D"/>
		</linearGradient>
		<path style="fill:url(#SVGID_00000132047787231366690250000003915812767957774980_);" d="M145.6,154c0,0-9.3-17.2-9.6-17.7
			c0,0,0.2-0.3,0.5-0.8l2-3.6l12.2,22.1H145.6z"/>
		<path class="st1" d="M138.4,132.1l12,21.8h-4.8c-0.7-1.3-8.9-16.4-9.6-17.6l0.4-0.7l0.8-1.5L138.4,132.1 M138.4,131.7
			c0,0-0.6,1.1-1.2,2.2c-0.6,1.2-1.3,2.4-1.3,2.4c0,0,9.7,17.8,9.7,17.8h5.2L138.4,131.7L138.4,131.7z"/>
	</g>
	<g>
		<polygon class="st5" points="145.7,154 157.9,131.9 160.3,136.3 150.7,154 		"/>
		<path class="st1" d="M157.9,132.1l1.1,1.9l1.2,2.3l-9.6,17.6h-4.8L157.9,132.1 M157.9,131.7l-12.4,22.4h5.2l9.7-17.8c0,0,0,0,0,0
			c-0.1-0.2-0.7-1.3-1.3-2.3C158.5,132.8,157.9,131.7,157.9,131.7L157.9,131.7z"/>
	</g>
	<rect x="137.2" y="158.2" class="st6" width="20.8" height="22.3"/>
	<text transform="matrix(1 0 0 1 138.1663 176.4727)" class="st14 st8 st35 st28">16</text>
	<g>
		<path class="st21" d="M114.7,183.6c-7.6,0-13.8-6.2-13.8-13.8c0-7.6,6.2-13.8,13.8-13.8s13.8,6.2,13.8,13.8
			C128.5,177.4,122.3,183.6,114.7,183.6z"/>
		<path class="st1" d="M114.7,156.1c7.6,0,13.7,6.1,13.7,13.7s-6.1,13.7-13.7,13.7s-13.7-6.1-13.7-13.7S107.2,156.1,114.7,156.1
			 M114.7,155.9c-7.7,0-13.9,6.2-13.9,13.9c0,7.7,6.2,13.9,13.9,13.9c7.7,0,13.9-6.2,13.9-13.9C128.6,162.1,122.4,155.9,114.7,155.9
			L114.7,155.9z"/>
	</g>
	<g>
		<path class="st22" d="M114.7,181.8c-6.6,0-12-5.4-12-12c0-6.6,5.4-12,12-12c6.6,0,12,5.4,12,12
			C126.8,176.4,121.4,181.8,114.7,181.8z"/>
		<path class="st1" d="M114.7,157.8c6.6,0,12,5.4,12,12s-5.4,12-12,12s-12-5.4-12-12S108.1,157.8,114.7,157.8 M114.7,157.6
			c-6.7,0-12.1,5.4-12.1,12.1c0,6.7,5.4,12.1,12.1,12.1c6.7,0,12.1-5.4,12.1-12.1C126.9,163.1,121.4,157.6,114.7,157.6L114.7,157.6z
			"/>
	</g>
	<g>
		<path class="st1" d="M117.1,154.2v1.9c-0.8-0.1-1.6-0.2-2.4-0.2c-0.8,0-1.6,0.1-2.4,0.2v-1.9H117.1 M117.3,154h-5.2
			c0,0,0,2.1,0,2.3c0.8-0.2,1.7-0.2,2.6-0.2s1.7,0.1,2.6,0.2C117.3,156.1,117.3,154.2,117.3,154C117.3,154,117.3,154,117.3,154
			L117.3,154z"/>
	</g>
	<g>
		
			<linearGradient id="SVGID_00000066512142160003194580000013490485937877294256_" gradientUnits="userSpaceOnUse" x1="107.6975" y1="134.0813" x2="121.8803" y2="134.0813">
			<stop  offset="0" style="stop-color:#C31E2D"/>
			<stop  offset="0.3173" style="stop-color:#DF1E2D"/>
			<stop  offset="0.5035" style="stop-color:#E91E2D"/>
			<stop  offset="0.663" style="stop-color:#DF1E2D"/>
			<stop  offset="0.9358" style="stop-color:#C31E2D"/>
			<stop  offset="1" style="stop-color:#BC1E2D"/>
		</linearGradient>
		<path style="fill:url(#SVGID_00000066512142160003194580000013490485937877294256_);" d="M102.6,136.3l2.4-4.5l19.5,0l1.1,2.1
			l1.2,2.3h-18C105.7,136.3,103.2,136.3,102.6,136.3z"/>
		<path class="st1" d="M105.1,132l19.3,0l1.1,2.1l0.7,1.2c0.2,0.4,0.4,0.7,0.5,0.9l-22.1,0l-1.9,0L105.1,132 M105,131.8l-2.5,4.6
			c0,0,0.8,0,2.2,0c6,0,22.3,0,22.3,0s0,0,0,0c0,0-0.7-1.2-1.3-2.4c-0.6-1.1-1.2-2.2-1.2-2.2L105,131.8L105,131.8z"/>
	</g>
	<g>
		
			<linearGradient id="SVGID_00000048495008374182074230000014831200227771623552_" gradientUnits="userSpaceOnUse" x1="105.7281" y1="137.914" x2="112.2781" y2="149.7723">
			<stop  offset="0" style="stop-color:#E91E2D"/>
			<stop  offset="0.4112" style="stop-color:#E71E2D"/>
			<stop  offset="0.6431" style="stop-color:#DE1E2D"/>
			<stop  offset="0.8298" style="stop-color:#D11E2D"/>
			<stop  offset="0.9924" style="stop-color:#BD1E2D"/>
			<stop  offset="1" style="stop-color:#BC1E2D"/>
		</linearGradient>
		<path style="fill:url(#SVGID_00000048495008374182074230000014831200227771623552_);" d="M112.1,154.1c0,0-9.3-17.2-9.6-17.7
			c0,0,0.2-0.3,0.5-0.8l2-3.6l12.2,22.1H112.1z"/>
		<path class="st1" d="M105,132.2l12,21.8h-4.8c-0.7-1.3-8.9-16.4-9.6-17.6l1.2-2.3L105,132.2 M105,131.8c0,0-0.6,1.1-1.2,2.2
			c-0.6,1.2-1.3,2.4-1.3,2.4c0,0,9.7,17.8,9.7,17.8h5.2L105,131.8L105,131.8z"/>
	</g>
	<g>
		<polygon class="st5" points="112.3,154.1 124.5,132 126.9,136.4 117.3,154.1 		"/>
		<path class="st1" d="M124.5,132.2l1.1,1.9l1.2,2.3l-9.6,17.6h-4.8L124.5,132.2 M124.5,131.8l-12.4,22.4h5.2l9.7-17.8c0,0,0,0,0,0
			c-0.1-0.2-0.7-1.3-1.3-2.3C125.1,132.9,124.5,131.8,124.5,131.8L124.5,131.8z"/>
	</g>
	<rect x="104.3" y="158.6" class="st6" width="20.8" height="22.3"/>
	<text transform="matrix(1 0 0 1 109.6014 176.875)" class="st25 st8 st35">8</text>
</g>
<g id="Oro">
</g>
</svg>
