<?xml version="1.0" encoding="utf-8"?>
<!-- Generator: Adobe Illustrator 27.5.0, SVG Export Plug-In . SVG Version: 6.00 Build 0)  -->
<svg version="1.1" xmlns="http://www.w3.org/2000/svg" xmlns:xlink="http://www.w3.org/1999/xlink" x="0px" y="0px"
	 viewBox="0 0 200 200" style="enable-background:new 0 0 200 200;" xml:space="preserve">
<style type="text/css">
	.st0{fill:#BF5600;}
	.st1{fill:#231F20;}
	.st2{fill:#E98A00;}
	.st3{fill:url(#SVGID_1_);}
	.st4{fill:url(#SVGID_00000091703374343663987030000009901180078695967892_);}
	.st5{fill:#E91E2D;}
	.st6{fill:none;}
	.st7{fill:#BF5600;stroke:#231F20;stroke-width:0.3936;stroke-miterlimit:10;}
	.st8{font-family:'MyriadPro-Regular';}
	.st9{font-size:45.2686px;}
	.st10{fill:#BCBEC0;}
	.st11{fill:#D1D3D4;}
	.st12{fill:url(#SVGID_00000158012057600605289920000000994324321132621734_);}
	.st13{fill:url(#SVGID_00000058584709172071853210000009629157029242377377_);}
	.st14{fill:#BCBEC0;stroke:#231F20;stroke-width:0.3936;stroke-miterlimit:10;}
	.st15{fill:#FBB040;}
	.st16{fill:#FFD90A;}
	.st17{fill:url(#SVGID_00000026862587297298358860000017352530934113702068_);}
	.st18{fill:url(#SVGID_00000023960198220242940830000000772927679336739220_);}
	.st19{fill:#FBB040;stroke:#231F20;stroke-width:0.3936;stroke-miterlimit:10;}
</style>
<g id="Bronce">
	<g>
		<g>
			<path class="st0" d="M167.3,177.4c-17.2,0-31.2-14-31.2-31.2s14-31.2,31.2-31.2s31.2,14,31.2,31.2S184.6,177.4,167.3,177.4z"/>
			<path class="st1" d="M167.3,115.2c17.1,0,31,13.9,31,31s-13.9,31-31,31s-31-13.9-31-31S150.2,115.2,167.3,115.2 M167.3,114.8
				c-17.4,0-31.4,14.1-31.4,31.4s14.1,31.4,31.4,31.4s31.4-14.1,31.4-31.4S184.7,114.8,167.3,114.8L167.3,114.8z"/>
		</g>
		<g>
			<path class="st2" d="M167.3,173.4c-15,0-27.3-12.2-27.3-27.3c0-15,12.2-27.3,27.3-27.3s27.3,12.2,27.3,27.3
				C194.6,161.2,182.4,173.4,167.3,173.4z"/>
			<path class="st1" d="M167.3,119.1c14.9,0,27.1,12.1,27.1,27.1s-12.1,27.1-27.1,27.1s-27.1-12.1-27.1-27.1
				S152.4,119.1,167.3,119.1 M167.3,118.7c-15.2,0-27.5,12.3-27.5,27.5c0,15.2,12.3,27.5,27.5,27.5s27.5-12.3,27.5-27.5
				C194.8,131,182.5,118.7,167.3,118.7L167.3,118.7z"/>
		</g>
		<g>
			<path class="st1" d="M172.8,110.9v4.3c-1.8-0.3-3.6-0.5-5.5-0.5c-1.8,0-3.7,0.2-5.5,0.5v-4.3H172.8 M173.2,110.5h-11.7
				c0,0,0,4.8,0,5.2c1.9-0.4,3.8-0.5,5.8-0.5c2,0,4,0.2,5.8,0.5C173.2,115.3,173.2,110.9,173.2,110.5
				C173.2,110.5,173.2,110.5,173.2,110.5L173.2,110.5z"/>
		</g>
		<g>
			<linearGradient id="SVGID_1_" gradientUnits="userSpaceOnUse" x1="151.4159" y1="65.4205" x2="183.5246" y2="65.4205">
				<stop  offset="0" style="stop-color:#C31E2D"/>
				<stop  offset="0.3173" style="stop-color:#DF1E2D"/>
				<stop  offset="0.5035" style="stop-color:#E91E2D"/>
				<stop  offset="0.663" style="stop-color:#DF1E2D"/>
				<stop  offset="0.9358" style="stop-color:#C31E2D"/>
				<stop  offset="1" style="stop-color:#BC1E2D"/>
			</linearGradient>
			<path class="st3" d="M139.9,70.4l5.4-10l44,0c0,0,5,9.2,5.4,10H154C146.9,70.4,141.3,70.4,139.9,70.4z"/>
			<path class="st1" d="M145.5,60.6l43.8,0l2.6,4.8l1.4,2.5l1.3,2.3l-51.2,0c-1.4,0-2.4,0-3.1,0L145.5,60.6 M145.3,60.2l-5.7,10.4
				c0,0,1.4,0,3.7,0c12.4,0,51.8,0,51.8,0s0,0,0.1,0c0,0-1.5-2.8-3-5.4c-1.4-2.5-2.7-5-2.7-5L145.3,60.2L145.3,60.2z"/>
		</g>
		<g>
			
				<linearGradient id="SVGID_00000003787156531595846890000011903526947630005889_" gradientUnits="userSpaceOnUse" x1="147.0009" y1="74.0213" x2="161.8297" y2="100.8679">
				<stop  offset="0" style="stop-color:#E91E2D"/>
				<stop  offset="0.4112" style="stop-color:#E71E2D"/>
				<stop  offset="0.6431" style="stop-color:#DE1E2D"/>
				<stop  offset="0.8298" style="stop-color:#D11E2D"/>
				<stop  offset="0.9924" style="stop-color:#BD1E2D"/>
				<stop  offset="1" style="stop-color:#BC1E2D"/>
			</linearGradient>
			<path style="fill:url(#SVGID_00000003787156531595846890000011903526947630005889_);" d="M161.6,110.7
				c-1.4-2.6-20.7-38-21.8-40.1l5.4-10l27.6,50.1H161.6z"/>
			<path class="st1" d="M145.3,61l27.3,49.5h-10.8c-1.6-3-20.1-37-21.7-39.9l0.7-1.3l2.1-3.8L145.3,61 M145.3,60.2
				c0,0-1.4,2.5-2.7,5.1c-1.4,2.6-2.9,5.3-2.9,5.3c0,0,21.9,40.3,21.9,40.3h11.7L145.3,60.2L145.3,60.2z"/>
		</g>
		<g>
			<polygon class="st5" points="161.8,110.7 189.5,60.6 194.9,70.5 173.1,110.7 			"/>
			<path class="st1" d="M189.5,61l2.4,4.4l2.8,5.1l-21.7,40h-10.8L189.5,61 M189.5,60.2l-28,50.7h11.7l21.9-40.3c0,0,0,0,0-0.1
				c-0.3-0.5-1.6-2.9-2.9-5.3C190.9,62.7,189.5,60.2,189.5,60.2L189.5,60.2z"/>
		</g>
		<rect x="143.8" y="120" class="st6" width="47.2" height="50.5"/>
		<text transform="matrix(1 0 0 1 155.7693 161.3397)" class="st7 st8 st9">3</text>
	</g>
</g>
<g id="Plata">
	<g>
		<g>
			<circle class="st10" cx="33.5" cy="146.2" r="31.2"/>
			<path class="st1" d="M33.5,115.2c17.1,0,31,13.9,31,31s-13.9,31-31,31s-31-13.9-31-31S16.3,115.2,33.5,115.2 M33.5,114.8
				C16.1,114.8,2,128.8,2,146.2s14.1,31.4,31.4,31.4s31.4-14.1,31.4-31.4S50.8,114.8,33.5,114.8L33.5,114.8z"/>
		</g>
		<g>
			<circle class="st11" cx="33.5" cy="146.2" r="27.3"/>
			<path class="st1" d="M33.5,119.1c14.9,0,27.1,12.1,27.1,27.1s-12.1,27.1-27.1,27.1S6.4,161.1,6.4,146.2S18.5,119.1,33.5,119.1
				 M33.5,118.7C18.3,118.7,6,131,6,146.2c0,15.2,12.3,27.5,27.5,27.5s27.5-12.3,27.5-27.5C60.9,131,48.6,118.7,33.5,118.7
				L33.5,118.7z"/>
		</g>
		<g>
			<path class="st1" d="M38.9,110.9l0,4.3c-1.8-0.3-3.6-0.5-5.5-0.5c-1.8,0-3.7,0.2-5.5,0.5v-4.3H38.9 M39.3,110.5H27.6
				c0,0,0,4.8,0,5.2c1.9-0.4,3.8-0.5,5.8-0.5c2,0,4,0.2,5.8,0.5C39.3,115.3,39.3,110.9,39.3,110.5C39.3,110.5,39.3,110.5,39.3,110.5
				L39.3,110.5z"/>
		</g>
		<g>
			
				<linearGradient id="SVGID_00000065758102930677239960000004349071727686028456_" gradientUnits="userSpaceOnUse" x1="17.5286" y1="65.422" x2="49.637" y2="65.422">
				<stop  offset="0" style="stop-color:#C31E2D"/>
				<stop  offset="0.3173" style="stop-color:#DF1E2D"/>
				<stop  offset="0.5035" style="stop-color:#E91E2D"/>
				<stop  offset="0.663" style="stop-color:#DF1E2D"/>
				<stop  offset="0.9358" style="stop-color:#C31E2D"/>
				<stop  offset="1" style="stop-color:#BC1E2D"/>
			</linearGradient>
			<path style="fill:url(#SVGID_00000065758102930677239960000004349071727686028456_);" d="M6,70.4l5.4-10l44,0c0,0,5,9.2,5.4,10
				l-49.5,0C8.7,70.4,6.8,70.4,6,70.4z"/>
			<path class="st1" d="M11.6,60.6l43.8,0l2.6,4.8l2.6,4.9l-50.8,0c-1.6,0-2.8,0-3.4,0L11.6,60.6 M11.4,60.2L5.7,70.6
				c0,0,1.5,0,4.1,0c12.8,0,51.4,0,51.4,0s0,0,0.1,0c0,0-1.5-2.8-3-5.4c-1.4-2.5-2.7-5-2.7-5L11.4,60.2L11.4,60.2z"/>
		</g>
		<g>
			
				<linearGradient id="SVGID_00000150789910216175624260000004170827026642351025_" gradientUnits="userSpaceOnUse" x1="13.1132" y1="74.0228" x2="27.942" y2="100.8694">
				<stop  offset="0" style="stop-color:#E91E2D"/>
				<stop  offset="0.4112" style="stop-color:#E71E2D"/>
				<stop  offset="0.6431" style="stop-color:#DE1E2D"/>
				<stop  offset="0.8298" style="stop-color:#D11E2D"/>
				<stop  offset="0.9924" style="stop-color:#BD1E2D"/>
				<stop  offset="1" style="stop-color:#BC1E2D"/>
			</linearGradient>
			<path style="fill:url(#SVGID_00000150789910216175624260000004170827026642351025_);" d="M27.7,110.7c-1.2-2.2-20.7-38-21.8-40.1
				l5.4-10L39,110.7H27.7z"/>
			<path class="st1" d="M11.4,61l27.3,49.5H27.8c-1.6-3-20.1-37-21.7-39.9C6.5,70,7.8,67.7,9,65.5L11.4,61 M11.4,60.2
				c0,0-1.4,2.5-2.7,5.1c-1.4,2.6-2.9,5.3-2.9,5.3c0,0,21.9,40.3,21.9,40.3h11.7L11.4,60.2L11.4,60.2z"/>
		</g>
		<g>
			<polygon class="st5" points="27.9,110.7 55.6,60.6 61,70.5 39.2,110.7 			"/>
			<path class="st1" d="M55.6,61l2.4,4.4l2.8,5.1l-21.7,40H28.3L55.6,61 M55.6,60.2l-28,50.7h11.7l21.9-40.3c0,0,0,0,0-0.1
				c-0.3-0.5-1.6-2.9-2.9-5.3C57,62.7,55.6,60.2,55.6,60.2L55.6,60.2z"/>
		</g>
		<rect x="9.9" y="118.7" class="st6" width="47.2" height="50.5"/>
		<text transform="matrix(1 0 0 1 21.8816 160.0526)" class="st14 st8 st9">2</text>
	</g>
</g>
<g id="Oro">
	<g>
		<g>
			<path class="st15" d="M100.3,133.4c-17.2,0-31.2-14-31.2-31.2S83.1,71,100.3,71s31.2,14,31.2,31.2S117.5,133.4,100.3,133.4z"/>
			<path class="st1" d="M100.3,71.2c17.1,0,31,13.9,31,31s-13.9,31-31,31s-31-13.9-31-31S83.2,71.2,100.3,71.2 M100.3,70.8
				c-17.4,0-31.4,14.1-31.4,31.4s14.1,31.4,31.4,31.4s31.4-14.1,31.4-31.4S117.6,70.8,100.3,70.8L100.3,70.8z"/>
		</g>
		<g>
			<circle class="st16" cx="100.3" cy="102.2" r="27.3"/>
			<path class="st1" d="M100.3,75.1c14.9,0,27.1,12.1,27.1,27.1s-12.1,27.1-27.1,27.1s-27.1-12.1-27.1-27.1S85.4,75.1,100.3,75.1
				 M100.3,74.7c-15.2,0-27.5,12.3-27.5,27.5c0,15.2,12.3,27.5,27.5,27.5s27.5-12.3,27.5-27.5C127.8,87,115.5,74.7,100.3,74.7
				L100.3,74.7z"/>
		</g>
		<g>
			<path class="st1" d="M105.8,66.9v4.3c-1.8-0.3-3.6-0.5-5.5-0.5c-1.8,0-3.7,0.2-5.5,0.5v-4.3H105.8 M106.1,66.5H94.5
				c0,0,0,4.8,0,5.2c1.9-0.4,3.8-0.5,5.8-0.5s4,0.2,5.8,0.5C106.1,71.3,106.1,66.9,106.1,66.5C106.1,66.5,106.1,66.5,106.1,66.5
				L106.1,66.5z"/>
		</g>
		<g>
			
				<linearGradient id="SVGID_00000173162711413602160470000001551365257826440894_" gradientUnits="userSpaceOnUse" x1="84.3739" y1="21.4307" x2="116.4826" y2="21.4307">
				<stop  offset="0" style="stop-color:#C31E2D"/>
				<stop  offset="0.3173" style="stop-color:#DF1E2D"/>
				<stop  offset="0.5035" style="stop-color:#E91E2D"/>
				<stop  offset="0.663" style="stop-color:#DF1E2D"/>
				<stop  offset="0.9358" style="stop-color:#C31E2D"/>
				<stop  offset="1" style="stop-color:#BC1E2D"/>
			</linearGradient>
			<polygon style="fill:url(#SVGID_00000173162711413602160470000001551365257826440894_);" points="78.3,16.4 122.3,16.4 
				127.8,26.4 72.9,26.4 			"/>
			<path class="st1" d="M78.4,16.6l43.8,0l2.6,4.8l2.6,4.9l-51,0c-1.5,0-2.6,0-3.2,0L78.4,16.6 M78.2,16.2l-5.7,10.4
				c0,0,1.4,0,3.9,0c12.6,0,51.6,0,51.6,0s0,0,0.1,0c0,0-1.5-2.8-3-5.4c-1.4-2.5-2.7-5-2.7-5L78.2,16.2L78.2,16.2z"/>
		</g>
		<g>
			
				<linearGradient id="SVGID_00000137854309464910881180000010668557197492751545_" gradientUnits="userSpaceOnUse" x1="79.9585" y1="30.0315" x2="94.7873" y2="56.878">
				<stop  offset="0" style="stop-color:#E91E2D"/>
				<stop  offset="0.4112" style="stop-color:#E71E2D"/>
				<stop  offset="0.6431" style="stop-color:#DE1E2D"/>
				<stop  offset="0.8298" style="stop-color:#D11E2D"/>
				<stop  offset="0.9924" style="stop-color:#BD1E2D"/>
				<stop  offset="1" style="stop-color:#BC1E2D"/>
			</linearGradient>
			<path style="fill:url(#SVGID_00000137854309464910881180000010668557197492751545_);" d="M94.6,66.7c-1.2-2.2-20.7-38-21.8-40.1
				c0.3-0.5,5.4-10,5.4-10l27.6,50.1H94.6z"/>
			<path class="st1" d="M78.2,17.1l27.3,49.5H94.7c-1.6-3-20.1-37-21.7-39.9c0.4-0.7,1.6-2.9,2.8-5.2L78.2,17.1 M78.2,16.2
				c0,0-1.4,2.5-2.7,5.1c-1.4,2.6-2.9,5.3-2.9,5.3c0,0,21.9,40.3,21.9,40.3h11.7L78.2,16.2L78.2,16.2z"/>
		</g>
		<g>
			<polygon class="st5" points="94.8,66.7 122.5,16.6 127.9,26.6 106,66.7 			"/>
			<path class="st1" d="M122.5,17l2.4,4.4l2.8,5.1l-21.7,40H95.1L122.5,17 M122.5,16.2l-28,50.7h11.7L128,26.6c0,0,0,0,0-0.1
				c-0.3-0.5-1.6-2.9-2.9-5.3C123.8,18.7,122.5,16.2,122.5,16.2L122.5,16.2z"/>
		</g>
		<rect x="76.7" y="76.9" class="st6" width="47.2" height="50.5"/>
		<text transform="matrix(1 0 0 1 88.6858 118.2601)" class="st19 st8 st9">1</text>
	</g>
</g>
</svg>
