<?xml version="1.0" encoding="UTF-8"?>
<svg id="Layer_1" data-name="Layer 1" xmlns="http://www.w3.org/2000/svg" viewBox="0 0 1080 1080">
  <path d="m487.31,236.01c2.72-19.06.49-37.78-1.53-56.86-1.82-17.15,7.69-33.46,12.68-50.02,6.5-13.66,2.93-28.23,3.84-42.37,6.22.15,6.49.11,7.22,5.75,1.06,8.17-.11,16.46.79,24.63.37,3.32-.91,9.81,6.6,6.01,10.67,2.07,5.6,13.02,10.28,16.8.48,3.36,2.83,1.39,1.13,2.11-.22.09-.38-.33-.53-1.25-.67-3.99-2.09-7.97-.17-12,6.5-4.21,11.87-9.82,17.99-14.5,5.11,8.86,3.45,19.5,7.63,28.61,4.41,4.78,5.19,10.19,2.81,16.14,1.28,36.85-3.11,74.25,6.89,110.31,11.7,42.21,13.68,85.28,15.55,128.51,1.37,4.82,3.63,10.84-3.17,12.45-7.57,1.79-10.31-4.38-11.47-10.62-1.26-6.77-.75-13.66-.73-20.48,1.16-6.97-.5-12.35-7.62-15.63-3.8-1.75-7.08-5.23-7.67-9.29-2.91-19.83-17.32-19.19-32.02-18.39-2.76.15-5.44.9-8.23.92-11.87-6.38-12.71-14.44-3.16-29.83,5.26,1.33,4.96,5.97,5.57,9.8,1.51,9.58,8.46,9.65,15.52,8.62,8.83-1.29,7.58-7.67,5.77-13.56-2-6.51-3.18-13.21-5.05-19.74-.85-2.96-1.64-6.87-5.47-6.9-4.1-.03-4.24,4.13-5.08,7.05-1.5,5.17-1.78,10.85-6.33,14.67-1.87,1.57-3.28.2-4.55-1.2-4.58-14.26-1.45-28.92-2.27-43.38-.38-6.81.36-13.79-4.82-19.34-3.01-2.98-6.67-5.05-10.39-7.03Z"/>
  <path d="m567.23,376.09c.02,7.24,0,14.48.07,21.72.04,4.61.02,10.26,5.99,10.42,7.26.2,3.71-6.69,5.2-10.34,2.87,3.02,2.52,6.89,2.07,10.37-3.02,23.11-1.71,46.35-2.68,69.52-.63,15.02-9.78,23.88-27.2,27.44.37-6.74-.46-12.46-9.02-13.63-5.74-.79-9.86-4.37-12.61-9.42-3.4-8.25-10.18-3.24-15.52-3.83-6.57-.1-13.07.63-19.59,1.33-1.36-.1-2.64-.47-3.82-1.14-2.81-7.07,3.53-10.67,6.01-15.75,3.27-3.1,4.02-8.16,8.22-10.55,11.16,8.94,29.89,6.32,35.93,23.3.87,2.45,3.54,4.67,6.6,2.3,2.5-1.94,2.22-4.77,1.12-7.47-.71-1.75-2.14-2.89-3.58-4.04-15.23-12.28-17.17-19.02-11.01-38.03,9.16-1.05,5.8,10.39,17.01,13.34-20.23-22.93-14.66-43.49-1.43-63.66,11.06-11.32,12.03-11.42,18.24-1.88Z"/>
  <path d="m531.24,480.61c2.97,5.73,7.76,7.51,14.15,8.47,10.94,1.64,12.37,7.11,5.28,16.14-2.6.73-5.17,1.83-7.82,2.12-6.2.66-11.94,2.27-14.11,8.69-2.04,6.06,1.93,10.19,6.06,13.98,12.25,11.24,3.29,22.12-.59,33.08-9.42-18.27-26.57-29.72-39.86-44.57-.08-5.2-1.29-9.71-5.94-13.04-15.13-10.83-14.7-16.38,1.8-26.36.77-.47,1.61-.84,2.35-1.39,6.98-4.18,14.72-2.28,22.17-2.76,5.06,3.16,12.71-1.17,16.51,5.64Z"/>
  <path d="m495.42,518.97c16.23,11.86,34.31,22.1,38.8,44.13-2.49,13.68-11.84,23.32-20.22,33.46-4.77,5.78-9.23,6.55-13.46-1.3-4.96-9.2-10.84-17.91-16.32-26.83-2.12-11.97-1.92-23.94-.15-35.93,2.99-4.43,5.99-8.85,8.98-13.28.62-1.63,1.42-1.64,2.37-.25Z"/>
  <path d="m495.42,518.97c-.78.16-1.57.24-2.37.25-.33-8.42-4.1-12.89-13.13-14.21-13.95-2.05-22.82-10.47-23.02-24.44-.33-23.11-4.24-45.78-5.95-68.7-2.01-11.97-1.83-23.94-.13-35.92.11-.88.31-1.72.63-2.55,8.28,2.37,5.32,9.39,5.66,14.61.5,7.72.41,15.44,3.16,22.82,2.39,6.4,5.9,9.28,12.04,3.68,7.49,3.67,15.17,5.64,23.41,2.51,3.21,5.74-1.51,9.02-4.05,13.01-.88,1.38-3.3,3.12-1.63,4.32,1.25.9,3.85-2.06,6.15-.43,2.33,6.44,6.74,12.08,7.45,19.13.28,4.68-.52,8.84-5.48,10.93-4.17-3.88-6.59-12.43-14.84-5.22-4.44,3.89-7.16,8.47-6.04,14.39,1.52,8.09,8.54,2.29,12.44,4.52.96.01,1.91.03,2.87.04-2.03,2.45-3.92,5.03-6.1,7.34-9.61,10.18-9.75,10.32,2.53,18.43,5.89,3.89,6.87,9.26,6.42,15.47Z"/>
  <path d="m495.24,433.64c-3.55,1.78-2.61,11.07-8.78,6.98-5.33-3.53-1.25-8.61,2.18-12.42,2.92-3.24,7.07-5.83,6.27-11.14-4.37-12.57-6.27-26.01-13.46-37.58-1.85-8.35-4.51-16.51-6.2-24.9-1.58-9.7-11.44-17.37-7.14-28.52,3.11-7.6,4.09-15.56,4.11-23.69,4.19-7.88,3.86-16.91,6.48-25.18,2.87-13.73,5.74-27.45,8.62-41.18,3.83-2.12,7.51-3.85,8.17,2.89,3.69,10.83,1.78,21.91-.49,32.36-6.51,29.96-6.21,59.79-1.25,89.81.98,5.96,3.04,11.45,6.23,16.56,7.02,19.38,13.51,38.74-4.73,56.02Z"/>
  <path d="m545.61,114.33c-2.32,8.39-6.7,14.47-16.5,14.44-7.69-7.88-4.14-17.8-4.72-26.89-.49-7.58-.4-15.25.9-22.8,6.04-12.22,1.41-26.01,5.69-38.5,1.55-3.28,2.84-6.71,4.71-9.8,2.62-4.33,6.99-4.34,8.23.07,2.91,10.44,11.17,20.56,3.66,32.22-3.11,11.93.88,24.27-2.16,36.2.07,5.02.13,10.04.2,15.06Z"/>
  <path d="m517.59,123.25c-.8,3.27,1.74,8.47-2.69,9.46-5.19,1.17-6.84-4.55-7.36-7.99-1.14-7.52-.65-15.27-1.22-22.9-.43-5.69,1.95-11.82-2.4-16.96-3.49-3.03.06-7.88-2.9-11.05.03-.86-.06-1.72-.27-2.55-2.09-9.19-1.7-18.4-.24-27.62.45-1.74.57-3.65,1.4-5.18,2.04-3.74,1.21-10.16,6.73-10.67,6.48-.6,6.32,6.47,9.05,10.21,3.91,5.39,5.01,10.96,3.31,17.73-3.01,12,1.23,24.13.57,36.25-1.08,10.46,3.01,21.57-3.98,31.27Z"/>
  <path d="m470.42,326.63c-4.05,11.2,8.99,17.3,8.33,27.49-4.69,1.96-7.12,5.67-7.15,10.52-.08,11.19-1.77,22.47,1.58,33.52,1.09,5.46,4.54,10.92.04,16.39.12,4.36-.55,8.73-5.8,9.13-5.31.41-8.45-4.15-9.69-8.1-2.27-7.22-4.13-14.63-4.12-22.49,0-6.53,2.47-13.57-2.16-19.67,2.5-6.3.72-13.64,4.81-19.55,2.78-8.19,3.95-16.94,8.61-24.47h0c1.57-1.48,2.4-4.42,5.54-2.76Z"/>
  <path d="m517.82,90.57c-1.87-17.52-.93-35.04-.14-52.57,4.04,2.87,7.71,7.57,13.3,2.59,1.51,12.19,5.99,24.59-2.45,36.12-5.02-.77-4.44,3.15-5.2,6.03-.86,3.26-.16,7.67-5.51,7.83Z"/>
  <path d="m501.01,73.81c3.37,3.06,1.8,7.4,2.9,11.05-1.99,14.74,4.53,30.51-5.45,44.27,3.85-18.3,1.88-36.87,2.55-55.32Z"/>
  <path d="m470.42,326.63c-1.85.92-3.7,1.83-5.54,2.75,2.7-10.18,5.4-20.36,8.1-30.55,1.4,1.03,1.6,2.25.6,3.67.26,8.21-.9,16.24-3.15,24.13Z"/>
  <path d="m450.82,375.95c.04,11.97.09,23.95.13,35.92-4.4-11.96-4.43-23.93-.13-35.92Z"/>
  <path d="m484.06,532.5c.05,11.98.1,23.95.15,35.93-4.99-11.95-4.03-23.93-.15-35.93Z"/>
  <path d="m464.87,329.38c-.87,8.85-4.59,16.71-8.61,24.47.59-8.95.08-18.28,8.61-24.47Z"/>
  <path d="m473.57,302.49c-.2-1.22-.4-2.44-.6-3.67.44-7.6,1.77-14.96,5.72-21.64.72,8.92-1.88,17.18-5.13,25.3Z"/>
  <path d="m500.5,43.63c.08,9.21.16,18.42.24,27.62-3.92-9.18-4.33-18.38-.24-27.62Z"/>
  <path d="m497.93,379c-11.89-10.91-7.81-26.23-10.6-39.52-5.02-23.9-.34-47.51,4.62-71.03,2.04-9.66-.48-20.01,3.53-29.55,8.81.59,11.22,5.62,11.03,13.83-.42,18.23-.1,36.47-.09,54.71h0c-4.64,4.96-3.05,11.74-5.02,17.54-1.85,5.45,1.41,9.39,7.7,9.82.2.65.4,1.31.6,1.96-9.55,10.4-13.27,22.26-9.46,36.17.61,2.21-.39,4.48-2.31,6.07Z"/>
  <path d="m506.42,307.43c5.31-5.83,4.53-13.52,6.51-20.39,1.06-3.69,2.23-8.8,7.42-8.68,4.62.11,6.94,4.05,8.09,8.19,2.81,10.06,5.81,20.09,8.02,30.29,1.39,6.44-.19,12.93-8.49,12.19-7.58-.67-18.74,5.78-21.34-7.91-.84-4.42-.18-9.12-.2-13.68,0,0,0,0,0,0Z"/>
  <path d="m517.82,90.57c3.94-4.23,1.81-9.54,2.62-14.33.44-2.63.53-6.03,4.17-5.81,3.49.21,3.35,3.71,3.94,6.28.19,17.36.38,34.71.58,52.07-.07,7.55,5.24,15.38-1.18,23.68-3.68-10.37-7.01-19.78-10.34-29.2.08-10.9.15-21.79.23-32.68Z"/>
  <path d="m520.24,165.18c5,4.34,5.46,8.83,5.48,13.4.11,24.7.27,49.39.13,74.09-.02,3.23,1.55,8.89-3.32,9.05-5.65.19-4.68-5.62-4.91-9.51-1.12-19.21,4.08-38.1,2.73-57.37-.66-9.49-.11-19.06-.11-29.65Z"/>
  <path d="m567.23,376.09c-7.41-10.13-11.14.78-16.42,2.83-3.29-.83-7.68,3.33-9.95-2.17-.52-5.17,2.99-9.48,3.04-14.59.11-12.1-9.11-22.34-21.67-23.69-4.48-.48-9.28.32-12.91-3.37,0,0-.21-.3-.21-.3,10.62-5.09,21.22-3,31.82.09.44.13,1.21.15,1.28.38,4.79,15.76,20.17,25.11,25.03,40.82Z"/>
  <path d="m509.31,335.09c25.5-.58,29.55,1.83,36.65,17.88,4.35,9.83-.31,17.55-3.65,25.85.38,1.76,1.22,3.8.39,5.28-7.82,13.8-9.34,28.75-8.6,44.16,0,6.37.18,12.76-.07,19.12-.3,7.53.65,13.3,10.25,14.39,6.04.68,9.05,5.54,9.15,11.85.08,5.13-2.05,9.23-6.65,10.93-5.02,1.86-7.94-2.53-9.29-6.06-3.17-8.28-5.97-14.74-17.49-13.79-6.71.56-10.07-8.68-16.35-11.63-7.66-4.4-9.2-11.41-8.39-19.42,10.07-17.77,8.9-36.09,2.69-54.65-.08-1.8.25-3.75-.32-5.38-5.48-15.69-3.56-29.08,11.7-38.52Z"/>
  <path d="m534.1,428.26c-1.15-4.8-1.81-9.79-3.57-14.36-2.54-6.62-2.43-12.28,3.32-17.12,5.57-4.7,4.18-12.65,8.46-17.96,2.81,1.19,5.76-8.87,8.49.1-2.01,6.92-4.3,13.49-8.47,19.75-5.4,8.08-3.79,17.24.9,25.61,2.65,4.74,5.54,9.35,8.26,14.05,1.89,3.27,1.54,6.22-2.01,8.02-4.06,2.05-7.16.36-9.01-3.37-2.37-4.79-2.24-10.66-6.37-14.72Z"/>
  <path d="m489.7,477.69c-4.56,1.95-8.57,9.12-14.13,2.91-4.32-4.82-3.04-11.11-.78-16.77,2.94-7.39,9.44-12.36,16.41-12.65,6.47-.27,6.57,7.36,6.95,12.81-2.82,4.56-5.63,9.13-8.45,13.69Z"/>
  <path d="m531.24,480.61c-5.41-2.15-11.79-1.5-16.51-5.64,5.56,1.73,15.09-8.03,16.51,5.64Z"/>
  <path d="m473.22,414.53c-.94-5.48-1.88-10.97-2.82-16.45-2.62-5.06-.97-10.48-1.23-15.72-.23-4.77-1.18-10.34,5.38-12.06,7.17-1.87,7.25,4.82,9.8,8.49,6.95,11.83,13.84,23.67,10.56,38.28q-13.42,11.76-21.69-2.54Z"/>
  <path d="m484.35,378.79c-3.8-.97-3.38-8.39-9.31-6.06-5.73,2.25-4.39,7.3-4.52,11.7-.13,4.55-.08,9.1-.11,13.66-5.77-13.35-2.35-27.26-1.94-40.86.19-6.42,5.76-5.44,10.29-3.11,1.87,8.23,3.74,16.45,5.6,24.68Z"/>
</svg>