<?xml version="1.0" encoding="UTF-8"?>
<svg id="Layer_1" data-name="Layer 1" xmlns="http://www.w3.org/2000/svg" viewBox="0 0 1080 1080">
  <path d="m426.81,249.8c13.24,12.7,23.57,27.31,30.14,44.51,4.22,11.03,12.88,18.67,21.61,26.06,19.5,16.5,39.09,32.9,58.83,49.12,3.45,2.83,7.81,4.57,11.76,6.82.29.35.87.75.82,1.05-3.16,18.97.94,38.42-3.73,57.3-3.41,3.62-4.55,8.95-8.44,12.07-5.54,4.45-10.73,4.37-14.22-2.77,7.44-7.38-3.22-12.31-2.63-18.78,6.25-6.69,4.99-13.05-.73-19.34-4.33-4.76-8.8-9.56-14.35-12.72-30.27-17.23-48.29-46.86-72.59-70.12-2.92-4.99-5.02-10.45-9.5-16.01,3.19,7.24,5.22,13.64,9.48,18.99,4.95,6.72,10.56,13.26,6.54,22.54-2.57,2.86-5.52,4.55-9.49,2.91-14.58-20.84-22.68-45.52-39.17-65.23.09-9.74,6.37-9.05,11.75-5.61,10.98,7.01,12.21.67,12.6-7.91.22-4.93-.41-9.97.81-14.77,1.31-5.19,2.68-10.97,10.52-8.09Z"/>
  <path d="m543.65,433.72c.94-2.95,3.51-6.64,2.55-8.74-7.75-16.9.65-32.57,2.96-48.68,15.21.21,21.4,10.96,25.59,22.84,4.23,11.98,7.05,24.45,10.45,36.72,2.01,7.27,6.02,11.11,14.25,12.34,22.48,3.35,37.03,19.12,50.28,35.45,5.46,6.73,3.67,16.02-1.97,22.92-4.52,5.53-5.36,11.32-4.45,17.85-1.74.93-3.39.29-5.05-.21-8.2,3.26-14.82,7.89-17.28,17.04-.72,2.67-1.02,8.38-6.61,3.86,1.27-8.66-2.07-12.19-11.18-11.29-5.51.55-10.42,2.09-15.24,4.44-6.48,3.12-12.95,8.68-19.49.1-3.49-6.67,1.47-9.03,6.1-11.13,3.73-1.69,7.82-2.6,11.28-4.91,11.92-6.8,22.57-15.51,35.69-20.68,10.94-4.32,11.17-12.13,2.31-20.15-4.12-3.74-8.69-7.15-14.18-8.28-26.14-5.37-36.73-24.99-44.52-47.26-1.01-2.89-.55-7.31-4.66-7.34-4.17-.03-3.7,4.49-4.78,7.33-5.25,13.82-5.56,27.5,1.17,41-.12,2.2-.85,4.09-2.76,5.39-15.32-8.66-18.9-21.9-10.47-38.59Z"/>
  <path d="m426.81,249.8c-6.66.77-7.71,5.38-7.63,10.87.07,5.01.29,10.04-.07,15.03-1.13,15.37-4.45,17.23-16.42,8.19-5.7-4.3-8.75-3.71-11.55,2.3-4.76-3.83-9.99-7.29-11.15-13.95.97-8.32,6.15-7.59,11.78-5.19,3.37,1.43,6.06,4.13,9.34,5.79,2.95,1.49,6.28,2.97,8.68-.36,2.42-3.36-.06-6.05-2.58-8.16-13.49-11.31-27.68-20.82-46.77-16.76-23.45-18.69-44.14-41.17-73.08-52.35-2.83-1.09-6.64-2.64-5.59-6.6.89-3.36,4.6-4.1,7.74-4.58,9.29-1.41,18.18,1.13,27.14,2.95,11.98,2.92,24.35-.85,36.34,2.04,8.57,1.01,8.92,9.66,13.54,14.35-.08,2.12-.1,4.21,2.13,5.45,9.45,13.85,25.15,18.92,38.65,27.04,6.9,4.15,14.93,6.66,19.53,13.96Z"/>
  <path d="m474.47,442.03c-5.18-9.31-1.6-20.26-5.66-29.79.95-1.04,2.13-1.49,3.53-1.45,17.88,7.39,34.65,16.54,48.53,30.26,8.08,10.15,19.24,18,22.88,31.48,1.42,5.25,3.64,10.25,2.94,15.85-3.22,11.44-9.93,8.85-16.47,3.56-10.43-8.43-18.52-18.98-25.88-30.07-.74-1.08-1.39-2.22-2.03-3.37-6.34-10.39-14.8-17.23-27.84-16.48Z"/>
  <path d="m518.58,442.22c-14.25-12.43-31.35-20.42-47.4-30.06-6.64-6.12-13.08-12.46-19.19-19.11-10.86-12.01-18.12-25.87-21.69-41.63,2.64-.88,5.29-1.77,7.93-2.65,5.97,1.56,6.5,7.23,8.58,11.56,7.83,16.25,20.14,27.52,36.09,36.17,14.17,7.69,30.06,13.85,38.61,29.15,1.35,3.13,4.56,4.19,6.86,6.25,7.34,6.56,4.63,9.73-4.1,10.28-1.89,1.55-3.79,1.37-5.7.05Z"/>
  <path d="m616.25,546.88c-1.3-13.5,11.28-18.37,17.4-27.22,3.09-4.47,5.07-1.11,6.28,2.22q-8.89,17.07,11.26,21.34c3.6.76,7.37,1.2,10.63,2.8,9.94,4.87,19.34,4.49,28.4-1.96,1.34.09,2.92-.25,3.96.35,4.13,2.36,11.09,2.11,11.68,7.72.51,4.85-5.62,6.4-9.13,9.02-5.8,4.33-11.77,8.44-17.68,12.64-8.73,8.08-16.53,5.15-23.9-2.05-2.93-2.87-4.98-6.52-7.93-9.36-6.03-5.81-11.78-17.13-19.17-.84-1.71,3.78-5.83,3.78-9.37,1.22-2.21-1.02-3.09-2.92-3.43-5.16-1.02-3.69-2.52-7.42.98-10.7Z"/>
  <path d="m504.65,458.86c9.11,10.1,18.05,20.37,27.42,30.23,3.54,3.73,8.22,9.8,11.79-.37,10.25,6.45,16.87,17.34,28.11,22.58-2.1,6.49-7.82,5.66-12.45,5.21-7.44-.71-14.42.49-21.41,2.55-23.39-10.14-36.19-29.2-44.46-52.07,3.02-3.57,7.51-5.19,11.01-8.13Z"/>
  <path d="m690.23,544.06c-5.35,9.17-12.11,11.97-22.78,7.58-10-4.11-20.91-6.02-31.45-8.82-10.97-2.92-11.86-5.55-4.23-13.75,2.46-2.64,5.43-4.81,8.16-7.2,1.12.85,2.25,1.69,3.38,2.54,19.8-3.25,32.69,9.75,46.91,19.64Z"/>
  <path d="m360.43,247.53c11.24-7.31,27.27-4.36,41.92,7.73,2.8,2.31,5.57,4.66,8.32,7.02,3.98,3.43,7.93,6.99,3.62,12.65-3.99,5.25-8.55,6.54-14.01,1.68-2.37-2.11-5.65-3.29-7.82-5.55-4.9-5.1-8.73-3.55-12.49,1.16-6.52-8.23-13.03-16.46-19.55-24.69Z"/>
  <path d="m618.7,562.74c8.21,1.34,8.58-5.44,10.06-10.24,2.33-7.56,6.23-7.1,10.89-2.69,4.97,4.71,10.36,9.35,14.01,15,6.41,9.93,14.18,13.66,25.41,8.97-15.6,19.73-21.99,20.54-40.66,5.19-6.57-5.41-13.14-10.82-19.71-16.22Z"/>
  <path d="m538.11,519.06c4-6.43,9.07-8.38,16.88-6.28,5.12,1.37,11.48,2.83,16.3-2.19-2.16-4.3,1.51-7.9,1.42-11.95-1.57-11.26-12.93-15.58-17.67-24.58-.12-.61-.22-1.22-.33-1.83.01-1.83.02-3.66.03-5.49,18.82,4.84,29.16,18.27,28.19,37.52-.38,7.4-1.52,14.62,5.02,20.16-4.01,8.07-18.65,1.46-19.49,13.91-11.56-4.2-21.25-11.29-30.36-19.28Z"/>
  <path d="m504.65,458.86c.95,8.87-5.58,7.76-11.01,8.13-3.49-3.01-6.97-6.03-10.46-9.04-2.73-4.38-4.85-9.57-.12-13.08,4.76-3.53,9.26.55,12.97,3.68,3.39,2.87,6.74,5.92,8.56,10.16l.05.15Z"/>
  <path d="m504.6,458.71c-2.64-2.5-5.26-5.03-7.92-7.51-3.42-3.17-7.62-6.88-12-4.65-4.24,2.15-1.28,7.47-1.48,11.39-5.65-3.82-6.63-10.17-8.72-15.92.63-2.72,1.86-6.4,4.96-4.81,10.01,5.13,22.95,7.27,25.17,21.49Z"/>
  <path d="m616.25,546.88c-.33,3.57-.65,7.13-.98,10.7-.27-.36-.69-.69-.77-1.09q-4.57-21.99-26.55-18.24c2.63-3.59,6.48-4.89,10.65-5.51,11.01-1.62,19.59-.2,17.65,14.14Z"/>
  <path d="m451.99,393.04c7.61,5.17,14.53,11.02,19.19,19.11,0,0-1.19-.01-1.19-.01,0,0-1.18.1-1.18.1-5.94-6.11-13.81-10.55-16.82-19.2Z"/>
  <path d="m521.52,425.64c-15.08-10.31-29.65-21.12-46.22-29.42-19.29-9.67-29.75-27.73-37.05-47.46,2.06-9.05-3.32-15.45-7.99-22.1-2.29-5.77-.49-7.57,5.36-5.46,18.18,19.34,35.77,39.27,54.77,57.76,9.96,9.7,24.47,14.08,33.5,25.54,8.18,10.38,7.82,15.53-2.37,21.14Z"/>
  <path d="m576.86,499.73c-1.86,3.62-3.72,7.24-5.57,10.86-15.41.46-20.29-12.1-27.42-21.88-1.02-19.47-12.64-33.26-25.28-46.5,1.9-.02,3.8-.03,5.7-.05,5.28,7.09,10.14,7.6,13.66-1.28,1.24-3.13,2.59-5.72,5.71-7.17-4.4,15.13-.08,27.79,11.06,38.52,0,0,.09-.02.09-.02,6.88,9.54,16.67,16.79,22.06,27.51Z"/>
  <path d="m435.62,321.2c-3.58.09-5.26,2.01-5.36,5.46-5.57-7.57-9.85-15.64-10.84-26.14,10.15,4.35,12.33,13.14,16.19,20.68Z"/>
  <path d="m587.95,524.43c-5.94-.09-12.82-1.34-10.15-8.76,8.77-24.39-6.05-36.98-23.06-48.92-13.24-15.07-4.42-30.87-1.3-46.37.72-3.59,1.23-8.71,7.22-8.28,5.27.38,7.38,4.72,7.26,8.53-.34,10.96,5.65,18.53,11.47,26.87,8.06,11.54,16.27,21.72,31.93,22.3,2.44.09,4.92,2.16,7.17,3.64,7.17,4.74,16.79,8.95,15.84,18.73-.99,10.22-10.74,12.76-19.58,16.26-9.55,3.79-17.91,10.54-26.8,16Z"/>
  <path d="m576.86,499.73c-8.24-8.47-17.4-16.21-22.06-27.51,9.05,7.83,19.79,14.32,22.06,27.51Z"/>
</svg>