<?xml version="1.0" encoding="UTF-8"?>
<svg id="Layer_1" data-name="Layer 1" xmlns="http://www.w3.org/2000/svg" viewBox="0 0 1080 1080">
  <path d="m607.64,348.48c10.75-5.53,23.42-2.38,31.56,1.41,14.39,6.7,18.34-.66,23.8-9.69,5.78,9.06-.95,14.41-6.07,20.24-1.74,1.49-4.01,2.32-5.67,3.85-4.35,3.99-14.3,5.65-10.42,13.53,3.29,6.69,10.84,11.66,19.61,10.25,9.32-1.49,18.25.32,27.29,1.67-6.19,29.01-8.53,58.38-8.08,87.99.02,1.83.04,3.65.06,5.48,7.38,11.78,2.11,25,4.35,37.34.5,1.33.84,2.71,1.1,4.11.94,5.35.64,10.9,2.39,16.14,1.02,4.66,1.43,9.33.07,13.99-.47,1.21-1.23,2.24-2.19,3.12-6.53-1.38-12.78-.78-18.61,2.74-5.95-3.54.49-10.21-3.65-14.21-3.98-10.64-3.34-22.07-5.69-32.99-8.79-15.21-5.39-31.98-6.39-48.22-.51-8.36,3.7-19.41-4.93-24.09-7.01-3.81-11.43,7.36-18.22,9.68-11.15,3.82-16.66,12.04-19.22,23.08-1.1,4.75-2.4,9.9-7.41,12.62-6.78-3.93-12.52,7.78-19.18,1.53-5.75-5.41-2.03-13.19-3.97-19.65-6.8-22.67,4.35-43.02,9.4-63.9,4.05-16.72,9.24-33.61,19.61-48.09,1.79-2.5,1.16-5.23.45-7.92Z"/>
  <path d="m522.85,574.6c-17.11,14.53-34.28,28.97-51.24,43.66-2.69,2.33-5.9,5.53-6.37,8.7-2.02,13.67-12,19.28-22.64,25.5-25.49,14.91-49.98,30.96-64.38,58.38-5.38,10.24-14.53,17.65-26.52,20.57-3.17.77-8.04,2.53-8.93-.17-3.58-10.88-12.29-17.82-18.52-26.63-2.02-2.85,1.34-5.95,3.1-8.52,6.5-9.48,13.7-18.27,22.95-25.4,17.75-13.69,32.29-29.91,39.57-51.62,6.36-18.98,19.35-32.9,34.97-44.87,4.33-3.31,7.94-7.55,11.88-11.36,2.16-.53,3.39.73,4.5,2.26,1.66,3.26,4.01,6.21,4.47,10.01-.62,4.29-3.54,7.09-6.66,9.62-8.73,7.08.38,6.36,3.58,8.21,4.39,5.76,7.85,2.7,10.71-1.4,6.42-9.2,14.59-15.79,24.85-20.8,10.26-5.02,13.16-14.5,9.9-25.55,15.34-5.96,28.17-16.88,43.95-21.96,1.23.64,1.98,1.64,2.17,3.02-3.92,10.65-15.21,15.43-20.38,25.09-3.12,5.83-6.78,11.47-8.25,18.01,5.84,2.58,9.32-3.32,13.97-1.56,2.34,1.69,3.18,4.08,3.3,6.82Z"/>
  <path d="m599.63,486.06c-1.83,5.46-3.65,10.92-5.48,16.38-11.06-2.78-17.47,7.73-26.99,9.35-12.03-4.65-17.1,5.31-24.05,11.33-2.95,2.22-5.37,5.8-9.95,3.98,0-.91-.02-1.83-.03-2.74-.93-1.82-.77-3.88.54-5.08,10.47-9.68,9.59-19.61-.29-30.34-8.99,9.14-16.32,20.66-26.69,29.24-4.35,3.6-7.67,9.72-15.06,6.79-1.91-7.9,4.88-11.08,9.02-15.25,8.67-8.74,16.35-18.05,21.88-29.08,2.75-5.49,4.46-10.84,1.45-16.72,6.65-11.4-7.59-3.74-8.03-8.66,13.74-8.05,27-17.1,41.35-23.85,12.83-6.03,19.75-14.91,23.52-28.17,5.09-17.88,9.44-36.24,21.3-51.49,1.6-2.06,3.13-3.06,5.5-3.26,2.9,1.29,11.23-.63,5.98,6.13-18.24,23.52-21.53,52.3-30.61,79.15-5.54,16.36-.2,31.76-1.16,47.55-.12,1.93,1.25,4.94,2.83,5.79,3.7,1.97,5.77-1.68,7.82-3.85,5.09-5.39,7.32-4.54,7.14,2.81Z"/>
  <path d="m687.74,389.73c-15.97,1.37-31.67,6.45-46.82-5.89-8.94-7.28-6.66-11.32-.26-16.51,4.13-3.34,9.29-5.43,13.99-8.08,3.99,5.56-7.24,12.53-.58,15.39,6.25,2.68,9.55-6.67,14.17-10.58,8.69-7.35,16.82-15.42,28.78-17.02,11.49-1.53,5.69-12.8,10.61-17.96,2.18,2.86,4.6,5.57,6.49,8.6,9.88,15.89,7.36,27.7-8.15,38.26-6.32,4.3-13.93,6.87-18.22,13.8Z"/>
  <path d="m707.63,329.08c5.75,15.43-1.54,20.78-16.17,22.89-11.48,1.66-17.36,12.72-25.79,19.51-4.89,3.94-8.09,14.15-15.97,7.86-7.47-5.97.72-11.99,3.91-17.56.45-.78.7-1.67,1.04-2.51,4.06-5.8,9.4-11.05,8.36-19.06,3.86-10.24,14.33-15.5,19.15-25.02,4.79-2.8,6.12-11.7,14.53-8.12,4.99,6.68,8.26,14.21,10.95,22.01Z"/>
  <path d="m566.4,510.7c4.46-3.08,9.49-5.59,13.24-9.36,5.75-5.78,10.08-4.5,14.51,1.1-.66,8.81,7.82,11.22,12.04,16.52,9.61,12.06,9.52,14.22-4.28,20.03-3.63,1.53-4.23,4.29-4.74,7.43-5.19,1.64-8.07-2.44-11.71-4.66-1.73-2.95-.74-6.23-1.15-9.34-.73-5.61-3.87-5.26-7.72-3-.64.13-1.28.29-1.92.46-4.23-2.68-8.8-4.89-12.24-8.7-1.27-4.47.13-7.93,3.97-10.48Z"/>
  <path d="m684.58,557.08c3.25,10.93,7.92,21.19,14.57,30.52-.03,3.64.41,7.37-.18,10.92-1.43,8.55-5.71,11.73-12.8,4.77-6.53-6.41-20.33-7.1-17.44-21.18-1.1-7.33-5.67-14.66-.02-21.99,2.95-13.05,9.52-7.47,15.87-3.04Z"/>
  <path d="m515.95,455.25c5.95,1.03,11.61-5.43,18.42-.42-3.43,3.09-6.62,5.96-9.8,8.83-20.02,16.12-34.47,36.28-44.39,59.82-1.59,3.77-4.66,6.81-8.85,8.27-3.39-.02-7.68,1.36-7.31-4.57,13.16-26.94,27.63-52.94,51.94-71.93Z"/>
  <path d="m522.85,574.6c-2.65-1.23-3.47-3.45-3.4-6.16,6.45-8.88,15.71-15.28,21.8-24.49.94-.87,1.97-1.6,3.07-2.26,2.9-1.51,5.86-2.77,9.26-2.3,3.21,1.3,5.99,2.88,4.58,7.11-11.83,9.29-22.23,20.35-35.3,28.1Z"/>
  <path d="m464.01,527.18c1.89,3.12,4.99,2.67,7.94,2.63,1.97,14.21-9.9,20.33-17.23,29.12-4.67,3.41-8.42,9.05-15.61,6.46-.8-.85-1.59-1.7-2.39-2.56,11.33-10.2,19.04-23.13,27.29-35.65Z"/>
  <path d="m668.72,560.11c0,7.33.01,14.66.02,21.99-7.11-11.08-9.46-22.9-5.57-35.67,4.8,3.38,1.06,10.18,5.55,13.68Z"/>
  <path d="m563.64,521.67c5.96-.29,10.59,1.19,11.03,8.22-1.57,1.97-3.14,3.94-4.71,5.91-3.67,1.68-6.92,1.2-9.69-1.83-1.29-1.82-1.77-3.85-1.64-6.05.5-3,1.93-5.28,5.02-6.24Z"/>
  <path d="m560.65,532.65c3.1,1.05,6.2,2.1,9.31,3.15-3.08,4.49-6.48,8.65-11.8,10.71-1.12-2.7-3.02-4.62-5.74-5.72-.49-5.95,2.16-8.75,8.24-8.14Z"/>
  <path d="m585.73,540.89c-.18,1.82-.36,3.64-.54,5.46-5.71-4.22,2.33-15.32-8.6-16.93,1.23-2.83,2.28-6.63,5.83-6.43,4.59.26,2.92,4.56,3.13,7.32.27,3.51.15,7.05.19,10.58Z"/>
  <path d="m637.68,428.45c-2.71,4.72-5.02,9.64-9.53,13.03-7.24,5.43-15.75,8.62-22.97,14.49-6.19,5.03-7.97-1.96-8.33-7.15-.56-8.17,7.06-11.13,10.91-16.52,4-5.59,7.03-12.28,16.08-7.46,4.12,2.19,10.96-5.29,13.84,3.61Z"/>
  <path d="m682.38,524.47c8.39,4.42,11.41,9.69,2.69,16.81-4.25-5.07-2.16-11.15-2.69-16.81Z"/>
  <path d="m491.81,524.52c16.43-7.69,25.52-22.84,36.84-35.72,2.25-2.56,2.65-7.85,7.39-6.81,4.18.92,1.87,5.44,2.88,8.22.61,1.69,1.12,3.6,2.27,4.88,7.95,8.83,6.03,16.19-2.87,22.99-2.11,1.61-3.48,4.17-5.19,6.29-5.27-.04-7.88,4.25-11.46,6.96-9.81,7.42-20.65,12.61-32.76,15.11-3.77,3.88-8.25,6.22-13.79,6.31-2.67-1.2-4.07-3.31-4.42-6.16,3.71-10.49,11.2-17.41,21.11-22.06Z"/>
  <path d="m544.45,543.89c-6.7,9.82-13.66,19.39-25.01,24.55-5.68,1.84-10.32,11.08-16.43,5.82-6.28-5.4,1.89-11.2,3.92-16.62,4.95-13.23,15.49-22.03,26.23-30.54,2.77-1.81,5.54-3.62,8.31-5.43,4.04,7-7.85,16.11,2.98,22.21Z"/>
  <path d="m475.39,552.25c3.97-3.16,7.75-6.77,13.52-5.82,6.02,7.37,4.23,20.81-6.06,25.41-13.23,5.91-22.39,15.06-30.72,25.99-1.79,2.35-4.07,6.01-7.6,4.8-4.6-1.58-1.98-6.29-2.77-9.58-1.51-4.88,1.95-7.78,4.84-10.35,10.48-9.35,18.4-21.05,28.8-30.45Z"/>
  <path d="m475.39,552.25c-6.86,17.14-23.42,26.39-33.64,40.8-4.09,1.94-8.73,4.98-11.93-.47-3.14-5.35,2.72-6.35,5.53-8.86,3.34-2.98,6.3-6.4,9.42-9.63,1.87-6.14,8.96-7.89,11.45-13.51,5.25-4.87,7.35-13.26,16.08-14.23,1.03,1.97,2.06,3.93,3.09,5.9Z"/>
  <path d="m457.84,562.62c-2.09,6.37-7.96,8.49-13.07,11.47-3.73-1.71-5.7-4.56-5.66-8.7,4.56-2.76,9.12-5.52,13.68-8.27,3.02.63,4.33,2.8,5.05,5.5Z"/>
  <path d="m457.84,562.62c-1.68-1.83-3.37-3.67-5.05-5.5,7.16-8.57,16-15.98,19.16-27.31,10.12-12.81,14.03-29.05,24.12-42.04,7.93-10.21,16.37-19.12,28.49-24.11,8.4,2.13,5.98,7.45,3.72,12.64-6.19,14.28-15.1,26.6-26.7,37.1-3.64,3.29-6.54,7.39-9.78,11.11-6.5,7.28-13,14.56-19.5,21.84-4.82,5.42-9.65,10.85-14.47,16.27Z"/>
  <path d="m563.53,468c2.1,8.69-2.91,15-9.52,20.54-2.64,2.22-4.73,6.41-9.17,3.91-3.82-2.15-3.5-6.24-3.18-9.84.72-8.13,1.75-16.24,2.66-24.35.62-5.52,3.94-7.9,9.32-7.98,6.04-.09,9.65,2.51,9.87,8.79.1,2.74.02,5.48.02,8.94Z"/>
  <path d="m544.45,543.89c-11.04-.21-13.01-5.06-6.98-13.73,1.84-2.65,4.06-5.01,4-8.49,3.22-5.46,7.82-9.66,12.96-13.2,4.52-3.12,9.06-4.2,11.97,2.23-.92,3.66-1.84,7.31-2.76,10.97-1.04,1.84-2.08,3.68-3.13,5.52-4.05,6.83-10.18,11.67-16.16,16.65l.09.05Z"/>
  <path d="m544.35,543.84c3.97-6.9,9.91-11.93,16.16-16.65.04,1.82.09,3.64.14,5.45-3.66,1.8-6.36,4.56-8.24,8.14-2.69,1.02-5.37,2.04-8.05,3.06Z"/>
</svg>