<?xml version="1.0" encoding="UTF-8"?>
<svg id="Layer_1" data-name="Layer 1" xmlns="http://www.w3.org/2000/svg" viewBox="0 0 1080 1080">
  <path d="m813.83,680.87c-.83.97-1.65,1.95-2.48,2.92-.85,2.73-1.71,5.46-2.56,8.19,2.58,2.33,9.09,3.34,3.68,8.62-8.93,8.72-7.47,18.66-4.47,29.1,2.62,9.14,3.45,18.74,7.32,27.57,5.41,12.35,4.83,23.63-6.47,32.82-2.66,8.53-2.28,17.24-.76,25.75,3.45,19.31,1.56,38.09-4.1,56.7-4.42,14.54-5.89,29.44-5.07,44.59.38,7.02,1.83,13.55,7.24,18.58,10.28,2.73,10.18-4.43,9.73-10.79-.57-8.19-1.89-16.36,1.1-24.3,1.43-3.79,3.22-8.44,8.39-7.24,4.37,1.02,3.97,5.67,4.01,9.21.16,14.12-6.62,26.35-11.38,39.06-2.75,7.34-5.3,14.52-5.1,22.43.04,10.91.55,21.76-3.49,32.34-2.78,7.29-.51,14.14,6.77,17.26,10.85,4.65,17.46,12.75,22.38,22.82,3.97,2.22,8.23,3.17,12.76,2.83,4.55-.34,6.51-2.36,4.28-6.9-6.33-22.46-13.25-44.8-14.23-68.35-1.97-19.33-2.07-38.65.05-57.97,1.99-28.11,8.64-55.31,16.27-82.32-2.83-3.5-2.55-9.62-8.8-10.23-7.49,1.88-12,.01-13.36-8.5-1.43-8.96-4.77-17.66-4.12-26.89,1.04-14.89-1.37-29-8.58-42.19-6.44-11.78-5.02-21.64,6.68-29.52,4.21-2.84,7.07-7.1,8.63-12.07-1.03-16.82-5.74-20.53-20.93-16.56-1.12,1.02-2.25,2.04-3.39,3.05Z"/>
  <path d="m805.53,579.3c-5.81,10.12-1.61,20.02.74,29.94,1.54,6.53,3.3,13.01,4.96,19.51,2.36,10.12,7.53,19.57,7.33,30.3,1.24,3.56,2.68,7.17,7.42,6.49,4.13-.59,6.23-3.73,7.14-7.45,2.72-11.12,4.54-22.24,1.93-33.77-2.79-12.35,1.1-22.32,11.86-29.64,9.65-6.57,12.91-5.64,16.2,5.46.78,2.63,1.17,5.36,3.56,7.18,8.7-3.7,6.62-10.74,5.5-17.48-1.74-9.8-7.86-17.06-14.19-24.2-5.73-.42-6.61,5.22-9.75,7.94-6.96,6.04-12.78,8.32-16.97-2.5-9.39.21-16.58,7.23-25.72,8.21Z"/>
  <path d="m872.16,589.84c-1.87,5.7-3.73,11.4-5.6,17.1-10.58,15.49-5.74,33.76-8.97,50.59-3.1,16.14-4.47,32.58-9.99,48.27-2.27,6.46-4.46,13.5-2.93,20.21,6.27,27.53,7.53,55.13,3.25,83.02-.35,2.3.41,4.52,1.81,6.46,3.83,1.66,2.14,8.54,7.97,8.3,4.14-11.5,4.65-23.62,6.21-35.56,2.13-19.11,2.4-38.11-2.74-56.89-1.28-4.69-3.7-9.55.31-14.18,2.53-7.49,7.71-14.04,7.99-22.32,1.99-27.8,6.61-55.31,9.28-83.03.5-5.23,1.36-10.81-1.09-15.99-1.83-1.98-3.66-3.97-5.49-5.95Z"/>
  <path d="m830.51,458.5c1.06,10.8-3.97,17.84-13.76,21.94,2.99,7.08,4.64,14.6,7.32,21.79,3.1,2.32,6.25.96,9.4.14,7.61-5.34,16.31-8.26,25.07-11.06-11.21-27.74-4.83-56.68-5.93-85.11-8.26-5.12-10.31-12.82-10.35-22.02-.03-7.36,2.47-15.43-3.7-21.87-4.49,11.72-1.96,23.88-2.35,35.87-.3,9.32,1.6,18.86-2.59,27.83-1.71,1.57-2.03,3.23-.33,5.02.33,9.28.22,18.52-2.79,27.47Z"/>
  <path d="m858.54,491.31c-10.43-3.13-17.94,2.45-25.32,8.39-4.27,5.17-4.02,10.95-2.38,16.92,12.48,6.99,15.86,14.79,3.53,25.67-3.01,2.66-2.02,8.68-3.51,13.01-.69,5.27-2.94,10.52-.33,15.85.23,4.83-1.27,10.58,4.85,12.89,5.4,2.04,7.7-3.72,11.61-5.41,6.09-2.63,7.74-8.35,10.99-13-1.19-3.53-3.35-6.9-1.93-10.89-3.28-2.64-13.16-1.95-4.96-10.28,11.35-11.53,12.91-20.31,2.77-32.21-10.05-11.81-3.46-13.77,6.82-15.34-.71-1.87-1.42-3.73-2.13-5.6Z"/>
  <path d="m838.56,362.31c.13,10.29-.09,20.6.49,30.87.45,8.05,2.92,14.99,13.56,13.03,5.84-14.09,2.95-28.82,3.1-43.31.06-5.77,1.01-13.37-7.2-14.02-8.92-.7-9.14,7.06-9.95,13.43Z"/>
  <path d="m860.68,496.92c-3.01-.86-5.99-2.28-9.03-2.43-3.98-.2-6.72,2.62-8.55,5.86-2.1,3.7,1.1,5.75,3.13,8.04,3.82,4.32,7.97,7.87,9.68,14.23,2.42,9.01,3.1,15.47-7.44,19.35-3.96,1.46-7.83,4.83-5.05,10.72,3.36,7.12,8.09,3.42,12.62,2.05,2.35-.98,2.38-3.03,2.36-5.09,6.02-9.64,12.82-19.07,8.38-31.46-.52-7.53-2.32-14.69-6.11-21.29Z"/>
  <path d="m877.65,595.8c.67,22.38-7.51,43.77-6.98,66.34.25,10.72-1.42,21.75-1.21,32.69,3.75-32.92,16.97-65.08,8.19-99.02Z"/>
  <path d="m861.47,717.15c-5.19,3.12-3.67,8.43-2.5,12.13,6.08,19.35,5.08,39.15,4.93,58.93,5.57-15.51,2.98-31.23,1.1-46.9-.97-8.08-2.34-16.11-3.53-24.17Z"/>
  <path d="m841.42,906.1c-4.29,19.32-4.83,38.64-.05,57.97.02-19.32.03-38.65.05-57.97Z"/>
  <path d="m866.78,518.21c2.93,11.99-6.7,20.68-8.38,31.45,10.68-8.41,13.55-18.88,8.38-31.45Z"/>
  <path d="m806.01,755.05c4.37,10.59,2.77,22.11,5.27,32.99,10.85-2.6,15.37-12.66,9.5-26.53-5.23-12.35-6.64-25.45-10.68-37.93-2.73-8.42-1.67-14.91,5.18-20.79,3.26-2.8,8.74-6.08,5.87-11.06-3.24-5.63-8.14.82-12.37.24-2.89,6.61-5.38,13.44-8.8,19.77-3.34,6.18-2.88,11.92-1.11,18.41,2.27,8.33,7.49,15.84,7.14,24.89Z"/>
  <path d="m825.31,502.51c-.6-8.22,1.59-17.5-8.55-22.07-34.95,3.44-34.82,3.36-15.53,32.26,4.8,7.2,8.53,15.1,12.76,22.68,2.18,3.46,2.65,10.04,9.43,5.07,4.78-8.44.82-18.21,4.16-26.88.53-3.95.86-7.86-2.26-11.06Z"/>
  <path d="m825.31,502.51c-.17,3.58-.34,7.16-.51,10.74-3.39,8.93,1.4,18.69-2.82,27.53-4.22.46-4.99-4.1-8-5.4,2.54,15.66-6.68,29.08-8.45,43.92,11.09,5.61,17.45-3.04,24.99-8.15,3.38-5.06,2.86-10.8,2.92-16.44-.14-12,8.58-23.97.11-36-.11-6.34-.22-12.68-.32-19.02-2.64.93-5.28,1.87-7.92,2.8Z"/>
  <path d="m819.7,659.04c-.11-10.84-2.66-21.02-8.48-30.29,2.61,17.29,9.07,34.38,2.6,52.11,0,0,1.22.03,1.22.03l1.21-.12c2.96-3.25,6.13-6.38,6.13-11.23-.49-3.6-1.31-7.12-2.68-10.51Z"/>
  <path d="m819.7,659.04c-.03,3.65-.07,7.31-.1,10.96,8.37,6.34,21.04,9.85,16.43,24.7-2.35,2.75-4.42,5.8-7.08,8.21-17.1,15.44-18.19,15.88-8.59,36.22,6.13,12.97,8.54,25.74,7.33,39.49-1.07,12.16,3.82,23.21,6.06,34.69,2.51,12.85,10.48,1.91,15.96,2.17,6.32-27.47,7.57-55.03-.18-82.35-2.68-9.46-1.24-18.4,1.86-26.67,8.78-23.47,9.84-48,12.18-72.42.87-9.05,1.98-18.07,2.98-27.11-.04-3.63.11-7.28-.17-10.89-.76-9.9-6.83-13.17-15.89-8.7-15.96,7.86-23.78,20.64-19.22,37.51,3.08,11.4-.17,21.52-1.15,32.11-.85,9.19-5.67,7.53-10.43,2.08Z"/>
  <path d="m808.48,936.4c.24,9.99,5.19,18.69,7.83,28.03-1.08-13.9,7.16-25.1,11.58-37.29,3.49-9.61,5.74-19.01,5.41-29.14-.16-4.79-.51-9.41-6.37-10.59-5.94-1.19-9.8,2.06-12.09,6.92-4.42,9.41-5.12,19.5-2.72,29.4,1.32,5.46,2.36,9.76-3.64,12.66Z"/>
  <path d="m836.03,694.71c4.33-12.45-3.41-24.08-16.44-24.7-1.11,3.59-2.23,7.18-3.34,10.77,14.43-4.21,16.96-2.43,19.78,13.93Z"/>
  <path d="m833.55,518.72c-.04,12-.07,24-.11,36,3.2-9.27,5.54-18.61,15.84-23.84,5.27-2.68,2.4-7.1-2.44-8.74-4.31-1.47-8.85-2.3-13.28-3.42Z"/>
  <path d="m821.98,540.79c6.08-8.66,1.81-18.36,2.82-27.53-4.79,8.79-1.36,18.41-2.82,27.53Z"/>
</svg>