<?xml version="1.0" encoding="UTF-8"?>
<svg id="Layer_1" data-name="Layer 1" xmlns="http://www.w3.org/2000/svg" viewBox="0 0 1080 1080">
  <path d="m324.45,628.75c8.2,5.8,10.17,14.79,11.93,23.7,2.72,13.79,5.52,27.59,7.43,41.5,2.39,17.41,9.62,30.96,26.4,38.61,4.36,1.99,9.74,3.37,11.35,9.05-3.36,5.23-3.31,11.93-7.36,16.87-8.36,1.17-10.2-8.35-17.34-10.4-13.64,20.87-23.48,43.89-36.72,65.04-7.47,11.92-3.61,16.51,11.81,17.91,3.8,5.99-1.9,8.73-4.6,12.17-3.72,4.75-5.92,8.99-.16,13.62-15.69,15.19-13.21,29.87-.57,46.05,4.32,5.52,5.45,14.78,5.28,22.26-.72,30.88,7.47,59.22,22.2,86.05,2.65,4.83,4.67,9.96,3.26,15.71-.98,1.04-2.11,1.87-3.4,2.49-10.71,2.8-17.23-1.98-21.01-11.55-2.12-5.38-4.86-10.55-6.13-16.24-1.15-2.39-.52-5.34-2.34-7.54-11.92-33.23-30.04-63.56-45.49-95.12-6.87-14.03-8.16-26.69-1.23-41.69,10.95-23.7,22-47.26,35.87-69.4,6.93-11.05,6.19-20.7-.45-31.86-7.46-12.56-15.41-24.7-23.88-36.56,6.43-8.43,2.28-18.41,4.1-27.53,1.04-.83,2.23-1.29,3.56-1.39,7.64,1.51,7.68,8.06,9.26,13.66,3.56,12.57,9.81,23.58,19.76,32.26,3.64,3.18,8.09,5.21,12.5,1.8,4.55-3.52,1.52-7.4-.68-10.83-3.01-4.69-5.33-9.58-5.84-15.21-2.91-24-4.79-48.08-16.7-70.11-6.03-11.16-3-14.7,9.19-13.32Z"/>
  <path d="m327.19,856.82c-2.42.38-5.2,3.48-7.16.51-2.3-3.49-2.01-7.89.54-11.25,3.72-4.9,8.06-9.35,12.13-13.99.65-6.17,4-11.25,7.76-15.7,14.77-17.51,26.9-36.42,33.61-58.46,1.05-6.1-3.02-14.51,7.5-16.32,6.08,7.15,11.48,14.62,11.73,24.52-2.65,14.86-10.62,26.76-20.14,38.22-14.86,17.9-29.75,35.75-45.96,52.47Z"/>
  <path d="m293.95,691.95c1.83,9.72,9.14,20.35-4.64,27.46-3.12-7.28-6.24-14.56-9.36-21.84-13.69-8.95-14.51-20.91-9.29-35.11,2.8-7.62,1.12-11.73-9.55-12.31-28.78-1.55-57.59.86-86.3-1.78-4.56-1.03-9.79.95-13.69-3.03-1.57-6.85,1.39-10.79,8.06-12.33,25.69-.1,51.41.82,76.89-4.04,17.73-3.38,34.72.09,51.01,7.33,9.9,6.22,18.42,13.71,21.36,25.6,1,4.06.85,8.49-2.96,11.26-3.94,2.87-7.8,1.04-11.47-1.27-3.72-2.33-7.24-8.44-11.54-5.47-5.67,3.91-.86,9.99.37,15.04.85,3.48,3.09,6.74,1.11,10.49Z"/>
  <path d="m249.62,571.09c1.77-13.02,3.55-26.04,19.4-30.12,16.44,13.82,26.76,30.84,25.44,52.8-.49,8.14,6.34,8.48,9.8,12.44.31,14.18-2.49,17.26-15.64,18.04-7.95.47-15.45-1.78-23.1-3.1-9.16-2.07-9.57-10.73-13.02-17.11l.06-.04c-3.9-10.71-6.15-21.57-2.93-32.91Z"/>
  <path d="m263.54,617.77c7.2.93,14.41,1.78,21.6,2.8,12.99,1.84,19.28-3,16.98-16.56-3.08-6.33-2.75-10.81,5.92-10.75-4.29,16.28,4.77,26.48,16.41,35.49-8.86-.14-12.17,2.63-6.65,11.23,14.51,22.61,15.21,48.53,17.52,74.03-10.69-4.41-14.24-15.58-21.88-22.91-4.17-4-6.34-10.01-12.45-12.41-5.17,3.31.57,9.99-4.23,13.22-.94.01-1.88.03-2.82.04-3.72-6.8-6.88-13.84-8.11-21.51-.66-4.12-.31-8.47,4.24-10.53,4.06-1.84,6.61,1.25,9.63,3.36,4.62,3.24,8.4,13.42,14.69,6.94,5.5-5.67-.16-13.51-5.06-19.21-3.24-3.77-6.58-7.47-9.87-11.2-.64-11.26-10.02-10.63-17.48-12.84-6.65-1.97-15.88.93-18.45-9.19Z"/>
  <path d="m308.04,593.26c-5.39,1.73-6.24,5.92-5.92,10.75-4.55,2.79-11.12,8.03-10.61-2.67,1.03-21.75-5.14-40.09-21.02-55.21-1.12-1.07-1.01-3.41-1.47-5.16,13.44-1.85,27.11,1.35,40.62-3.99,7.06-2.79,6.98,4.45,5.76,9.72-3.56,15.35-8.37,30.5-7.36,46.56Z"/>
  <path d="m166.66,634.33l-5.55,11c-25.18-.39-49.02-7.97-73.52-13.21,11.6-7.54,23.67-10.49,37.1-7.57,12.06,2.62,24.22,4.77,36.33,7.12,1.5,1.67,4.27.69,5.64,2.65Z"/>
  <path d="m166.66,634.33c-1.88-.88-3.76-1.77-5.64-2.65,26.83-.5,53.59.46,80.34-5.01,12.49-2.55,16.36-5.6,11.52-17.25-.65-1.58-.29-3.57-.39-5.38,4.78,3.71,4.86,11.15,11.05,13.74,9.42,7.9,22.08,4.46,32.56,9.19,7.54,3.4,8.7,6.88,3.36,12.84-43.68-16.02-88.66-.78-132.81-5.47Z"/>
  <path d="m174.8,648.36c30.62-2.06,61.39,1.99,91.97-2.44,5.13-.74,7.75,3,7.37,7.67-.4,4.92-1.44,9.91-3.05,14.58-3.24,9.39-4.33,17.72,6.36,23.43,1.48.79,1.7,3.92,2.5,5.97-14.01-6.28-18.23-16.13-12.27-30.6,3.5-8.48,1.29-12.4-9.48-13.94-23-3.3-45.95-1.15-68.88-2.22-4.89-.23-10.23,1.57-14.52-2.44Z"/>
  <path d="m249.62,571.09c.98,10.97,1.95,21.94,2.93,32.91-6.94-10.45-8.1-21.4-2.93-32.91Z"/>
  <path d="m374.07,757.93c2.59,18.17-9.7,30.47-18.27,43.95-6.77,10.65-15.33,20.18-23.1,30.21-5.96.24-12.81,6.6-17.63-.75-4.05-6.17-2.27-13.36,1.5-19.43,13.38-21.55,25.75-43.6,35.96-66.85,2.56-5.82,6.79-3.61,9.36.16,3.38,4.97,6.85,9.66,12.17,12.7Z"/>
  <path d="m296.77,691.91c2.02-6.11-8.39-14.44.82-17.97,8.11-3.1,11.74,6.99,16.23,12.19,7.65,8.88,14.39,18.54,21.5,27.87.69,4.59,2.48,8.81,5.64,12.14,4.44,4.68,8.17,9.28,1.58,14.77-6.2,5.17-12.45,4.62-18.27-.93-11.04-10.54-19.48-22.65-21.89-37.99-.67-4.3-1.46-7.96-5.62-10.07Z"/>
  <path d="m354.87,1027.14c-15.69,3.44-31.29,7.34-47.1,10.12-6.81,1.2-9.02-2.81-5.97-9.35,2.4-5.13,6.86-7.62,11.74-8.65,11.12-2.35,15.13-9.06,13.97-19.7,2.56,4.73,6.27,9.2,7.45,14.26,2.59,11.13,9.34,14.67,19.9,13.32Z"/>
</svg>