<?xml version="1.0" encoding="UTF-8"?>
<svg id="Layer_1" data-name="Layer 1" xmlns="http://www.w3.org/2000/svg" viewBox="0 0 1080 1080">
  <path d="m757.34,224.52c-50.63,24.83-86.99,64.19-115.09,111.83-7.14,12.1-15.34,23.65-20.25,36.96-3.47,5.56-6.94,11.12-10.41,16.67-6.29,2.15-11.3,7.98-18.86,6.45-4.47-4.6.52-8.25,1.33-12.3.69-3.41,3.86-7.63.31-10.01-4.45-2.98-7.31,1.97-10.09,4.6-5.95,5.63-9.92,13.03-16.15,18.44-3.65,3.18-6.56,7.88-12.58,6.82-3.92-9.09,4.95-12.6,8.32-18.44,2.97-5.14,7.76-8.97,11.39-13.67,3.56-4.6,4.53-8.94-1.26-12.63,2.7-6.05,7.98-9.96,12.54-14.35,13.04-12.57,24.28-26.76,29.98-43.72,8.96-26.66,29.96-39.54,53.7-48.86,14.9-5.85,25.78-13.2,27.96-29.96.79-6.05,4.45-11.19,11.14-8.61,14.76,5.68,28.87,2.56,43.17-1.07,3.73-.95,7.28-.53,10.64,1.36,3.97,6.73.22,9.23-5.82,10.48Z"/>
  <path d="m591.46,395.17c6.99-.64,12.31-7.72,20.14-5.17-6.98,18.54-20.92,32.07-33.8,46.37-10.76,9.91-25.77,13.84-35.65,24.99-4.94,10.1-1.52,16.2,9.17,18.83,2.01,2.98,3.87,5.97,1.23,9.53-1.15.73-2.38,1.24-3.74,1.5-25.3,4.81-26.44,3.98-29.28-21.27-1.52-2.99-3.38-5.77-5.39-8.45-3.48-5.21-7.85-4.39-13.18-2.88-12.19,3.47-15.08.74-11.95-11.61,1.17-4.6.01-10.04,4.02-13.85,10.38,11.15,14.93-.68,21.31-5.34,4.84,11.6,12.35,10.57,21.71,5.24,15.9-9.05,29.55-21,43.84-32.13,3.45-2.69,6.13-6.99,11.57-5.76Z"/>
  <path d="m494.81,433.69c-3.76,3.04-2.09,7.58-3.19,11.36-1.11,3.8-3.98,8.05-.7,11.47,4.08,4.25,7.05-1.23,10.6-2.32,7.05-2.17,13.75-2.82,15.69,6.86-23.22,10.39-42.87,25.77-60.76,43.45-4.58,4.53-2.52,8.41,3.26,10.11,6.7,1.97,12.55-.76,18.5-3.54,4.52-2.11,8.8-7.7,14.62-2.27-3.54,12.27-13.41,16.51-24.59,18.82-4.91,1.01-10.15-.29-14.95,1.77-6.63,1.86-9.22,8.27-13.95,12.27-.83.43-1.7.8-2.61.81q-17.78.13-22.02,18.13c-7.46.05-12.93-3.53-17.22-9.27,1.92-5.49,4.44-10.86,5.65-16.5,6-28.16,25.79-45.24,50.05-55.96,21.05-9.31,36.05-20.44,36.94-44.95.13-3.68,1.02-8.23,4.86-10.86,2.95,3.59,2.99,7.13-.18,10.62Z"/>
  <path d="m417.33,595.74c-8.89,3.41-17.73,6.93-26.67,10.2-18.51,6.78-24.56,4.62-34.77-12.19-2.81-4.64-5.52-9.34-8.28-14.01,19.42-4.71,38.91-9.15,58.36-13.71,5.24-1.23,9.23-3.69,12.55-7.68.85-.4,1.69-.88,2.59-.98,8.01-.89,17.65-1.57,19.1,8.13,1.42,9.46-9.9,4.9-14.44,8.54l.25.12c-4.55,6.54,2.3,17.6-8.7,21.58Z"/>
  <path d="m425.78,574.04c2.25-5.62,13.49-.96,12-8.11-1.56-7.47-10.21-5.49-16.37-5.84-1.36-.08-2.74.11-4.11.18-.96.85-1.84.73-2.64-.23-7.65-14.85,5.72-27.1,24.92-19.18.76-.15,1.51-.29,2.27-.45,14.61-.62,29.22-1.18,43.82.45,7.03,2.27,14.18,2.31,21.36.95,7.85-1.49,14.26.35,18.56,7.47-33.2,8.5-64.6,24.2-99.8,24.77Z"/>
  <path d="m574.02,359.27c11.78-2.43,10.8,4.31,6.63,10.54-5.77,8.62-12.93,16.34-19.66,24.31-2.35,2.79-5.3,5.1-5.4,9.16-6.51,15.68-20.94,18.96-35.36,22.27-8.55-1.02-16.14-3.93-21.57-10.99.99-5.49,4.61-9.85,9.53-10.61,26.63-4.14,41.43-25.37,60.57-40.33,1.79-1.4,3.51-2.89,5.26-4.34Z"/>
  <path d="m414.66,560.03c.88.12,1.76.19,2.64.23-.16,5.12-.3,7.64-7.76,9.28-14.04,3.1-29.26,2.68-42.06,10.09-7.11,4.12-13.28.22-19.88.1-7.73-.91-7.95-6.58-7.23-12.15.58-4.55,2.6-10.22,7.72-9.88,16.99,1.13,32.33-9.18,49.4-6.38,6.94.52,11.46,5.77,17.16,8.69Z"/>
  <path d="m525.58,549.27c-7.98-4.38-16.14-5.27-25.19-3.16-4.33,1.01-9.89,1.96-13.85-2.4,1.13-1.47,2.64-2.56,4.45-2.69,8.23-.62,9.79-4.15,5.49-11.06-1.71-2.74-1.42-6,.84-8.74,1.26-.57,2.57-.75,3.94-.57,9.76,2.18,19.02,8.06,29.62,3.86,12.88.03,25.75.06,38.63.1,3.33,4.12,8.62,1.51,12.48,3.54,4.26,2.24,9.21,4.34,6.81,10.83-3.5-.38-7.07-5-10.1-2.12-15.38,14.61-35.81,6.75-53.12,12.42Z"/>
  <path d="m500.42,521.69c-.93,0-1.85,0-2.78,0-3,2.34.48,7.5-4.06,9.18-9.14-1.33-18.27-.57-27.44-.15-5.38.25-11.15.95-15.55-3.56,2.63-3.41,6.47-2.96,9.96-2.66,14.21,1.23,23.94-5.61,31.48-16.67-.07-9.48,9.7-11.17,14.04-17.27,5.56-7.82,10.02-16.39,16.33-23.69,3.49,2.02,2.93,5.16,2.44,8.37-2.15,13.83,2.38,18.05,16.04,15.22,3.96-.82,8.01-1.25,12.02-1.86,6.4-2.73,11.54-2.23,13.87,5.38-18.19-.95-35.8.16-49.8,13.95-5.06,5.13-10.61,9.68-16.55,13.77Z"/>
  <path d="m588.79,538.97c-2.43-7.23-7.8-9.66-15.02-9.04-4.16.36-6.32-.82-4.26-5.33,17.53-.07,35.07-.15,52.6-.22,4.1,7.51,14.83,9.35,16.48,18.96-4.43,6.69-10.71,7.68-17.86,5.52-10.67-3.23-21.29-6.58-31.94-9.88Z"/>
  <path d="m566.77,493.97c-3.97-3.46-9.08-4.02-13.87-5.38-.9-2.67-1.8-5.34-2.7-8.02-2.01-5.34,4.57-3.08,5.34-5.96,4.08-4.25,9.11-2.9,14.01-2.37,6.66,4.02,12.95,8.17,21.71,5.36,4.7-1.51,4.98,2.37,3.5,5.95-6.22,11.73-16.83,11.82-28.01,10.42Z"/>
  <path d="m498.66,414.55c7.17,2.81,14.34,5.62,21.51,8.44.16,4.03-1.45,6.16-5.81,5.34-.92,1.47-2.43,2.86-2.64,4.42-.67,4.86.14,11.1-6.68,11.42-6.31.3-9.44-4.44-10.24-10.48.06-3.54.12-7.08.18-10.62,1.22-2.84,2.45-5.68,3.67-8.51Z"/>
  <path d="m500.42,521.69c2.13-8.6,9.31-11.22,16.55-13.77-3.91,15.51-3.76,15.69,13.91,16.58-10.49,2.65-21.17,7.37-30.46-2.81Z"/>
  <path d="m594.78,483.56c-.93-1.3-1.85-2.6-2.78-3.9-11.01,8.06-16.86.72-22.44-7.41,5.44-.17,10.96.2,16.3-.6,12.99-1.97,13.52-1.44,8.91,11.91Z"/>
  <path d="m638.59,543.34c-5.29-6.5-17-7.49-16.48-18.96,6.1-.34,11.81,1.66,16.55,4.88,6.05,4.12,9.04,9.45-.07,14.08Z"/>
  <path d="m555.55,474.62c-1.78,1.99-3.56,3.97-5.35,5.96-14.24-1.04-15.43-3.87-8.05-19.22-2.65,11.51,1.64,16.1,13.4,13.26Z"/>
  <path d="m417.33,595.74c7.65-5.31,2.95-15.52,8.7-21.58-2.39,7.4,5.71,18.96-8.7,21.58Z"/>
  <path d="m514.37,428.33c1.93-1.78,3.87-3.56,5.8-5.34,13.91-2.85,25.4-9.98,35.43-19.71,10.98-6.36,17.22-17.25,25.56-26.14,4.35-4.63,9.07-13.17,16.61-7.59,6.01,4.45.62,11.84-1.18,17.66-.9,2.9-3.37,5.32-5.13,7.96-19.41,15.74-37.37,33.47-60.57,44.02-12.33,5.61-15.63,3.32-16.52-10.86Z"/>
  <path d="m522.4,466.87c-3.34,14.59-12.14,25.61-23.53,34.76-2.43,1.95-5.51,3.07-6.84,6.2-6.9,3.41-13.56,7.47-20.77,10.04-7.73,2.77-16.96,2.28-21.17-4.82-4.49-7.57,5.06-10.53,8.95-15.6,11.99-15.59,31.72-21.09,44.53-35.27,4.37-4.84,8.88-3.33,13.63-1.12,1.73,1.94,3.46,3.87,5.19,5.81Z"/>
  <path d="m450.59,527.15c14.59,3.22,30.05-6.91,44.22,2.82,4.12,7.48.46,11.9-6.66,11.95-16.19.11-32.47,1.92-48.6-1.06,0,0,.03,0,.03,0,.42-7.14,4.69-11.23,11.01-13.7Z"/>
  <path d="m439.55,540.86c14.56.02,29.11-.14,43.67.12,7.87.14,12.22-2.67,11.6-11.01.16-3.03-.47-6.32,2.83-8.29.12,1.76-.24,3.73.43,5.25q7.28,16.62-11.53,16.77c-15.61-1.73-31.65,3.31-46.99-2.85Z"/>
  <path d="m533.03,536.88c-.55,3.56-3.24,3.96-6.07,3.93-2.65-.03-6.34.16-5.85-3.59.46-3.56,3.93-4.54,7.41-4.33,2.57.15,4.21,1.33,4.51,3.99Z"/>
</svg>