<?xml version="1.0" encoding="UTF-8"?>
<svg id="Layer_1" data-name="Layer 1" xmlns="http://www.w3.org/2000/svg" viewBox="0 0 1080 1080">
  <defs>
    <style>
      .cls-1 {
        stroke: #000;
        stroke-miterlimit: 10;
      }
    </style>
  </defs>
  <path class="cls-1" d="m736.13,363.56c-6.98-9.26-5.74-10.96,10.82-14.85-3.42,5.08-8.82,8.73-10.82,14.85Z"/>
  <path class="cls-1" d="m726.35,380.58c-.48,1.33-.59,3.46-1.66,4.23-2.04,1.46-3.78-.34-5.41-1.67-10.14-8.33-12.65-21.52-19.94-31.68-1.23-1.72-.48-4.18,2-5.02,3.04-1.03,5.79-.21,8.1,1.95,9.27,8.66,12.85,20.29,16.9,32.2Z"/>
  <g>
    <g>
      <path d="m333.5,190.89c-3.34,2.48-6.68,4.96-10.02,7.44-15.37-5.1-30.69-10.38-46.14-15.24-8.83-2.78-11.86-9.91-14.41-17.58-.7-2.09-.16-4.13,1.56-5.74,2.11-1.96,4.38-.58,5.54.64,10.71,11.24,25.69,10.79,39.09,14.14,10.46,2.62,18.22,7.94,24.38,16.35Z"/>
      <g>
        <path d="m528.62,221.2c-16.72,25.41-36.03,48.7-57.27,70.4-5.56,5.68-6.13,12.47.85,15.57,23.82,10.56,30.2,33.86,40.61,54.02,3.74,7.25,8.5,9.71,15.56,10.19,4.77.33,6.7-1.23,8.23-6.67,7.67-27.22,16.22-54.2,24.74-81.17,3.65-11.56,6.86-23.32,12.94-33.98,9.17-16.11,16.64-19.65,34.1-13.36,22.99,8.27,43.24,21.97,63.78,34.9,31.38,19.76,63.51,37.71,99.92,46.64,8.07,1.98,15.82,5.24,23.85,7.43,3.36.91,6.74.74,6.45,5.69-.27,4.57-2.43,7.71-6.94,7.17-17.48-2.11-32.56,6.13-48.49,10.71-16.56,3.89-17.8,5.59-10.82,14.85,19.9,41.93,40.76,83.22,77.07,113.98,2.34,1.98,4.84,3.82,4.01,7.25-1.18,4.92-5.46,3.15-8.38,3.05-8.37-.3-16.36-1.62-23.51-7.04-9.45-7.15-20.04-12.41-31.87-14.39-7.79-1.31-10.7-5.43-9.62-13.25,2.69-19.55-6.7-34.31-19.79-47.14-16.62-16.29-33.11-32.18-39.05-56.3-2.24-9.09-8.09-1.96-10.82,1.26-13.23,15.64-25.92,31.74-39.05,47.48-16.37,19.61-33.47,38.59-56.35,50.83-12.66,6.78-26.38,4.94-39.25.82-37.01-11.86-72.41-26.97-101.13-54.48-8.65-8.29-16.41-17.43-21.05-28.35-20.28-47.69-45.7-92.41-75.69-134.56,4.46.98,8.92,1.9,13.35,2.92,12.56,2.88,23.03.76,29.06-12.11,7.84-4.3,11.47-14.69,22.23-14.93,14.23-.32,24.4,7.52,33.39,16.9,8.17,8.52,12.79,19.37,16.2,30.65.82,10.42-2.28,19.18-11.11,25.24-17.5,12.01-19.25,30.45-20.02,49.2-.2,4.97-.91,10.07,1.49,14.94,11.02,22.28,25.86,41.48,46.7,55.14,10.86,7.12,20.09,16.91,31.06,22.79,10.98,5.89,25.03,6,37.74,8.64,14.32,2.97,26.99,1.75,39.61-7.99,26.74-20.61,52.02-42.24,67.26-73.16,5.5-11.16,12.63-20.58,24.59-23.9,7.56-2.1,12.96-7.5,20.11-9.81,3.06-.99,5.32-3.16,4.19-6.66-1.22-3.82-4.93-3.15-7.55-2.59-15.56,3.38-30.83,7.07-42.85,19.12-6.75,6.77-15.36,11.63-22.81,17.75-14.28,11.73-28.73,23.51-38.55,39.46-8.07,13.1-42.8,22.44-55.76,14.04-2.09-1.36-4.33-2.99-5.6-5.05-10.96-17.85-29.13-30.16-36.97-50.67-4.27-11.17-10.35-11.25-19.56-3.36-1.6,1.37-2.94,3.07-4.6,4.34-9.7,7.38-19.98,3.29-20.35-8.96-.44-14.44,1.63-28.48,13.27-39.31,18.15-16.88,35.04-34.85,50.45-54.46,5.71-7.27,8.73-20.04,22-19.71Zm96.21,99.07c1-.12,2-.23,3.01-.35,12.73-12.08,8.6-23.97-10.4-29.96-4-.17-5.37,1.83-4.58,5.6-.1,1.49-.2,2.97-.3,4.46-5.02,5.3-2.19,11.84-2.58,17.81-.31,4.74-1.32,11.25,5.54,11.93,5.54.55,8.73-3.79,9.31-9.48,0,0,0,0,0,0Zm-45.59-3.57c1.92,4.66-3.67,14.73,5.64,14.58,7.41-.12,3.56-9.62,4.49-14.99.36-2.05-.31-4.31.17-6.31,3.46-14.45,3.34-30.25,15.18-41.6,2.49-2.38,8.03-2.72,6.02-8.02-1.28-3.39-5.05-4.42-8.24-5.27-4.4-1.16-7.88,1.59-9.08,5.17-6.14,18.2-13.88,36.05-14.17,56.44Zm-149.83-44.33c6.28.27,12.14-.58,14.67-7.21,1.64-4.3,2.37-9.35-.92-13.2-4.71-5.49-10.04-1.29-15.06.02-2.82.74-5.79,1.43-8.26,2.88-4.01,2.34-11.81.67-11.48,7.45.31,6.52,7.46,7.02,12.44,8.72,2.71.92,5.73.93,8.61,1.35Zm296.94,108.22c-4.05-11.9-7.64-23.54-16.9-32.2-2.32-2.16-5.06-2.98-8.1-1.95-2.49.84-3.24,3.31-2,5.02,7.29,10.16,9.79,23.35,19.94,31.68,1.63,1.34,3.37,3.13,5.41,1.67,1.07-.77,1.18-2.89,1.66-4.23Zm-299.47-149.59c-.32-3.42-1.51-6.57-5.64-6.62-4.71-.05-6.28,3.37-6.35,7.53-.06,3.77-.17,8.48,4.86,8.45,5.16-.03,5.31-5.49,7.13-9.37Z"/>
        <path class="cls-1" d="m528.62,221.2c-13.27-.34-16.28,12.43-22,19.71-15.41,19.61-32.3,37.57-50.45,54.46-11.64,10.82-13.71,24.87-13.27,39.31.37,12.25,10.65,16.34,20.35,8.96,1.67-1.27,3-2.97,4.6-4.34,9.21-7.89,15.29-7.8,19.56,3.36,7.85,20.51,26.02,32.82,36.97,50.67,1.27,2.06,3.51,3.69,5.6,5.05,12.96,8.4,47.7-.94,55.76-14.04,9.82-15.95,24.27-27.73,38.55-39.46,7.45-6.12,16.06-10.98,22.81-17.75,12.02-12.05,27.28-15.74,42.85-19.12,2.62-.57,6.33-1.24,7.55,2.59,1.12,3.51-1.14,5.68-4.19,6.66-7.15,2.31-12.55,7.72-20.11,9.81-11.97,3.31-19.09,12.74-24.59,23.9-15.24,30.92-40.52,52.54-67.26,73.16-12.62,9.73-25.29,10.96-39.61,7.99-12.71-2.64-26.77-2.75-37.74-8.64-10.98-5.89-20.2-15.67-31.06-22.79-20.84-13.66-35.68-32.86-46.7-55.14-2.41-4.87-1.7-9.97-1.49-14.94.77-18.76,2.52-37.19,20.02-49.2,8.83-6.06,11.92-14.83,11.11-25.24,11.52,3.53,17.48-4.76,22.71-12.05,18.75-26.11,38.59-51.13,63.75-71.42,5.03-4.05,7.9-9.57,10.81-15.11,5.26,1.36.89,10.42,8.12,10.19-10.6,17.99-16.72,38.73-32.66,53.43Z"/>
        <path class="cls-1" d="m384.06,223.52c-6.03,12.87-16.5,14.98-29.06,12.11-4.44-1.02-8.89-1.94-13.35-2.92-9.84-9.46-12.71-22.61-18.17-34.38,3.34-2.48,6.68-4.96,10.02-7.44,8.51,7.86,17.85,15.02,25.3,23.8,7.16,8.44,14.12,13.63,25.27,8.84Z"/>
        <path d="m561.29,167.77c-7.23.23-2.87-8.83-8.12-10.19,2.33-10.56-.69-21.91,4.73-32.02,5.01-9.33,11.54-16.45,23.19-16.2,2.55.05,5.39,0,6.36,2.89,1.23,3.67-1.81,5.64-4.31,6.64-3.08,1.23-6.49,1.64-8.85,4.27-2.45,2.73-6.18,4.99-4.79,9.53,1.75,5.68,6.13,2.15,9.44,2.53,3.42.39,8.35-2.42,9.84,2.61,1.56,5.28-3.26,7.4-7.03,8.91-10.01,4.02-15.25,12.46-20.46,21.03Z"/>
        <path class="cls-1" d="m579.24,316.69c.3-20.39,8.04-38.24,14.17-56.44,1.21-3.57,4.68-6.33,9.08-5.17,3.19.84,6.96,1.88,8.24,5.27,2.01,5.3-3.53,5.64-6.02,8.02-11.84,11.35-11.73,27.15-15.18,41.6-.48,2,.19,4.26-.17,6.31-.93,5.37,2.92,14.86-4.49,14.99-9.31.16-3.71-9.91-5.64-14.58Z"/>
        <path class="cls-1" d="m429.41,272.36c-2.88-.42-5.9-.42-8.61-1.35-4.98-1.7-12.13-2.2-12.44-8.72-.33-6.78,7.47-5.11,11.48-7.45,2.47-1.45,5.44-2.14,8.26-2.88,5.01-1.31,10.35-5.51,15.06-.02,3.3,3.85,2.57,8.9.92,13.2-2.54,6.64-8.39,7.48-14.67,7.21Z"/>
        <path d="m617.45,289.95c19,5.99,23.12,17.88,10.39,29.97-1.23-1.92-2.29-2.29-3,.35,0,0,0,0,0,0-6.94.52-10.98-1.74-10.26-9.7.32-3.53,1.08-7.51-2.01-10.55.1-1.49.2-2.97.3-4.46,2.88-.75,4.49-2.55,4.59-5.6Z"/>
        <path class="cls-1" d="m612.56,300.01c3.09,3.04,2.33,7.02,2.01,10.55-.72,7.96,3.31,10.22,10.26,9.7-.58,5.69-3.77,10.03-9.31,9.48-6.86-.68-5.84-7.18-5.54-11.93.39-5.97-2.44-12.51,2.58-17.81Z"/>
        <path class="cls-1" d="m426.88,231c-1.82,3.88-1.97,9.34-7.13,9.37-5.03.03-4.92-4.69-4.86-8.45.07-4.16,1.64-7.58,6.35-7.53,4.12.04,5.32,3.19,5.64,6.62Z"/>
        <path class="cls-1" d="m617.45,289.95c-.09,3.05-1.71,4.84-4.59,5.6-.78-3.77.58-5.77,4.59-5.6Z"/>
      </g>
    </g>
    <polyline points="0 1001.39 1080 1001.39 1080 908.9 0 908.9"/>
  </g>
</svg>