<?xml version="1.0" encoding="UTF-8"?>
<svg id="Layer_1" data-name="Layer 1" xmlns="http://www.w3.org/2000/svg" viewBox="0 0 1080 1080">
  <defs>
    <style>
      .cls-1, .cls-2 {
        stroke: #000;
        stroke-miterlimit: 10;
      }

      .cls-2 {
        stroke-width: 4px;
      }
    </style>
  </defs>
  <path d="m301.72,394.5c1.13,5.89-.63,11.34-2.55,16.77-12.79,4.92-23.8,14.29-38.35,14.95-2.88.13-5.77,1.14-8.57,0-4.9-1.98-12.26-2.51-12.56-8.68-.27-5.58,6.7-6.41,11.17-8.27,7.39-3.08,14.61-5.88,18.7-13.9,2.67-5.23,7.29-7.1,13.85-4.42,5.65,2.3,12.17,2.45,18.31,3.55Z"/>
  <path d="m659.23,406.46c.66-9.9,7.72-11.54,15.62-12.45,8.48-.97,17.23-.96,24.93-5.54,3.17-.31,6.34-.62,9.51-.93.03,10.55,1.75,19.46,15.82,16.42,4.58,6.99,14.52,2.91,19.69,9.8-9.63,10.13-21.56,7.72-31.22,2.9-17.48-8.71-35.44-11.08-54.35-10.2Z"/>
  <path class="cls-2" d="m723.55,405.35c-14.07,3.05-20.48-6.1-20.52-16.65,11.81-.86,16.96,9.51,20.52,16.65Z"/>
  <g>
    <path d="m527.94,401.66c-8.86-.17-17.61.08-26.27,2.46-6.98,1.92-8.58,4.98-3.25,10.39,3.51,3.55,6.68,7.12,12.51,7.67,11.85,1.1,17.09,10.18,13.48,19.68-5.81,15.31-3.65,31.41-7.98,46.76-4.18,14.82-9.03,29.55-10.86,45.11-.66,5.58,2.61,10.78.08,16-1.02,2.1-.49,5.56-3.83,5.83-3.03.24-3.93-2.59-5.25-4.71-2.38-3.82-2.03-8.09-2.32-12.29-.26-3.75-1.98-6.84-6.14-6.54-4.12.29-3.76,4.04-3.61,6.87.73,14.03-3.2,28.58,6.29,41.6,3.3,4.53,4.27,10.95,3.64,17.07-1.64,15.86-3.13,31.74-4.87,47.59-.78,7.13-1.34,16.5-10.96,15.12-8.03-1.15-15.17-7.03-16.96-16.49-.31-1.64-.18-3.37-.17-5.06.11-19.81-.41-39.38-4.41-59.08-3.64-17.93,2.76-35.82,5.89-53.63,1.03-5.85,5.88-13.18-3.41-17.27-2.84,4.66-5.84,9.23-8.48,14-6.23,11.23-16.98,20.78-17.18,34.31-.24,16.58-2.89,32.65-8.31,47.9-10.82,30.45-16.97,63.14-41.05,87.6-8.19,8.32-14.99,18.18-21.55,27.93-14.83,22.05-13.25,47.94-15.2,72.73-1.27,16.16-3.61,30.09-21.58,35.66-6.2,1.92-9.62,7.41-4.7,12.56,13.67,14.3,12.46,33.09,16.73,50.24,1.26.78,2.5,1.58,3.73,2.4,3.91,1.43,8.24.46,12.4.46,2.94-46.03,20.04-88.31,34.88-131.13,7.18-20.72,24.11-35.86,33.69-55.39,2.1-4.29,7.2-6.82,12.69-7.78,2.01,9.91-1.18,19.35-5.34,26.87-19.11,34.58-16.53,69.57-6.29,105.89,5.32,18.88,6.98,38.45,2.66,58.44-.28,1.29-.59,2.36-.94,3.28,1.45,3.33,2.82,6.68,3.72,10.04h75.19c-2.52-10.8,7.16-9.39,12.38-12.44-7.48-2.95-15.28-4.16-23.18-5.62-20.33-3.74-42.67-14.77-40.21-43.89,1.17-13.81,4.26-27.32,5.28-41.03,2.54-34.26,13.46-66.67,25.3-98.02,15.32-40.58,26.47-81.07,25.29-124.64-.23-8.39-1.26-17.18,2.05-25.14,13.88-33.31,16.36-68.88,21.02-104.03,3.82-13.67,1.52-27.68,2.31-41.51.28-4.94-2.35-6.69-6.93-6.78Z"/>
    <path d="m504.61,904.74c-2.52-10.8,7.16-9.39,12.38-12.44,5.88-2.1,8.28,4.66,13.13,5.19-.06,2.42-.12,4.83-.18,7.25h-25.33Z"/>
    <path class="cls-1" d="m532.56,449.95c3.82-13.67,1.52-27.68,2.31-41.51.28-4.94-2.35-6.69-6.93-6.78-8.86-.17-17.61.08-26.27,2.46-6.98,1.92-8.58,4.98-3.25,10.39,3.51,3.55,6.68,7.12,12.51,7.67,11.85,1.1,17.09,10.18,13.48,19.68-5.81,15.31-3.65,31.41-7.98,46.76-4.18,14.82-9.03,29.55-10.86,45.11-.66,5.58,2.61,10.78.08,16-1.02,2.1-.49,5.56-3.83,5.83-3.03.24-3.93-2.59-5.25-4.71-2.38-3.82-2.03-8.09-2.32-12.29-.26-3.75-1.98-6.84-6.13-6.54-4.12.29-3.76,4.04-3.61,6.87.73,14.03-3.2,28.58,6.29,41.6,3.3,4.53,4.27,10.95,3.64,17.07-1.64,15.86-3.13,31.74-4.87,47.59-.78,7.13-1.34,16.5-10.96,15.12-8.03-1.15-15.17-7.03-16.96-16.49-.31-1.64-.18-3.37-.17-5.06.11-19.81-.41-39.38-4.41-59.08-3.64-17.93,2.76-35.82,5.89-53.63,1.03-5.85,5.88-13.18-3.41-17.27,9.1-22.54,3.53-43.42-7.36-63.61-3.02-5.59-5.53-11.27-6.16-17.65,14.56-2.11,7.12-12.63,6.78-19.62-.26-5.34-3.73-13.62.39-15.28,11.84-4.78,14.95-20.34,28.92-21.74,4.66-.47,8.14-4.09,11.62-7.12,28.61,10.15,58.03,17.58,88.38,16.99,39.54-.77,78.42,5.78,117.68,7.78-7.7,4.58-16.45,4.56-24.93,5.54-7.89.91-14.96,2.55-15.62,12.45-22.2,6.44-44.89,6.59-67.54,4.23-14.75-1.54-29.48-.66-44.19-1.47-5.36-.29-7.64,2.35-7.52,7.65.16,6.77.18,13.54.08,20.31-.08,5.62-.4,11.25-7.52,12.77Z"/>
    <path d="m493.73,363.71c-3.49,3.03-6.97,6.65-11.62,7.12-13.96,1.4-17.07,16.96-28.92,21.74-4.12,1.66-.65,9.94-.39,15.28.34,6.99,7.78,17.51-6.78,19.62-3.05-9.99-7.63-18.11-20.13-16.51-14.9-3.78-30.06-.43-45.05-1.72-2.37-.2-5.5.78-6.54-2.32-.97-2.88,1.79-4.38,3.38-6.22,2.68-3.1,6.19-3.74,10.13-4.21,12.04-1.42,24.05-3.14,36-5.14,5.84-.98,11.83-2.51,12.36-10.26,2.89-.53,5.82-.91,8.67-1.62,11.71-2.9,14.38-8.37,8.79-19.2-2.08-4.02-5.33-7.49-8.35-10.94-4.96-5.66-10.12-10.95-12.57-18.52-1.74-5.38-4.73-9.48-11.65-11.3-7.19-1.89-10.57-9.07-9.85-17.06.73-8.13,6.4-9.61,13.26-10.18,10.4-.86,18.31-7.79,27.17-12.29,17.4-8.84,28.31-7.29,41.16,7.54,9.19,10.61,17.16,21.96,14.45,37.38-.36,2.04-.63,4.51.18,6.27,5.47,11.94,1.28,18.74-10.82,21.88-.99.26-1.64,1.82-2.45,2.78-.32.24-.92.47-.92.71,0,.71.23,1.42.37,2.13.05,1.68.09,3.36.14,5.05Zm.75-32.54c.07-7.83-.7-13.67-7.48-12.86-7.51.91-16.95,1.66-17.46,12.25-.36,7.47,6.34,9.23,12.22,9.8,8.06.77,12.46-3.39,12.71-9.19Z"/>
    <path class="cls-1" d="m436.16,381.09c-.52,7.76-6.51,9.28-12.36,10.26-11.95,2.01-23.97,3.73-36,5.14-3.94.46-7.45,1.11-10.13,4.21-1.59,1.84-4.35,3.34-3.38,6.22,1.04,3.1,4.18,2.11,6.54,2.32,14.99,1.29,30.15-2.06,45.05,1.72-3.49,4.51-8.47,2.53-12.84,2.83-38.03,2.58-75.88-3.47-113.88-2.53,1.92-5.42,3.68-10.87,2.55-16.77,26.39,2.63,50.24-11.53,76.18-11.66,19.44-.1,38.67-7.37,58.27-1.74Z"/>
    <path d="m493.59,358.67c-.14-.71-.37-1.42-.37-2.13,0-.24.6-.47.92-.71-.19.95-.37,1.89-.55,2.84Z"/>
    <path class="cls-2" d="m494.48,331.18c-.25,5.8-4.66,9.96-12.71,9.19-5.89-.56-12.58-2.33-12.22-9.8.51-10.59,9.94-11.34,17.46-12.25,6.77-.82,7.54,5.03,7.48,12.86Z"/>
    <path d="m703.81,1001.39H0v-92.49h712.35c.81,0,1.62.1,2.39.31,5.86,1.62,29.72,10.38,30.06,45.93,0,0,0,21.9-22.88,40.3-4.74,3.81-11.29,5.95-18.12,5.95Z"/>
  </g>
</svg>