<?xml version="1.0" encoding="UTF-8"?>
<svg id="Layer_1" data-name="Layer 1" xmlns="http://www.w3.org/2000/svg" viewBox="0 0 1080 1080">
  <defs>
    <style>
      .cls-1 {
        stroke: #000;
        stroke-miterlimit: 10;
      }
    </style>
  </defs>
  <path d="m1783.81,1001.39h-703.81v-92.49h712.35c.81,0,1.62.1,2.39.31,5.86,1.62,29.72,10.38,30.06,45.93,0,0,0,21.9-22.88,40.3-4.74,3.81-11.29,5.95-18.12,5.95Z"/>
  <g>
    <g>
      <path d="m761.59,435.84c2.11-31.02,8.47-61.98,8.92-93.37.32-22.4-4.67-27.23-27.28-27.19-28.11.05-55.93,2.88-83.37,9.26-23.48,5.46-28.46,1.34-28.61-22.71-.05-8.46.52-16.98-.29-25.37-2.6-26.69.35-54.76-17.93-77.84-14.27.88-22.86,12.28-33.99,18.89-3.02,1.8-5.08,6.93-2.07,11.39,3.26,4.84,8.11,6.4,13.31,4.72,5.17-1.67,10.13-4.21,14.87-6.92,8.25-4.72,13.38-2.11,14.1,6.77,1.66,20.51,3.31,41.1,3.21,61.65-.03,7.45-2.47,14.91-.38,22.44.76,2.75.46,5.69-.73,8.28-7.17,15.58-10.5,31.85-4.35,48.42,2.75,7.41,9.77,12.4,14.33,19.04,17.11,24.97,26.52,53.78,41.25,79.81,6.28,11.1,12.13,21.96,15.14,34.34,2.5,10.28,1.59,18.89-5.41,28.17-14.35,19.03-26.79,39.51-40.3,59.2-1.91,2.78-3.1,8.3-7.93,6.6-4.73-1.66-2.31-6.43-2.21-10.01.45-16.16,8.03-28.08,19.66-39.18,15.18-14.48,19.46-33.29,12.65-53.45-3.65-10.81-12.47-18.56-19.72-27.06-23.66-27.76-47.75-55.15-71.36-82.96-5.13-6.04-.96-23.39,9.03-32.95,8.96-8.56,11.19-16.12,3.13-26.12-3.08-3.82-2.75-8.92-2.17-13.5,2.53-20.17-6.05-36.7-15.91-53.23-6.74-11.3-15.89-21.55-17.84-35.35-.11-.8-.45-1.79-1.04-2.28-16.23-13.7-5.55-22.54,6.19-29.61,15.61-9.39,16.93-27.07,25.54-40.45,2.76-8.3-1.03-15.35-5.79-21.08-7.26-8.75-14.95-17.51-23.82-24.49-13.55-10.66-33.14-9.42-45.23,2.87-9.08,9.22-16.27,20.19-27.17,27.75-6.25,4.33-6.2,10.68.28,14.37,17.59,10.05,35.59,19.41,53.64,28.61,2.87,1.46,7.39.92,7.07,5.36-.31,4.25-4.33,3.95-7.75,4.51-10.34,1.69-19.53-2.85-29.21-4.76-1.44,7.19,4.39,10.28,8.09,14.63,5.52,6.48,13.8,11.13,14.13,21.11,3.56,4.11,7.37,7.92,9.68,13.08,5.31,11.87,10.7,24.1,19.4,33.62,16.14,17.65,18.09,37.26,11.28,58.77-4.16,13.13-9.53,25.88-13.37,39.09-2.61,8.98-3.27,18.61,4.12,26.15,22.74,23.2,40.66,50.68,64.99,72.54,12.52,11.25,23.71,24.09,32.47,38.66,4.06,6.74,4.65,13.13.1,21.1-4.8,8.4-13.61,12.99-17.82,20.27-9.07,15.68-16.1,33.19-18.72,51.13-4,27.38-5.17,55.05-35.26,68.74-5.47,2.49-2.09,6.17.87,8.89,8.53,7.82,12.38,18.14,13.53,29.1,1.29,12.3,6,22.43,14.06,30.93,4.26-1.69,4.6-1.82,8.86-3.51.19-9.48-2.47-20,.6-28.43,10.87-29.8,14.58-62.31,32.57-89.43,13.2-19.89,17.61-44.36,32.96-63.1,3.34-10.34,9.78-18.98,15.33-28.1-.22-1.88-.41-3.51-.63-5.38-4.12-3.9-2.15-8.46-1.21-12.9-.05-.52-.1-1.05-.15-1.57-.01-.17-.02-.34,0-.5-.1-.85-.2-1.7-.3-2.55-3.85-1.41-3.18-4.5-2.92-7.44-.13-.4-.19-.79-.19-1.18-5.67-21.64-19.75-39.52-26.95-60.47-.33-1.69-.67-3.36-1-5.05-.09-.67-.35-1.29-.8-1.84-.6-1.12-1.2-2.23-1.8-3.36-1.47-3.81-2.94-7.62-4.41-11.42-4.49-3.51-8.17-8.57-7.07-13.69.96-4.47,6.72-5.44,11.6-4.73,1.96-.59,4.06-.9,5.85-1.82,15.23-7.84,30.86-14.74,47.3-19.57,3.15-.93,10.61-6.16,7.76,4.13-6.45,23.31-.58,45.44,4.44,68.04,4.17,18.74,8,38.04-7.28,54.99-4.21,4.67-4.52,12.08,2.81,16.35,11.49,6.7,18.15,17.23,23.61,28.9,4.07,8.71,8.59,17.47,24.2,15.02.5-.99.7-1.37,1.21-2.36-18.79-38.47-15.11-79.7-12.41-119.39Zm-213.97-289c.34-5.34,2.49-9.86,9.26-9.44,6.75.42,7.53,5.49,8.51,10.31-.88,6.1-3.47,12.18-9.56,11.48-5.11-.59-8.58-6.45-8.21-12.35Z"/>
      <path class="cls-1" d="m613.02,198.63c-14.27.88-22.86,12.28-33.99,18.89-3.02,1.8-5.08,6.93-2.07,11.39,3.26,4.84,8.11,6.4,13.31,4.72,5.17-1.67,10.13-4.21,14.87-6.92,8.25-4.72,13.38-2.11,14.1,6.77,1.66,20.51,3.31,41.1,3.21,61.65-.04,7.83-2.73,15.68-.02,23.61.87,2.55.02,4.68-1.11,7.14-7.16,15.57-10.48,31.83-4.34,48.39,2.75,7.41,9.77,12.4,14.33,19.04,17.11,24.97,26.52,53.78,41.25,79.81,6.28,11.1,12.13,21.96,15.14,34.34,2.5,10.28,1.59,18.89-5.41,28.17-14.35,19.03-26.79,39.51-40.3,59.2-1.91,2.78-3.1,8.3-7.93,6.6-4.73-1.66-2.31-6.43-2.21-10.01.45-16.16,8.03-28.08,19.66-39.18,15.18-14.48,19.46-33.29,12.65-53.45-3.65-10.81-12.47-18.56-19.72-27.06-23.66-27.76-47.75-55.15-71.36-82.96-5.13-6.04-.96-23.39,9.03-32.95,8.96-8.56,11.19-16.12,3.13-26.12-3.08-3.82-2.75-8.92-2.17-13.5,2.53-20.17-6.05-36.7-15.91-53.23-6.74-11.3-15.89-21.55-17.84-35.35-.11-.8-.45-1.79-1.04-2.28-16.23-13.7-5.55-22.54,6.19-29.61,15.61-9.39,16.93-27.07,25.54-40.45.77,1.38,2.06,2.71,2.22,4.16.4,3.65-4.9,8.35,1.45,10.79,4.73,1.82,9.09-.09,12.42-3.96,8.9-10.34,20.15-17.53,31.54-24.78,11.35-7.23,21.19-16.02,26.81-29.22,3.03-7.13,8.64-13.42,14.05-19.19,6.82-7.28,9.28-17.08,15.51-24.57.76,6.57.96,13-1.06,19.55-1.18,3.84-3.62,9.2,3.41,10.96-10.64,34.57-24.25,66.95-58.82,85.06-5.97,3.13-13.58,5.86-14.56,14.56Z"/>
      <path class="cls-1" d="m502.05,188.42c-1.44,7.19,4.39,10.28,8.09,14.63,5.52,6.48,13.8,11.13,14.13,21.11-21.35-7.45-41.62-18.31-64.08-22.14-15.61-2.66-32.12.27-47.08-6.81-14.62-6.92-30.27-10.01-45.93-13.16.04-5.31.08-10.62.12-15.93,37.07-1.27,73.76.77,109.75,10.92,9.03,2.55,16.86,7.17,25,11.38Z"/>
      <path d="m686.39,99c-7.04-1.76-4.6-7.12-3.41-10.96,2.02-6.55,1.82-12.98,1.06-19.55,0-2.32,0-4.63-.01-6.95-.27-1.05-.54-2.1-.81-3.15-2.58-8.35-6.18-16.45-6.4-25.38-.06-2.41-.66-5.36,1.98-6.84,3.29-1.83,5.43.67,7.68,2.61,3.29,2.82,5.22,8.96,11,6.37,5.69-2.54,6.29-8.71,6.84-14.05.54-5.19-.19-10.95,7.27-10.67,7.14.28,8.02,5.53,8.61,11.6,1.04,10.74-1.66,19.67-8.61,28.03-11.95,14.37-18.9,31.53-25.21,48.93Z"/>
      <path d="m367.31,166.12c-.04,5.31-.08,10.62-.12,15.93-7.49.83-14.9,1.73-22.13,4.26-20.53,7.18-33.08.49-40.7-22.52,7.03,2.43,13.02,4.56,18.23,8.73,2.74,2.19,5.07,6.15,9.54,2.89,4.35-3.18,2.18-7.42,2.15-11.45-.02-3.85-7.5-6.94-2.15-10.55,4.17-2.82,7.6,2.1,10.52,4.86,7.03,6.63,16,6.62,24.64,7.86Z"/>
      <path d="m684.61,551.76c3.34-10.34,9.78-18.99,15.34-28.12,2.5,13.55-5.25,21.48-15.34,28.12Z"/>
      <path d="m699.27,517.4c-.25-4.01-.79-8.02-1.16-12.03-.95,4.48-3,9.19,1.23,13.11-.07-.3-.05-.75-.07-1.09Z"/>
      <path d="m613.46,739.94c1.67-2.65,3.35-5.3,5.02-7.95,3.2,2.51,3.64,5.84,1.32,8.76-1.86,2.35-4.46,1.41-6.34-.82Z"/>
      <path d="m695.42,494.68c-.32-.47-.74-2.1-.88-2.56-.69,4.27-.74,7.2,3.11,8.61.01-.02-.01.02,0,0-.55-2.1-.98-4.24-2.23-6.06Z"/>
      <path d="m665.9,424.89c-.57-1-1.14-2-1.71-3,.57,1,1.14,2,1.71,3Z"/>
      <path d="m683.22,58.39c.27,1.05.54,2.1.81,3.15-.44-.67-.95-1.3-1.26-2.03-.11-.26.28-.74.45-1.12Z"/>
      <path class="cls-1" d="m565.38,147.72c-.88,6.1-3.47,12.18-9.56,11.48-5.11-.59-8.58-6.45-8.21-12.35.34-5.34,2.49-9.86,9.26-9.44,6.75.42,7.53,5.49,8.51,10.31Z"/>
    </g>
    <polyline points="0 1001.39 1080 1001.39 1080 908.9 0 908.9"/>
  </g>
</svg>