<?xml version="1.0" encoding="UTF-8"?>
<svg id="Layer_1" data-name="Layer 1" xmlns="http://www.w3.org/2000/svg" viewBox="0 0 1080 1080">
  <defs>
    <style>
      .cls-1 {
        stroke: #000;
        stroke-miterlimit: 10;
      }
    </style>
  </defs>
  <path class="cls-1" d="m594.78,406.82c-9.86-1.1-18.78,1.94-27.36,6.34-4.82,2.47-9.65,4.78-15.3,3.98-.97-.77-1.83-2.02-2.91-2.24-9.77-2.05-47.71,16.72-51.98,25.59-1.92,3.99-1.04,6.44,3.68,6.8-1.43,5.19-7.16,6.27-9.79,10.32-10.31-4.09-15.97-3.57-15.96,10.55,0,13.27-3.42,26.6-5.93,39.79-.88,4.66-1.71,10.76-8.85,10.33-6.57-.4-4.16-6.13-5.3-9.74-.63-2.01-1.2-4.07-2.05-5.99-8.94-20.15,1.67-36.81,10.07-53.49,6.31-12.53,15.63-23.09,18.89-37.68,4.79-21.44,4.65-43.65,9.85-64.64,6.48-26.17,7.91-51.71,4.67-78.29-2.41-19.76,4.62-26.46,24.02-29.5,8.35-1.31,16.61-2.7,25.04-2.16,7.51.48,9.99-2.9,8.48-9.93,13.55-2.88,24.23,5.42,34.32,11.33,12.9,7.57,24.87,17.91,29.33,33.78-10.49.93-9.72,8-5.07,13.07,10.64,11.61,15.44,25.98,20.54,40.04,7.59,20.92-2.69,40.14-7.96,59.72-14.1,1.84-21.95,12.37-30.43,22.02Zm-57.93-9.63c.35,2.19,1.17,4.88,3.71,3.95,20.11-7.34,42.63-10.74,54.48-32.12,4.61-8.32,8.43-16.6-4.79-20.92-3.17-1.04-3.68-4.42-5.53-6.62-8.28-9.8-7.38-23.44-13.34-33.64-8.12-13.92-15.49-27.9-21.06-43.01-2.48-6.73-6.76-13.99-15.42-12.32-9.03,1.74-5.51,10.14-5.71,15.91-.66,18.56,4.84,37,2.26,55.52-2.23,16.03-.1,33.36-11.18,47.22-7.34,9.18-15.27,17.86-19.48,29.14-1.02,2.72-6.63,4.82-2.3,8.09,3.71,2.8,6.29-.85,9.25-3.65,8.25-7.78,11.39-19.65,21.27-25.96,2.88,1.91,1.66,4.23.41,6.29-5.49,9.02-2.33,12.57,7.44,12.11Z"/>
  <path d="m554.05,226.85c1.5,7.03-.97,10.41-8.48,9.93-8.43-.53-16.69.85-25.04,2.16-19.4,3.04-26.43,9.74-24.02,29.5,3.24,26.57,1.81,52.12-4.67,78.29-5.2,20.99-5.06,43.2-9.85,64.64-3.26,14.59-12.58,25.16-18.89,37.68-8.4,16.68-19.01,33.34-10.07,53.49.85,1.92,1.41,3.97,2.05,5.99,1.14,3.61-1.27,9.35,5.3,9.74,7.13.43,7.96-5.67,8.85-10.33,2.5-13.19,5.93-26.52,5.93-39.79,0-14.11,5.65-14.64,15.96-10.55-1.36,19.75-7.5,38.3-15.14,56.27-6.69,15.75-5.85,32.05-6.61,48.53-.7,15.07-.47,30.14-1.31,45.17-.74,13.31.3,26.1,6.69,38.18,1.12,2.12,4,4.89,1.25,7.96-3.13,3.5-4.87-.41-7.37-1.23-14.59-4.81-20.64-16.17-23.44-30.05-1.88-9.28-7.79-15.82-14.56-21.63-5.71-4.9-8.15-11.79-2.66-16.17,18.29-14.57,12.52-34.18,11.88-52.3-.32-8.92-3.75-17.87-4.8-27.07-.79-6.95-2.73-12.29-11.43-4.59-8.83,7.81-18.99,6.38-29.45,4.37-1.51-.29-1.65-2.41-.18-2.88,12.64-3.98,18.32-17.31,28.04-24.88.97-.7,1.94-1.39,2.92-2.09,21.46-16.73,33.39-40.41,45.34-63.84,5.69-11.16,6.67-24.33,7.16-36.45,1.36-33.41,6.3-66.44,4.1-100.34-2.37-36.33,17.28-56.53,58.88-50.02,4.54.71,9.07,1.53,13.6,2.29Z"/>
  <path d="m594.78,406.82c8.48-9.65,16.33-20.17,30.43-22.02,5.27-19.59,15.56-38.8,7.96-59.72-5.1-14.06-9.91-28.43-20.54-40.04-4.65-5.07-5.42-12.14,5.07-13.07,21.99,32.93,33.43,67.6,18.64,107.1-3.36,8.97-.31,15.36,10.1,17.49,6.89,1.41,14.2,3.15,18.45,9.69,5.67,8.72,13.51,14.1,23.06,17.94,7.48,3,10.45,14.52,4.2,17.96-16.83,9.28-28.29,27.74-50.23,28.53-13.55.49-40.38-15.42-43.94-29.08-2.94-11.27-11.21-22.38-3.21-34.78Zm31.35,2.48c-5.5,1.33-10.33,1.67-14.35,3.66-6.56,3.25-8.95,9.48-9.47,16.69-.61,8.45,7.16,8.77,11.57,11.24,6.35,3.55,9.7-3.08,12.73-7.24,3.03-4.16,5.71-7.85,11-9.66,7.13-2.44,5.08-6.99.44-9.96-3.76-2.41-8.43-3.4-11.93-4.73Z"/>
  <path d="m500.91,447.29c-4.72-.37-5.6-2.82-3.68-6.8,4.27-8.87,42.21-27.65,51.98-25.59,1.08.23,1.95,1.47,2.91,2.24-14.08,10.5-31.8,14.38-45.63,25.31-1.93,1.53-3.73,3.23-5.58,4.85Z"/>
  <path d="m424.97,475.21c-.97.7-1.94,1.39-2.92,2.09.97-.7,1.94-1.39,2.92-2.09Z"/>
  <path d="m529.01,378.79c-9.88,6.31-13.03,18.19-21.27,25.96-2.96,2.79-5.54,6.45-9.25,3.65-4.33-3.27,1.29-5.36,2.3-8.09,4.21-11.28,12.14-19.96,19.48-29.14,11.08-13.86,8.96-31.2,11.18-47.22,2.57-18.52-2.92-36.96-2.26-55.52.21-5.77-3.32-14.17,5.71-15.91,8.66-1.67,12.94,5.59,15.42,12.32,5.57,15.11,12.94,29.09,21.06,43.01,5.96,10.21,5.05,23.84,13.34,33.64,1.86,2.2,2.36,5.58,5.53,6.62,13.22,4.32,9.4,12.6,4.79,20.92-11.85,21.39-34.37,24.79-54.48,32.12-2.54.93-3.36-1.76-3.71-3.95,10.8-4.43,21.78-8.46,32.33-13.43,5.72-2.69,12.92-7.62,3.06-13.2-9.06-5.13-10.8-12.89-13-21.56-2.3-9.09-1.81-19.12-9.5-29.62-7.34,21.03-14.04,40.23-20.74,59.42Z"/>
  <path d="m529.01,378.79c6.7-19.19,13.4-38.38,20.74-59.42,7.69,10.5,7.2,20.53,9.5,29.62,2.2,8.67,3.93,16.43,13,21.56,9.86,5.58,2.66,10.51-3.06,13.2-10.55,4.97-21.53,9-32.33,13.43-9.76.47-12.93-3.08-7.44-12.11,1.25-2.06,2.47-4.38-.41-6.29Z"/>
  <path class="cls-1" d="m626.13,409.29c3.5,1.33,8.16,2.32,11.93,4.73,4.64,2.97,6.68,7.52-.44,9.96-5.3,1.81-7.97,5.5-11,9.66-3.03,4.16-6.38,10.79-12.73,7.24-4.41-2.47-12.17-2.78-11.57-11.24.52-7.21,2.91-13.44,9.47-16.69,4.02-1.99,8.84-2.33,14.35-3.66Z"/>
  <polyline points="0 1001.39 1080 1001.39 1080 908.9 0 908.9"/>
</svg>