<?xml version="1.0" encoding="UTF-8"?>
<svg id="Layer_1" data-name="Layer 1" xmlns="http://www.w3.org/2000/svg" viewBox="0 0 1080 1080">
  <defs>
    <style>
      .cls-1 {
        stroke: #000;
        stroke-miterlimit: 10;
      }
    </style>
  </defs>
  <path d="m896.89,334.53c.51,3.59,3.72,4.24,6.19,5.6,6.16,3.4,5.59,7.98,1.7,12.36-3.83,4.32-7.24,9.36-13.1,11.39-7.87,2.74-13.49,7.54-16.35,15.75-2.03,5.82-5.97,10.13-13,9.79,2.19-17.93,1.92-35.92,2.06-53.94.09-12.14,6.43-15.09,17.13-9.12,5.06,2.83,10.24,5.45,15.37,8.16Z"/>
  <path class="cls-1" d="m875,766.83c-9.3-15.03-9.32-29.06-7.21-43.04,1.27-8.43,1.82-17.7,9.74-23.64,1.66-1.24,3.33-3.25,5.41-1.64,1.05.81,1.7,2.99,1.51,4.42-2.69,20.48-1.99,41.52-9.45,63.9Z"/>
  <path class="cls-1" d="m917.53,405.69c.08,3.92-.98,6.91-4.79,5.99-3.71-.9-9.07-.42-9.95-5.66-.65-3.87,2.39-6.01,6.08-6.4,4.86-.52,7.9,1.67,8.66,6.08Z"/>
  <g>
    <path d="m727.41,660.9c-30.02,27.68-65.65,48.55-94.27,77.93-16.35,16.78-34.31,32.08-46.85,52.37-10.86,17.57-23.86,33.99-32.96,52.39-7.6,15.36-18.77,29.98-18.28,48.62.11,4.3-1.27,7.71-6.18,7.75-4.86.04-6.45-3.39-6.51-7.6-.11-8.03-.35-16.08.07-24.09.69-13.36-.73-26.14-7.88-37.82-2.31-3.78-4.7-8.95,2.65-8.75,22.53.61,30.02-15.98,36.92-32.33,5.38-12.74,8.66-26.38,12.84-39.62,6.82-21.58,20.6-38.61,40.14-48.23,33.01-16.26,50.42-45.21,67.86-74.94,7.19-12.26,12.93-25.46,22.35-36.35,10.42-3.44,20.36-7.47,28.07-16.03,2.05-2.27,6.78-4.31,10.23-1.23,2.48,2.21.63,5.16-1.51,6.35-14.52,8.13-18.77,24.15-27.61,36.51-7.68,10.74-19.38,17.73-25.48,29.65-10.47,20.46-26.77,36.27-41.86,53.09-7.58,8.45-14.29,17.29-25.14,22.46-10.17,4.85-19.15,11.84-26.17,21.32-8.85,11.95-6.6,27.65-14.46,39.81-.6.92.19,3.79,1.21,4.51,2.08,1.45,3.64-.39,5.19-1.96,6.78-6.84,7-16.89,12.44-24.57,12.2-17.21,24.99-34.08,41.8-46.71,15.15-11.39,27.08-27.54,43.94-35.44,15.85-7.42,30.77-15.23,43.01-27.52,15.23-15.29,31.69-30.04,32.07-54.36.13-8.45,5.57-9.67,12.3-7.3,12.47,4.38,21.81-2.91,31.17-8.74,6.01-3.75,10.13-9.52,4.16-16.95-1.86-2.31-2.1-4.66,0-6.79,12.97-13.14,29.03-22.04,44.15-32.22.56-.38,1.65.02,2.49.06-3.58,12.53-13.93,19.54-22.62,27.92-10.55,10.18-9.95,10.34.81,19.7,24.52,21.33,48.4,43.4,72.64,65.06,3.91,3.5,4.49,7.7,4.46,12.56-.19,31.15-2.98,61.98-6.95,92.93-3.03,23.63-1.66,47.83,2.06,71.89,4.17,26.92,8.47,53.57,21.42,80.32-11.18-4.3-18.46-9.59-24.22-16.7-10.39-12.81-21.08-25.29-33.58-36.14-5.49-4.77-6.89-12.31-2.72-17.18,15.6-18.19,8.39-37.61,3.73-56.38-6.46-26.01-14.53-51.1-6.02-78.71,5.73-18.6.8-24.93-16.18-36.62-20.81-14.34-44.13-23.01-67.42-31.97-9.24-3.56-14.74-.51-18.72,7.93-1.94,4.12-4.79,7.81-7.23,11.69-6.45,6.82-12.91,13.64-19.36,20.46Zm108.75-52.96c-4.94,1.54-11.4,3.39-17.72,5.61-3.08,1.09-6.62,2.19-6.92,6.44-.36,5.09,3.83,6.29,7.21,7.53,17.35,6.34,34.77,12.49,52.25,18.46,2.41.82,5.7,3.84,7.81.02,1.79-3.25.37-6.61-2.24-9.19-7.5-7.42-14.68-15.24-22.71-22.04-4.36-3.7-9.8-6.65-17.67-6.83Zm38.84,158.89c7.46-22.38,6.76-43.42,9.45-63.9.19-1.43-.46-3.61-1.51-4.42-2.09-1.61-3.75.4-5.41,1.64-7.92,5.93-8.47,15.2-9.74,23.64-2.11,13.98-2.09,28.01,7.21,43.04Z"/>
    <path class="cls-1" d="m847.31,524.16c-.84-.04-1.93-.44-2.49-.06-15.12,10.18-31.19,19.08-44.15,32.22-2.1,2.13-1.86,4.48,0,6.79,5.96,7.43,1.85,13.2-4.16,16.95-9.36,5.83-18.7,13.12-31.17,8.74-6.73-2.36-12.17-1.15-12.3,7.3-.37,24.32-16.84,39.07-32.07,54.36-12.24,12.29-27.16,20.1-43.01,27.52-16.86,7.89-28.79,24.05-43.94,35.44-16.8,12.63-29.6,29.49-41.8,46.71-5.44,7.68-5.67,17.72-12.44,24.57-1.55,1.57-3.11,3.41-5.19,1.96-1.02-.71-1.8-3.58-1.21-4.51,7.86-12.16,5.61-27.86,14.46-39.81,7.03-9.48,16-16.48,26.17-21.32,10.85-5.17,17.56-14.01,25.14-22.46,15.09-16.82,31.39-32.64,41.86-53.09,6.1-11.92,17.79-18.91,25.48-29.65,8.85-12.36,13.1-28.37,27.61-36.51,2.14-1.2,3.99-4.14,1.51-6.35-3.45-3.08-8.19-1.04-10.23,1.23-7.71,8.56-17.65,12.59-28.07,16.03,3.88-10.17,6.94-20.75,11.79-30.43,10.37-20.7,29.29-29.29,50.8-33.06,5.69-1,11.86-1.06,16.42,4.22,1.64,1.9,3.84,3.59,6.64,2.54,3.69-1.39,3.18-4.91,2.78-7.61-1.76-11.7-2.79-23.39-2.38-35.26,1.2-35.26,32.57-78.23,65.64-88.53,7.04-2.19,8.13-9.31,13.34-12.65,7.03.35,10.97-3.97,13-9.79,2.86-8.21,8.48-13.02,16.35-15.75,5.86-2.04,9.26-7.07,13.1-11.39,3.89-4.38,4.46-8.96-1.7-12.36-2.47-1.36-5.68-2.02-6.19-5.6,3.74-.34,7.57-1.37,11.2-.9,14.59,1.91,25.66-2.56,34.56-14.92,4.99-6.94,14.14-9.94,20.22-16.62,7.11-7.81,13.61-15.38,17.4-25.64,4.9-13.27,15.38-21.74,28.5-26.82,1.25,11.89-3.38,24.22,2.65,35.75-1.92,2.15-3.46,5.52-5.83,6.28-24.66,7.89-34.46,30.84-49.32,48.56-6.44,7.68-11.92,16.18-17.83,24.3-.9-8.25-4.88-10.65-11.7-5.52-9.06,6.82-18.08,13.63-24.65,23.3-13.01,19.14-26.36,39.1-46.97,49.93-19.47,10.23-19.48,27.74-23.04,44.47-.88,4.15,1.39,10.08,6.8,10.61,4.75.46,7.15-4,7.6-8.51.5-5.01,3.16-7.32,7.8-8.56,8.39-2.23,16.68-4.87,25.01-7.34,3.83,22.88-1.69,42.15-21.13,56.33-3.38,2.46-5.89,6.17-10.83,4.91Z"/>
    <path d="m879.27,462.92c-8.33,2.47-16.61,5.11-25.01,7.34-4.64,1.23-7.3,3.54-7.8,8.56-.45,4.51-2.85,8.97-7.6,8.51-5.41-.52-7.68-6.46-6.8-10.61,3.56-16.73,3.56-34.24,23.04-44.47,20.61-10.83,33.96-30.79,46.97-49.93,6.57-9.67,15.59-16.48,24.65-23.3,6.82-5.14,10.8-2.73,11.7,5.52-5.58,9.42-3.82,20.25-5.25,30.36-2.07,14.56-12.05,23.29-20.46,33.41-1.89,2.27-4.39,1.65-6.94,1.2-20.79-3.69-26.56,1.13-26.52,22.05,0,3.79.02,7.58.02,11.37Zm38.26-57.22c-.76-4.4-3.8-6.6-8.66-6.08-3.69.4-6.74,2.53-6.08,6.4.88,5.23,6.24,4.75,9.95,5.66,3.81.93,4.87-2.07,4.79-5.99Z"/>
    <path class="cls-1" d="m836.16,607.94c7.88.19,13.31,3.13,17.67,6.83,8.03,6.81,15.21,14.62,22.71,22.04,2.61,2.59,4.04,5.94,2.24,9.19-2.11,3.82-5.4.8-7.81-.02-17.48-5.97-34.9-12.12-52.25-18.46-3.37-1.23-7.56-2.43-7.21-7.53.3-4.25,3.84-5.35,6.92-6.44,6.32-2.23,12.78-4.07,17.72-5.61Z"/>
    <path d="m376.19,908.9h703.81v92.49H367.65c-.81,0-1.62-.1-2.39-.31-5.86-1.62-29.72-10.38-30.06-45.93,0,0,0-21.9,22.88-40.3,4.74-3.81,11.29-5.95,18.12-5.95Z"/>
  </g>
</svg>